<?xml version="1.0" encoding="utf-8" standalone="no"?>
<!DOCTYPE svg PUBLIC "-//W3C//DTD SVG 1.1//EN"
  "http://www.w3.org/Graphics/SVG/1.1/DTD/svg11.dtd">
<svg height="411.36pt" version="1.1" viewBox="0 0 427.92 411.36" width="427.92pt" xmlns="http://www.w3.org/2000/svg" xmlns:xlink="http://www.w3.org/1999/xlink">
 <metadata>
  <rdf:RDF xmlns:cc="http://creativecommons.org/ns#" xmlns:dc="http://purl.org/dc/elements/1.1/" xmlns:rdf="http://www.w3.org/1999/02/22-rdf-syntax-ns#">
   <cc:Work>
    <dc:type rdf:resource="http://purl.org/dc/dcmitype/StillImage"/>
    <dc:date>2023-06-22T10:57:00.883208</dc:date>
    <dc:format>image/svg+xml</dc:format>
    <dc:creator>
     <cc:Agent>
      <dc:title>Matplotlib v3.4.3, https://matplotlib.org/</dc:title>
     </cc:Agent>
    </dc:creator>
   </cc:Work>
  </rdf:RDF>
 </metadata>
 <defs>
  <style type="text/css">*{stroke-linecap:butt;stroke-linejoin:round;}</style>
 </defs>
 <g id="figure_1">
  <g id="patch_1">
   <path d="M 0 411.36 
L 427.92 411.36 
L 427.92 0 
L 0 0 
z
" style="fill:#ffffff;"/>
  </g>
  <g id="axes_1">
   <g id="patch_2">
    <path d="M 63.42 184.5 
L 423.42 184.5 
L 423.42 4.5 
L 63.42 4.5 
z
" style="fill:#ffffff;"/>
   </g>
   <g id="matplotlib.axis_1">
    <g id="xtick_1">
     <g id="line2d_1">
      <path clip-path="url(#p83c55edac9)" d="M 80.319567 184.5 
L 80.319567 4.5 
" style="fill:none;stroke:#000000;stroke-linecap:square;stroke-opacity:0.1;stroke-width:0.6;"/>
     </g>
     <g id="line2d_2">
      <defs>
       <path d="M 0 0 
L 0 4 
" id="mef2b668d43" style="stroke:#000000;stroke-width:0.6;"/>
      </defs>
      <g>
       <use style="stroke:#000000;stroke-width:0.6;" x="80.319567" xlink:href="#mef2b668d43" y="184.5"/>
      </g>
     </g>
    </g>
    <g id="xtick_2">
     <g id="line2d_3">
      <path clip-path="url(#p83c55edac9)" d="M 158.92219 184.5 
L 158.92219 4.5 
" style="fill:none;stroke:#000000;stroke-linecap:square;stroke-opacity:0.1;stroke-width:0.6;"/>
     </g>
     <g id="line2d_4">
      <g>
       <use style="stroke:#000000;stroke-width:0.6;" x="158.92219" xlink:href="#mef2b668d43" y="184.5"/>
      </g>
     </g>
    </g>
    <g id="xtick_3">
     <g id="line2d_5">
      <path clip-path="url(#p83c55edac9)" d="M 237.524814 184.5 
L 237.524814 4.5 
" style="fill:none;stroke:#000000;stroke-linecap:square;stroke-opacity:0.1;stroke-width:0.6;"/>
     </g>
     <g id="line2d_6">
      <g>
       <use style="stroke:#000000;stroke-width:0.6;" x="237.524814" xlink:href="#mef2b668d43" y="184.5"/>
      </g>
     </g>
    </g>
    <g id="xtick_4">
     <g id="line2d_7">
      <path clip-path="url(#p83c55edac9)" d="M 316.127437 184.5 
L 316.127437 4.5 
" style="fill:none;stroke:#000000;stroke-linecap:square;stroke-opacity:0.1;stroke-width:0.6;"/>
     </g>
     <g id="line2d_8">
      <g>
       <use style="stroke:#000000;stroke-width:0.6;" x="316.127437" xlink:href="#mef2b668d43" y="184.5"/>
      </g>
     </g>
    </g>
    <g id="xtick_5">
     <g id="line2d_9">
      <path clip-path="url(#p83c55edac9)" d="M 394.73006 184.5 
L 394.73006 4.5 
" style="fill:none;stroke:#000000;stroke-linecap:square;stroke-opacity:0.1;stroke-width:0.6;"/>
     </g>
     <g id="line2d_10">
      <g>
       <use style="stroke:#000000;stroke-width:0.6;" x="394.73006" xlink:href="#mef2b668d43" y="184.5"/>
      </g>
     </g>
    </g>
    <g id="xtick_6">
     <g id="line2d_11">
      <defs>
       <path d="M 0 0 
L 0 2 
" id="mda091d412b" style="stroke:#000000;stroke-width:0.48;"/>
      </defs>
      <g>
       <use style="stroke:#000000;stroke-width:0.48;" x="99.970223" xlink:href="#mda091d412b" y="184.5"/>
      </g>
     </g>
    </g>
    <g id="xtick_7">
     <g id="line2d_12">
      <g>
       <use style="stroke:#000000;stroke-width:0.48;" x="119.620878" xlink:href="#mda091d412b" y="184.5"/>
      </g>
     </g>
    </g>
    <g id="xtick_8">
     <g id="line2d_13">
      <g>
       <use style="stroke:#000000;stroke-width:0.48;" x="139.271534" xlink:href="#mda091d412b" y="184.5"/>
      </g>
     </g>
    </g>
    <g id="xtick_9">
     <g id="line2d_14">
      <g>
       <use style="stroke:#000000;stroke-width:0.48;" x="178.572846" xlink:href="#mda091d412b" y="184.5"/>
      </g>
     </g>
    </g>
    <g id="xtick_10">
     <g id="line2d_15">
      <g>
       <use style="stroke:#000000;stroke-width:0.48;" x="198.223502" xlink:href="#mda091d412b" y="184.5"/>
      </g>
     </g>
    </g>
    <g id="xtick_11">
     <g id="line2d_16">
      <g>
       <use style="stroke:#000000;stroke-width:0.48;" x="217.874158" xlink:href="#mda091d412b" y="184.5"/>
      </g>
     </g>
    </g>
    <g id="xtick_12">
     <g id="line2d_17">
      <g>
       <use style="stroke:#000000;stroke-width:0.48;" x="257.175469" xlink:href="#mda091d412b" y="184.5"/>
      </g>
     </g>
    </g>
    <g id="xtick_13">
     <g id="line2d_18">
      <g>
       <use style="stroke:#000000;stroke-width:0.48;" x="276.826125" xlink:href="#mda091d412b" y="184.5"/>
      </g>
     </g>
    </g>
    <g id="xtick_14">
     <g id="line2d_19">
      <g>
       <use style="stroke:#000000;stroke-width:0.48;" x="296.476781" xlink:href="#mda091d412b" y="184.5"/>
      </g>
     </g>
    </g>
    <g id="xtick_15">
     <g id="line2d_20">
      <g>
       <use style="stroke:#000000;stroke-width:0.48;" x="335.778093" xlink:href="#mda091d412b" y="184.5"/>
      </g>
     </g>
    </g>
    <g id="xtick_16">
     <g id="line2d_21">
      <g>
       <use style="stroke:#000000;stroke-width:0.48;" x="355.428749" xlink:href="#mda091d412b" y="184.5"/>
      </g>
     </g>
    </g>
    <g id="xtick_17">
     <g id="line2d_22">
      <g>
       <use style="stroke:#000000;stroke-width:0.48;" x="375.079405" xlink:href="#mda091d412b" y="184.5"/>
      </g>
     </g>
    </g>
    <g id="xtick_18">
     <g id="line2d_23">
      <g>
       <use style="stroke:#000000;stroke-width:0.48;" x="414.380716" xlink:href="#mda091d412b" y="184.5"/>
      </g>
     </g>
    </g>
   </g>
   <g id="matplotlib.axis_2">
    <g id="ytick_1">
     <g id="line2d_24">
      <path clip-path="url(#p83c55edac9)" d="M 63.42 167.540171 
L 423.42 167.540171 
" style="fill:none;stroke:#000000;stroke-linecap:square;stroke-opacity:0.1;stroke-width:0.6;"/>
     </g>
     <g id="line2d_25">
      <defs>
       <path d="M 0 0 
L -4 0 
" id="m17de9e503e" style="stroke:#000000;stroke-width:0.6;"/>
      </defs>
      <g>
       <use style="stroke:#000000;stroke-width:0.6;" x="63.42" xlink:href="#m17de9e503e" y="167.540171"/>
      </g>
     </g>
     <g id="text_1">
      <text style="font-family:TeX Gyre Heros;font-size:9px;font-stretch:normal;font-style:normal;font-weight:normal;text-anchor:end;" transform="rotate(-0, 57.42, 170.820952)" x="57.42" y="170.820952">1</text>
     </g>
    </g>
    <g id="ytick_2">
     <g id="line2d_26">
      <path clip-path="url(#p83c55edac9)" d="M 63.42 100.650997 
L 423.42 100.650997 
" style="fill:none;stroke:#000000;stroke-linecap:square;stroke-opacity:0.1;stroke-width:0.6;"/>
     </g>
     <g id="line2d_27">
      <g>
       <use style="stroke:#000000;stroke-width:0.6;" x="63.42" xlink:href="#m17de9e503e" y="100.650997"/>
      </g>
     </g>
     <g id="text_2">
      <text style="font-family:TeX Gyre Heros;font-size:9px;font-stretch:normal;font-style:normal;font-weight:normal;text-anchor:end;" transform="rotate(-0, 57.42, 103.931778)" x="57.42" y="103.931778">10</text>
     </g>
    </g>
    <g id="ytick_3">
     <g id="line2d_28">
      <path clip-path="url(#p83c55edac9)" d="M 63.42 33.761823 
L 423.42 33.761823 
" style="fill:none;stroke:#000000;stroke-linecap:square;stroke-opacity:0.1;stroke-width:0.6;"/>
     </g>
     <g id="line2d_29">
      <g>
       <use style="stroke:#000000;stroke-width:0.6;" x="63.42" xlink:href="#m17de9e503e" y="33.761823"/>
      </g>
     </g>
     <g id="text_3">
      <text style="font-family:TeX Gyre Heros;font-size:9px;font-stretch:normal;font-style:normal;font-weight:normal;text-anchor:end;" transform="rotate(-0, 57.42, 37.042604)" x="57.42" y="37.042604">100</text>
     </g>
    </g>
    <g id="ytick_4">
     <g id="line2d_30">
      <defs>
       <path d="M 0 0 
L -2 0 
" id="ma5dd3e954f" style="stroke:#000000;stroke-width:0.48;"/>
      </defs>
      <g>
       <use style="stroke:#000000;stroke-width:0.48;" x="63.42" xlink:href="#ma5dd3e954f" y="182.379451"/>
      </g>
     </g>
    </g>
    <g id="ytick_5">
     <g id="line2d_31">
      <g>
       <use style="stroke:#000000;stroke-width:0.48;" x="63.42" xlink:href="#ma5dd3e954f" y="177.901435"/>
      </g>
     </g>
    </g>
    <g id="ytick_6">
     <g id="line2d_32">
      <g>
       <use style="stroke:#000000;stroke-width:0.48;" x="63.42" xlink:href="#ma5dd3e954f" y="174.022402"/>
      </g>
     </g>
    </g>
    <g id="ytick_7">
     <g id="line2d_33">
      <g>
       <use style="stroke:#000000;stroke-width:0.48;" x="63.42" xlink:href="#ma5dd3e954f" y="170.600852"/>
      </g>
     </g>
    </g>
    <g id="ytick_8">
     <g id="line2d_34">
      <g>
       <use style="stroke:#000000;stroke-width:0.48;" x="63.42" xlink:href="#ma5dd3e954f" y="147.404523"/>
      </g>
     </g>
    </g>
    <g id="ytick_9">
     <g id="line2d_35">
      <g>
       <use style="stroke:#000000;stroke-width:0.48;" x="63.42" xlink:href="#ma5dd3e954f" y="135.625924"/>
      </g>
     </g>
    </g>
    <g id="ytick_10">
     <g id="line2d_36">
      <g>
       <use style="stroke:#000000;stroke-width:0.48;" x="63.42" xlink:href="#ma5dd3e954f" y="127.268875"/>
      </g>
     </g>
    </g>
    <g id="ytick_11">
     <g id="line2d_37">
      <g>
       <use style="stroke:#000000;stroke-width:0.48;" x="63.42" xlink:href="#ma5dd3e954f" y="120.786645"/>
      </g>
     </g>
    </g>
    <g id="ytick_12">
     <g id="line2d_38">
      <g>
       <use style="stroke:#000000;stroke-width:0.48;" x="63.42" xlink:href="#ma5dd3e954f" y="115.490277"/>
      </g>
     </g>
    </g>
    <g id="ytick_13">
     <g id="line2d_39">
      <g>
       <use style="stroke:#000000;stroke-width:0.48;" x="63.42" xlink:href="#ma5dd3e954f" y="111.012261"/>
      </g>
     </g>
    </g>
    <g id="ytick_14">
     <g id="line2d_40">
      <g>
       <use style="stroke:#000000;stroke-width:0.48;" x="63.42" xlink:href="#ma5dd3e954f" y="107.133228"/>
      </g>
     </g>
    </g>
    <g id="ytick_15">
     <g id="line2d_41">
      <g>
       <use style="stroke:#000000;stroke-width:0.48;" x="63.42" xlink:href="#ma5dd3e954f" y="103.711678"/>
      </g>
     </g>
    </g>
    <g id="ytick_16">
     <g id="line2d_42">
      <g>
       <use style="stroke:#000000;stroke-width:0.48;" x="63.42" xlink:href="#ma5dd3e954f" y="80.515349"/>
      </g>
     </g>
    </g>
    <g id="ytick_17">
     <g id="line2d_43">
      <g>
       <use style="stroke:#000000;stroke-width:0.48;" x="63.42" xlink:href="#ma5dd3e954f" y="68.73675"/>
      </g>
     </g>
    </g>
    <g id="ytick_18">
     <g id="line2d_44">
      <g>
       <use style="stroke:#000000;stroke-width:0.48;" x="63.42" xlink:href="#ma5dd3e954f" y="60.379701"/>
      </g>
     </g>
    </g>
    <g id="ytick_19">
     <g id="line2d_45">
      <g>
       <use style="stroke:#000000;stroke-width:0.48;" x="63.42" xlink:href="#ma5dd3e954f" y="53.897471"/>
      </g>
     </g>
    </g>
    <g id="ytick_20">
     <g id="line2d_46">
      <g>
       <use style="stroke:#000000;stroke-width:0.48;" x="63.42" xlink:href="#ma5dd3e954f" y="48.601102"/>
      </g>
     </g>
    </g>
    <g id="ytick_21">
     <g id="line2d_47">
      <g>
       <use style="stroke:#000000;stroke-width:0.48;" x="63.42" xlink:href="#ma5dd3e954f" y="44.123087"/>
      </g>
     </g>
    </g>
    <g id="ytick_22">
     <g id="line2d_48">
      <g>
       <use style="stroke:#000000;stroke-width:0.48;" x="63.42" xlink:href="#ma5dd3e954f" y="40.244054"/>
      </g>
     </g>
    </g>
    <g id="ytick_23">
     <g id="line2d_49">
      <g>
       <use style="stroke:#000000;stroke-width:0.48;" x="63.42" xlink:href="#ma5dd3e954f" y="36.822504"/>
      </g>
     </g>
    </g>
    <g id="ytick_24">
     <g id="line2d_50">
      <g>
       <use style="stroke:#000000;stroke-width:0.48;" x="63.42" xlink:href="#ma5dd3e954f" y="13.626175"/>
      </g>
     </g>
    </g>
    <g id="text_4">
     <text style="font-family:TeX Gyre Heros;font-size:9px;font-stretch:normal;font-style:normal;font-weight:normal;text-anchor:middle;" transform="rotate(-90, 26.441094, 94.5)" x="26.441094" y="94.5"> </text>
    </g>
   </g>
   <g id="line2d_51">
    <path clip-path="url(#p83c55edac9)" d="M 63.42 176.318182 
L 64.206025 176.318182 
L 64.2088 412.36 
M 65.775312 412.36 
L 65.778086 176.318182 
L 65.78086 412.36 
M 67.347363 412.36 
L 67.350137 176.318182 
L 67.352911 412.36 
M 68.919414 412.36 
L 68.922188 176.318182 
L 71.280264 176.318182 
L 71.283038 412.36 
M 72.849305 412.36 
L 72.852315 156.182534 
L 72.855325 412.36 
M 77.958716 412.36 
L 77.96149 176.318182 
L 79.140528 176.318182 
L 79.143303 412.36 
M 80.709815 412.36 
L 80.712589 176.318182 
L 80.715363 412.36 
M 83.460894 412.36 
L 83.463669 176.318182 
L 83.466443 412.36 
M 85.42458 412.36 
L 85.428742 176.318182 
L 86.214767 144.404068 
L 87.393796 176.318182 
L 87.39657 412.36 
M 89.354148 412.36 
L 89.358869 144.404068 
L 90.144895 176.318182 
L 91.323942 176.318182 
L 91.326716 412.36 
M 93.284482 412.36 
L 93.288997 156.182534 
L 93.293511 412.36 
M 95.251295 412.36 
L 95.25407 176.318182 
L 96.433098 176.318182 
L 97.612146 156.182534 
L 98.398172 136.046985 
L 99.5772 176.318182 
L 100.756248 156.182534 
L 101.935296 115.911337 
L 103.114324 124.268355 
L 103.90035 109.429087 
L 105.079398 144.404068 
L 106.258426 129.564735 
L 107.437474 129.564735 
L 108.616503 119.790385 
L 109.79555 136.046985 
L 110.974598 144.404068 
L 112.153627 124.268355 
L 113.332675 136.046985 
L 114.511703 136.046985 
L 115.690751 129.564735 
L 116.86978 112.489775 
L 118.048827 104.132738 
L 119.620878 83.99709 
L 120.799926 86.524728 
L 121.978955 43.275402 
L 124.730053 14.394262 
L 125.909082 29.715242 
L 127.481133 34.585082 
L 128.660181 17.412101 
L 129.839228 25.545768 
L 131.411279 25.545768 
L 132.98333 29.715242 
L 134.162359 31.24957 
L 135.73441 34.585082 
L 138.485509 26.870195 
L 140.05756 29.715242 
L 141.629611 31.24957 
L 142.808658 31.24957 
L 144.380709 32.869481 
L 145.95276 32.869481 
L 147.524811 28.257902 
L 149.096862 28.257902 
L 150.668913 31.24957 
L 152.240964 29.715242 
L 153.813015 17.412101 
L 155.385066 17.412101 
L 156.957117 25.545768 
L 158.529168 18.918247 
L 160.494241 15.980207 
L 162.066292 15.980207 
L 163.638343 14.394262 
L 165.603416 20.506778 
L 167.175467 20.506778 
L 168.747518 15.980207 
L 170.712591 20.506778 
L 172.284642 17.412101 
L 174.249696 12.681818 
L 175.821747 14.394262 
L 177.78682 21.900311 
L 179.751894 26.870195 
L 181.716948 24.279099 
L 183.682021 26.870195 
L 185.647075 26.870195 
L 187.219126 24.279099 
L 191.149272 26.870195 
L 193.114327 29.715242 
L 195.0794 28.257902 
L 197.044454 21.900311 
L 199.402549 26.870195 
L 201.367604 26.870195 
L 203.332677 25.545768 
L 205.690753 25.545768 
L 207.655808 28.257902 
L 209.620881 29.715242 
L 211.978957 26.870195 
L 214.337034 28.257902 
L 216.302107 29.715242 
L 221.01826 26.870195 
L 223.376336 31.24957 
L 225.341409 34.585082 
L 227.699486 31.24957 
L 230.057562 37.608969 
L 232.415639 26.870195 
L 234.773715 25.545768 
L 237.524814 28.257902 
L 239.882909 31.24957 
L 242.240966 31.24957 
L 244.992046 28.257902 
L 247.350141 29.715242 
L 250.101221 36.174131 
L 252.459317 37.608969 
L 255.210396 36.174131 
L 257.961514 39.11838 
L 260.712593 44.492314 
L 263.463673 34.585082 
L 268.96587 31.24957 
L 271.71695 40.710536 
L 277.219147 28.257902 
L 280.363249 24.279099 
L 283.114329 26.870195 
L 286.258431 20.506778 
L 289.402533 53.109433 
L 292.15365 43.275402 
L 295.297752 71.817795 
L 298.441854 156.182534 
L 301.585956 176.318182 
L 304.730058 176.318182 
L 304.741155 412.36 
M 311.006222 412.36 
L 311.018262 156.182534 
L 311.030301 412.36 
M 317.685944 412.36 
L 317.699488 156.182534 
L 317.711527 412.36 
M 324.36823 412.36 
L 324.380714 176.318182 
L 324.393198 412.36 
M 331.050843 412.36 
L 331.06194 176.318182 
L 338.136188 176.318182 
L 338.148672 412.36 
M 345.197915 412.36 
L 345.210399 176.318182 
L 348.747523 176.318182 
L 348.760006 412.36 
M 356.200922 412.36 
L 356.214793 176.318182 
L 359.75188 176.318182 
L 359.764363 412.36 
M 382.531588 412.36 
L 382.546637 156.182534 
L 386.869806 144.404068 
L 390.799914 176.318182 
L 390.813785 412.36 
M 406.898434 412.36 
L 406.913484 156.182534 
L 406.930038 412.36 
M 415.151711 412.36 
L 415.166761 156.182534 
L 415.183315 412.36 
" style="fill:none;stroke:#0072b2;stroke-linecap:square;stroke-width:1.5;"/>
   </g>
   <g id="line2d_52">
    <path clip-path="url(#p83c55edac9)" d="M 63.42 129.564735 
L 64.206025 136.046985 
L 64.992051 176.318182 
L 65.778086 124.268355 
L 66.564111 144.404068 
L 67.350137 106.660393 
L 68.136162 115.911337 
L 68.922188 129.564735 
L 69.708213 136.046985 
L 70.494239 124.268355 
L 71.280264 109.429087 
L 72.06629 115.911337 
L 72.852315 124.268355 
L 73.638341 129.564735 
L 74.424366 115.911337 
L 75.603414 156.182534 
L 76.389439 136.046985 
L 77.175465 112.489775 
L 77.96149 106.660393 
L 79.140528 112.489775 
L 79.926554 97.650514 
L 80.712589 99.654708 
L 81.498614 99.654708 
L 82.677643 82.811224 
L 83.463669 95.775689 
L 84.249694 95.775689 
L 85.428742 78.499684 
L 86.214767 82.811224 
L 88.179822 63.560403 
L 89.358869 48.482523 
L 90.144895 43.275402 
L 91.323942 43.275402 
L 92.109968 40.710536 
L 93.288997 43.275402 
L 94.468044 39.11838 
L 95.25407 37.608969 
L 96.433098 39.11838 
L 97.612146 36.174131 
L 98.398172 39.11838 
L 99.5772 40.710536 
L 100.756248 40.710536 
L 101.935296 37.608969 
L 103.114324 36.174131 
L 103.90035 48.482523 
L 105.079398 36.174131 
L 106.258426 37.608969 
L 107.437474 51.483857 
L 108.616503 48.482523 
L 109.79555 43.275402 
L 110.974598 47.090658 
L 112.153627 56.426677 
L 113.332675 49.944446 
L 114.511703 49.944446 
L 115.690751 54.8314 
L 116.86978 51.483857 
L 118.048827 48.482523 
L 119.620878 51.483857 
L 120.799926 54.8314 
L 121.978955 40.710536 
L 123.551006 36.174131 
L 124.730053 34.585082 
L 125.909082 40.710536 
L 127.481133 42.10742 
L 128.660181 47.090658 
L 129.839228 49.944446 
L 131.411279 47.090658 
L 132.98333 51.483857 
L 134.162359 48.482523 
L 135.73441 49.944446 
L 136.913458 54.8314 
L 138.485509 45.762446 
L 140.05756 51.483857 
L 141.629611 48.482523 
L 142.808658 49.944446 
L 144.380709 54.8314 
L 145.95276 49.944446 
L 147.524811 54.8314 
L 149.096862 53.109433 
L 150.668913 53.109433 
L 152.240964 43.275402 
L 153.813015 44.492314 
L 155.385066 49.944446 
L 156.957117 49.944446 
L 158.529168 40.710536 
L 160.494241 44.492314 
L 162.066292 39.11838 
L 163.638343 43.275402 
L 165.603416 45.762446 
L 168.747518 45.762446 
L 170.712591 40.710536 
L 172.284642 45.762446 
L 174.249696 40.710536 
L 175.821747 40.710536 
L 177.78682 56.426677 
L 179.751894 53.109433 
L 181.716948 59.38342 
L 183.682021 49.944446 
L 185.647075 43.275402 
L 187.219126 47.090658 
L 189.184199 40.710536 
L 191.149272 49.944446 
L 193.114327 51.483857 
L 195.0794 47.090658 
L 197.044454 54.8314 
L 199.402549 57.867447 
L 201.367604 45.762446 
L 203.332677 45.762446 
L 207.655808 56.426677 
L 209.620881 51.483857 
L 211.978957 54.8314 
L 214.337034 54.8314 
L 216.302107 63.560403 
L 218.660183 56.426677 
L 221.01826 56.426677 
L 223.376336 51.483857 
L 225.341409 60.982889 
L 227.699486 62.386527 
L 230.057562 62.386527 
L 232.415639 59.38342 
L 234.773715 49.944446 
L 237.524814 49.944446 
L 239.882909 53.109433 
L 242.240966 51.483857 
L 244.992046 53.109433 
L 247.350141 64.783729 
L 250.101221 54.8314 
L 252.459317 56.426677 
L 255.210396 62.386527 
L 257.961514 66.060834 
L 260.712593 57.867447 
L 263.463673 56.426677 
L 266.214753 63.560403 
L 268.96587 60.982889 
L 271.71695 68.796935 
L 274.46803 56.426677 
L 277.219147 53.109433 
L 280.363249 51.483857 
L 283.114329 51.483857 
L 286.258431 59.38342 
L 289.402533 83.99709 
L 292.15365 62.386527 
L 295.297752 94.014562 
L 295.3127 412.36 
M 301.573365 412.36 
L 301.585956 144.404068 
L 301.598547 412.36 
M 307.863064 412.36 
L 307.87416 176.318182 
L 307.885257 412.36 
M 314.151267 412.36 
L 314.162364 176.318182 
L 317.699488 156.182534 
L 317.711527 412.36 
M 345.197915 412.36 
L 345.210399 176.318182 
L 348.747523 176.318182 
L 348.760006 412.36 
M 359.739396 412.36 
L 359.75188 176.318182 
L 359.764363 412.36 
M 375.065534 412.36 
L 375.079405 176.318182 
L 378.616529 176.318182 
L 378.630399 412.36 
M 390.786044 412.36 
L 390.799914 176.318182 
L 398.660207 176.318182 
L 398.675464 412.36 
M 423.404951 412.36 
L 423.42 156.182534 
L 423.42 156.182534 
" style="fill:none;stroke:#d55e00;stroke-linecap:square;stroke-width:1.5;"/>
   </g>
   <g id="patch_3">
    <path d="M 63.42 184.5 
L 63.42 4.5 
" style="fill:none;stroke:#000000;stroke-linecap:square;stroke-linejoin:miter;stroke-width:0.6;"/>
   </g>
   <g id="patch_4">
    <path d="M 423.42 184.5 
L 423.42 4.5 
" style="fill:none;stroke:#000000;stroke-linecap:square;stroke-linejoin:miter;stroke-width:0.6;"/>
   </g>
   <g id="patch_5">
    <path d="M 63.42 184.5 
L 423.42 184.5 
" style="fill:none;stroke:#000000;stroke-linecap:square;stroke-linejoin:miter;stroke-width:0.6;"/>
   </g>
   <g id="patch_6">
    <path d="M 63.42 4.5 
L 423.42 4.5 
" style="fill:none;stroke:#000000;stroke-linecap:square;stroke-linejoin:miter;stroke-width:0.6;"/>
   </g>
   <g id="text_5">
    <text style="font-family:TeX Gyre Heros;font-size:10.8px;font-stretch:normal;font-style:normal;font-weight:normal;text-anchor:start;" transform="rotate(-0, 322.62, 18.9)" x="322.62" y="18.9">Time : 02:57 - 03:03</text>
   </g>
   <g id="text_6">
    <text style="font-family:TeX Gyre Heros;font-size:10.8px;font-stretch:normal;font-style:normal;font-weight:normal;text-anchor:start;" transform="rotate(-0, 358.62, 36.9)" x="358.62" y="36.9">&lt;MLT&gt; = 17</text>
   </g>
  </g>
  <g id="axes_2">
   <g id="patch_7">
    <path d="M 63.42 364.5 
L 423.42 364.5 
L 423.42 184.5 
L 63.42 184.5 
z
" style="fill:#ffffff;"/>
   </g>
   <g id="matplotlib.axis_3">
    <g id="xtick_19">
     <g id="line2d_53">
      <path clip-path="url(#pfa448ff73d)" d="M 80.319567 364.5 
L 80.319567 184.5 
" style="fill:none;stroke:#000000;stroke-linecap:square;stroke-opacity:0.1;stroke-width:0.6;"/>
     </g>
     <g id="line2d_54">
      <g>
       <use style="stroke:#000000;stroke-width:0.6;" x="80.319567" xlink:href="#mef2b668d43" y="364.5"/>
      </g>
     </g>
     <g id="text_7">
      <text style="font-family:TeX Gyre Heros;font-size:9px;font-stretch:normal;font-style:normal;font-weight:normal;text-anchor:middle;" transform="rotate(-0, 80.319567, 377.061563)" x="80.319567" y="377.061563">4</text>
     </g>
    </g>
    <g id="xtick_20">
     <g id="line2d_55">
      <path clip-path="url(#pfa448ff73d)" d="M 158.92219 364.5 
L 158.92219 184.5 
" style="fill:none;stroke:#000000;stroke-linecap:square;stroke-opacity:0.1;stroke-width:0.6;"/>
     </g>
     <g id="line2d_56">
      <g>
       <use style="stroke:#000000;stroke-width:0.6;" x="158.92219" xlink:href="#mef2b668d43" y="364.5"/>
      </g>
     </g>
     <g id="text_8">
      <text style="font-family:TeX Gyre Heros;font-size:9px;font-stretch:normal;font-style:normal;font-weight:normal;text-anchor:middle;" transform="rotate(-0, 158.92219, 377.061563)" x="158.92219" y="377.061563">6</text>
     </g>
    </g>
    <g id="xtick_21">
     <g id="line2d_57">
      <path clip-path="url(#pfa448ff73d)" d="M 237.524814 364.5 
L 237.524814 184.5 
" style="fill:none;stroke:#000000;stroke-linecap:square;stroke-opacity:0.1;stroke-width:0.6;"/>
     </g>
     <g id="line2d_58">
      <g>
       <use style="stroke:#000000;stroke-width:0.6;" x="237.524814" xlink:href="#mef2b668d43" y="364.5"/>
      </g>
     </g>
     <g id="text_9">
      <text style="font-family:TeX Gyre Heros;font-size:9px;font-stretch:normal;font-style:normal;font-weight:normal;text-anchor:middle;" transform="rotate(-0, 237.524814, 377.061563)" x="237.524814" y="377.061563">8</text>
     </g>
    </g>
    <g id="xtick_22">
     <g id="line2d_59">
      <path clip-path="url(#pfa448ff73d)" d="M 316.127437 364.5 
L 316.127437 184.5 
" style="fill:none;stroke:#000000;stroke-linecap:square;stroke-opacity:0.1;stroke-width:0.6;"/>
     </g>
     <g id="line2d_60">
      <g>
       <use style="stroke:#000000;stroke-width:0.6;" x="316.127437" xlink:href="#mef2b668d43" y="364.5"/>
      </g>
     </g>
     <g id="text_10">
      <text style="font-family:TeX Gyre Heros;font-size:9px;font-stretch:normal;font-style:normal;font-weight:normal;text-anchor:middle;" transform="rotate(-0, 316.127437, 377.061563)" x="316.127437" y="377.061563">10</text>
     </g>
    </g>
    <g id="xtick_23">
     <g id="line2d_61">
      <path clip-path="url(#pfa448ff73d)" d="M 394.73006 364.5 
L 394.73006 184.5 
" style="fill:none;stroke:#000000;stroke-linecap:square;stroke-opacity:0.1;stroke-width:0.6;"/>
     </g>
     <g id="line2d_62">
      <g>
       <use style="stroke:#000000;stroke-width:0.6;" x="394.73006" xlink:href="#mef2b668d43" y="364.5"/>
      </g>
     </g>
     <g id="text_11">
      <text style="font-family:TeX Gyre Heros;font-size:9px;font-stretch:normal;font-style:normal;font-weight:normal;text-anchor:middle;" transform="rotate(-0, 394.73006, 377.061563)" x="394.73006" y="377.061563">12</text>
     </g>
    </g>
    <g id="xtick_24">
     <g id="line2d_63">
      <g>
       <use style="stroke:#000000;stroke-width:0.48;" x="99.970223" xlink:href="#mda091d412b" y="364.5"/>
      </g>
     </g>
    </g>
    <g id="xtick_25">
     <g id="line2d_64">
      <g>
       <use style="stroke:#000000;stroke-width:0.48;" x="119.620878" xlink:href="#mda091d412b" y="364.5"/>
      </g>
     </g>
    </g>
    <g id="xtick_26">
     <g id="line2d_65">
      <g>
       <use style="stroke:#000000;stroke-width:0.48;" x="139.271534" xlink:href="#mda091d412b" y="364.5"/>
      </g>
     </g>
    </g>
    <g id="xtick_27">
     <g id="line2d_66">
      <g>
       <use style="stroke:#000000;stroke-width:0.48;" x="178.572846" xlink:href="#mda091d412b" y="364.5"/>
      </g>
     </g>
    </g>
    <g id="xtick_28">
     <g id="line2d_67">
      <g>
       <use style="stroke:#000000;stroke-width:0.48;" x="198.223502" xlink:href="#mda091d412b" y="364.5"/>
      </g>
     </g>
    </g>
    <g id="xtick_29">
     <g id="line2d_68">
      <g>
       <use style="stroke:#000000;stroke-width:0.48;" x="217.874158" xlink:href="#mda091d412b" y="364.5"/>
      </g>
     </g>
    </g>
    <g id="xtick_30">
     <g id="line2d_69">
      <g>
       <use style="stroke:#000000;stroke-width:0.48;" x="257.175469" xlink:href="#mda091d412b" y="364.5"/>
      </g>
     </g>
    </g>
    <g id="xtick_31">
     <g id="line2d_70">
      <g>
       <use style="stroke:#000000;stroke-width:0.48;" x="276.826125" xlink:href="#mda091d412b" y="364.5"/>
      </g>
     </g>
    </g>
    <g id="xtick_32">
     <g id="line2d_71">
      <g>
       <use style="stroke:#000000;stroke-width:0.48;" x="296.476781" xlink:href="#mda091d412b" y="364.5"/>
      </g>
     </g>
    </g>
    <g id="xtick_33">
     <g id="line2d_72">
      <g>
       <use style="stroke:#000000;stroke-width:0.48;" x="335.778093" xlink:href="#mda091d412b" y="364.5"/>
      </g>
     </g>
    </g>
    <g id="xtick_34">
     <g id="line2d_73">
      <g>
       <use style="stroke:#000000;stroke-width:0.48;" x="355.428749" xlink:href="#mda091d412b" y="364.5"/>
      </g>
     </g>
    </g>
    <g id="xtick_35">
     <g id="line2d_74">
      <g>
       <use style="stroke:#000000;stroke-width:0.48;" x="375.079405" xlink:href="#mda091d412b" y="364.5"/>
      </g>
     </g>
    </g>
    <g id="xtick_36">
     <g id="line2d_75">
      <g>
       <use style="stroke:#000000;stroke-width:0.48;" x="414.380716" xlink:href="#mda091d412b" y="364.5"/>
      </g>
     </g>
    </g>
    <g id="text_12">
     <text style="font-family:TeX Gyre Heros;font-size:9px;font-stretch:normal;font-style:normal;font-weight:normal;text-anchor:middle;" transform="rotate(-0, 243.42, 389.584844)" x="243.42" y="389.584844"> </text>
    </g>
   </g>
   <g id="matplotlib.axis_4">
    <g id="ytick_25">
     <g id="line2d_76">
      <path clip-path="url(#pfa448ff73d)" d="M 63.42 331.046055 
L 423.42 331.046055 
" style="fill:none;stroke:#000000;stroke-linecap:square;stroke-opacity:0.1;stroke-width:0.6;"/>
     </g>
     <g id="line2d_77">
      <g>
       <use style="stroke:#000000;stroke-width:0.6;" x="63.42" xlink:href="#m17de9e503e" y="331.046055"/>
      </g>
     </g>
     <g id="text_13">
      <text style="font-family:TeX Gyre Heros;font-size:9px;font-stretch:normal;font-style:normal;font-weight:normal;text-anchor:end;" transform="rotate(-0, 57.42, 334.326836)" x="57.42" y="334.326836">10</text>
     </g>
    </g>
    <g id="ytick_26">
     <g id="line2d_78">
      <path clip-path="url(#pfa448ff73d)" d="M 63.42 291.119346 
L 423.42 291.119346 
" style="fill:none;stroke:#000000;stroke-linecap:square;stroke-opacity:0.1;stroke-width:0.6;"/>
     </g>
     <g id="line2d_79">
      <g>
       <use style="stroke:#000000;stroke-width:0.6;" x="63.42" xlink:href="#m17de9e503e" y="291.119346"/>
      </g>
     </g>
     <g id="text_14">
      <text style="font-family:TeX Gyre Heros;font-size:9px;font-stretch:normal;font-style:normal;font-weight:normal;text-anchor:end;" transform="rotate(-0, 57.42, 294.400127)" x="57.42" y="294.400127">100</text>
     </g>
    </g>
    <g id="ytick_27">
     <g id="line2d_80">
      <path clip-path="url(#pfa448ff73d)" d="M 63.42 251.192636 
L 423.42 251.192636 
" style="fill:none;stroke:#000000;stroke-linecap:square;stroke-opacity:0.1;stroke-width:0.6;"/>
     </g>
     <g id="line2d_81">
      <g>
       <use style="stroke:#000000;stroke-width:0.6;" x="63.42" xlink:href="#m17de9e503e" y="251.192636"/>
      </g>
     </g>
     <g id="text_15">
      <text style="font-family:TeX Gyre Heros;font-size:9px;font-stretch:normal;font-style:normal;font-weight:normal;text-anchor:end;" transform="rotate(-0, 57.42, 254.473417)" x="57.42" y="254.473417">1000</text>
     </g>
    </g>
    <g id="ytick_28">
     <g id="line2d_82">
      <path clip-path="url(#pfa448ff73d)" d="M 63.42 211.265927 
L 423.42 211.265927 
" style="fill:none;stroke:#000000;stroke-linecap:square;stroke-opacity:0.1;stroke-width:0.6;"/>
     </g>
     <g id="line2d_83">
      <g>
       <use style="stroke:#000000;stroke-width:0.6;" x="63.42" xlink:href="#m17de9e503e" y="211.265927"/>
      </g>
     </g>
     <g id="text_16">
      <text style="font-family:TeX Gyre Heros;font-size:9px;font-stretch:normal;font-style:normal;font-weight:normal;text-anchor:end;" transform="rotate(-0, 57.42, 214.546708)" x="57.42" y="214.546708">10000</text>
     </g>
    </g>
    <g id="ytick_29">
     <g id="line2d_84">
      <g>
       <use style="stroke:#000000;stroke-width:0.48;" x="63.42" xlink:href="#ma5dd3e954f" y="358.953627"/>
      </g>
     </g>
    </g>
    <g id="ytick_30">
     <g id="line2d_85">
      <g>
       <use style="stroke:#000000;stroke-width:0.48;" x="63.42" xlink:href="#ma5dd3e954f" y="351.922883"/>
      </g>
     </g>
    </g>
    <g id="ytick_31">
     <g id="line2d_86">
      <g>
       <use style="stroke:#000000;stroke-width:0.48;" x="63.42" xlink:href="#ma5dd3e954f" y="346.93449"/>
      </g>
     </g>
    </g>
    <g id="ytick_32">
     <g id="line2d_87">
      <g>
       <use style="stroke:#000000;stroke-width:0.48;" x="63.42" xlink:href="#ma5dd3e954f" y="343.065192"/>
      </g>
     </g>
    </g>
    <g id="ytick_33">
     <g id="line2d_88">
      <g>
       <use style="stroke:#000000;stroke-width:0.48;" x="63.42" xlink:href="#ma5dd3e954f" y="339.903745"/>
      </g>
     </g>
    </g>
    <g id="ytick_34">
     <g id="line2d_89">
      <g>
       <use style="stroke:#000000;stroke-width:0.48;" x="63.42" xlink:href="#ma5dd3e954f" y="337.23078"/>
      </g>
     </g>
    </g>
    <g id="ytick_35">
     <g id="line2d_90">
      <g>
       <use style="stroke:#000000;stroke-width:0.48;" x="63.42" xlink:href="#ma5dd3e954f" y="334.915353"/>
      </g>
     </g>
    </g>
    <g id="ytick_36">
     <g id="line2d_91">
      <g>
       <use style="stroke:#000000;stroke-width:0.48;" x="63.42" xlink:href="#ma5dd3e954f" y="332.873001"/>
      </g>
     </g>
    </g>
    <g id="ytick_37">
     <g id="line2d_92">
      <g>
       <use style="stroke:#000000;stroke-width:0.48;" x="63.42" xlink:href="#ma5dd3e954f" y="319.026918"/>
      </g>
     </g>
    </g>
    <g id="ytick_38">
     <g id="line2d_93">
      <g>
       <use style="stroke:#000000;stroke-width:0.48;" x="63.42" xlink:href="#ma5dd3e954f" y="311.996173"/>
      </g>
     </g>
    </g>
    <g id="ytick_39">
     <g id="line2d_94">
      <g>
       <use style="stroke:#000000;stroke-width:0.48;" x="63.42" xlink:href="#ma5dd3e954f" y="307.007781"/>
      </g>
     </g>
    </g>
    <g id="ytick_40">
     <g id="line2d_95">
      <g>
       <use style="stroke:#000000;stroke-width:0.48;" x="63.42" xlink:href="#ma5dd3e954f" y="303.138483"/>
      </g>
     </g>
    </g>
    <g id="ytick_41">
     <g id="line2d_96">
      <g>
       <use style="stroke:#000000;stroke-width:0.48;" x="63.42" xlink:href="#ma5dd3e954f" y="299.977036"/>
      </g>
     </g>
    </g>
    <g id="ytick_42">
     <g id="line2d_97">
      <g>
       <use style="stroke:#000000;stroke-width:0.48;" x="63.42" xlink:href="#ma5dd3e954f" y="297.304071"/>
      </g>
     </g>
    </g>
    <g id="ytick_43">
     <g id="line2d_98">
      <g>
       <use style="stroke:#000000;stroke-width:0.48;" x="63.42" xlink:href="#ma5dd3e954f" y="294.988643"/>
      </g>
     </g>
    </g>
    <g id="ytick_44">
     <g id="line2d_99">
      <g>
       <use style="stroke:#000000;stroke-width:0.48;" x="63.42" xlink:href="#ma5dd3e954f" y="292.946292"/>
      </g>
     </g>
    </g>
    <g id="ytick_45">
     <g id="line2d_100">
      <g>
       <use style="stroke:#000000;stroke-width:0.48;" x="63.42" xlink:href="#ma5dd3e954f" y="279.100208"/>
      </g>
     </g>
    </g>
    <g id="ytick_46">
     <g id="line2d_101">
      <g>
       <use style="stroke:#000000;stroke-width:0.48;" x="63.42" xlink:href="#ma5dd3e954f" y="272.069464"/>
      </g>
     </g>
    </g>
    <g id="ytick_47">
     <g id="line2d_102">
      <g>
       <use style="stroke:#000000;stroke-width:0.48;" x="63.42" xlink:href="#ma5dd3e954f" y="267.081071"/>
      </g>
     </g>
    </g>
    <g id="ytick_48">
     <g id="line2d_103">
      <g>
       <use style="stroke:#000000;stroke-width:0.48;" x="63.42" xlink:href="#ma5dd3e954f" y="263.211773"/>
      </g>
     </g>
    </g>
    <g id="ytick_49">
     <g id="line2d_104">
      <g>
       <use style="stroke:#000000;stroke-width:0.48;" x="63.42" xlink:href="#ma5dd3e954f" y="260.050327"/>
      </g>
     </g>
    </g>
    <g id="ytick_50">
     <g id="line2d_105">
      <g>
       <use style="stroke:#000000;stroke-width:0.48;" x="63.42" xlink:href="#ma5dd3e954f" y="257.377362"/>
      </g>
     </g>
    </g>
    <g id="ytick_51">
     <g id="line2d_106">
      <g>
       <use style="stroke:#000000;stroke-width:0.48;" x="63.42" xlink:href="#ma5dd3e954f" y="255.061934"/>
      </g>
     </g>
    </g>
    <g id="ytick_52">
     <g id="line2d_107">
      <g>
       <use style="stroke:#000000;stroke-width:0.48;" x="63.42" xlink:href="#ma5dd3e954f" y="253.019582"/>
      </g>
     </g>
    </g>
    <g id="ytick_53">
     <g id="line2d_108">
      <g>
       <use style="stroke:#000000;stroke-width:0.48;" x="63.42" xlink:href="#ma5dd3e954f" y="239.173499"/>
      </g>
     </g>
    </g>
    <g id="ytick_54">
     <g id="line2d_109">
      <g>
       <use style="stroke:#000000;stroke-width:0.48;" x="63.42" xlink:href="#ma5dd3e954f" y="232.142755"/>
      </g>
     </g>
    </g>
    <g id="ytick_55">
     <g id="line2d_110">
      <g>
       <use style="stroke:#000000;stroke-width:0.48;" x="63.42" xlink:href="#ma5dd3e954f" y="227.154362"/>
      </g>
     </g>
    </g>
    <g id="ytick_56">
     <g id="line2d_111">
      <g>
       <use style="stroke:#000000;stroke-width:0.48;" x="63.42" xlink:href="#ma5dd3e954f" y="223.285064"/>
      </g>
     </g>
    </g>
    <g id="ytick_57">
     <g id="line2d_112">
      <g>
       <use style="stroke:#000000;stroke-width:0.48;" x="63.42" xlink:href="#ma5dd3e954f" y="220.123617"/>
      </g>
     </g>
    </g>
    <g id="ytick_58">
     <g id="line2d_113">
      <g>
       <use style="stroke:#000000;stroke-width:0.48;" x="63.42" xlink:href="#ma5dd3e954f" y="217.450652"/>
      </g>
     </g>
    </g>
    <g id="ytick_59">
     <g id="line2d_114">
      <g>
       <use style="stroke:#000000;stroke-width:0.48;" x="63.42" xlink:href="#ma5dd3e954f" y="215.135225"/>
      </g>
     </g>
    </g>
    <g id="ytick_60">
     <g id="line2d_115">
      <g>
       <use style="stroke:#000000;stroke-width:0.48;" x="63.42" xlink:href="#ma5dd3e954f" y="213.092873"/>
      </g>
     </g>
    </g>
    <g id="ytick_61">
     <g id="line2d_116">
      <g>
       <use style="stroke:#000000;stroke-width:0.48;" x="63.42" xlink:href="#ma5dd3e954f" y="199.24679"/>
      </g>
     </g>
    </g>
    <g id="ytick_62">
     <g id="line2d_117">
      <g>
       <use style="stroke:#000000;stroke-width:0.48;" x="63.42" xlink:href="#ma5dd3e954f" y="192.216045"/>
      </g>
     </g>
    </g>
    <g id="ytick_63">
     <g id="line2d_118">
      <g>
       <use style="stroke:#000000;stroke-width:0.48;" x="63.42" xlink:href="#ma5dd3e954f" y="187.227653"/>
      </g>
     </g>
    </g>
    <g id="text_17">
     <text style="font-family:TeX Gyre Heros;font-size:9px;font-stretch:normal;font-style:normal;font-weight:normal;text-anchor:middle;" transform="rotate(-90, 26.441094, 274.5)" x="26.441094" y="274.5"> </text>
    </g>
   </g>
   <g id="line2d_119">
    <path clip-path="url(#pfa448ff73d)" d="M 63.42 356.318182 
L 64.206025 337.2683 
L 64.992051 332.279925 
L 65.778086 337.2683 
L 66.564111 337.2683 
L 67.350137 356.318182 
L 68.136162 337.2683 
L 68.922188 344.299045 
L 69.708213 337.2683 
L 70.494239 344.299045 
L 71.280264 356.318182 
L 72.06629 344.299045 
L 72.852315 337.2683 
L 72.853792 412.36 
M 74.422791 412.36 
L 74.424366 332.279925 
L 75.603414 344.299045 
L 76.389439 328.410624 
L 77.175465 332.279925 
L 77.96149 332.279925 
L 79.140528 344.299045 
L 79.926554 356.318182 
L 80.712589 337.2683 
L 81.498614 344.299045 
L 82.677643 332.279925 
L 83.463669 337.2683 
L 84.249694 344.299045 
L 84.251703 412.36 
M 86.213664 412.36 
L 86.214767 356.318182 
L 87.393796 332.279925 
L 88.179822 328.410624 
L 89.358869 332.279925 
L 90.144895 356.318182 
L 91.323942 337.2683 
L 92.109968 328.410624 
L 93.288997 337.2683 
L 94.468044 322.576209 
L 95.25407 328.410624 
L 96.433098 320.260779 
L 97.612146 310.557072 
L 98.398172 301.94888 
L 99.5772 297.3416 
L 100.756248 289.012072 
L 101.935296 288.311371 
L 103.114324 281.80348 
L 103.90035 281.80348 
L 105.079398 277.630169 
L 106.258426 276.903782 
L 107.437474 281.80348 
L 108.616503 279.181142 
L 109.79555 277.630169 
L 110.974598 281.80348 
L 112.153627 284.75389 
L 113.332675 282.7738 
L 114.511703 282.7738 
L 115.690751 279.181142 
L 116.86978 274.422422 
L 119.620878 274.422422 
L 120.799926 271.716459 
L 121.978955 267.939711 
L 123.551006 250.326444 
L 124.730053 212.501957 
L 125.909082 224.523262 
L 127.481133 253.522489 
L 128.660181 192.681818 
L 129.839228 194.946862 
L 131.411279 192.681818 
L 132.98333 193.40445 
L 134.162359 193.40445 
L 135.73441 194.158512 
L 136.913458 194.946862 
L 142.808658 194.946862 
L 144.380709 195.772769 
L 145.95276 194.946862 
L 147.524811 197.552875 
L 149.096862 196.639988 
L 150.668913 197.552875 
L 152.240964 199.536856 
L 153.813015 202.231901 
L 155.385066 203.178018 
L 156.957117 200.481737 
L 158.529168 199.536856 
L 160.494241 201.334747 
L 162.066292 201.334747 
L 163.638343 200.481737 
L 165.603416 203.178018 
L 167.175467 206.178402 
L 168.747518 205.424308 
L 170.712591 202.231901 
L 172.284642 200.481737 
L 174.249696 201.334747 
L 175.821747 201.334747 
L 177.78682 208.659994 
L 179.751894 208.659994 
L 181.716948 209.572927 
L 183.682021 207.792732 
L 185.647075 205.424308 
L 187.219126 208.659994 
L 189.184199 210.536611 
L 191.149272 210.536611 
L 193.114327 211.557019 
L 195.0794 215.198421 
L 197.044454 214.252237 
L 199.402549 212.501957 
L 201.367604 215.198421 
L 203.332677 215.198421 
L 205.690753 217.444886 
L 209.620881 216.028367 
L 211.978957 216.028367 
L 214.337034 215.198421 
L 218.660183 215.198421 
L 221.01826 216.028367 
L 223.376336 216.722166 
L 225.341409 216.722166 
L 227.699486 215.198421 
L 230.057562 217.444886 
L 232.415639 216.722166 
L 234.773715 219.813521 
L 237.524814 218.199044 
L 239.882909 218.9875 
L 242.240966 222.557683 
L 244.992046 223.578209 
L 247.350141 222.557683 
L 252.459317 220.680869 
L 255.210396 223.578209 
L 257.961514 224.523262 
L 260.712593 226.273772 
L 263.463673 226.273772 
L 266.214753 224.523262 
L 271.71695 224.523262 
L 274.46803 222.557683 
L 277.219147 221.593895 
L 280.363249 218.9875 
L 283.114329 218.9875 
L 286.258431 214.252237 
L 289.402533 233.616696 
L 292.15365 231.009788 
L 295.297752 226.273772 
L 298.441854 274.422422 
L 301.585956 303.526328 
L 304.730058 337.2683 
L 307.87416 325.249175 
L 311.018262 332.279925 
L 314.162364 328.410624 
L 317.699488 337.2683 
L 317.705396 412.36 
M 327.912875 412.36 
L 327.917838 356.318182 
L 331.06194 332.279925 
L 334.599064 356.318182 
L 338.136188 356.318182 
L 338.141151 412.36 
M 345.205436 412.36 
L 345.210399 356.318182 
L 345.215362 412.36 
M 359.746917 412.36 
L 359.75188 356.318182 
L 359.756842 412.36 
M 375.07271 412.36 
L 375.079405 344.299045 
L 375.08543 412.36 
M 386.86374 412.36 
L 386.869806 356.318182 
L 386.87532 412.36 
M 398.654692 412.36 
L 398.660207 356.318182 
L 398.666272 412.36 
" style="fill:none;stroke:#0072b2;stroke-linecap:square;stroke-width:1.5;"/>
   </g>
   <g id="line2d_120">
    <path clip-path="url(#pfa448ff73d)" d="M 63.42 293.015963 
L 64.206025 289.012072 
L 64.992051 286.518796 
L 65.778086 290.5046 
L 66.564111 283.801652 
L 67.350137 286.518796 
L 68.136162 288.311371 
L 68.922188 289.012072 
L 69.708213 278.388321 
L 70.494239 283.801652 
L 71.280264 282.7738 
L 72.06629 278.388321 
L 72.852315 278.388321 
L 73.638341 279.181142 
L 74.424366 278.388321 
L 75.603414 280.011958 
L 76.389439 279.181142 
L 77.175465 274.422422 
L 77.96149 272.664973 
L 79.140528 275.372793 
L 79.926554 274.422422 
L 80.712589 272.664973 
L 81.498614 274.422422 
L 82.677643 272.664973 
L 83.463669 270.692401 
L 84.249694 269.725463 
L 85.428742 273.521441 
L 86.214767 270.692401 
L 87.393796 269.725463 
L 88.179822 267.939711 
L 89.358869 265.56473 
L 90.144895 260.611053 
L 91.323942 256.762617 
L 92.109968 252.104385 
L 93.288997 253.522489 
L 94.468044 252.104385 
L 95.25407 253.522489 
L 96.433098 250.326444 
L 97.612146 246.607576 
L 98.398172 245.64316 
L 99.5772 242.246353 
L 101.935296 239.244295 
L 103.114324 238.297707 
L 103.90035 238.297707 
L 105.079398 237.400129 
L 106.258426 235.601453 
L 107.437474 234.580693 
L 108.616503 234.580693 
L 109.79555 233.616696 
L 112.153627 233.616696 
L 113.332675 231.835963 
L 114.511703 233.616696 
L 115.690751 231.835963 
L 116.86978 231.835963 
L 118.048827 231.009788 
L 119.620878 230.221192 
L 120.799926 229.466906 
L 121.978955 228.050161 
L 123.551006 223.578209 
L 124.730053 218.9875 
L 125.909082 219.813521 
L 128.660181 208.659994 
L 129.839228 209.572927 
L 132.98333 209.572927 
L 134.162359 210.536611 
L 135.73441 210.536611 
L 136.913458 211.557019 
L 138.485509 211.557019 
L 140.05756 210.536611 
L 141.629611 211.557019 
L 144.380709 211.557019 
L 145.95276 213.355023 
L 147.524811 212.501957 
L 150.668913 214.252237 
L 152.240964 219.813521 
L 153.813015 218.199044 
L 155.385066 218.199044 
L 156.957117 216.028367 
L 158.529168 216.028367 
L 160.494241 217.444886 
L 162.066292 215.198421 
L 163.638343 218.199044 
L 165.603416 221.593895 
L 167.175467 220.680869 
L 168.747518 220.680869 
L 170.712591 216.722166 
L 172.284642 217.444886 
L 174.249696 215.198421 
L 175.821747 216.028367 
L 177.78682 225.376437 
L 179.751894 225.376437 
L 181.716948 224.523262 
L 183.682021 220.680869 
L 185.647075 221.593895 
L 187.219126 225.376437 
L 189.184199 223.578209 
L 191.149272 224.523262 
L 193.114327 229.466906 
L 195.0794 228.050161 
L 197.044454 228.744068 
L 199.402549 227.220092 
L 201.367604 229.466906 
L 203.332677 230.221192 
L 205.690753 231.835963 
L 207.655808 229.466906 
L 209.620881 230.221192 
L 211.978957 231.835963 
L 214.337034 230.221192 
L 216.302107 229.466906 
L 218.660183 228.050161 
L 221.01826 228.744068 
L 223.376336 230.221192 
L 225.341409 231.009788 
L 227.699486 230.221192 
L 234.773715 232.703481 
L 237.524814 231.835963 
L 239.882909 233.616696 
L 244.992046 233.616696 
L 247.350141 235.601453 
L 250.101221 231.009788 
L 252.459317 236.546736 
L 255.210396 238.297707 
L 257.961514 239.244295 
L 260.712593 240.768738 
L 263.463673 237.400129 
L 266.214753 235.601453 
L 268.96587 235.601453 
L 271.71695 233.616696 
L 277.219147 233.616696 
L 280.363249 231.009788 
L 286.258431 231.009788 
L 289.402533 246.607576 
L 292.15365 240.768738 
L 295.297752 246.607576 
L 298.441854 282.7738 
L 301.585956 305.26177 
L 304.730058 318.218427 
L 307.87416 314.738806 
L 311.018262 313.230038 
L 314.162364 316.39148 
L 317.699488 311.842101 
L 320.84359 311.842101 
L 324.380714 304.372347 
L 327.917838 318.218427 
L 331.06194 318.218427 
L 334.599064 316.39148 
L 338.136188 313.230038 
L 341.673275 308.241642 
L 345.210399 328.410624 
L 348.747523 318.218427 
L 352.284647 306.199293 
L 356.214793 328.410624 
L 359.75188 322.576209 
L 363.289004 309.360737 
L 367.21915 313.230038 
L 371.149258 318.218427 
L 375.079405 313.230038 
L 378.616529 314.738806 
L 382.546637 310.557072 
L 386.869806 322.576209 
L 390.799914 310.557072 
L 394.73006 322.576209 
L 398.660207 320.260779 
L 402.983337 311.842101 
L 406.913484 320.260779 
L 411.236614 316.39148 
L 415.166761 318.218427 
L 419.489891 316.39148 
L 423.42 322.576209 
L 423.42 322.576209 
" style="fill:none;stroke:#d55e00;stroke-linecap:square;stroke-width:1.5;"/>
   </g>
   <g id="patch_8">
    <path d="M 63.42 364.5 
L 63.42 184.5 
" style="fill:none;stroke:#000000;stroke-linecap:square;stroke-linejoin:miter;stroke-width:0.6;"/>
   </g>
   <g id="patch_9">
    <path d="M 423.42 364.5 
L 423.42 184.5 
" style="fill:none;stroke:#000000;stroke-linecap:square;stroke-linejoin:miter;stroke-width:0.6;"/>
   </g>
   <g id="patch_10">
    <path d="M 63.42 364.5 
L 423.42 364.5 
" style="fill:none;stroke:#000000;stroke-linecap:square;stroke-linejoin:miter;stroke-width:0.6;"/>
   </g>
   <g id="patch_11">
    <path d="M 63.42 184.5 
L 423.42 184.5 
" style="fill:none;stroke:#000000;stroke-linecap:square;stroke-linejoin:miter;stroke-width:0.6;"/>
   </g>
  </g>
  <g id="text_18">
   <text style="font-family:TeX Gyre Heros;font-size:9.9px;font-stretch:normal;font-style:normal;font-weight:bold;" transform="translate(12.422109 122.84107)rotate(-90)">80 - 240 keV</text>
  </g>
  <g id="text_19">
   <text style="font-family:TeX Gyre Heros;font-size:9.9px;font-stretch:normal;font-style:normal;font-weight:bold;" transform="translate(12.422109 297.337289)rotate(-90)">30-80 keV</text>
  </g>
  <g id="text_20">
   <text style="font-family:TeX Gyre Heros;font-size:9.9px;font-stretch:normal;font-style:normal;font-weight:bold;text-anchor:middle;" transform="rotate(-0, 243.42, 403.997719)" x="243.42" y="403.997719">NOAA15</text>
  </g>
  <g id="text_21">
   <text style="font-family:TeX Gyre Heros;font-size:9px;font-stretch:normal;font-style:normal;font-weight:normal;text-anchor:middle;" transform="rotate(-0, 243.42, 389.584844)" x="243.42" y="389.584844">L-shell</text>
  </g>
  <g id="text_22">
   <!-- MEPED Proton Diff Flux ($\#/cm^2/s/str/keV$) -->
   <g transform="translate(26.422812 267.435)rotate(-90)">
    <text>
     <tspan style="font-family:TeX Gyre Heros;font-size:9px;font-style:regular;font-weight:regular;" x="0 7.496994 13.499985 19.502975 25.505966 32.003967 34.505966 40.508957 43.505951 48.509949 51.011948 56.015945 61.019943 63.521942 70.019943 72.017944 74.519943 77.021942 79.523941 85.022934 87.020935 92.024933 96.524933 99.026932 102.023926 107.027924 109.529922 114.029922 125.348231 127.850229 132.350229 134.852228 139.352228 141.854227 144.851221 147.35322 151.85322 156.857218 162.860209" y="-0.2343750000000009">MEPED Proton Diff Flux (#/cm/s/str/keV)</tspan>
     <tspan style="font-family:TeX Gyre Heros;font-size:6.3px;font-style:regular;font-weight:regular;" x="121.609495" y="-3.5375000000000005">2</tspan>
    </text>
   </g>
  </g>
 </g>
 <defs>
  <clipPath id="p83c55edac9">
   <rect height="180" width="360" x="63.42" y="4.5"/>
  </clipPath>
  <clipPath id="pfa448ff73d">
   <rect height="180" width="360" x="63.42" y="184.5"/>
  </clipPath>
 </defs>
</svg>
