<svg xmlns="http://www.w3.org/2000/svg" xmlns:xlink="http://www.w3.org/1999/xlink" version="1.1" class="marks" width="635" height="359" viewBox="0 0 635 359"><rect width="635" height="359" fill="white"/><g fill="none" stroke-miterlimit="10" transform="translate(53,22)"><g class="mark-group role-frame root" role="graphics-object" aria-roledescription="group mark container"><g transform="translate(0,0)"><path class="background" aria-hidden="true" d="M0.5,0.5h400v300h-400Z" stroke="#ddd"/><g><g class="mark-group role-axis" aria-hidden="true"><g transform="translate(0.5,300.5)"><path class="background" aria-hidden="true" d="M0,0h0v0h0Z" pointer-events="none"/><g><g class="mark-rule role-axis-grid" pointer-events="none"><line transform="translate(0,-300)" x2="0" y2="300" stroke="#ddd" stroke-width="1" opacity="1"/><line transform="translate(29,-300)" x2="0" y2="300" stroke="#ddd" stroke-width="1" opacity="1"/><line transform="translate(57,-300)" x2="0" y2="300" stroke="#ddd" stroke-width="1" opacity="1"/><line transform="translate(86,-300)" x2="0" y2="300" stroke="#ddd" stroke-width="1" opacity="1"/><line transform="translate(114,-300)" x2="0" y2="300" stroke="#ddd" stroke-width="1" opacity="1"/><line transform="translate(143,-300)" x2="0" y2="300" stroke="#ddd" stroke-width="1" opacity="1"/><line transform="translate(171,-300)" x2="0" y2="300" stroke="#ddd" stroke-width="1" opacity="1"/><line transform="translate(200,-300)" x2="0" y2="300" stroke="#ddd" stroke-width="1" opacity="1"/><line transform="translate(229,-300)" x2="0" y2="300" stroke="#ddd" stroke-width="1" opacity="1"/><line transform="translate(257,-300)" x2="0" y2="300" stroke="#ddd" stroke-width="1" opacity="1"/><line transform="translate(286,-300)" x2="0" y2="300" stroke="#ddd" stroke-width="1" opacity="1"/><line transform="translate(314,-300)" x2="0" y2="300" stroke="#ddd" stroke-width="1" opacity="1"/><line transform="translate(343,-300)" x2="0" y2="300" stroke="#ddd" stroke-width="1" opacity="1"/><line transform="translate(371,-300)" x2="0" y2="300" stroke="#ddd" stroke-width="1" opacity="1"/><line transform="translate(400,-300)" x2="0" y2="300" stroke="#ddd" stroke-width="1" opacity="1"/></g></g><path class="foreground" aria-hidden="true" d="" pointer-events="none" display="none"/></g></g><g class="mark-group role-axis" aria-hidden="true"><g transform="translate(0.5,0.5)"><path class="background" aria-hidden="true" d="M0,0h0v0h0Z" pointer-events="none"/><g><g class="mark-rule role-axis-grid" pointer-events="none"><line transform="translate(0,300)" x2="400" y2="0" stroke="#ddd" stroke-width="1" opacity="1"/><line transform="translate(0,246)" x2="400" y2="0" stroke="#ddd" stroke-width="1" opacity="1"/><line transform="translate(0,193)" x2="400" y2="0" stroke="#ddd" stroke-width="1" opacity="1"/><line transform="translate(0,139)" x2="400" y2="0" stroke="#ddd" stroke-width="1" opacity="1"/><line transform="translate(0,86)" x2="400" y2="0" stroke="#ddd" stroke-width="1" opacity="1"/><line transform="translate(0,32)" x2="400" y2="0" stroke="#ddd" stroke-width="1" opacity="1"/></g></g><path class="foreground" aria-hidden="true" d="" pointer-events="none" display="none"/></g></g><g class="mark-group role-axis" role="graphics-symbol" aria-roledescription="axis" aria-label="X-axis titled 'Energy [keV]' for a linear scale with values from 400 to 3,200"><g transform="translate(0.5,300.5)"><path class="background" aria-hidden="true" d="M0,0h0v0h0Z" pointer-events="none"/><g><g class="mark-rule role-axis-tick" pointer-events="none"><line transform="translate(0,0)" x2="0" y2="5" stroke="#888" stroke-width="1" opacity="1"/><line transform="translate(29,0)" x2="0" y2="5" stroke="#888" stroke-width="1" opacity="1"/><line transform="translate(57,0)" x2="0" y2="5" stroke="#888" stroke-width="1" opacity="1"/><line transform="translate(86,0)" x2="0" y2="5" stroke="#888" stroke-width="1" opacity="1"/><line transform="translate(114,0)" x2="0" y2="5" stroke="#888" stroke-width="1" opacity="1"/><line transform="translate(143,0)" x2="0" y2="5" stroke="#888" stroke-width="1" opacity="1"/><line transform="translate(171,0)" x2="0" y2="5" stroke="#888" stroke-width="1" opacity="1"/><line transform="translate(200,0)" x2="0" y2="5" stroke="#888" stroke-width="1" opacity="1"/><line transform="translate(229,0)" x2="0" y2="5" stroke="#888" stroke-width="1" opacity="1"/><line transform="translate(257,0)" x2="0" y2="5" stroke="#888" stroke-width="1" opacity="1"/><line transform="translate(286,0)" x2="0" y2="5" stroke="#888" stroke-width="1" opacity="1"/><line transform="translate(314,0)" x2="0" y2="5" stroke="#888" stroke-width="1" opacity="1"/><line transform="translate(343,0)" x2="0" y2="5" stroke="#888" stroke-width="1" opacity="1"/><line transform="translate(371,0)" x2="0" y2="5" stroke="#888" stroke-width="1" opacity="1"/><line transform="translate(400,0)" x2="0" y2="5" stroke="#888" stroke-width="1" opacity="1"/></g><g class="mark-text role-axis-label" pointer-events="none"><text text-anchor="start" transform="translate(0,15)" font-family="sans-serif" font-size="10px" fill="#000" opacity="1">400</text><text text-anchor="middle" transform="translate(28.57142857142857,15)" font-family="sans-serif" font-size="10px" fill="#000" opacity="0">600</text><text text-anchor="middle" transform="translate(57.14285714285714,15)" font-family="sans-serif" font-size="10px" fill="#000" opacity="1">800</text><text text-anchor="middle" transform="translate(85.71428571428571,15)" font-family="sans-serif" font-size="10px" fill="#000" opacity="0">1,000</text><text text-anchor="middle" transform="translate(114.28571428571428,15)" font-family="sans-serif" font-size="10px" fill="#000" opacity="1">1,200</text><text text-anchor="middle" transform="translate(142.85714285714286,15)" font-family="sans-serif" font-size="10px" fill="#000" opacity="0">1,400</text><text text-anchor="middle" transform="translate(171.42857142857142,15)" font-family="sans-serif" font-size="10px" fill="#000" opacity="1">1,600</text><text text-anchor="middle" transform="translate(200,15)" font-family="sans-serif" font-size="10px" fill="#000" opacity="0">1,800</text><text text-anchor="middle" transform="translate(228.57142857142856,15)" font-family="sans-serif" font-size="10px" fill="#000" opacity="1">2,000</text><text text-anchor="middle" transform="translate(257.14285714285717,15)" font-family="sans-serif" font-size="10px" fill="#000" opacity="0">2,200</text><text text-anchor="middle" transform="translate(285.7142857142857,15)" font-family="sans-serif" font-size="10px" fill="#000" opacity="1">2,400</text><text text-anchor="middle" transform="translate(314.2857142857143,15)" font-family="sans-serif" font-size="10px" fill="#000" opacity="0">2,600</text><text text-anchor="middle" transform="translate(342.85714285714283,15)" font-family="sans-serif" font-size="10px" fill="#000" opacity="1">2,800</text><text text-anchor="middle" transform="translate(371.42857142857144,15)" font-family="sans-serif" font-size="10px" fill="#000" opacity="0">3,000</text><text text-anchor="end" transform="translate(400,15)" font-family="sans-serif" font-size="10px" fill="#000" opacity="1">3,200</text></g><g class="mark-rule role-axis-domain" pointer-events="none"><line transform="translate(0,0)" x2="400" y2="0" stroke="#888" stroke-width="1" opacity="1"/></g><g class="mark-text role-axis-title" pointer-events="none"><text text-anchor="middle" transform="translate(200,30)" font-family="sans-serif" font-size="11px" font-weight="bold" fill="#000" opacity="1">Energy [keV]</text></g></g><path class="foreground" aria-hidden="true" d="" pointer-events="none" display="none"/></g></g><g class="mark-group role-axis" role="graphics-symbol" aria-roledescription="axis" aria-label="Y-axis titled 'e- Omni Nflux [1/keV-sr-s-cm2]' for a linear scale with values from 0 to 2,800"><g transform="translate(0.5,0.5)"><path class="background" aria-hidden="true" d="M0,0h0v0h0Z" pointer-events="none"/><g><g class="mark-rule role-axis-tick" pointer-events="none"><line transform="translate(0,300)" x2="-5" y2="0" stroke="#888" stroke-width="1" opacity="1"/><line transform="translate(0,246)" x2="-5" y2="0" stroke="#888" stroke-width="1" opacity="1"/><line transform="translate(0,193)" x2="-5" y2="0" stroke="#888" stroke-width="1" opacity="1"/><line transform="translate(0,139)" x2="-5" y2="0" stroke="#888" stroke-width="1" opacity="1"/><line transform="translate(0,86)" x2="-5" y2="0" stroke="#888" stroke-width="1" opacity="1"/><line transform="translate(0,32)" x2="-5" y2="0" stroke="#888" stroke-width="1" opacity="1"/></g><g class="mark-text role-axis-label" pointer-events="none"><text text-anchor="end" transform="translate(-7,303)" font-family="sans-serif" font-size="10px" fill="#000" opacity="1">0</text><text text-anchor="end" transform="translate(-7,249.42857142857142)" font-family="sans-serif" font-size="10px" fill="#000" opacity="1">500</text><text text-anchor="end" transform="translate(-7,195.85714285714283)" font-family="sans-serif" font-size="10px" fill="#000" opacity="1">1,000</text><text text-anchor="end" transform="translate(-7,142.28571428571428)" font-family="sans-serif" font-size="10px" fill="#000" opacity="1">1,500</text><text text-anchor="end" transform="translate(-7,88.71428571428571)" font-family="sans-serif" font-size="10px" fill="#000" opacity="1">2,000</text><text text-anchor="end" transform="translate(-7,35.14285714285713)" font-family="sans-serif" font-size="10px" fill="#000" opacity="1">2,500</text></g><g class="mark-rule role-axis-domain" pointer-events="none"><line transform="translate(0,300)" x2="0" y2="-300" stroke="#888" stroke-width="1" opacity="1"/></g><g class="mark-text role-axis-title" pointer-events="none"><text text-anchor="middle" transform="translate(-36.0244140625,150) rotate(-90) translate(0,-2)" font-family="sans-serif" font-size="11px" font-weight="bold" fill="#000" opacity="1">e- Omni Nflux [1/keV-sr-s-cm2]</text></g></g><path class="foreground" aria-hidden="true" d="" pointer-events="none" display="none"/></g></g><g class="mark-group role-scope layer_0_pathgroup" role="graphics-object" aria-roledescription="group mark container"><g transform="translate(0,0)"><path class="background" aria-hidden="true" d="M0,0h400v300h-400Z"/><g><g class="mark-line role-mark layer_0_marks" role="graphics-object" aria-roledescription="line mark container"><path aria-label="trange: 2021-04-16T07, 2021-04-16T08; Energy [keV]: 546.543; e- Omni Nflux [1/keV-sr-s-cm2]: 47.4034485277" role="graphics-symbol" aria-roledescription="line mark" d="M20.935,294.921L41.731,296.729L70.438,298.082L99.012,298.89L134.302,299.464L177.328,299.758L226.802,299.891L297.127,299.96L389.852,299.99" stroke="#4c78a8" stroke-width="2"/></g></g><path class="foreground" aria-hidden="true" d="" display="none"/></g><g transform="translate(0,0)"><path class="background" aria-hidden="true" d="M0,0h400v300h-400Z"/><g><g class="mark-line role-mark layer_0_marks" role="graphics-object" aria-roledescription="line mark container"><path aria-label="trange: 2021-04-16T12, 2021-04-16T13; Energy [keV]: 546.543; e- Omni Nflux [1/keV-sr-s-cm2]: 105.915350733" role="graphics-symbol" aria-roledescription="line mark" d="M20.935,288.652L41.731,294.548L70.438,298.121L99.012,299.267L134.302,299.749L177.328,299.919L226.802,299.968L297.127,299.983L389.852,299.994" stroke="#f58518" stroke-width="2"/></g></g><path class="foreground" aria-hidden="true" d="" display="none"/></g><g transform="translate(0,0)"><path class="background" aria-hidden="true" d="M0,0h400v300h-400Z"/><g><g class="mark-line role-mark layer_0_marks" role="graphics-object" aria-roledescription="line mark container"><path aria-label="trange: 2021-04-17T02, 2021-04-17T03; Energy [keV]: 546.543; e- Omni Nflux [1/keV-sr-s-cm2]: 1070.63114482" role="graphics-symbol" aria-roledescription="line mark" d="M20.935,185.29L41.731,240.492L70.438,278.131L99.012,291.888L134.302,297.602L177.328,299.445L226.802,299.882L297.127,299.973L389.852,299.992" stroke="#e45756" stroke-width="2"/></g></g><path class="foreground" aria-hidden="true" d="" display="none"/></g><g transform="translate(0,0)"><path class="background" aria-hidden="true" d="M0,0h400v300h-400Z"/><g><g class="mark-line role-mark layer_0_marks" role="graphics-object" aria-roledescription="line mark container"><path aria-label="trange: 2021-04-17T11, 2021-04-17T12; Energy [keV]: 546.543; e- Omni Nflux [1/keV-sr-s-cm2]: 2704.14890706" role="graphics-symbol" aria-roledescription="line mark" d="M20.935,10.27L41.731,116.164L70.438,204.794L99.012,249.662L134.302,276.773L177.328,290.721L226.802,296.857L297.127,299.351L389.852,299.935" stroke="#72b7b2" stroke-width="2"/></g></g><path class="foreground" aria-hidden="true" d="" display="none"/></g><g transform="translate(0,0)"><path class="background" aria-hidden="true" d="M0,0h400v300h-400Z"/><g><g class="mark-line role-mark layer_0_marks" role="graphics-object" aria-roledescription="line mark container"><path aria-label="trange: 2021-04-17T17, 2021-04-17T17; Energy [keV]: 546.543; e- Omni Nflux [1/keV-sr-s-cm2]: 1508.34193793" role="graphics-symbol" aria-roledescription="line mark" d="M20.935,138.392L41.731,190.109L70.438,241.018L99.012,270.133L134.302,287.839L177.328,295.997L226.802,298.902L297.127,299.82L389.852,299.983" stroke="#54a24b" stroke-width="2"/></g></g><path class="foreground" aria-hidden="true" d="" display="none"/></g><g transform="translate(0,0)"><path class="background" aria-hidden="true" d="M0,0h400v300h-400Z"/><g><g class="mark-line role-mark layer_0_marks" role="graphics-object" aria-roledescription="line mark container"><path aria-label="trange: 2021-04-17T20, 2021-04-17T21; Energy [keV]: 546.543; e- Omni Nflux [1/keV-sr-s-cm2]: 2456.32247925" role="graphics-symbol" aria-roledescription="line mark" d="M20.935,36.823L41.731,103.185L70.438,175.162L99.012,224.168L134.302,261.473L177.328,283.804L226.802,294.424L297.127,298.826L389.852,299.876" stroke="#eeca3b" stroke-width="2"/></g></g><path class="foreground" aria-hidden="true" d="" display="none"/></g></g><g class="mark-symbol role-mark layer_1_marks" role="graphics-object" aria-roledescription="symbol mark container"><path aria-label="trange: 2021-04-16T07, 2021-04-16T08; Energy [keV]: 546.543; e- Omni Nflux [1/keV-sr-s-cm2]: 47.4034485277" role="graphics-symbol" aria-roledescription="point" transform="translate(20.934714285714286,294.9210590863187)" d="M2.739,0A2.739,2.739,0,1,1,-2.739,0A2.739,2.739,0,1,1,2.739,0" fill="#4c78a8" stroke-width="2" opacity="1"/><path aria-label="trange: 2021-04-16T07, 2021-04-16T08; Energy [keV]: 692.118; e- Omni Nflux [1/keV-sr-s-cm2]: 30.533623376" role="graphics-symbol" aria-roledescription="point" transform="translate(41.73114285714286,296.7285403525768)" d="M2.739,0A2.739,2.739,0,1,1,-2.739,0A2.739,2.739,0,1,1,2.739,0" fill="#4c78a8" stroke-width="2" opacity="1"/><path aria-label="trange: 2021-04-16T07, 2021-04-16T08; Energy [keV]: 893.067; e- Omni Nflux [1/keV-sr-s-cm2]: 17.9015441573" role="graphics-symbol" aria-roledescription="point" transform="translate(70.43814285714286,298.0819774117199)" d="M2.739,0A2.739,2.739,0,1,1,-2.739,0A2.739,2.739,0,1,1,2.739,0" fill="#4c78a8" stroke-width="2" opacity="1"/><path aria-label="trange: 2021-04-16T07, 2021-04-16T08; Energy [keV]: 1093.086; e- Omni Nflux [1/keV-sr-s-cm2]: 10.3641064902" role="graphics-symbol" aria-roledescription="point" transform="translate(99.01228571428572,298.889560018903)" d="M2.739,0A2.739,2.739,0,1,1,-2.739,0A2.739,2.739,0,1,1,2.739,0" fill="#4c78a8" stroke-width="2" opacity="1"/><path aria-label="trange: 2021-04-16T07, 2021-04-16T08; Energy [keV]: 1340.111; e- Omni Nflux [1/keV-sr-s-cm2]: 5.00287741207" role="graphics-symbol" aria-roledescription="point" transform="translate(134.30157142857144,299.46397742013517)" d="M2.739,0A2.739,2.739,0,1,1,-2.739,0A2.739,2.739,0,1,1,2.739,0" fill="#4c78a8" stroke-width="2" opacity="1"/><path aria-label="trange: 2021-04-16T07, 2021-04-16T08; Energy [keV]: 1641.294; e- Omni Nflux [1/keV-sr-s-cm2]: 2.26210713185" role="graphics-symbol" aria-roledescription="point" transform="translate(177.3277142857143,299.75763137872985)" d="M2.739,0A2.739,2.739,0,1,1,-2.739,0A2.739,2.739,0,1,1,2.739,0" fill="#4c78a8" stroke-width="2" opacity="1"/><path aria-label="trange: 2021-04-16T07, 2021-04-16T08; Energy [keV]: 1987.614; e- Omni Nflux [1/keV-sr-s-cm2]: 1.0176915614" role="graphics-symbol" aria-roledescription="point" transform="translate(226.802,299.8909616184214)" d="M2.739,0A2.739,2.739,0,1,1,-2.739,0A2.739,2.739,0,1,1,2.739,0" fill="#4c78a8" stroke-width="2" opacity="1"/><path aria-label="trange: 2021-04-16T07, 2021-04-16T08; Energy [keV]: 2479.889; e- Omni Nflux [1/keV-sr-s-cm2]: 0.373153984412" role="graphics-symbol" aria-roledescription="point" transform="translate(297.127,299.96001921595587)" d="M2.739,0A2.739,2.739,0,1,1,-2.739,0A2.739,2.739,0,1,1,2.739,0" fill="#4c78a8" stroke-width="2" opacity="1"/><path aria-label="trange: 2021-04-16T07, 2021-04-16T08; Energy [keV]: 3128.965; e- Omni Nflux [1/keV-sr-s-cm2]: 0.0903983282441" role="graphics-symbol" aria-roledescription="point" transform="translate(389.8521428571429,299.990314464831)" d="M2.739,0A2.739,2.739,0,1,1,-2.739,0A2.739,2.739,0,1,1,2.739,0" fill="#4c78a8" stroke-width="2" opacity="1"/><path aria-label="trange: 2021-04-16T12, 2021-04-16T13; Energy [keV]: 546.543; e- Omni Nflux [1/keV-sr-s-cm2]: 105.915350733" role="graphics-symbol" aria-roledescription="point" transform="translate(20.934714285714286,288.6519267072081)" d="M2.739,0A2.739,2.739,0,1,1,-2.739,0A2.739,2.739,0,1,1,2.739,0" fill="#f58518" stroke-width="2" opacity="1"/><path aria-label="trange: 2021-04-16T12, 2021-04-16T13; Energy [keV]: 692.118; e- Omni Nflux [1/keV-sr-s-cm2]: 50.8811190582" role="graphics-symbol" aria-roledescription="point" transform="translate(41.73114285714286,294.5484515294837)" d="M2.739,0A2.739,2.739,0,1,1,-2.739,0A2.739,2.739,0,1,1,2.739,0" fill="#f58518" stroke-width="2" opacity="1"/><path aria-label="trange: 2021-04-16T12, 2021-04-16T13; Energy [keV]: 893.067; e- Omni Nflux [1/keV-sr-s-cm2]: 17.5372578881" role="graphics-symbol" aria-roledescription="point" transform="translate(70.43814285714286,298.1210080834178)" d="M2.739,0A2.739,2.739,0,1,1,-2.739,0A2.739,2.739,0,1,1,2.739,0" fill="#f58518" stroke-width="2" opacity="1"/><path aria-label="trange: 2021-04-16T12, 2021-04-16T13; Energy [keV]: 1093.086; e- Omni Nflux [1/keV-sr-s-cm2]: 6.84375986383" role="graphics-symbol" aria-roledescription="point" transform="translate(99.01228571428572,299.2667400145897)" d="M2.739,0A2.739,2.739,0,1,1,-2.739,0A2.739,2.739,0,1,1,2.739,0" fill="#f58518" stroke-width="2" opacity="1"/><path aria-label="trange: 2021-04-16T12, 2021-04-16T13; Energy [keV]: 1340.111; e- Omni Nflux [1/keV-sr-s-cm2]: 2.34418812074" role="graphics-symbol" aria-roledescription="point" transform="translate(134.30157142857144,299.7488369870636)" d="M2.739,0A2.739,2.739,0,1,1,-2.739,0A2.739,2.739,0,1,1,2.739,0" fill="#f58518" stroke-width="2" opacity="1"/><path aria-label="trange: 2021-04-16T12, 2021-04-16T13; Energy [keV]: 1641.294; e- Omni Nflux [1/keV-sr-s-cm2]: 0.756503799484" role="graphics-symbol" aria-roledescription="point" transform="translate(177.3277142857143,299.91894602148386)" d="M2.739,0A2.739,2.739,0,1,1,-2.739,0A2.739,2.739,0,1,1,2.739,0" fill="#f58518" stroke-width="2" opacity="1"/><path aria-label="trange: 2021-04-16T12, 2021-04-16T13; Energy [keV]: 1987.614; e- Omni Nflux [1/keV-sr-s-cm2]: 0.300368167214" role="graphics-symbol" aria-roledescription="point" transform="translate(226.802,299.96781769637)" d="M2.739,0A2.739,2.739,0,1,1,-2.739,0A2.739,2.739,0,1,1,2.739,0" fill="#f58518" stroke-width="2" opacity="1"/><path aria-label="trange: 2021-04-16T12, 2021-04-16T13; Energy [keV]: 2479.889; e- Omni Nflux [1/keV-sr-s-cm2]: 0.156471461443" role="graphics-symbol" aria-roledescription="point" transform="translate(297.127,299.9832352005597)" d="M2.739,0A2.739,2.739,0,1,1,-2.739,0A2.739,2.739,0,1,1,2.739,0" fill="#f58518" stroke-width="2" opacity="1"/><path aria-label="trange: 2021-04-16T12, 2021-04-16T13; Energy [keV]: 3128.965; e- Omni Nflux [1/keV-sr-s-cm2]: 0.0579964115077" role="graphics-symbol" aria-roledescription="point" transform="translate(389.8521428571429,299.99378609876703)" d="M2.739,0A2.739,2.739,0,1,1,-2.739,0A2.739,2.739,0,1,1,2.739,0" fill="#f58518" stroke-width="2" opacity="1"/><path aria-label="trange: 2021-04-17T02, 2021-04-17T03; Energy [keV]: 546.543; e- Omni Nflux [1/keV-sr-s-cm2]: 1070.63114482" role="graphics-symbol" aria-roledescription="point" transform="translate(20.934714285714286,185.2895201974732)" d="M2.739,0A2.739,2.739,0,1,1,-2.739,0A2.739,2.739,0,1,1,2.739,0" fill="#e45756" stroke-width="2" opacity="1"/><path aria-label="trange: 2021-04-17T02, 2021-04-17T03; Energy [keV]: 692.118; e- Omni Nflux [1/keV-sr-s-cm2]: 555.406444624" role="graphics-symbol" aria-roledescription="point" transform="translate(41.73114285714286,240.49216664742494)" d="M2.739,0A2.739,2.739,0,1,1,-2.739,0A2.739,2.739,0,1,1,2.739,0" fill="#e45756" stroke-width="2" opacity="1"/><path aria-label="trange: 2021-04-17T02, 2021-04-17T03; Energy [keV]: 893.067; e- Omni Nflux [1/keV-sr-s-cm2]: 204.109175792" role="graphics-symbol" aria-roledescription="point" transform="translate(70.43814285714286,278.13115973660257)" d="M2.739,0A2.739,2.739,0,1,1,-2.739,0A2.739,2.739,0,1,1,2.739,0" fill="#e45756" stroke-width="2" opacity="1"/><path aria-label="trange: 2021-04-17T02, 2021-04-17T03; Energy [keV]: 1093.086; e- Omni Nflux [1/keV-sr-s-cm2]: 75.7094099744" role="graphics-symbol" aria-roledescription="point" transform="translate(99.01228571428572,291.8882775027426)" d="M2.739,0A2.739,2.739,0,1,1,-2.739,0A2.739,2.739,0,1,1,2.739,0" fill="#e45756" stroke-width="2" opacity="1"/><path aria-label="trange: 2021-04-17T02, 2021-04-17T03; Energy [keV]: 1340.111; e- Omni Nflux [1/keV-sr-s-cm2]: 22.3795158785" role="graphics-symbol" aria-roledescription="point" transform="translate(134.30157142857144,297.6021947272983)" d="M2.739,0A2.739,2.739,0,1,1,-2.739,0A2.739,2.739,0,1,1,2.739,0" fill="#e45756" stroke-width="2" opacity="1"/><path aria-label="trange: 2021-04-17T02, 2021-04-17T03; Energy [keV]: 1641.294; e- Omni Nflux [1/keV-sr-s-cm2]: 5.18009708502" role="graphics-symbol" aria-roledescription="point" transform="translate(177.3277142857143,299.4449895980338)" d="M2.739,0A2.739,2.739,0,1,1,-2.739,0A2.739,2.739,0,1,1,2.739,0" fill="#e45756" stroke-width="2" opacity="1"/><path aria-label="trange: 2021-04-17T02, 2021-04-17T03; Energy [keV]: 1987.614; e- Omni Nflux [1/keV-sr-s-cm2]: 1.10042340339" role="graphics-symbol" aria-roledescription="point" transform="translate(226.802,299.88209749249376)" d="M2.739,0A2.739,2.739,0,1,1,-2.739,0A2.739,2.739,0,1,1,2.739,0" fill="#e45756" stroke-width="2" opacity="1"/><path aria-label="trange: 2021-04-17T02, 2021-04-17T03; Energy [keV]: 2479.889; e- Omni Nflux [1/keV-sr-s-cm2]: 0.247514140928" role="graphics-symbol" aria-roledescription="point" transform="translate(297.127,299.97348062775774)" d="M2.739,0A2.739,2.739,0,1,1,-2.739,0A2.739,2.739,0,1,1,2.739,0" fill="#e45756" stroke-width="2" opacity="1"/><path aria-label="trange: 2021-04-17T02, 2021-04-17T03; Energy [keV]: 3128.965; e- Omni Nflux [1/keV-sr-s-cm2]: 0.0739542739284" role="graphics-symbol" aria-roledescription="point" transform="translate(389.8521428571429,299.9920763277934)" d="M2.739,0A2.739,2.739,0,1,1,-2.739,0A2.739,2.739,0,1,1,2.739,0" fill="#e45756" stroke-width="2" opacity="1"/><path aria-label="trange: 2021-04-17T11, 2021-04-17T12; Energy [keV]: 546.543; e- Omni Nflux [1/keV-sr-s-cm2]: 2704.14890706" role="graphics-symbol" aria-roledescription="point" transform="translate(20.934714285714286,10.269759957984704)" d="M2.739,0A2.739,2.739,0,1,1,-2.739,0A2.739,2.739,0,1,1,2.739,0" fill="#72b7b2" stroke-width="2" opacity="1"/><path aria-label="trange: 2021-04-17T11, 2021-04-17T12; Energy [keV]: 692.118; e- Omni Nflux [1/keV-sr-s-cm2]: 1715.80446395" role="graphics-symbol" aria-roledescription="point" transform="translate(41.73114285714286,116.16380743349362)" d="M2.739,0A2.739,2.739,0,1,1,-2.739,0A2.739,2.739,0,1,1,2.739,0" fill="#72b7b2" stroke-width="2" opacity="1"/><path aria-label="trange: 2021-04-17T11, 2021-04-17T12; Energy [keV]: 893.067; e- Omni Nflux [1/keV-sr-s-cm2]: 888.587099602" role="graphics-symbol" aria-roledescription="point" transform="translate(70.43814285714286,204.79423932836937)" d="M2.739,0A2.739,2.739,0,1,1,-2.739,0A2.739,2.739,0,1,1,2.739,0" fill="#72b7b2" stroke-width="2" opacity="1"/><path aria-label="trange: 2021-04-17T11, 2021-04-17T12; Energy [keV]: 1093.086; e- Omni Nflux [1/keV-sr-s-cm2]: 469.817959588" role="graphics-symbol" aria-roledescription="point" transform="translate(99.01228571428572,249.66236147266224)" d="M2.739,0A2.739,2.739,0,1,1,-2.739,0A2.739,2.739,0,1,1,2.739,0" fill="#72b7b2" stroke-width="2" opacity="1"/><path aria-label="trange: 2021-04-17T11, 2021-04-17T12; Energy [keV]: 1340.111; e- Omni Nflux [1/keV-sr-s-cm2]: 216.789451958" role="graphics-symbol" aria-roledescription="point" transform="translate(134.30157142857144,276.7725587187891)" d="M2.739,0A2.739,2.739,0,1,1,-2.739,0A2.739,2.739,0,1,1,2.739,0" fill="#72b7b2" stroke-width="2" opacity="1"/><path aria-label="trange: 2021-04-17T11, 2021-04-17T12; Energy [keV]: 1641.294; e- Omni Nflux [1/keV-sr-s-cm2]: 86.6013401905" role="graphics-symbol" aria-roledescription="point" transform="translate(177.3277142857143,290.72128497958704)" d="M2.739,0A2.739,2.739,0,1,1,-2.739,0A2.739,2.739,0,1,1,2.739,0" fill="#72b7b2" stroke-width="2" opacity="1"/><path aria-label="trange: 2021-04-17T11, 2021-04-17T12; Energy [keV]: 1987.614; e- Omni Nflux [1/keV-sr-s-cm2]: 29.3349548742" role="graphics-symbol" aria-roledescription="point" transform="translate(226.802,296.85696912062576)" d="M2.739,0A2.739,2.739,0,1,1,-2.739,0A2.739,2.739,0,1,1,2.739,0" fill="#72b7b2" stroke-width="2" opacity="1"/><path aria-label="trange: 2021-04-17T11, 2021-04-17T12; Energy [keV]: 2479.889; e- Omni Nflux [1/keV-sr-s-cm2]: 6.06110965035" role="graphics-symbol" aria-roledescription="point" transform="translate(297.127,299.3505953946049)" d="M2.739,0A2.739,2.739,0,1,1,-2.739,0A2.739,2.739,0,1,1,2.739,0" fill="#72b7b2" stroke-width="2" opacity="1"/><path aria-label="trange: 2021-04-17T11, 2021-04-17T12; Energy [keV]: 3128.965; e- Omni Nflux [1/keV-sr-s-cm2]: 0.606764681748" role="graphics-symbol" aria-roledescription="point" transform="translate(389.8521428571429,299.93498949838414)" d="M2.739,0A2.739,2.739,0,1,1,-2.739,0A2.739,2.739,0,1,1,2.739,0" fill="#72b7b2" stroke-width="2" opacity="1"/><path aria-label="trange: 2021-04-17T17, 2021-04-17T17; Energy [keV]: 546.543; e- Omni Nflux [1/keV-sr-s-cm2]: 1508.34193793" role="graphics-symbol" aria-roledescription="point" transform="translate(20.934714285714286,138.39193522135417)" d="M2.739,0A2.739,2.739,0,1,1,-2.739,0A2.739,2.739,0,1,1,2.739,0" fill="#54a24b" stroke-width="2" opacity="1"/><path aria-label="trange: 2021-04-17T17, 2021-04-17T17; Energy [keV]: 692.118; e- Omni Nflux [1/keV-sr-s-cm2]: 1025.64847683" role="graphics-symbol" aria-roledescription="point" transform="translate(41.73114285714286,190.10909176781067)" d="M2.739,0A2.739,2.739,0,1,1,-2.739,0A2.739,2.739,0,1,1,2.739,0" fill="#54a24b" stroke-width="2" opacity="1"/><path aria-label="trange: 2021-04-17T17, 2021-04-17T17; Energy [keV]: 893.067; e- Omni Nflux [1/keV-sr-s-cm2]: 550.497401937" role="graphics-symbol" aria-roledescription="point" transform="translate(70.43814285714286,241.01813550676616)" d="M2.739,0A2.739,2.739,0,1,1,-2.739,0A2.739,2.739,0,1,1,2.739,0" fill="#54a24b" stroke-width="2" opacity="1"/><path aria-label="trange: 2021-04-17T17, 2021-04-17T17; Energy [keV]: 1093.086; e- Omni Nflux [1/keV-sr-s-cm2]: 278.755827332" role="graphics-symbol" aria-roledescription="point" transform="translate(99.01228571428572,270.13330421447756)" d="M2.739,0A2.739,2.739,0,1,1,-2.739,0A2.739,2.739,0,1,1,2.739,0" fill="#54a24b" stroke-width="2" opacity="1"/><path aria-label="trange: 2021-04-17T17, 2021-04-17T17; Energy [keV]: 1340.111; e- Omni Nflux [1/keV-sr-s-cm2]: 113.506552633" role="graphics-symbol" aria-roledescription="point" transform="translate(134.30157142857144,287.83858364650183)" d="M2.739,0A2.739,2.739,0,1,1,-2.739,0A2.739,2.739,0,1,1,2.739,0" fill="#54a24b" stroke-width="2" opacity="1"/><path aria-label="trange: 2021-04-17T17, 2021-04-17T17; Energy [keV]: 1641.294; e- Omni Nflux [1/keV-sr-s-cm2]: 37.3612247043" role="graphics-symbol" aria-roledescription="point" transform="translate(177.3277142857143,295.997011638823)" d="M2.739,0A2.739,2.739,0,1,1,-2.739,0A2.739,2.739,0,1,1,2.739,0" fill="#54a24b" stroke-width="2" opacity="1"/><path aria-label="trange: 2021-04-17T17, 2021-04-17T17; Energy [keV]: 1987.614; e- Omni Nflux [1/keV-sr-s-cm2]: 10.2485104985" role="graphics-symbol" aria-roledescription="point" transform="translate(226.802,298.90194530373526)" d="M2.739,0A2.739,2.739,0,1,1,-2.739,0A2.739,2.739,0,1,1,2.739,0" fill="#54a24b" stroke-width="2" opacity="1"/><path aria-label="trange: 2021-04-17T17, 2021-04-17T17; Energy [keV]: 2479.889; e- Omni Nflux [1/keV-sr-s-cm2]: 1.67637850311" role="graphics-symbol" aria-roledescription="point" transform="translate(297.127,299.82038801752384)" d="M2.739,0A2.739,2.739,0,1,1,-2.739,0A2.739,2.739,0,1,1,2.739,0" fill="#54a24b" stroke-width="2" opacity="1"/><path aria-label="trange: 2021-04-17T17, 2021-04-17T17; Energy [keV]: 3128.965; e- Omni Nflux [1/keV-sr-s-cm2]: 0.163174339818" role="graphics-symbol" aria-roledescription="point" transform="translate(389.8521428571429,299.98251703501944)" d="M2.739,0A2.739,2.739,0,1,1,-2.739,0A2.739,2.739,0,1,1,2.739,0" fill="#54a24b" stroke-width="2" opacity="1"/><path aria-label="trange: 2021-04-17T20, 2021-04-17T21; Energy [keV]: 546.543; e- Omni Nflux [1/keV-sr-s-cm2]: 2456.32247925" role="graphics-symbol" aria-roledescription="point" transform="translate(20.934714285714286,36.82259150913782)" d="M2.739,0A2.739,2.739,0,1,1,-2.739,0A2.739,2.739,0,1,1,2.739,0" fill="#eeca3b" stroke-width="2" opacity="1"/><path aria-label="trange: 2021-04-17T20, 2021-04-17T21; Energy [keV]: 692.118; e- Omni Nflux [1/keV-sr-s-cm2]: 1836.94347348" role="graphics-symbol" aria-roledescription="point" transform="translate(41.73114285714286,103.184627840978)" d="M2.739,0A2.739,2.739,0,1,1,-2.739,0A2.739,2.739,0,1,1,2.739,0" fill="#eeca3b" stroke-width="2" opacity="1"/><path aria-label="trange: 2021-04-17T20, 2021-04-17T21; Energy [keV]: 893.067; e- Omni Nflux [1/keV-sr-s-cm2]: 1165.15227741" role="graphics-symbol" aria-roledescription="point" transform="translate(70.43814285714286,175.16225599206012)" d="M2.739,0A2.739,2.739,0,1,1,-2.739,0A2.739,2.739,0,1,1,2.739,0" fill="#eeca3b" stroke-width="2" opacity="1"/><path aria-label="trange: 2021-04-17T20, 2021-04-17T21; Energy [keV]: 1093.086; e- Omni Nflux [1/keV-sr-s-cm2]: 707.768939474" role="graphics-symbol" aria-roledescription="point" transform="translate(99.01228571428572,224.16761362774773)" d="M2.739,0A2.739,2.739,0,1,1,-2.739,0A2.739,2.739,0,1,1,2.739,0" fill="#eeca3b" stroke-width="2" opacity="1"/><path aria-label="trange: 2021-04-17T20, 2021-04-17T21; Energy [keV]: 1340.111; e- Omni Nflux [1/keV-sr-s-cm2]: 359.589455314" role="graphics-symbol" aria-roledescription="point" transform="translate(134.30157142857144,261.4725583591817)" d="M2.739,0A2.739,2.739,0,1,1,-2.739,0A2.739,2.739,0,1,1,2.739,0" fill="#eeca3b" stroke-width="2" opacity="1"/><path aria-label="trange: 2021-04-17T20, 2021-04-17T21; Energy [keV]: 1641.294; e- Omni Nflux [1/keV-sr-s-cm2]: 151.161169384" role="graphics-symbol" aria-roledescription="point" transform="translate(177.3277142857143,283.80416042316034)" d="M2.739,0A2.739,2.739,0,1,1,-2.739,0A2.739,2.739,0,1,1,2.739,0" fill="#eeca3b" stroke-width="2" opacity="1"/><path aria-label="trange: 2021-04-17T20, 2021-04-17T21; Energy [keV]: 1987.614; e- Omni Nflux [1/keV-sr-s-cm2]: 52.0412772635" role="graphics-symbol" aria-roledescription="point" transform="translate(226.802,294.4241488646276)" d="M2.739,0A2.739,2.739,0,1,1,-2.739,0A2.739,2.739,0,1,1,2.739,0" fill="#eeca3b" stroke-width="2" opacity="1"/><path aria-label="trange: 2021-04-17T20, 2021-04-17T21; Energy [keV]: 2479.889; e- Omni Nflux [1/keV-sr-s-cm2]: 10.9571584023" role="graphics-symbol" aria-roledescription="point" transform="translate(297.127,298.8260187426154)" d="M2.739,0A2.739,2.739,0,1,1,-2.739,0A2.739,2.739,0,1,1,2.739,0" fill="#eeca3b" stroke-width="2" opacity="1"/><path aria-label="trange: 2021-04-17T20, 2021-04-17T21; Energy [keV]: 3128.965; e- Omni Nflux [1/keV-sr-s-cm2]: 1.16167227989" role="graphics-symbol" aria-roledescription="point" transform="translate(389.8521428571429,299.8755351128693)" d="M2.739,0A2.739,2.739,0,1,1,-2.739,0A2.739,2.739,0,1,1,2.739,0" fill="#eeca3b" stroke-width="2" opacity="1"/></g><g class="mark-group role-legend" role="graphics-symbol" aria-roledescription="legend" aria-label="Symbol legend titled 'trange' for fill color and stroke color with 6 values: 2021-04-16T07, 2021-04-16T08, 2021-04-16T12, 2021-04-16T13, 2021-04-17T02, 2021-04-17T03, 2021-04-17T11, 2021-04-17T12, 2021-04-17T17, 2021-04-17T17, 2021-04-17T20, 2021-04-17T21"><g transform="translate(418,0)"><path class="background" aria-hidden="true" d="M0,0h159v109h-159Z" pointer-events="none"/><g><g class="mark-group role-legend-entry"><g transform="translate(0,16)"><path class="background" aria-hidden="true" d="M0,0h0v0h0Z" pointer-events="none"/><g><g class="mark-group role-scope" role="graphics-object" aria-roledescription="group mark container"><g transform="translate(0,0)"><path class="background" aria-hidden="true" d="M0,0h158.32421875v12.5h-158.32421875Z" pointer-events="none" opacity="1"/><g><g class="mark-symbol role-legend-symbol" pointer-events="none"><path transform="translate(6,6)" d="M5,0A5,5,0,1,1,-5,0A5,5,0,1,1,5,0" fill="#4c78a8" stroke="#4c78a8" stroke-width="1.5" opacity="1"/></g><g class="mark-text role-legend-label" pointer-events="none"><text text-anchor="start" transform="translate(16,9)" font-family="sans-serif" font-size="10px" fill="#000" opacity="1">2021-04-16T07, 2021-04-16T08</text></g></g><path class="foreground" aria-hidden="true" d="" pointer-events="none" display="none"/></g><g transform="translate(0,16)"><path class="background" aria-hidden="true" d="M0,0h158.32421875v12.5h-158.32421875Z" pointer-events="none" opacity="1"/><g><g class="mark-symbol role-legend-symbol" pointer-events="none"><path transform="translate(6,6)" d="M5,0A5,5,0,1,1,-5,0A5,5,0,1,1,5,0" fill="#f58518" stroke="#f58518" stroke-width="1.5" opacity="1"/></g><g class="mark-text role-legend-label" pointer-events="none"><text text-anchor="start" transform="translate(16,9)" font-family="sans-serif" font-size="10px" fill="#000" opacity="1">2021-04-16T12, 2021-04-16T13</text></g></g><path class="foreground" aria-hidden="true" d="" pointer-events="none" display="none"/></g><g transform="translate(0,32)"><path class="background" aria-hidden="true" d="M0,0h158.32421875v12.5h-158.32421875Z" pointer-events="none" opacity="1"/><g><g class="mark-symbol role-legend-symbol" pointer-events="none"><path transform="translate(6,6)" d="M5,0A5,5,0,1,1,-5,0A5,5,0,1,1,5,0" fill="#e45756" stroke="#e45756" stroke-width="1.5" opacity="1"/></g><g class="mark-text role-legend-label" pointer-events="none"><text text-anchor="start" transform="translate(16,9)" font-family="sans-serif" font-size="10px" fill="#000" opacity="1">2021-04-17T02, 2021-04-17T03</text></g></g><path class="foreground" aria-hidden="true" d="" pointer-events="none" display="none"/></g><g transform="translate(0,48)"><path class="background" aria-hidden="true" d="M0,0h158.32421875v12.5h-158.32421875Z" pointer-events="none" opacity="1"/><g><g class="mark-symbol role-legend-symbol" pointer-events="none"><path transform="translate(6,6)" d="M5,0A5,5,0,1,1,-5,0A5,5,0,1,1,5,0" fill="#72b7b2" stroke="#72b7b2" stroke-width="1.5" opacity="1"/></g><g class="mark-text role-legend-label" pointer-events="none"><text text-anchor="start" transform="translate(16,9)" font-family="sans-serif" font-size="10px" fill="#000" opacity="1">2021-04-17T11, 2021-04-17T12</text></g></g><path class="foreground" aria-hidden="true" d="" pointer-events="none" display="none"/></g><g transform="translate(0,64)"><path class="background" aria-hidden="true" d="M0,0h158.32421875v12.5h-158.32421875Z" pointer-events="none" opacity="1"/><g><g class="mark-symbol role-legend-symbol" pointer-events="none"><path transform="translate(6,6)" d="M5,0A5,5,0,1,1,-5,0A5,5,0,1,1,5,0" fill="#54a24b" stroke="#54a24b" stroke-width="1.5" opacity="1"/></g><g class="mark-text role-legend-label" pointer-events="none"><text text-anchor="start" transform="translate(16,9)" font-family="sans-serif" font-size="10px" fill="#000" opacity="1">2021-04-17T17, 2021-04-17T17</text></g></g><path class="foreground" aria-hidden="true" d="" pointer-events="none" display="none"/></g><g transform="translate(0,80)"><path class="background" aria-hidden="true" d="M0,0h158.32421875v12.5h-158.32421875Z" pointer-events="none" opacity="1"/><g><g class="mark-symbol role-legend-symbol" pointer-events="none"><path transform="translate(6,6)" d="M5,0A5,5,0,1,1,-5,0A5,5,0,1,1,5,0" fill="#eeca3b" stroke="#eeca3b" stroke-width="1.5" opacity="1"/></g><g class="mark-text role-legend-label" pointer-events="none"><text text-anchor="start" transform="translate(16,9)" font-family="sans-serif" font-size="10px" fill="#000" opacity="1">2021-04-17T20, 2021-04-17T21</text></g></g><path class="foreground" aria-hidden="true" d="" pointer-events="none" display="none"/></g></g></g><path class="foreground" aria-hidden="true" d="" pointer-events="none" display="none"/></g></g><g class="mark-text role-legend-title" pointer-events="none"><text text-anchor="start" transform="translate(0,9)" font-family="sans-serif" font-size="11px" font-weight="bold" fill="#000" opacity="1">trange</text></g></g><path class="foreground" aria-hidden="true" d="" pointer-events="none" display="none"/></g></g><g class="mark-group role-title"><g transform="translate(200,-17)"><path class="background" aria-hidden="true" d="M0,0h0v0h0Z" pointer-events="none"/><g><g class="mark-text role-title-text" role="graphics-symbol" aria-roledescription="title" aria-label="Title text 'Omni-directional flux of XEP SSD'" pointer-events="none"><text text-anchor="middle" transform="translate(0,10)" font-family="sans-serif" font-size="13px" font-weight="bold" fill="#000" opacity="1">Omni-directional flux of XEP SSD</text></g></g><path class="foreground" aria-hidden="true" d="" pointer-events="none" display="none"/></g></g></g><path class="foreground" aria-hidden="true" d="" display="none"/></g></g></g></svg>