<svg xmlns="http://www.w3.org/2000/svg" xmlns:xlink="http://www.w3.org/1999/xlink" version="1.1" class="marks" width="555" height="347" viewBox="0 0 555 347"><rect width="555" height="347" fill="white"/><g fill="none" stroke-miterlimit="10" transform="translate(69,10)"><g class="mark-group role-frame root" role="graphics-object" aria-roledescription="group mark container"><g transform="translate(0,0)"><path class="background" aria-hidden="true" d="M0.5,0.5h400v300h-400Z" stroke="#ddd"/><g><g class="mark-group role-axis" aria-hidden="true"><g transform="translate(0.5,300.5)"><path class="background" aria-hidden="true" d="M0,0h0v0h0Z" pointer-events="none"/><g><g class="mark-rule role-axis-grid" pointer-events="none"><line transform="translate(0,-300)" x2="0" y2="300" stroke="#ddd" stroke-width="1" opacity="1"/><line transform="translate(40,-300)" x2="0" y2="300" stroke="#ddd" stroke-width="1" opacity="1"/><line transform="translate(64,-300)" x2="0" y2="300" stroke="#ddd" stroke-width="1" opacity="1"/><line transform="translate(80,-300)" x2="0" y2="300" stroke="#ddd" stroke-width="1" opacity="1"/><line transform="translate(93,-300)" x2="0" y2="300" stroke="#ddd" stroke-width="1" opacity="1"/><line transform="translate(104,-300)" x2="0" y2="300" stroke="#ddd" stroke-width="1" opacity="1"/><line transform="translate(113,-300)" x2="0" y2="300" stroke="#ddd" stroke-width="1" opacity="1"/><line transform="translate(120,-300)" x2="0" y2="300" stroke="#ddd" stroke-width="1" opacity="1"/><line transform="translate(127,-300)" x2="0" y2="300" stroke="#ddd" stroke-width="1" opacity="1"/><line transform="translate(133,-300)" x2="0" y2="300" stroke="#ddd" stroke-width="1" opacity="1"/><line transform="translate(173,-300)" x2="0" y2="300" stroke="#ddd" stroke-width="1" opacity="1"/><line transform="translate(197,-300)" x2="0" y2="300" stroke="#ddd" stroke-width="1" opacity="1"/><line transform="translate(214,-300)" x2="0" y2="300" stroke="#ddd" stroke-width="1" opacity="1"/><line transform="translate(227,-300)" x2="0" y2="300" stroke="#ddd" stroke-width="1" opacity="1"/><line transform="translate(237,-300)" x2="0" y2="300" stroke="#ddd" stroke-width="1" opacity="1"/><line transform="translate(246,-300)" x2="0" y2="300" stroke="#ddd" stroke-width="1" opacity="1"/><line transform="translate(254,-300)" x2="0" y2="300" stroke="#ddd" stroke-width="1" opacity="1"/><line transform="translate(261,-300)" x2="0" y2="300" stroke="#ddd" stroke-width="1" opacity="1"/><line transform="translate(267,-300)" x2="0" y2="300" stroke="#ddd" stroke-width="1" opacity="1"/><line transform="translate(307,-300)" x2="0" y2="300" stroke="#ddd" stroke-width="1" opacity="1"/><line transform="translate(330,-300)" x2="0" y2="300" stroke="#ddd" stroke-width="1" opacity="1"/><line transform="translate(347,-300)" x2="0" y2="300" stroke="#ddd" stroke-width="1" opacity="1"/><line transform="translate(360,-300)" x2="0" y2="300" stroke="#ddd" stroke-width="1" opacity="1"/><line transform="translate(370,-300)" x2="0" y2="300" stroke="#ddd" stroke-width="1" opacity="1"/><line transform="translate(379,-300)" x2="0" y2="300" stroke="#ddd" stroke-width="1" opacity="1"/><line transform="translate(387,-300)" x2="0" y2="300" stroke="#ddd" stroke-width="1" opacity="1"/><line transform="translate(394,-300)" x2="0" y2="300" stroke="#ddd" stroke-width="1" opacity="1"/><line transform="translate(400,-300)" x2="0" y2="300" stroke="#ddd" stroke-width="1" opacity="1"/></g></g><path class="foreground" aria-hidden="true" d="" pointer-events="none" display="none"/></g></g><g class="mark-group role-axis" aria-hidden="true"><g transform="translate(0.5,0.5)"><path class="background" aria-hidden="true" d="M0,0h0v0h0Z" pointer-events="none"/><g><g class="mark-rule role-axis-grid" pointer-events="none"><line transform="translate(0,300)" x2="400" y2="0" stroke="#ddd" stroke-width="1" opacity="1"/><line transform="translate(0,270)" x2="400" y2="0" stroke="#ddd" stroke-width="1" opacity="1"/><line transform="translate(0,252)" x2="400" y2="0" stroke="#ddd" stroke-width="1" opacity="1"/><line transform="translate(0,240)" x2="400" y2="0" stroke="#ddd" stroke-width="1" opacity="1"/><line transform="translate(0,230)" x2="400" y2="0" stroke="#ddd" stroke-width="1" opacity="1"/><line transform="translate(0,222)" x2="400" y2="0" stroke="#ddd" stroke-width="1" opacity="1"/><line transform="translate(0,215)" x2="400" y2="0" stroke="#ddd" stroke-width="1" opacity="1"/><line transform="translate(0,210)" x2="400" y2="0" stroke="#ddd" stroke-width="1" opacity="1"/><line transform="translate(0,205)" x2="400" y2="0" stroke="#ddd" stroke-width="1" opacity="1"/><line transform="translate(0,200)" x2="400" y2="0" stroke="#ddd" stroke-width="1" opacity="1"/><line transform="translate(0,170)" x2="400" y2="0" stroke="#ddd" stroke-width="1" opacity="1"/><line transform="translate(0,152)" x2="400" y2="0" stroke="#ddd" stroke-width="1" opacity="1"/><line transform="translate(0,140)" x2="400" y2="0" stroke="#ddd" stroke-width="1" opacity="1"/><line transform="translate(0,130)" x2="400" y2="0" stroke="#ddd" stroke-width="1" opacity="1"/><line transform="translate(0,122)" x2="400" y2="0" stroke="#ddd" stroke-width="1" opacity="1"/><line transform="translate(0,115)" x2="400" y2="0" stroke="#ddd" stroke-width="1" opacity="1"/><line transform="translate(0,110)" x2="400" y2="0" stroke="#ddd" stroke-width="1" opacity="1"/><line transform="translate(0,105)" x2="400" y2="0" stroke="#ddd" stroke-width="1" opacity="1"/><line transform="translate(0,100)" x2="400" y2="0" stroke="#ddd" stroke-width="1" opacity="1"/><line transform="translate(0,70)" x2="400" y2="0" stroke="#ddd" stroke-width="1" opacity="1"/><line transform="translate(0,52)" x2="400" y2="0" stroke="#ddd" stroke-width="1" opacity="1"/><line transform="translate(0,40)" x2="400" y2="0" stroke="#ddd" stroke-width="1" opacity="1"/><line transform="translate(0,30)" x2="400" y2="0" stroke="#ddd" stroke-width="1" opacity="1"/><line transform="translate(0,22)" x2="400" y2="0" stroke="#ddd" stroke-width="1" opacity="1"/><line transform="translate(0,15)" x2="400" y2="0" stroke="#ddd" stroke-width="1" opacity="1"/><line transform="translate(0,10)" x2="400" y2="0" stroke="#ddd" stroke-width="1" opacity="1"/><line transform="translate(0,5)" x2="400" y2="0" stroke="#ddd" stroke-width="1" opacity="1"/><line transform="translate(0,0)" x2="400" y2="0" stroke="#ddd" stroke-width="1" opacity="1"/></g></g><path class="foreground" aria-hidden="true" d="" pointer-events="none" display="none"/></g></g><g class="mark-group role-axis" role="graphics-symbol" aria-roledescription="axis" aria-label="X-axis titled 'Energy [keV]' for a log scale with values from 10 to 10,000"><g transform="translate(0.5,300.5)"><path class="background" aria-hidden="true" d="M0,0h0v0h0Z" pointer-events="none"/><g><g class="mark-rule role-axis-tick" pointer-events="none"><line transform="translate(0,0)" x2="0" y2="5" stroke="#888" stroke-width="1" opacity="1"/><line transform="translate(40,0)" x2="0" y2="5" stroke="#888" stroke-width="1" opacity="1"/><line transform="translate(64,0)" x2="0" y2="5" stroke="#888" stroke-width="1" opacity="1"/><line transform="translate(80,0)" x2="0" y2="5" stroke="#888" stroke-width="1" opacity="1"/><line transform="translate(93,0)" x2="0" y2="5" stroke="#888" stroke-width="1" opacity="1"/><line transform="translate(104,0)" x2="0" y2="5" stroke="#888" stroke-width="1" opacity="1"/><line transform="translate(113,0)" x2="0" y2="5" stroke="#888" stroke-width="1" opacity="1"/><line transform="translate(120,0)" x2="0" y2="5" stroke="#888" stroke-width="1" opacity="1"/><line transform="translate(127,0)" x2="0" y2="5" stroke="#888" stroke-width="1" opacity="1"/><line transform="translate(133,0)" x2="0" y2="5" stroke="#888" stroke-width="1" opacity="1"/><line transform="translate(173,0)" x2="0" y2="5" stroke="#888" stroke-width="1" opacity="1"/><line transform="translate(197,0)" x2="0" y2="5" stroke="#888" stroke-width="1" opacity="1"/><line transform="translate(214,0)" x2="0" y2="5" stroke="#888" stroke-width="1" opacity="1"/><line transform="translate(227,0)" x2="0" y2="5" stroke="#888" stroke-width="1" opacity="1"/><line transform="translate(237,0)" x2="0" y2="5" stroke="#888" stroke-width="1" opacity="1"/><line transform="translate(246,0)" x2="0" y2="5" stroke="#888" stroke-width="1" opacity="1"/><line transform="translate(254,0)" x2="0" y2="5" stroke="#888" stroke-width="1" opacity="1"/><line transform="translate(261,0)" x2="0" y2="5" stroke="#888" stroke-width="1" opacity="1"/><line transform="translate(267,0)" x2="0" y2="5" stroke="#888" stroke-width="1" opacity="1"/><line transform="translate(307,0)" x2="0" y2="5" stroke="#888" stroke-width="1" opacity="1"/><line transform="translate(330,0)" x2="0" y2="5" stroke="#888" stroke-width="1" opacity="1"/><line transform="translate(347,0)" x2="0" y2="5" stroke="#888" stroke-width="1" opacity="1"/><line transform="translate(360,0)" x2="0" y2="5" stroke="#888" stroke-width="1" opacity="1"/><line transform="translate(370,0)" x2="0" y2="5" stroke="#888" stroke-width="1" opacity="1"/><line transform="translate(379,0)" x2="0" y2="5" stroke="#888" stroke-width="1" opacity="1"/><line transform="translate(387,0)" x2="0" y2="5" stroke="#888" stroke-width="1" opacity="1"/><line transform="translate(394,0)" x2="0" y2="5" stroke="#888" stroke-width="1" opacity="1"/><line transform="translate(400,0)" x2="0" y2="5" stroke="#888" stroke-width="1" opacity="1"/></g><g class="mark-text role-axis-label" pointer-events="none"><text text-anchor="start" transform="translate(0,15)" font-family="sans-serif" font-size="10px" fill="#000" opacity="1">10</text><text text-anchor="middle" transform="translate(40.13733275519747,15)" font-family="sans-serif" font-size="10px" fill="#000" opacity="1">20</text><text text-anchor="middle" transform="translate(63.61616729595497,15)" font-family="sans-serif" font-size="10px" fill="#000" opacity="1">30</text><text text-anchor="middle" transform="translate(80.27466551039495,15)" font-family="sans-serif" font-size="10px" fill="#000" opacity="1"/><text text-anchor="middle" transform="translate(93.19600057813582,15)" font-family="sans-serif" font-size="10px" fill="#000" opacity="1"/><text text-anchor="middle" transform="translate(103.75350005115244,15)" font-family="sans-serif" font-size="10px" fill="#000" opacity="1"/><text text-anchor="middle" transform="translate(112.67973866856758,15)" font-family="sans-serif" font-size="10px" fill="#000" opacity="1"/><text text-anchor="middle" transform="translate(120.41199826559243,15)" font-family="sans-serif" font-size="10px" fill="#000" opacity="1"/><text text-anchor="middle" transform="translate(127.23233459190995,15)" font-family="sans-serif" font-size="10px" fill="#000" opacity="1"/><text text-anchor="middle" transform="translate(133.33333333333331,15)" font-family="sans-serif" font-size="10px" fill="#000" opacity="1">100</text><text text-anchor="middle" transform="translate(173.47066608853078,15)" font-family="sans-serif" font-size="10px" fill="#000" opacity="1">200</text><text text-anchor="middle" transform="translate(196.94950062928828,15)" font-family="sans-serif" font-size="10px" fill="#000" opacity="1">300</text><text text-anchor="middle" transform="translate(213.60799884372827,15)" font-family="sans-serif" font-size="10px" fill="#000" opacity="1"/><text text-anchor="middle" transform="translate(226.5293339114691,15)" font-family="sans-serif" font-size="10px" fill="#000" opacity="1"/><text text-anchor="middle" transform="translate(237.08683338448577,15)" font-family="sans-serif" font-size="10px" fill="#000" opacity="1"/><text text-anchor="middle" transform="translate(246.01307200190087,15)" font-family="sans-serif" font-size="10px" fill="#000" opacity="1"/><text text-anchor="middle" transform="translate(253.74533159892576,15)" font-family="sans-serif" font-size="10px" fill="#000" opacity="1"/><text text-anchor="middle" transform="translate(260.56566792524325,15)" font-family="sans-serif" font-size="10px" fill="#000" opacity="1"/><text text-anchor="middle" transform="translate(266.66666666666663,15)" font-family="sans-serif" font-size="10px" fill="#000" opacity="1">1,000</text><text text-anchor="middle" transform="translate(306.8039994218641,15)" font-family="sans-serif" font-size="10px" fill="#000" opacity="1">2,000</text><text text-anchor="middle" transform="translate(330.28283396262157,15)" font-family="sans-serif" font-size="10px" fill="#000" opacity="0">3,000</text><text text-anchor="middle" transform="translate(346.9413321770616,15)" font-family="sans-serif" font-size="10px" fill="#000" opacity="1"/><text text-anchor="middle" transform="translate(359.86266724480254,15)" font-family="sans-serif" font-size="10px" fill="#000" opacity="1"/><text text-anchor="middle" transform="translate(370.4201667178191,15)" font-family="sans-serif" font-size="10px" fill="#000" opacity="1"/><text text-anchor="middle" transform="translate(379.3464053352342,15)" font-family="sans-serif" font-size="10px" fill="#000" opacity="1"/><text text-anchor="middle" transform="translate(387.07866493225913,15)" font-family="sans-serif" font-size="10px" fill="#000" opacity="1"/><text text-anchor="middle" transform="translate(393.8990012585766,15)" font-family="sans-serif" font-size="10px" fill="#000" opacity="1"/><text text-anchor="end" transform="translate(400,15)" font-family="sans-serif" font-size="10px" fill="#000" opacity="1">10,000</text></g><g class="mark-rule role-axis-domain" pointer-events="none"><line transform="translate(0,0)" x2="400" y2="0" stroke="#888" stroke-width="1" opacity="1"/></g><g class="mark-text role-axis-title" pointer-events="none"><text text-anchor="middle" transform="translate(200,30)" font-family="sans-serif" font-size="11px" font-weight="bold" fill="#000" opacity="1">Energy [keV]</text></g></g><path class="foreground" aria-hidden="true" d="" pointer-events="none" display="none"/></g></g><g class="mark-group role-axis" role="graphics-symbol" aria-roledescription="axis" aria-label="Y-axis titled 'Mean of D_whistler' for a log scale with values from 1e-7 to 0.0001"><g transform="translate(0.5,0.5)"><path class="background" aria-hidden="true" d="M0,0h0v0h0Z" pointer-events="none"/><g><g class="mark-rule role-axis-tick" pointer-events="none"><line transform="translate(0,300)" x2="-5" y2="0" stroke="#888" stroke-width="1" opacity="1"/><line transform="translate(0,270)" x2="-5" y2="0" stroke="#888" stroke-width="1" opacity="1"/><line transform="translate(0,252)" x2="-5" y2="0" stroke="#888" stroke-width="1" opacity="1"/><line transform="translate(0,240)" x2="-5" y2="0" stroke="#888" stroke-width="1" opacity="1"/><line transform="translate(0,230)" x2="-5" y2="0" stroke="#888" stroke-width="1" opacity="1"/><line transform="translate(0,222)" x2="-5" y2="0" stroke="#888" stroke-width="1" opacity="1"/><line transform="translate(0,215)" x2="-5" y2="0" stroke="#888" stroke-width="1" opacity="1"/><line transform="translate(0,210)" x2="-5" y2="0" stroke="#888" stroke-width="1" opacity="1"/><line transform="translate(0,205)" x2="-5" y2="0" stroke="#888" stroke-width="1" opacity="1"/><line transform="translate(0,200)" x2="-5" y2="0" stroke="#888" stroke-width="1" opacity="1"/><line transform="translate(0,170)" x2="-5" y2="0" stroke="#888" stroke-width="1" opacity="1"/><line transform="translate(0,152)" x2="-5" y2="0" stroke="#888" stroke-width="1" opacity="1"/><line transform="translate(0,140)" x2="-5" y2="0" stroke="#888" stroke-width="1" opacity="1"/><line transform="translate(0,130)" x2="-5" y2="0" stroke="#888" stroke-width="1" opacity="1"/><line transform="translate(0,122)" x2="-5" y2="0" stroke="#888" stroke-width="1" opacity="1"/><line transform="translate(0,115)" x2="-5" y2="0" stroke="#888" stroke-width="1" opacity="1"/><line transform="translate(0,110)" x2="-5" y2="0" stroke="#888" stroke-width="1" opacity="1"/><line transform="translate(0,105)" x2="-5" y2="0" stroke="#888" stroke-width="1" opacity="1"/><line transform="translate(0,100)" x2="-5" y2="0" stroke="#888" stroke-width="1" opacity="1"/><line transform="translate(0,70)" x2="-5" y2="0" stroke="#888" stroke-width="1" opacity="1"/><line transform="translate(0,52)" x2="-5" y2="0" stroke="#888" stroke-width="1" opacity="1"/><line transform="translate(0,40)" x2="-5" y2="0" stroke="#888" stroke-width="1" opacity="1"/><line transform="translate(0,30)" x2="-5" y2="0" stroke="#888" stroke-width="1" opacity="1"/><line transform="translate(0,22)" x2="-5" y2="0" stroke="#888" stroke-width="1" opacity="1"/><line transform="translate(0,15)" x2="-5" y2="0" stroke="#888" stroke-width="1" opacity="1"/><line transform="translate(0,10)" x2="-5" y2="0" stroke="#888" stroke-width="1" opacity="1"/><line transform="translate(0,5)" x2="-5" y2="0" stroke="#888" stroke-width="1" opacity="1"/><line transform="translate(0,0)" x2="-5" y2="0" stroke="#888" stroke-width="1" opacity="1"/></g><g class="mark-text role-axis-label" pointer-events="none"><text text-anchor="end" transform="translate(-7,303)" font-family="sans-serif" font-size="10px" fill="#000" opacity="1">1e-7</text><text text-anchor="end" transform="translate(-7,272.8970004336019)" font-family="sans-serif" font-size="10px" fill="#000" opacity="1">2e-7</text><text text-anchor="end" transform="translate(-7,255.28787452803368)" font-family="sans-serif" font-size="10px" fill="#000" opacity="1">3e-7</text><text text-anchor="end" transform="translate(-7,242.79400086720378)" font-family="sans-serif" font-size="10px" fill="#000" opacity="1"/><text text-anchor="end" transform="translate(-7,233.1029995663981)" font-family="sans-serif" font-size="10px" fill="#000" opacity="1"/><text text-anchor="end" transform="translate(-7,225.18487496163561)" font-family="sans-serif" font-size="10px" fill="#000" opacity="1"/><text text-anchor="end" transform="translate(-7,218.49019599857436)" font-family="sans-serif" font-size="10px" fill="#000" opacity="1"/><text text-anchor="end" transform="translate(-7,212.69100130080565)" font-family="sans-serif" font-size="10px" fill="#000" opacity="1"/><text text-anchor="end" transform="translate(-7,207.57574905606754)" font-family="sans-serif" font-size="10px" fill="#000" opacity="1"/><text text-anchor="end" transform="translate(-7,202.99999999999994)" font-family="sans-serif" font-size="10px" fill="#000" opacity="1">0.000001</text><text text-anchor="end" transform="translate(-7,172.89700043360187)" font-family="sans-serif" font-size="10px" fill="#000" opacity="1">0.000002</text><text text-anchor="end" transform="translate(-7,155.2878745280338)" font-family="sans-serif" font-size="10px" fill="#000" opacity="1">0.000003</text><text text-anchor="end" transform="translate(-7,142.79400086720372)" font-family="sans-serif" font-size="10px" fill="#000" opacity="1"/><text text-anchor="end" transform="translate(-7,133.10299956639815)" font-family="sans-serif" font-size="10px" fill="#000" opacity="1"/><text text-anchor="end" transform="translate(-7,125.18487496163564)" font-family="sans-serif" font-size="10px" fill="#000" opacity="1"/><text text-anchor="end" transform="translate(-7,118.49019599857431)" font-family="sans-serif" font-size="10px" fill="#000" opacity="1"/><text text-anchor="end" transform="translate(-7,112.69100130080561)" font-family="sans-serif" font-size="10px" fill="#000" opacity="1"/><text text-anchor="end" transform="translate(-7,107.57574905606755)" font-family="sans-serif" font-size="10px" fill="#000" opacity="1"/><text text-anchor="end" transform="translate(-7,103.00000000000001)" font-family="sans-serif" font-size="10px" fill="#000" opacity="1">0.00001</text><text text-anchor="end" transform="translate(-7,72.8970004336019)" font-family="sans-serif" font-size="10px" fill="#000" opacity="1">0.00002</text><text text-anchor="end" transform="translate(-7,55.287874528033804)" font-family="sans-serif" font-size="10px" fill="#000" opacity="1">0.00003</text><text text-anchor="end" transform="translate(-7,42.794000867203785)" font-family="sans-serif" font-size="10px" fill="#000" opacity="1"/><text text-anchor="end" transform="translate(-7,33.10299956639811)" font-family="sans-serif" font-size="10px" fill="#000" opacity="1"/><text text-anchor="end" transform="translate(-7,25.184874961635693)" font-family="sans-serif" font-size="10px" fill="#000" opacity="1"/><text text-anchor="end" transform="translate(-7,18.490195998574364)" font-family="sans-serif" font-size="10px" fill="#000" opacity="1"/><text text-anchor="end" transform="translate(-7,12.691001300805668)" font-family="sans-serif" font-size="10px" fill="#000" opacity="1"/><text text-anchor="end" transform="translate(-7,7.575749056067535)" font-family="sans-serif" font-size="10px" fill="#000" opacity="1"/><text text-anchor="end" transform="translate(-7,3)" font-family="sans-serif" font-size="10px" fill="#000" opacity="1">0.0001</text></g><g class="mark-rule role-axis-domain" pointer-events="none"><line transform="translate(0,300)" x2="0" y2="-300" stroke="#888" stroke-width="1" opacity="1"/></g><g class="mark-text role-axis-title" pointer-events="none"><text text-anchor="middle" transform="translate(-52.708984375,150) rotate(-90) translate(0,-2)" font-family="sans-serif" font-size="11px" font-weight="bold" fill="#000" opacity="1">Mean of D_whistler</text></g></g><path class="foreground" aria-hidden="true" d="" pointer-events="none" display="none"/></g></g><g class="mark-group role-scope layer_0_pathgroup" role="graphics-object" aria-roledescription="group mark container"><g transform="translate(0,0)"><path class="background" aria-hidden="true" d="M0,0h400v300h-400Z"/><g><g class="mark-line role-mark layer_0_marks" role="graphics-object" aria-roledescription="line mark container"><path aria-label="Lm (binned): 5.54216309835 – 6.54216309835; Energy [keV]: 63.2455; Mean of D_whistler: 0.000048580566172" role="graphics-symbol" aria-roledescription="line mark" d="M106.804,31.354L132.151,36.455L152.22,42.059L168.423,47.844L183.572,54.444L197.946,61.894L211.419,70.012L228.854,82.226L250.239,99.883L271.213,119.959L291.281,141.491L310.214,163.602" stroke="#7570b3" stroke-width="2"/></g></g><path class="foreground" aria-hidden="true" d="" display="none"/></g><g transform="translate(0,0)"><path class="background" aria-hidden="true" d="M0,0h400v300h-400Z"/><g><g class="mark-line role-mark layer_0_marks" role="graphics-object" aria-roledescription="line mark container"><path aria-label="Lm (binned): 4.54216309835 – 5.54216309835; Energy [keV]: 63.2455; Mean of D_whistler: 0.0000217983115062" role="graphics-symbol" aria-roledescription="line mark" d="M106.804,66.158L132.151,71.259L152.22,76.863L168.423,82.648L183.572,89.248L197.946,96.698L211.419,104.816L228.854,117.03L250.239,134.687L271.213,154.763L291.281,176.295L310.214,198.406" stroke="#d95f02" stroke-width="2"/></g></g><path class="foreground" aria-hidden="true" d="" display="none"/></g><g transform="translate(0,0)"><path class="background" aria-hidden="true" d="M0,0h400v300h-400Z"/><g><g class="mark-line role-mark layer_0_marks" role="graphics-object" aria-roledescription="line mark container"><path aria-label="Lm (binned): 3.54216309835 – 4.54216309835; Energy [keV]: 63.2455; Mean of D_whistler: 0.00000233561031846" role="graphics-symbol" aria-roledescription="line mark" d="M106.804,163.16L132.151,168.261L152.22,173.865L168.423,179.65L183.572,186.251L197.946,193.7L211.419,201.818L228.854,214.033L250.239,231.69L271.213,251.766L291.281,273.297L310.214,295.408" stroke="#1b9e77" stroke-width="2"/></g></g><path class="foreground" aria-hidden="true" d="" display="none"/></g></g><g class="mark-symbol role-mark layer_1_marks" role="graphics-object" aria-roledescription="symbol mark container"><path aria-label="Lm (binned): 5.54216309835 – 6.54216309835; Energy [keV]: 63.2455; Mean of D_whistler: 0.000048580566172" role="graphics-symbol" aria-roledescription="point" transform="translate(106.80395071026834,31.353742810791907)" d="M2.739,0A2.739,2.739,0,1,1,-2.739,0A2.739,2.739,0,1,1,2.739,0" fill="white" stroke="#7570b3" stroke-width="2" opacity="1"/><path aria-label="Lm (binned): 5.54216309835 – 6.54216309835; Energy [keV]: 97.9796; Mean of D_whistler: 0.0000431968614325" role="graphics-symbol" aria-roledescription="point" transform="translate(132.15142161657585,36.45478067049459)" d="M2.739,0A2.739,2.739,0,1,1,-2.739,0A2.739,2.739,0,1,1,2.739,0" fill="white" stroke="#7570b3" stroke-width="2" opacity="1"/><path aria-label="Lm (binned): 5.54216309835 – 6.54216309835; Energy [keV]: 138.564; Mean of D_whistler: 0.0000379676479424" role="graphics-symbol" aria-roledescription="point" transform="translate(152.22005491491703,42.05863061327019)" d="M2.739,0A2.739,2.739,0,1,1,-2.739,0A2.739,2.739,0,1,1,2.739,0" fill="white" stroke="#7570b3" stroke-width="2" opacity="1"/><path aria-label="Lm (binned): 5.54216309835 – 6.54216309835; Energy [keV]: 238.118; Mean of D_whistler: 0.0000285467674554" role="graphics-symbol" aria-roledescription="point" transform="translate(183.57229682268118,54.44430627517731)" d="M2.739,0A2.739,2.739,0,1,1,-2.739,0A2.739,2.739,0,1,1,2.739,0" fill="white" stroke="#7570b3" stroke-width="2" opacity="1"/><path aria-label="Lm (binned): 5.54216309835 – 6.54216309835; Energy [keV]: 305.205; Mean of D_whistler: 0.000024046883561" role="graphics-symbol" aria-roledescription="point" transform="translate(197.9455525520952,61.89411995381812)" d="M2.739,0A2.739,2.739,0,1,1,-2.739,0A2.739,2.739,0,1,1,2.739,0" fill="white" stroke="#7570b3" stroke-width="2" opacity="1"/><path aria-label="Lm (binned): 5.54216309835 – 6.54216309835; Energy [keV]: 520.48; Mean of D_whistler: 0.0000150568958332" role="graphics-symbol" aria-roledescription="point" transform="translate(228.85387279170374,82.22645541296446)" d="M2.739,0A2.739,2.739,0,1,1,-2.739,0A2.739,2.739,0,1,1,2.739,0" fill="white" stroke="#7570b3" stroke-width="2" opacity="1"/><path aria-label="Lm (binned): 5.54216309835 – 6.54216309835; Energy [keV]: 385.162; Mean of D_whistler: 0.0000199473015659" role="graphics-symbol" aria-roledescription="point" transform="translate(211.4191244221238,70.01158465591946)" d="M2.739,0A2.739,2.739,0,1,1,-2.739,0A2.739,2.739,0,1,1,2.739,0" fill="white" stroke="#7570b3" stroke-width="2" opacity="1"/><path aria-label="Lm (binned): 5.54216309835 – 6.54216309835; Energy [keV]: 752.994; Mean of D_whistler: 0.000010026904569" role="graphics-symbol" aria-roledescription="point" transform="translate(250.23886875641512,99.88331184356875)" d="M2.739,0A2.739,2.739,0,1,1,-2.739,0A2.739,2.739,0,1,1,2.739,0" fill="white" stroke="#7570b3" stroke-width="2" opacity="1"/><path aria-label="Lm (binned): 5.54216309835 – 6.54216309835; Energy [keV]: 1081.67; Mean of D_whistler: 0.00000631546246352" role="graphics-symbol" aria-roledescription="point" transform="translate(271.21263796858346,119.95948417832008)" d="M2.739,0A2.739,2.739,0,1,1,-2.739,0A2.739,2.739,0,1,1,2.739,0" fill="white" stroke="#7570b3" stroke-width="2" opacity="1"/><path aria-label="Lm (binned): 5.54216309835 – 6.54216309835; Energy [keV]: 183.303; Mean of D_whistler: 0.0000332322246358" role="graphics-symbol" aria-roledescription="point" transform="translate(168.4226097111171,47.84405851516437)" d="M2.739,0A2.739,2.739,0,1,1,-2.739,0A2.739,2.739,0,1,1,2.739,0" fill="white" stroke="#7570b3" stroke-width="2" opacity="1"/><path aria-label="Lm (binned): 5.54216309835 – 6.54216309835; Energy [keV]: 1529.71; Mean of D_whistler: 0.00000384675074435" role="graphics-symbol" aria-roledescription="point" transform="translate(291.2812141014085,141.49059535065442)" d="M2.739,0A2.739,2.739,0,1,1,-2.739,0A2.739,2.739,0,1,1,2.739,0" fill="white" stroke="#7570b3" stroke-width="2" opacity="1"/><path aria-label="Lm (binned): 5.54216309835 – 6.54216309835; Energy [keV]: 2121.32; Mean of D_whistler: 0.00000231195386951" role="graphics-symbol" aria-roledescription="point" transform="translate(310.21415820683416,163.60208356568936)" d="M2.739,0A2.739,2.739,0,1,1,-2.739,0A2.739,2.739,0,1,1,2.739,0" fill="white" stroke="#7570b3" stroke-width="2" opacity="1"/><path aria-label="Lm (binned): 4.54216309835 – 5.54216309835; Energy [keV]: 63.2455; Mean of D_whistler: 0.0000217983115062" role="graphics-symbol" aria-roledescription="point" transform="translate(106.80395071026834,66.15771454744574)" d="M2.739,0A2.739,2.739,0,1,1,-2.739,0A2.739,2.739,0,1,1,2.739,0" fill="white" stroke="#d95f02" stroke-width="2" opacity="1"/><path aria-label="Lm (binned): 4.54216309835 – 5.54216309835; Energy [keV]: 97.9796; Mean of D_whistler: 0.0000193826197551" role="graphics-symbol" aria-roledescription="point" transform="translate(132.15142161657585,71.25875240714842)" d="M2.739,0A2.739,2.739,0,1,1,-2.739,0A2.739,2.739,0,1,1,2.739,0" fill="white" stroke="#d95f02" stroke-width="2" opacity="1"/><path aria-label="Lm (binned): 4.54216309835 – 5.54216309835; Energy [keV]: 138.564; Mean of D_whistler: 0.0000170362489" role="graphics-symbol" aria-roledescription="point" transform="translate(152.22005491491703,76.86260234992407)" d="M2.739,0A2.739,2.739,0,1,1,-2.739,0A2.739,2.739,0,1,1,2.739,0" fill="white" stroke="#d95f02" stroke-width="2" opacity="1"/><path aria-label="Lm (binned): 4.54216309835 – 5.54216309835; Energy [keV]: 238.118; Mean of D_whistler: 0.0000128090588176" role="graphics-symbol" aria-roledescription="point" transform="translate(183.57229682268118,89.2482780118312)" d="M2.739,0A2.739,2.739,0,1,1,-2.739,0A2.739,2.739,0,1,1,2.739,0" fill="white" stroke="#d95f02" stroke-width="2" opacity="1"/><path aria-label="Lm (binned): 4.54216309835 – 5.54216309835; Energy [keV]: 305.205; Mean of D_whistler: 0.0000107899413268" role="graphics-symbol" aria-roledescription="point" transform="translate(197.9455525520952,96.69809169047204)" d="M2.739,0A2.739,2.739,0,1,1,-2.739,0A2.739,2.739,0,1,1,2.739,0" fill="white" stroke="#d95f02" stroke-width="2" opacity="1"/><path aria-label="Lm (binned): 4.54216309835 – 5.54216309835; Energy [keV]: 520.48; Mean of D_whistler: 0.00000675609470106" role="graphics-symbol" aria-roledescription="point" transform="translate(228.85387279170374,117.03042714961835)" d="M2.739,0A2.739,2.739,0,1,1,-2.739,0A2.739,2.739,0,1,1,2.739,0" fill="white" stroke="#d95f02" stroke-width="2" opacity="1"/><path aria-label="Lm (binned): 4.54216309835 – 5.54216309835; Energy [keV]: 385.162; Mean of D_whistler: 0.00000895044104062" role="graphics-symbol" aria-roledescription="point" transform="translate(211.4191244221238,104.8155563925734)" d="M2.739,0A2.739,2.739,0,1,1,-2.739,0A2.739,2.739,0,1,1,2.739,0" fill="white" stroke="#d95f02" stroke-width="2" opacity="1"/><path aria-label="Lm (binned): 4.54216309835 – 5.54216309835; Energy [keV]: 752.994; Mean of D_whistler: 0.0000044991157259" role="graphics-symbol" aria-roledescription="point" transform="translate(250.23886875641512,134.68728358022264)" d="M2.739,0A2.739,2.739,0,1,1,-2.739,0A2.739,2.739,0,1,1,2.739,0" fill="white" stroke="#d95f02" stroke-width="2" opacity="1"/><path aria-label="Lm (binned): 4.54216309835 – 5.54216309835; Energy [keV]: 1081.67; Mean of D_whistler: 0.00000283377549777" role="graphics-symbol" aria-roledescription="point" transform="translate(271.21263796858346,154.763455914974)" d="M2.739,0A2.739,2.739,0,1,1,-2.739,0A2.739,2.739,0,1,1,2.739,0" fill="white" stroke="#d95f02" stroke-width="2" opacity="1"/><path aria-label="Lm (binned): 4.54216309835 – 5.54216309835; Energy [keV]: 183.303; Mean of D_whistler: 0.0000149114438496" role="graphics-symbol" aria-roledescription="point" transform="translate(168.4226097111171,82.64803025181826)" d="M2.739,0A2.739,2.739,0,1,1,-2.739,0A2.739,2.739,0,1,1,2.739,0" fill="white" stroke="#d95f02" stroke-width="2" opacity="1"/><path aria-label="Lm (binned): 4.54216309835 – 5.54216309835; Energy [keV]: 1529.71; Mean of D_whistler: 0.00000172605380339" role="graphics-symbol" aria-roledescription="point" transform="translate(291.2812141014085,176.2945670873083)" d="M2.739,0A2.739,2.739,0,1,1,-2.739,0A2.739,2.739,0,1,1,2.739,0" fill="white" stroke="#d95f02" stroke-width="2" opacity="1"/><path aria-label="Lm (binned): 4.54216309835 – 5.54216309835; Energy [keV]: 2121.32; Mean of D_whistler: 0.00000103738376488" role="graphics-symbol" aria-roledescription="point" transform="translate(310.21415820683416,198.40605530234313)" d="M2.739,0A2.739,2.739,0,1,1,-2.739,0A2.739,2.739,0,1,1,2.739,0" fill="white" stroke="#d95f02" stroke-width="2" opacity="1"/><path aria-label="Lm (binned): 3.54216309835 – 4.54216309835; Energy [keV]: 63.2455; Mean of D_whistler: 0.00000233561031846" role="graphics-symbol" aria-roledescription="point" transform="translate(106.80395071026834,163.1599614753441)" d="M2.739,0A2.739,2.739,0,1,1,-2.739,0A2.739,2.739,0,1,1,2.739,0" fill="white" stroke="#1b9e77" stroke-width="2" opacity="1"/><path aria-label="Lm (binned): 3.54216309835 – 4.54216309835; Energy [keV]: 97.9796; Mean of D_whistler: 0.00000207677767545" role="graphics-symbol" aria-roledescription="point" transform="translate(132.15142161657585,168.2609993350467)" d="M2.739,0A2.739,2.739,0,1,1,-2.739,0A2.739,2.739,0,1,1,2.739,0" fill="white" stroke="#1b9e77" stroke-width="2" opacity="1"/><path aria-label="Lm (binned): 3.54216309835 – 4.54216309835; Energy [keV]: 138.564; Mean of D_whistler: 0.000001825372516" role="graphics-symbol" aria-roledescription="point" transform="translate(152.22005491491703,173.86484927782237)" d="M2.739,0A2.739,2.739,0,1,1,-2.739,0A2.739,2.739,0,1,1,2.739,0" fill="white" stroke="#1b9e77" stroke-width="2" opacity="1"/><path aria-label="Lm (binned): 3.54216309835 – 4.54216309835; Energy [keV]: 238.118; Mean of D_whistler: 0.00000137244437192" role="graphics-symbol" aria-roledescription="point" transform="translate(183.57229682268118,186.2505249397295)" d="M2.739,0A2.739,2.739,0,1,1,-2.739,0A2.739,2.739,0,1,1,2.739,0" fill="white" stroke="#1b9e77" stroke-width="2" opacity="1"/><path aria-label="Lm (binned): 3.54216309835 – 4.54216309835; Energy [keV]: 305.205; Mean of D_whistler: 0.00000115610322805" role="graphics-symbol" aria-roledescription="point" transform="translate(197.9455525520952,193.70033861837038)" d="M2.739,0A2.739,2.739,0,1,1,-2.739,0A2.739,2.739,0,1,1,2.739,0" fill="white" stroke="#1b9e77" stroke-width="2" opacity="1"/><path aria-label="Lm (binned): 3.54216309835 – 4.54216309835; Energy [keV]: 520.48; Mean of D_whistler: 7.23891136786e-7" role="graphics-symbol" aria-roledescription="point" transform="translate(228.85387279170374,214.03267407751662)" d="M2.739,0A2.739,2.739,0,1,1,-2.739,0A2.739,2.739,0,1,1,2.739,0" fill="white" stroke="#1b9e77" stroke-width="2" opacity="1"/><path aria-label="Lm (binned): 3.54216309835 – 4.54216309835; Energy [keV]: 385.162; Mean of D_whistler: 9.59007418682e-7" role="graphics-symbol" aria-roledescription="point" transform="translate(211.4191244221238,201.81780332047174)" d="M2.739,0A2.739,2.739,0,1,1,-2.739,0A2.739,2.739,0,1,1,2.739,0" fill="white" stroke="#1b9e77" stroke-width="2" opacity="1"/><path aria-label="Lm (binned): 3.54216309835 – 4.54216309835; Energy [keV]: 752.994; Mean of D_whistler: 4.82063994284e-7" role="graphics-symbol" aria-roledescription="point" transform="translate(250.23886875641512,231.68953050812092)" d="M2.739,0A2.739,2.739,0,1,1,-2.739,0A2.739,2.739,0,1,1,2.739,0" fill="white" stroke="#1b9e77" stroke-width="2" opacity="1"/><path aria-label="Lm (binned): 3.54216309835 – 4.54216309835; Energy [keV]: 1081.67; Mean of D_whistler: 3.03628805877e-7" role="graphics-symbol" aria-roledescription="point" transform="translate(271.21263796858346,251.76570284287226)" d="M2.739,0A2.739,2.739,0,1,1,-2.739,0A2.739,2.739,0,1,1,2.739,0" fill="white" stroke="#1b9e77" stroke-width="2" opacity="1"/><path aria-label="Lm (binned): 3.54216309835 – 4.54216309835; Energy [keV]: 183.303; Mean of D_whistler: 0.00000159770733198" role="graphics-symbol" aria-roledescription="point" transform="translate(168.4226097111171,179.65027717971657)" d="M2.739,0A2.739,2.739,0,1,1,-2.739,0A2.739,2.739,0,1,1,2.739,0" fill="white" stroke="#1b9e77" stroke-width="2" opacity="1"/><path aria-label="Lm (binned): 3.54216309835 – 4.54216309835; Energy [keV]: 1529.71; Mean of D_whistler: 1.84940428632e-7" role="graphics-symbol" aria-roledescription="point" transform="translate(291.2812141014085,273.2968140152067)" d="M2.739,0A2.739,2.739,0,1,1,-2.739,0A2.739,2.739,0,1,1,2.739,0" fill="white" stroke="#1b9e77" stroke-width="2" opacity="1"/><path aria-label="Lm (binned): 3.54216309835 – 4.54216309835; Energy [keV]: 2121.32; Mean of D_whistler: 1.11151922238e-7" role="graphics-symbol" aria-roledescription="point" transform="translate(310.21415820683416,295.4083022302414)" d="M2.739,0A2.739,2.739,0,1,1,-2.739,0A2.739,2.739,0,1,1,2.739,0" fill="white" stroke="#1b9e77" stroke-width="2" opacity="1"/></g><g class="mark-group role-legend" role="graphics-symbol" aria-roledescription="legend" aria-label="Discrete legend titled 'Lm (binned)' for stroke color with 2 boundaries: 4.5, 5.5"><g transform="translate(418,0)"><path class="background" aria-hidden="true" d="M0,0h63v216h-63Z" pointer-events="none"/><g><g class="mark-group role-legend-entry"><g transform="translate(0,16)"><path class="background" aria-hidden="true" d="M0,0h0v0h0Z" pointer-events="none"/><g><g class="mark-rect role-legend-band" pointer-events="none"><path d="M0,133.33333333333331h16v66.66666666666669h-16Z" fill="#1b9e77" stroke="#ddd" stroke-width="0" opacity="1"/><path d="M0,66.66666666666666h16v66.66666666666666h-16Z" fill="#d95f02" stroke="#ddd" stroke-width="0" opacity="1"/><path d="M0,0h16v66.66666666666666h-16Z" fill="#7570b3" stroke="#ddd" stroke-width="0" opacity="1"/></g><g class="mark-text role-legend-label" pointer-events="none"><text text-anchor="start" transform="translate(18,198)" font-family="sans-serif" font-size="10px" fill="#000" opacity="1"/><text text-anchor="start" transform="translate(18,136.33333333333331)" font-family="sans-serif" font-size="10px" fill="#000" opacity="1">4.5</text><text text-anchor="start" transform="translate(18,69.66666666666666)" font-family="sans-serif" font-size="10px" fill="#000" opacity="1">5.5</text></g></g><path class="foreground" aria-hidden="true" d="" pointer-events="none" display="none"/></g></g><g class="mark-text role-legend-title" pointer-events="none"><text text-anchor="start" transform="translate(0,9)" font-family="sans-serif" font-size="11px" font-weight="bold" fill="#000" opacity="1">Lm (binned)</text></g></g><path class="foreground" aria-hidden="true" d="" pointer-events="none" display="none"/></g></g></g><path class="foreground" aria-hidden="true" d="" display="none"/></g></g></g></svg>