<?xml version="1.0" encoding="utf-8" standalone="no"?>
<!DOCTYPE svg PUBLIC "-//W3C//DTD SVG 1.1//EN"
  "http://www.w3.org/Graphics/SVG/1.1/DTD/svg11.dtd">
<svg height="412.56pt" version="1.1" viewBox="0 0 455.62 412.56" width="455.62pt" xmlns="http://www.w3.org/2000/svg" xmlns:xlink="http://www.w3.org/1999/xlink">
 <metadata>
  <rdf:RDF xmlns:cc="http://creativecommons.org/ns#" xmlns:dc="http://purl.org/dc/elements/1.1/" xmlns:rdf="http://www.w3.org/1999/02/22-rdf-syntax-ns#">
   <cc:Work>
    <dc:type rdf:resource="http://purl.org/dc/dcmitype/StillImage"/>
    <dc:date>2023-05-07T04:01:22.749202</dc:date>
    <dc:format>image/svg+xml</dc:format>
    <dc:creator>
     <cc:Agent>
      <dc:title>Matplotlib v3.4.3, https://matplotlib.org/</dc:title>
     </cc:Agent>
    </dc:creator>
   </cc:Work>
  </rdf:RDF>
 </metadata>
 <defs>
  <style type="text/css">*{stroke-linecap:butt;stroke-linejoin:round;}</style>
 </defs>
 <g id="figure_1">
  <g id="patch_1">
   <path d="M 0 412.56 
L 455.62 412.56 
L 455.62 0 
L 0 0 
z
" style="fill:#ffffff;"/>
  </g>
  <g id="axes_1">
   <g id="patch_2">
    <path d="M 380.54 212.74 
C 380.54 189.102617 375.883951 165.695077 366.838316 143.856982 
C 357.792681 122.018887 344.533375 102.174933 327.819221 85.460779 
C 311.105067 68.746625 291.261113 55.487319 269.423018 46.441684 
C 247.584923 37.396049 224.177383 32.74 200.54 32.74 
C 176.902617 32.74 153.495077 37.396049 131.656982 46.441684 
C 109.818887 55.487319 89.974933 68.746625 73.260779 85.460779 
C 56.546625 102.174933 43.287319 122.018887 34.241684 143.856982 
C 25.196049 165.695077 20.54 189.102617 20.54 212.74 
C 20.54 236.377383 25.196049 259.784923 34.241684 281.623018 
C 43.287319 303.461113 56.546625 323.305067 73.260779 340.019221 
C 89.974933 356.733375 109.818887 369.992681 131.656982 379.038316 
C 153.495077 388.083951 176.902617 392.74 200.54 392.74 
C 224.177383 392.74 247.584923 388.083951 269.423018 379.038316 
C 291.261113 369.992681 311.105067 356.733375 327.819221 340.019221 
C 344.533375 323.305067 357.792681 303.461113 366.838316 281.623018 
C 375.883951 259.784923 380.54 236.377383 380.54 212.74 
M 200.54 212.74 
C 200.54 212.74 200.54 212.74 200.54 212.74 
C 200.54 212.74 200.54 212.74 200.54 212.74 
C 200.54 212.74 200.54 212.74 200.54 212.74 
C 200.54 212.74 200.54 212.74 200.54 212.74 
C 200.54 212.74 200.54 212.74 200.54 212.74 
C 200.54 212.74 200.54 212.74 200.54 212.74 
C 200.54 212.74 200.54 212.74 200.54 212.74 
C 200.54 212.74 200.54 212.74 200.54 212.74 
C 200.54 212.74 200.54 212.74 200.54 212.74 
C 200.54 212.74 200.54 212.74 200.54 212.74 
C 200.54 212.74 200.54 212.74 200.54 212.74 
C 200.54 212.74 200.54 212.74 200.54 212.74 
C 200.54 212.74 200.54 212.74 200.54 212.74 
C 200.54 212.74 200.54 212.74 200.54 212.74 
C 200.54 212.74 200.54 212.74 200.54 212.74 
C 200.54 212.74 200.54 212.74 200.54 212.74 
M 380.54 212.74 
z
" style="fill:#ffffff;"/>
   </g>
   <g id="PathCollection_1">
    <defs>
     <path d="M 0 -3 
L -0.673542 -0.927051 
L -2.85317 -0.927051 
L -1.089814 0.354102 
L -1.763356 2.427051 
L -0 1.145898 
L 1.763356 2.427051 
L 1.089814 0.354102 
L 2.85317 -0.927051 
L 0.673542 -0.927051 
z
" id="mf22b072e2e" style="stroke:#5bbe94;stroke-width:0.6;"/>
    </defs>
    <g clip-path="url(#p6c82ba9484)">
     <use style="fill-opacity:0;stroke:#5bbe94;stroke-width:0.6;" x="193.273826" xlink:href="#mf22b072e2e" y="258.360442"/>
    </g>
   </g>
   <g id="PathCollection_2">
    <g clip-path="url(#p6c82ba9484)">
     <use style="fill-opacity:0;stroke:#5bbe94;stroke-width:0.6;" x="190.216391" xlink:href="#mf22b072e2e" y="252.869873"/>
    </g>
   </g>
   <g id="PathCollection_3">
    <defs>
     <path d="M -0 4.242641 
L 4.242641 0 
L 0 -4.242641 
L -4.242641 -0 
z
" id="m01d356b20d" style="stroke:#5bbe94;stroke-width:0.6;"/>
    </defs>
    <g clip-path="url(#p6c82ba9484)">
     <use style="fill-opacity:0;stroke:#5bbe94;stroke-width:0.6;" x="119.633165" xlink:href="#m01d356b20d" y="335.672997"/>
    </g>
   </g>
   <g id="PathCollection_4">
    <g clip-path="url(#p6c82ba9484)">
     <use style="fill-opacity:0;stroke:#5bbe94;stroke-width:0.6;" x="89.490095" xlink:href="#m01d356b20d" y="309.669704"/>
    </g>
   </g>
   <g id="PathCollection_5">
    <defs>
     <path d="M 0 -3 
L -0.673542 -0.927051 
L -2.85317 -0.927051 
L -1.089814 0.354102 
L -1.763356 2.427051 
L -0 1.145898 
L 1.763356 2.427051 
L 1.089814 0.354102 
L 2.85317 -0.927051 
L 0.673542 -0.927051 
z
" id="m0b91b68030" style="stroke:#91be64;stroke-width:0.6;"/>
    </defs>
    <g clip-path="url(#p6c82ba9484)">
     <use style="fill-opacity:0;stroke:#91be64;stroke-width:0.6;" x="205.916129" xlink:href="#m0b91b68030" y="258.603804"/>
    </g>
   </g>
   <g id="PathCollection_6">
    <g clip-path="url(#p6c82ba9484)">
     <use style="fill-opacity:0;stroke:#91be64;stroke-width:0.6;" x="197.452881" xlink:href="#m0b91b68030" y="265.73244"/>
    </g>
   </g>
   <g id="PathCollection_7">
    <defs>
     <path d="M -0 4.242641 
L 4.242641 0 
L 0 -4.242641 
L -4.242641 -0 
z
" id="m30011d7556" style="stroke:#91be64;stroke-width:0.6;"/>
    </defs>
    <g clip-path="url(#p6c82ba9484)">
     <use style="fill-opacity:0;stroke:#91be64;stroke-width:0.6;" x="145.790291" xlink:href="#m30011d7556" y="446.285962"/>
    </g>
   </g>
   <g id="PathCollection_8">
    <g clip-path="url(#p6c82ba9484)">
     <use style="fill-opacity:0;stroke:#91be64;stroke-width:0.6;" x="76.643577" xlink:href="#m30011d7556" y="398.895285"/>
    </g>
   </g>
   <g id="PathCollection_9">
    <defs>
     <path d="M 0 -3 
L -0.673542 -0.927051 
L -2.85317 -0.927051 
L -1.089814 0.354102 
L -1.763356 2.427051 
L -0 1.145898 
L 1.763356 2.427051 
L 1.089814 0.354102 
L 2.85317 -0.927051 
L 0.673542 -0.927051 
z
" id="ma24fcd0afe" style="stroke:#e5cf6c;stroke-width:0.6;"/>
    </defs>
    <g clip-path="url(#p6c82ba9484)">
     <use style="fill-opacity:0;stroke:#e5cf6c;stroke-width:0.6;" x="225.671381" xlink:href="#ma24fcd0afe" y="298.750844"/>
    </g>
   </g>
   <g id="PathCollection_10">
    <defs>
     <path d="M -0 4.242641 
L 4.242641 0 
L 0 -4.242641 
L -4.242641 -0 
z
" id="m71e14b4550" style="stroke:#e5cf6c;stroke-width:0.6;"/>
    </defs>
    <g clip-path="url(#p6c82ba9484)">
     <use style="fill-opacity:0;stroke:#e5cf6c;stroke-width:0.6;" x="181.358237" xlink:href="#m71e14b4550" y="129.492557"/>
    </g>
   </g>
   <g id="PathCollection_11">
    <defs>
     <path d="M 0 -3 
L -0.673542 -0.927051 
L -2.85317 -0.927051 
L -1.089814 0.354102 
L -1.763356 2.427051 
L -0 1.145898 
L 1.763356 2.427051 
L 1.089814 0.354102 
L 2.85317 -0.927051 
L 0.673542 -0.927051 
z
" id="m5be5208d42" style="stroke:#e87b70;stroke-width:0.6;"/>
    </defs>
    <g clip-path="url(#p6c82ba9484)">
     <use style="fill-opacity:0;stroke:#e87b70;stroke-width:0.6;" x="29.077028" xlink:href="#m5be5208d42" y="195.952905"/>
    </g>
   </g>
   <g id="PathCollection_12">
    <defs>
     <path d="M -0 4.242641 
L 4.242641 0 
L 0 -4.242641 
L -4.242641 -0 
z
" id="m9c461bbef6" style="stroke:#e87b70;stroke-width:0.6;"/>
    </defs>
    <g clip-path="url(#p6c82ba9484)">
     <use style="fill-opacity:0;stroke:#e87b70;stroke-width:0.6;" x="231.096507" xlink:href="#m9c461bbef6" y="61.374796"/>
    </g>
   </g>
   <g id="PathCollection_13">
    <defs>
     <path d="M 0 -3 
L -0.673542 -0.927051 
L -2.85317 -0.927051 
L -1.089814 0.354102 
L -1.763356 2.427051 
L -0 1.145898 
L 1.763356 2.427051 
L 1.089814 0.354102 
L 2.85317 -0.927051 
L 0.673542 -0.927051 
z
" id="mb186f7fa20" style="stroke:#cc6686;stroke-width:0.6;"/>
    </defs>
    <g clip-path="url(#p6c82ba9484)">
     <use style="fill-opacity:0;stroke:#cc6686;stroke-width:0.6;" x="289.637118" xlink:href="#mb186f7fa20" y="220.846251"/>
    </g>
   </g>
   <g id="PathCollection_14">
    <defs>
     <path d="M -0 4.242641 
L 4.242641 0 
L 0 -4.242641 
L -4.242641 -0 
z
" id="m0e10ec6702" style="stroke:#cc6686;stroke-width:0.6;"/>
    </defs>
    <g clip-path="url(#p6c82ba9484)">
     <use style="fill-opacity:0;stroke:#cc6686;stroke-width:0.6;" x="265.588761" xlink:href="#m0e10ec6702" y="197.550836"/>
    </g>
   </g>
   <g id="PolyCollection_1">
    <defs>
     <path d="M 212.54 -199.82 
L 200.54 -199.82 
L 200.54 -199.82 
L 200.54 -199.82 
L 200.54 -199.82 
L 200.54 -199.82 
L 200.54 -199.82 
L 200.54 -199.82 
L 200.54 -199.82 
L 200.54 -199.82 
L 200.54 -199.82 
L 200.54 -199.82 
L 200.54 -199.82 
L 200.54 -199.82 
L 200.54 -199.82 
L 200.54 -199.82 
L 200.54 -199.82 
L 200.54 -199.82 
L 200.54 -199.82 
L 200.54 -199.82 
L 200.54 -199.82 
L 200.54 -199.82 
L 200.54 -199.82 
L 200.54 -199.82 
L 200.54 -199.82 
L 200.54 -199.82 
L 200.54 -199.82 
L 200.54 -199.82 
L 200.54 -199.82 
L 200.54 -199.82 
L 200.54 -199.82 
L 200.54 -199.82 
L 200.54 -199.82 
L 200.54 -199.82 
L 200.54 -199.82 
L 200.54 -199.82 
L 200.54 -199.82 
L 200.54 -199.82 
L 200.54 -199.82 
L 200.54 -199.82 
L 200.54 -199.82 
L 200.54 -199.82 
L 200.54 -199.82 
L 200.54 -199.82 
L 200.54 -199.82 
L 200.54 -199.82 
L 200.54 -199.82 
L 200.54 -199.82 
L 200.54 -199.82 
L 200.54 -199.82 
L 200.54 -199.82 
L 200.54 -199.82 
L 200.54 -199.82 
L 200.54 -199.82 
L 200.54 -199.82 
L 200.54 -199.82 
L 200.54 -199.82 
L 200.54 -199.82 
L 200.54 -199.82 
L 200.54 -199.82 
L 200.54 -199.82 
L 200.54 -199.82 
L 200.54 -199.82 
L 200.54 -199.82 
L 200.54 -199.82 
L 200.54 -199.82 
L 200.54 -199.82 
L 200.54 -199.82 
L 200.54 -199.82 
L 200.54 -199.82 
L 200.54 -199.82 
L 200.54 -199.82 
L 200.54 -199.82 
L 200.54 -199.82 
L 200.54 -199.82 
L 200.54 -199.82 
L 200.54 -199.82 
L 200.54 -199.82 
L 200.54 -199.82 
L 200.54 -199.82 
L 200.54 -199.82 
L 200.54 -199.82 
L 200.54 -199.82 
L 200.54 -199.82 
L 200.54 -199.82 
L 200.54 -199.82 
L 200.54 -199.82 
L 200.54 -199.82 
L 200.54 -199.82 
L 200.54 -199.82 
L 200.54 -199.82 
L 200.54 -199.82 
L 200.54 -199.82 
L 200.54 -199.82 
L 200.54 -199.82 
L 200.54 -199.82 
L 200.54 -199.82 
L 200.54 -199.82 
L 200.54 -199.82 
L 200.54 -199.82 
L 200.54 -199.82 
L 200.54 -199.82 
L 200.54 -199.82 
L 200.54 -199.82 
L 200.54 -199.82 
L 200.54 -199.82 
L 200.54 -199.82 
L 200.54 -199.82 
L 200.54 -199.82 
L 200.54 -199.82 
L 200.54 -199.82 
L 200.54 -199.82 
L 200.54 -199.82 
L 200.54 -199.82 
L 200.54 -199.82 
L 200.54 -199.82 
L 200.54 -199.82 
L 200.54 -199.82 
L 200.54 -199.82 
L 200.54 -199.82 
L 200.54 -199.82 
L 200.54 -199.82 
L 200.54 -199.82 
L 200.54 -199.82 
L 200.54 -199.82 
L 200.54 -199.82 
L 200.54 -199.82 
L 200.54 -199.82 
L 200.54 -199.82 
L 200.54 -199.82 
L 200.54 -199.82 
L 200.54 -199.82 
L 200.54 -199.82 
L 200.54 -199.82 
L 200.54 -199.82 
L 200.54 -199.82 
L 200.54 -199.82 
L 200.54 -199.82 
L 200.54 -199.82 
L 200.54 -199.82 
L 200.54 -199.82 
L 200.54 -199.82 
L 200.54 -199.82 
L 200.54 -199.82 
L 200.54 -199.82 
L 200.54 -199.82 
L 200.54 -199.82 
L 200.54 -199.82 
L 200.54 -199.82 
L 200.54 -199.82 
L 200.54 -199.82 
L 200.54 -199.82 
L 200.54 -199.82 
L 200.54 -199.82 
L 200.54 -199.82 
L 200.54 -199.82 
L 200.54 -199.82 
L 200.54 -199.82 
L 200.54 -199.82 
L 200.54 -199.82 
L 200.54 -199.82 
L 200.54 -199.82 
L 200.54 -199.82 
L 200.54 -199.82 
L 200.54 -199.82 
L 200.54 -199.82 
L 200.54 -199.82 
L 200.54 -199.82 
L 200.54 -199.82 
L 200.54 -199.82 
L 200.54 -199.82 
L 200.54 -199.82 
L 200.54 -199.82 
L 200.54 -199.82 
L 200.54 -199.82 
L 200.54 -199.82 
L 200.54 -199.82 
L 200.54 -199.82 
L 200.54 -199.82 
L 200.54 -199.82 
L 200.54 -199.82 
L 200.54 -199.82 
L 200.54 -199.82 
L 200.54 -199.82 
L 200.54 -199.82 
L 200.54 -199.82 
L 200.54 -199.82 
L 200.54 -199.82 
L 200.54 -199.82 
L 200.54 -199.82 
L 200.54 -199.82 
L 200.54 -199.82 
L 200.54 -199.82 
L 200.54 -199.82 
L 200.54 -199.82 
L 200.54 -199.82 
L 200.54 -199.82 
L 200.54 -199.82 
L 200.54 -199.82 
L 200.54 -199.82 
L 200.54 -199.82 
L 200.54 -199.82 
L 200.54 -199.82 
L 200.54 -199.82 
L 200.54 -199.82 
L 200.54 -199.82 
L 200.54 -199.82 
L 200.54 -199.82 
L 200.54 -199.82 
L 200.54 -199.82 
L 200.54 -199.82 
L 200.54 -199.82 
L 200.54 -199.82 
L 200.54 -199.82 
L 200.54 -199.82 
L 200.54 -199.82 
L 200.54 -199.82 
L 200.54 -199.82 
L 200.54 -199.82 
L 200.54 -199.82 
L 200.54 -199.82 
L 200.54 -199.82 
L 200.54 -199.82 
L 200.54 -199.82 
L 200.54 -199.82 
L 200.54 -199.82 
L 200.54 -199.82 
L 200.54 -199.82 
L 200.54 -199.82 
L 200.54 -199.82 
L 200.54 -199.82 
L 200.54 -199.82 
L 200.54 -199.82 
L 200.54 -199.82 
L 200.54 -199.82 
L 200.54 -199.82 
L 200.54 -199.82 
L 200.54 -199.82 
L 200.54 -199.82 
L 200.54 -199.82 
L 200.54 -199.82 
L 200.54 -199.82 
L 200.54 -199.82 
L 200.54 -199.82 
L 200.54 -199.82 
L 200.54 -199.82 
L 200.54 -199.82 
L 200.54 -199.82 
L 200.54 -199.82 
L 200.54 -199.82 
L 200.54 -199.82 
L 200.596605 -211.819866 
L 200.596605 -211.819866 
L 200.672076 -211.819273 
L 200.747542 -211.818205 
L 200.823 -211.816662 
L 200.898447 -211.814645 
L 200.973879 -211.812154 
L 201.049294 -211.809188 
L 201.12469 -211.805747 
L 201.200062 -211.801833 
L 201.275407 -211.797444 
L 201.350724 -211.792582 
L 201.426009 -211.787246 
L 201.501259 -211.781437 
L 201.57647 -211.775155 
L 201.651641 -211.7684 
L 201.726768 -211.761172 
L 201.801847 -211.753471 
L 201.876877 -211.745299 
L 201.951854 -211.736655 
L 202.026775 -211.72754 
L 202.101637 -211.717953 
L 202.176438 -211.707896 
L 202.251174 -211.697369 
L 202.325842 -211.686371 
L 202.400439 -211.674905 
L 202.474963 -211.662969 
L 202.54941 -211.650565 
L 202.623778 -211.637693 
L 202.698064 -211.624354 
L 202.772264 -211.610547 
L 202.846375 -211.596274 
L 202.920396 -211.581535 
L 202.994322 -211.566331 
L 203.068151 -211.550663 
L 203.14188 -211.53453 
L 203.215507 -211.517934 
L 203.289027 -211.500875 
L 203.362439 -211.483355 
L 203.435739 -211.465372 
L 203.508925 -211.446929 
L 203.581993 -211.428027 
L 203.65494 -211.408665 
L 203.727765 -211.388844 
L 203.800463 -211.368566 
L 203.873033 -211.347831 
L 203.94547 -211.32664 
L 204.017773 -211.304994 
L 204.089939 -211.282894 
L 204.161963 -211.26034 
L 204.233845 -211.237334 
L 204.305581 -211.213876 
L 204.377167 -211.189967 
L 204.448602 -211.165608 
L 204.519882 -211.140801 
L 204.591005 -211.115546 
L 204.661967 -211.089844 
L 204.732767 -211.063696 
L 204.8034 -211.037104 
L 204.873865 -211.010068 
L 204.944158 -210.982589 
L 205.014278 -210.954668 
L 205.08422 -210.926307 
L 205.153982 -210.897507 
L 205.223562 -210.868269 
L 205.292957 -210.838593 
L 205.362164 -210.808482 
L 205.43118 -210.777936 
L 205.500002 -210.746956 
L 205.568629 -210.715545 
L 205.637056 -210.683702 
L 205.705282 -210.65143 
L 205.773303 -210.618729 
L 205.841117 -210.585601 
L 205.908722 -210.552047 
L 205.976114 -210.518068 
L 206.043292 -210.483666 
L 206.110251 -210.448843 
L 206.17699 -210.413599 
L 206.243507 -210.377936 
L 206.309797 -210.341855 
L 206.37586 -210.305358 
L 206.441691 -210.268447 
L 206.507289 -210.231122 
L 206.572651 -210.193385 
L 206.637775 -210.155238 
L 206.702657 -210.116682 
L 206.767295 -210.077719 
L 206.831687 -210.03835 
L 206.895831 -209.998576 
L 206.959722 -209.958401 
L 207.02336 -209.917824 
L 207.086742 -209.876847 
L 207.149864 -209.835473 
L 207.212725 -209.793703 
L 207.275322 -209.751538 
L 207.337652 -209.70898 
L 207.399714 -209.666031 
L 207.461504 -209.622692 
L 207.523021 -209.578966 
L 207.584261 -209.534854 
L 207.645223 -209.490357 
L 207.705903 -209.445478 
L 207.7663 -209.400218 
L 207.826411 -209.35458 
L 207.886234 -209.308564 
L 207.945767 -209.262172 
L 208.005006 -209.215408 
L 208.06395 -209.168271 
L 208.122597 -209.120765 
L 208.180943 -209.072891 
L 208.238988 -209.02465 
L 208.296727 -208.976046 
L 208.35416 -208.927079 
L 208.411284 -208.877753 
L 208.468097 -208.828068 
L 208.524596 -208.778026 
L 208.580778 -208.727631 
L 208.636643 -208.676882 
L 208.692188 -208.625784 
L 208.74741 -208.574337 
L 208.802308 -208.522544 
L 208.856878 -208.470407 
L 208.91112 -208.417927 
L 208.965031 -208.365107 
L 209.018608 -208.31195 
L 209.07185 -208.258456 
L 209.124754 -208.204629 
L 209.177319 -208.15047 
L 209.229542 -208.095981 
L 209.281421 -208.041165 
L 209.332955 -207.986024 
L 209.384141 -207.93056 
L 209.434976 -207.874775 
L 209.48546 -207.818671 
L 209.535591 -207.762251 
L 209.585365 -207.705517 
L 209.634782 -207.64847 
L 209.683838 -207.591115 
L 209.732533 -207.533451 
L 209.780865 -207.475483 
L 209.828831 -207.417212 
L 209.876429 -207.35864 
L 209.923658 -207.29977 
L 209.970516 -207.240604 
L 210.017001 -207.181145 
L 210.063111 -207.121394 
L 210.108844 -207.061355 
L 210.154199 -207.001029 
L 210.199173 -206.940419 
L 210.243766 -206.879528 
L 210.287974 -206.818357 
L 210.331797 -206.756909 
L 210.375233 -206.695187 
L 210.418279 -206.633193 
L 210.460935 -206.570929 
L 210.503198 -206.508399 
L 210.545067 -206.445604 
L 210.586541 -206.382547 
L 210.627617 -206.31923 
L 210.668294 -206.255656 
L 210.70857 -206.191827 
L 210.748444 -206.127747 
L 210.787914 -206.063417 
L 210.826979 -205.998839 
L 210.865637 -205.934018 
L 210.903887 -205.868955 
L 210.941726 -205.803652 
L 210.979154 -205.738113 
L 211.016169 -205.672339 
L 211.05277 -205.606334 
L 211.088955 -205.540101 
L 211.124722 -205.473641 
L 211.160071 -205.406957 
L 211.195 -205.340052 
L 211.229507 -205.272929 
L 211.263592 -205.20559 
L 211.297252 -205.138038 
L 211.330487 -205.070276 
L 211.363294 -205.002306 
L 211.395674 -204.934131 
L 211.427624 -204.865754 
L 211.459144 -204.797177 
L 211.490232 -204.728404 
L 211.520886 -204.659436 
L 211.551106 -204.590277 
L 211.580891 -204.520929 
L 211.610239 -204.451395 
L 211.639149 -204.381678 
L 211.667619 -204.31178 
L 211.69565 -204.241705 
L 211.723239 -204.171455 
L 211.750386 -204.101032 
L 211.77709 -204.030441 
L 211.803349 -203.959682 
L 211.829162 -203.88876 
L 211.854529 -203.817678 
L 211.879449 -203.746436 
L 211.903919 -203.67504 
L 211.927941 -203.603491 
L 211.951511 -203.531793 
L 211.974631 -203.459947 
L 211.997298 -203.387958 
L 212.019512 -203.315828 
L 212.041271 -203.243559 
L 212.062576 -203.171155 
L 212.083425 -203.098618 
L 212.103818 -203.025951 
L 212.123752 -202.953158 
L 212.143229 -202.880241 
L 212.162247 -202.807203 
L 212.180805 -202.734046 
L 212.198902 -202.660775 
L 212.216538 -202.58739 
L 212.233713 -202.513897 
L 212.250425 -202.440297 
L 212.266673 -202.366593 
L 212.282458 -202.292789 
L 212.297778 -202.218886 
L 212.312633 -202.144889 
L 212.327023 -202.0708 
L 212.340946 -201.996622 
L 212.354402 -201.922357 
L 212.367391 -201.84801 
L 212.379912 -201.773582 
L 212.391965 -201.699077 
L 212.403549 -201.624498 
L 212.414663 -201.549847 
L 212.425308 -201.475128 
L 212.435483 -201.400343 
L 212.445187 -201.325496 
L 212.45442 -201.25059 
L 212.463182 -201.175626 
L 212.471473 -201.10061 
L 212.479291 -201.025542 
L 212.486637 -200.950427 
L 212.49351 -200.875267 
L 212.499911 -200.800065 
L 212.505839 -200.724825 
L 212.511293 -200.649549 
L 212.516273 -200.574239 
L 212.52078 -200.498901 
L 212.524813 -200.423535 
L 212.528372 -200.348145 
L 212.531457 -200.272735 
L 212.534067 -200.197306 
L 212.536203 -200.121863 
L 212.537864 -200.046408 
L 212.539051 -199.970943 
L 212.539763 -199.895473 
L 212.54 -199.82 
z
" id="m0bbb1f5074" style="stroke:#000000;stroke-width:0.3;"/>
    </defs>
    <g clip-path="url(#p6c82ba9484)">
     <use style="stroke:#000000;stroke-width:0.3;" x="0" xlink:href="#m0bbb1f5074" y="412.56"/>
    </g>
   </g>
   <g id="PolyCollection_2">
    <defs>
     <path d="M 200.596605 -187.820134 
L 200.54 -199.82 
L 200.54 -199.82 
L 200.54 -199.82 
L 200.54 -199.82 
L 200.54 -199.82 
L 200.54 -199.82 
L 200.54 -199.82 
L 200.54 -199.82 
L 200.54 -199.82 
L 200.54 -199.82 
L 200.54 -199.82 
L 200.54 -199.82 
L 200.54 -199.82 
L 200.54 -199.82 
L 200.54 -199.82 
L 200.54 -199.82 
L 200.54 -199.82 
L 200.54 -199.82 
L 200.54 -199.82 
L 200.54 -199.82 
L 200.54 -199.82 
L 200.54 -199.82 
L 200.54 -199.82 
L 200.54 -199.82 
L 200.54 -199.82 
L 200.54 -199.82 
L 200.54 -199.82 
L 200.54 -199.82 
L 200.54 -199.82 
L 200.54 -199.82 
L 200.54 -199.82 
L 200.54 -199.82 
L 200.54 -199.82 
L 200.54 -199.82 
L 200.54 -199.82 
L 200.54 -199.82 
L 200.54 -199.82 
L 200.54 -199.82 
L 200.54 -199.82 
L 200.54 -199.82 
L 200.54 -199.82 
L 200.54 -199.82 
L 200.54 -199.82 
L 200.54 -199.82 
L 200.54 -199.82 
L 200.54 -199.82 
L 200.54 -199.82 
L 200.54 -199.82 
L 200.54 -199.82 
L 200.54 -199.82 
L 200.54 -199.82 
L 200.54 -199.82 
L 200.54 -199.82 
L 200.54 -199.82 
L 200.54 -199.82 
L 200.54 -199.82 
L 200.54 -199.82 
L 200.54 -199.82 
L 200.54 -199.82 
L 200.54 -199.82 
L 200.54 -199.82 
L 200.54 -199.82 
L 200.54 -199.82 
L 200.54 -199.82 
L 200.54 -199.82 
L 200.54 -199.82 
L 200.54 -199.82 
L 200.54 -199.82 
L 200.54 -199.82 
L 200.54 -199.82 
L 200.54 -199.82 
L 200.54 -199.82 
L 200.54 -199.82 
L 200.54 -199.82 
L 200.54 -199.82 
L 200.54 -199.82 
L 200.54 -199.82 
L 200.54 -199.82 
L 200.54 -199.82 
L 200.54 -199.82 
L 200.54 -199.82 
L 200.54 -199.82 
L 200.54 -199.82 
L 200.54 -199.82 
L 200.54 -199.82 
L 200.54 -199.82 
L 200.54 -199.82 
L 200.54 -199.82 
L 200.54 -199.82 
L 200.54 -199.82 
L 200.54 -199.82 
L 200.54 -199.82 
L 200.54 -199.82 
L 200.54 -199.82 
L 200.54 -199.82 
L 200.54 -199.82 
L 200.54 -199.82 
L 200.54 -199.82 
L 200.54 -199.82 
L 200.54 -199.82 
L 200.54 -199.82 
L 200.54 -199.82 
L 200.54 -199.82 
L 200.54 -199.82 
L 200.54 -199.82 
L 200.54 -199.82 
L 200.54 -199.82 
L 200.54 -199.82 
L 200.54 -199.82 
L 200.54 -199.82 
L 200.54 -199.82 
L 200.54 -199.82 
L 200.54 -199.82 
L 200.54 -199.82 
L 200.54 -199.82 
L 200.54 -199.82 
L 200.54 -199.82 
L 200.54 -199.82 
L 200.54 -199.82 
L 200.54 -199.82 
L 200.54 -199.82 
L 200.54 -199.82 
L 200.54 -199.82 
L 200.54 -199.82 
L 200.54 -199.82 
L 200.54 -199.82 
L 200.54 -199.82 
L 200.54 -199.82 
L 200.54 -199.82 
L 200.54 -199.82 
L 200.54 -199.82 
L 200.54 -199.82 
L 200.54 -199.82 
L 200.54 -199.82 
L 200.54 -199.82 
L 200.54 -199.82 
L 200.54 -199.82 
L 200.54 -199.82 
L 200.54 -199.82 
L 200.54 -199.82 
L 200.54 -199.82 
L 200.54 -199.82 
L 200.54 -199.82 
L 200.54 -199.82 
L 200.54 -199.82 
L 200.54 -199.82 
L 200.54 -199.82 
L 200.54 -199.82 
L 200.54 -199.82 
L 200.54 -199.82 
L 200.54 -199.82 
L 200.54 -199.82 
L 200.54 -199.82 
L 200.54 -199.82 
L 200.54 -199.82 
L 200.54 -199.82 
L 200.54 -199.82 
L 200.54 -199.82 
L 200.54 -199.82 
L 200.54 -199.82 
L 200.54 -199.82 
L 200.54 -199.82 
L 200.54 -199.82 
L 200.54 -199.82 
L 200.54 -199.82 
L 200.54 -199.82 
L 200.54 -199.82 
L 200.54 -199.82 
L 200.54 -199.82 
L 200.54 -199.82 
L 200.54 -199.82 
L 200.54 -199.82 
L 200.54 -199.82 
L 200.54 -199.82 
L 200.54 -199.82 
L 200.54 -199.82 
L 200.54 -199.82 
L 200.54 -199.82 
L 200.54 -199.82 
L 200.54 -199.82 
L 200.54 -199.82 
L 200.54 -199.82 
L 200.54 -199.82 
L 200.54 -199.82 
L 200.54 -199.82 
L 200.54 -199.82 
L 200.54 -199.82 
L 200.54 -199.82 
L 200.54 -199.82 
L 200.54 -199.82 
L 200.54 -199.82 
L 200.54 -199.82 
L 200.54 -199.82 
L 200.54 -199.82 
L 200.54 -199.82 
L 200.54 -199.82 
L 200.54 -199.82 
L 200.54 -199.82 
L 200.54 -199.82 
L 200.54 -199.82 
L 200.54 -199.82 
L 200.54 -199.82 
L 200.54 -199.82 
L 200.54 -199.82 
L 200.54 -199.82 
L 200.54 -199.82 
L 200.54 -199.82 
L 200.54 -199.82 
L 200.54 -199.82 
L 200.54 -199.82 
L 200.54 -199.82 
L 200.54 -199.82 
L 200.54 -199.82 
L 200.54 -199.82 
L 200.54 -199.82 
L 200.54 -199.82 
L 200.54 -199.82 
L 200.54 -199.82 
L 200.54 -199.82 
L 200.54 -199.82 
L 200.54 -199.82 
L 200.54 -199.82 
L 200.54 -199.82 
L 200.54 -199.82 
L 200.54 -199.82 
L 200.54 -199.82 
L 200.54 -199.82 
L 200.54 -199.82 
L 200.54 -199.82 
L 200.54 -199.82 
L 200.54 -199.82 
L 200.54 -199.82 
L 200.54 -199.82 
L 200.54 -199.82 
L 200.54 -199.82 
L 200.54 -199.82 
L 200.54 -199.82 
L 200.54 -199.82 
L 200.54 -199.82 
L 200.54 -199.82 
L 200.54 -199.82 
L 200.54 -199.82 
L 200.54 -199.82 
L 200.54 -199.82 
L 200.54 -199.82 
L 200.54 -199.82 
L 200.54 -199.82 
L 200.54 -199.82 
L 200.54 -199.82 
L 200.54 -199.82 
L 212.54 -199.82 
L 212.54 -199.82 
L 212.539763 -199.744527 
L 212.539051 -199.669057 
L 212.537864 -199.593592 
L 212.536203 -199.518137 
L 212.534067 -199.442694 
L 212.531457 -199.367265 
L 212.528372 -199.291855 
L 212.524813 -199.216465 
L 212.52078 -199.141099 
L 212.516273 -199.065761 
L 212.511293 -198.990451 
L 212.505839 -198.915175 
L 212.499911 -198.839935 
L 212.49351 -198.764733 
L 212.486637 -198.689573 
L 212.479291 -198.614458 
L 212.471473 -198.53939 
L 212.463182 -198.464374 
L 212.45442 -198.38941 
L 212.445187 -198.314504 
L 212.435483 -198.239657 
L 212.425308 -198.164872 
L 212.414663 -198.090153 
L 212.403549 -198.015502 
L 212.391965 -197.940923 
L 212.379912 -197.866418 
L 212.367391 -197.79199 
L 212.354402 -197.717643 
L 212.340946 -197.643378 
L 212.327023 -197.5692 
L 212.312633 -197.495111 
L 212.297778 -197.421114 
L 212.282458 -197.347211 
L 212.266673 -197.273407 
L 212.250425 -197.199703 
L 212.233713 -197.126103 
L 212.216538 -197.05261 
L 212.198902 -196.979225 
L 212.180805 -196.905954 
L 212.162247 -196.832797 
L 212.143229 -196.759759 
L 212.123752 -196.686842 
L 212.103818 -196.614049 
L 212.083425 -196.541382 
L 212.062576 -196.468845 
L 212.041271 -196.396441 
L 212.019512 -196.324172 
L 211.997298 -196.252042 
L 211.974631 -196.180053 
L 211.951511 -196.108207 
L 211.927941 -196.036509 
L 211.903919 -195.96496 
L 211.879449 -195.893564 
L 211.854529 -195.822322 
L 211.829162 -195.75124 
L 211.803349 -195.680318 
L 211.77709 -195.609559 
L 211.750386 -195.538968 
L 211.723239 -195.468545 
L 211.69565 -195.398295 
L 211.667619 -195.32822 
L 211.639149 -195.258322 
L 211.610239 -195.188605 
L 211.580891 -195.119071 
L 211.551106 -195.049723 
L 211.520886 -194.980564 
L 211.490232 -194.911596 
L 211.459144 -194.842823 
L 211.427624 -194.774246 
L 211.395674 -194.705869 
L 211.363294 -194.637694 
L 211.330487 -194.569724 
L 211.297252 -194.501962 
L 211.263592 -194.43441 
L 211.229507 -194.367071 
L 211.195 -194.299948 
L 211.160071 -194.233043 
L 211.124722 -194.166359 
L 211.088955 -194.099899 
L 211.05277 -194.033666 
L 211.016169 -193.967661 
L 210.979154 -193.901887 
L 210.941726 -193.836348 
L 210.903887 -193.771045 
L 210.865637 -193.705982 
L 210.826979 -193.641161 
L 210.787914 -193.576583 
L 210.748444 -193.512253 
L 210.70857 -193.448173 
L 210.668294 -193.384344 
L 210.627617 -193.32077 
L 210.586541 -193.257453 
L 210.545067 -193.194396 
L 210.503198 -193.131601 
L 210.460935 -193.069071 
L 210.418279 -193.006807 
L 210.375233 -192.944813 
L 210.331797 -192.883091 
L 210.287974 -192.821643 
L 210.243766 -192.760472 
L 210.199173 -192.699581 
L 210.154199 -192.638971 
L 210.108844 -192.578645 
L 210.063111 -192.518606 
L 210.017001 -192.458855 
L 209.970516 -192.399396 
L 209.923658 -192.34023 
L 209.876429 -192.28136 
L 209.828831 -192.222788 
L 209.780865 -192.164517 
L 209.732533 -192.106549 
L 209.683838 -192.048885 
L 209.634782 -191.99153 
L 209.585365 -191.934483 
L 209.535591 -191.877749 
L 209.48546 -191.821329 
L 209.434976 -191.765225 
L 209.384141 -191.70944 
L 209.332955 -191.653976 
L 209.281421 -191.598835 
L 209.229542 -191.544019 
L 209.177319 -191.48953 
L 209.124754 -191.435371 
L 209.07185 -191.381544 
L 209.018608 -191.32805 
L 208.965031 -191.274893 
L 208.91112 -191.222073 
L 208.856878 -191.169593 
L 208.802308 -191.117456 
L 208.74741 -191.065663 
L 208.692188 -191.014216 
L 208.636643 -190.963118 
L 208.580778 -190.912369 
L 208.524596 -190.861974 
L 208.468097 -190.811932 
L 208.411284 -190.762247 
L 208.35416 -190.712921 
L 208.296727 -190.663954 
L 208.238988 -190.61535 
L 208.180943 -190.567109 
L 208.122597 -190.519235 
L 208.06395 -190.471729 
L 208.005006 -190.424592 
L 207.945767 -190.377828 
L 207.886234 -190.331436 
L 207.826411 -190.28542 
L 207.7663 -190.239782 
L 207.705903 -190.194522 
L 207.645223 -190.149643 
L 207.584261 -190.105146 
L 207.523021 -190.061034 
L 207.461504 -190.017308 
L 207.399714 -189.973969 
L 207.337652 -189.93102 
L 207.275322 -189.888462 
L 207.212725 -189.846297 
L 207.149864 -189.804527 
L 207.086742 -189.763153 
L 207.02336 -189.722176 
L 206.959722 -189.681599 
L 206.895831 -189.641424 
L 206.831687 -189.60165 
L 206.767295 -189.562281 
L 206.702657 -189.523318 
L 206.637775 -189.484762 
L 206.572651 -189.446615 
L 206.507289 -189.408878 
L 206.441691 -189.371553 
L 206.37586 -189.334642 
L 206.309797 -189.298145 
L 206.243507 -189.262064 
L 206.17699 -189.226401 
L 206.110251 -189.191157 
L 206.043292 -189.156334 
L 205.976114 -189.121932 
L 205.908722 -189.087953 
L 205.841117 -189.054399 
L 205.773303 -189.021271 
L 205.705282 -188.98857 
L 205.637056 -188.956298 
L 205.568629 -188.924455 
L 205.500002 -188.893044 
L 205.43118 -188.862064 
L 205.362164 -188.831518 
L 205.292957 -188.801407 
L 205.223562 -188.771731 
L 205.153982 -188.742493 
L 205.08422 -188.713693 
L 205.014278 -188.685332 
L 204.944158 -188.657411 
L 204.873865 -188.629932 
L 204.8034 -188.602896 
L 204.732767 -188.576304 
L 204.661967 -188.550156 
L 204.591005 -188.524454 
L 204.519882 -188.499199 
L 204.448602 -188.474392 
L 204.377167 -188.450033 
L 204.305581 -188.426124 
L 204.233845 -188.402666 
L 204.161963 -188.37966 
L 204.089939 -188.357106 
L 204.017773 -188.335006 
L 203.94547 -188.31336 
L 203.873033 -188.292169 
L 203.800463 -188.271434 
L 203.727765 -188.251156 
L 203.65494 -188.231335 
L 203.581993 -188.211973 
L 203.508925 -188.193071 
L 203.435739 -188.174628 
L 203.362439 -188.156645 
L 203.289027 -188.139125 
L 203.215507 -188.122066 
L 203.14188 -188.10547 
L 203.068151 -188.089337 
L 202.994322 -188.073669 
L 202.920396 -188.058465 
L 202.846375 -188.043726 
L 202.772264 -188.029453 
L 202.698064 -188.015646 
L 202.623778 -188.002307 
L 202.54941 -187.989435 
L 202.474963 -187.977031 
L 202.400439 -187.965095 
L 202.325842 -187.953629 
L 202.251174 -187.942631 
L 202.176438 -187.932104 
L 202.101637 -187.922047 
L 202.026775 -187.91246 
L 201.951854 -187.903345 
L 201.876877 -187.894701 
L 201.801847 -187.886529 
L 201.726768 -187.878828 
L 201.651641 -187.8716 
L 201.57647 -187.864845 
L 201.501259 -187.858563 
L 201.426009 -187.852754 
L 201.350724 -187.847418 
L 201.275407 -187.842556 
L 201.200062 -187.838167 
L 201.12469 -187.834253 
L 201.049294 -187.830812 
L 200.973879 -187.827846 
L 200.898447 -187.825355 
L 200.823 -187.823338 
L 200.747542 -187.821795 
L 200.672076 -187.820727 
L 200.596605 -187.820134 
z
" id="m33f156bae2" style="stroke:#000000;stroke-width:0.3;"/>
    </defs>
    <g clip-path="url(#p6c82ba9484)">
     <use style="stroke:#000000;stroke-width:0.3;" x="0" xlink:href="#m33f156bae2" y="412.56"/>
    </g>
   </g>
   <g id="PathCollection_15">
    <defs>
     <path d="M 0 -3 
L -0.673542 -0.927051 
L -2.85317 -0.927051 
L -1.089814 0.354102 
L -1.763356 2.427051 
L -0 1.145898 
L 1.763356 2.427051 
L 1.089814 0.354102 
L 2.85317 -0.927051 
L 0.673542 -0.927051 
z
" id="m7a482f2c11" style="stroke:#5884b3;stroke-width:0.6;"/>
    </defs>
    <g clip-path="url(#p6c82ba9484)">
     <use style="fill-opacity:0;stroke:#5884b3;stroke-width:0.6;" x="150.366101" xlink:href="#m7a482f2c11" y="303.385553"/>
    </g>
   </g>
   <g id="PathCollection_16">
    <g clip-path="url(#p6c82ba9484)">
     <use style="fill-opacity:0;stroke:#5884b3;stroke-width:0.6;" x="134.182472" xlink:href="#m7a482f2c11" y="320.640379"/>
    </g>
   </g>
   <g id="PathCollection_17">
    <g clip-path="url(#p6c82ba9484)">
     <use style="fill-opacity:0;stroke:#5884b3;stroke-width:0.6;" x="146.683644" xlink:href="#m7a482f2c11" y="315.535761"/>
    </g>
   </g>
   <g id="PathCollection_18">
    <defs>
     <path d="M -0 4.242641 
L 4.242641 0 
L 0 -4.242641 
L -4.242641 -0 
z
" id="me08d4e756e" style="stroke:#5884b3;stroke-width:0.6;"/>
    </defs>
    <g clip-path="url(#p6c82ba9484)">
     <use style="fill-opacity:0;stroke:#5884b3;stroke-width:0.6;" x="187.993505" xlink:href="#me08d4e756e" y="243.709144"/>
    </g>
   </g>
   <g id="PathCollection_19">
    <g clip-path="url(#p6c82ba9484)">
     <use style="fill-opacity:0;stroke:#5884b3;stroke-width:0.6;" x="186.422571" xlink:href="#me08d4e756e" y="245.296437"/>
    </g>
   </g>
   <g id="PathCollection_20">
    <g clip-path="url(#p6c82ba9484)">
     <use style="fill-opacity:0;stroke:#5884b3;stroke-width:0.6;" x="188.175072" xlink:href="#me08d4e756e" y="243.765595"/>
    </g>
   </g>
   <g id="matplotlib.axis_1">
    <g id="xtick_1">
     <g id="line2d_1">
      <path clip-path="url(#p6c82ba9484)" d="M 200.54 212.74 
L 380.54 212.74 
" style="fill:none;stroke:#000000;stroke-linecap:square;stroke-opacity:0.1;stroke-width:0.6;"/>
     </g>
     <g id="text_1">
      <!-- 0 -->
      <g transform="translate(389.038281 215.039922)scale(0.09 -0.09)">
       <defs>
        <path d="M 3245 2182 
Q 3245 1069 2864 486 
Q 2483 -96 1760 -96 
Q 1030 -96 652 489 
Q 275 1075 275 2220 
Q 275 3366 649 3952 
Q 1024 4538 1760 4538 
Q 3245 4538 3245 2182 
z
M 2669 2234 
Q 2669 4038 1760 4038 
Q 851 4038 851 2214 
Q 851 371 1747 371 
Q 2221 371 2445 822 
Q 2669 1274 2669 2234 
z
" id="TeXGyreHeros-Regular-30" transform="scale(0.015625)"/>
       </defs>
       <use xlink:href="#TeXGyreHeros-Regular-30"/>
      </g>
     </g>
    </g>
    <g id="xtick_2">
     <g id="line2d_2">
      <path clip-path="url(#p6c82ba9484)" d="M 200.54 212.74 
L 327.819221 85.460779 
" style="fill:none;stroke:#000000;stroke-linecap:square;stroke-opacity:0.1;stroke-width:0.6;"/>
     </g>
     <g id="text_2">
      <!-- 3 -->
      <g transform="translate(333.095676 79.982527)scale(0.09 -0.09)">
       <defs>
        <path d="M 3238 1318 
Q 3238 672 2819 288 
Q 2400 -96 1702 -96 
Q 998 -96 627 262 
Q 256 621 205 1370 
L 768 1370 
Q 800 877 1030 640 
Q 1261 403 1722 403 
Q 2163 403 2412 643 
Q 2662 883 2662 1312 
Q 2662 1696 2422 1904 
Q 2182 2112 1722 2112 
L 1414 2112 
L 1414 2586 
Q 2067 2586 2297 2739 
Q 2528 2893 2528 3270 
Q 2528 3629 2313 3837 
Q 2099 4045 1728 4045 
Q 1293 4045 1081 3808 
Q 870 3571 864 3072 
L 301 3072 
Q 333 4538 1722 4538 
Q 2368 4538 2736 4205 
Q 3104 3872 3104 3290 
Q 3104 2624 2470 2374 
Q 2874 2234 3056 1984 
Q 3238 1734 3238 1318 
z
" id="TeXGyreHeros-Regular-33" transform="scale(0.015625)"/>
       </defs>
       <use xlink:href="#TeXGyreHeros-Regular-33"/>
      </g>
     </g>
    </g>
    <g id="xtick_3">
     <g id="line2d_3">
      <path clip-path="url(#p6c82ba9484)" d="M 200.54 212.74 
L 200.54 32.74 
" style="fill:none;stroke:#000000;stroke-linecap:square;stroke-opacity:0.1;stroke-width:0.6;"/>
     </g>
     <g id="text_3">
      <!-- 6 -->
      <g transform="translate(198.038281 24.039922)scale(0.09 -0.09)">
       <defs>
        <path d="M 3283 1408 
Q 3283 742 2867 323 
Q 2451 -96 1798 -96 
Q 275 -96 275 2067 
Q 275 3258 694 3898 
Q 1114 4538 1901 4538 
Q 2419 4538 2761 4224 
Q 3104 3910 3187 3354 
L 2624 3354 
Q 2554 3680 2355 3859 
Q 2157 4038 1862 4038 
Q 1376 4038 1117 3593 
Q 858 3149 851 2317 
Q 1222 2822 1894 2822 
Q 2509 2822 2896 2432 
Q 3283 2042 3283 1408 
z
M 2707 1363 
Q 2707 1818 2470 2070 
Q 2234 2323 1824 2323 
Q 1402 2323 1142 2070 
Q 883 1818 883 1395 
Q 883 960 1145 681 
Q 1408 403 1805 403 
Q 2195 403 2451 672 
Q 2707 941 2707 1363 
z
" id="TeXGyreHeros-Regular-36" transform="scale(0.015625)"/>
       </defs>
       <use xlink:href="#TeXGyreHeros-Regular-36"/>
      </g>
     </g>
    </g>
    <g id="xtick_4">
     <g id="line2d_4">
      <path clip-path="url(#p6c82ba9484)" d="M 200.54 212.74 
L 73.260779 85.460779 
" style="fill:none;stroke:#000000;stroke-linecap:square;stroke-opacity:0.1;stroke-width:0.6;"/>
     </g>
     <g id="text_4">
      <!-- 9 -->
      <g transform="translate(62.980886 79.982527)scale(0.09 -0.09)">
       <defs>
        <path d="M 3258 2374 
Q 3258 1190 2838 547 
Q 2419 -96 1626 -96 
Q 1107 -96 764 217 
Q 422 531 339 1088 
L 902 1088 
Q 973 762 1171 582 
Q 1370 403 1664 403 
Q 2150 403 2409 848 
Q 2669 1293 2675 2125 
Q 2253 1619 1638 1619 
Q 1024 1619 633 2009 
Q 243 2400 243 3034 
Q 243 3699 659 4118 
Q 1075 4538 1728 4538 
Q 3258 4538 3258 2374 
z
M 2643 3046 
Q 2643 3482 2380 3763 
Q 2118 4045 1722 4045 
Q 1331 4045 1075 3776 
Q 819 3507 819 3078 
Q 819 2624 1056 2371 
Q 1293 2118 1702 2118 
Q 2118 2118 2380 2374 
Q 2643 2630 2643 3046 
z
" id="TeXGyreHeros-Regular-39" transform="scale(0.015625)"/>
       </defs>
       <use xlink:href="#TeXGyreHeros-Regular-39"/>
      </g>
     </g>
    </g>
    <g id="xtick_5">
     <g id="line2d_5">
      <path clip-path="url(#p6c82ba9484)" d="M 200.54 212.74 
L 20.54 212.74 
" style="fill:none;stroke:#000000;stroke-linecap:square;stroke-opacity:0.1;stroke-width:0.6;"/>
     </g>
     <g id="text_5">
      <!-- 12 -->
      <g transform="translate(4.536563 215.039922)scale(0.09 -0.09)">
       <defs>
        <path d="M 2221 0 
L 1658 0 
L 1658 3232 
L 653 3232 
L 653 3635 
Q 1306 3718 1504 3865 
Q 1702 4013 1850 4538 
L 2221 4538 
L 2221 0 
z
" id="TeXGyreHeros-Regular-31" transform="scale(0.015625)"/>
        <path d="M 3270 3206 
Q 3270 2349 2310 1837 
L 1670 1491 
Q 1254 1248 1075 1043 
Q 896 838 851 557 
L 3238 557 
L 3238 0 
L 218 0 
Q 256 749 518 1155 
Q 781 1562 1491 1965 
L 2080 2298 
Q 2694 2650 2694 3194 
Q 2694 3558 2438 3801 
Q 2182 4045 1798 4045 
Q 1370 4045 1142 3785 
Q 915 3526 883 2963 
L 320 2963 
Q 365 4538 1818 4538 
Q 2458 4538 2864 4160 
Q 3270 3782 3270 3206 
z
" id="TeXGyreHeros-Regular-32" transform="scale(0.015625)"/>
       </defs>
       <use xlink:href="#TeXGyreHeros-Regular-31"/>
       <use x="55.599991" xlink:href="#TeXGyreHeros-Regular-32"/>
      </g>
     </g>
    </g>
    <g id="xtick_6">
     <g id="line2d_6">
      <path clip-path="url(#p6c82ba9484)" d="M 200.54 212.74 
L 73.260779 340.019221 
" style="fill:none;stroke:#000000;stroke-linecap:square;stroke-opacity:0.1;stroke-width:0.6;"/>
     </g>
     <g id="text_6">
      <!-- 15 -->
      <g transform="translate(60.479167 350.097317)scale(0.09 -0.09)">
       <defs>
        <path d="M 3283 1504 
Q 3283 787 2851 345 
Q 2419 -96 1728 -96 
Q 1107 -96 732 205 
Q 358 506 224 1165 
L 787 1165 
Q 986 403 1715 403 
Q 2182 403 2444 672 
Q 2707 941 2707 1427 
Q 2707 1926 2441 2208 
Q 2176 2490 1715 2490 
Q 1453 2490 1267 2397 
Q 1082 2304 883 2067 
L 365 2067 
L 704 4442 
L 3046 4442 
L 3046 3885 
L 1158 3885 
L 979 2714 
Q 1357 2989 1818 2989 
Q 2470 2989 2876 2582 
Q 3283 2176 3283 1504 
z
" id="TeXGyreHeros-Regular-35" transform="scale(0.015625)"/>
       </defs>
       <use xlink:href="#TeXGyreHeros-Regular-31"/>
       <use x="55.599991" xlink:href="#TeXGyreHeros-Regular-35"/>
      </g>
     </g>
    </g>
    <g id="xtick_7">
     <g id="line2d_7">
      <path clip-path="url(#p6c82ba9484)" d="M 200.54 212.74 
L 200.54 392.74 
" style="fill:none;stroke:#000000;stroke-linecap:square;stroke-opacity:0.1;stroke-width:0.6;"/>
     </g>
     <g id="text_7">
      <!-- 18 -->
      <g transform="translate(195.536563 406.039922)scale(0.09 -0.09)">
       <defs>
        <path d="M 3283 1280 
Q 3283 666 2857 285 
Q 2432 -96 1760 -96 
Q 1082 -96 659 285 
Q 237 666 237 1286 
Q 237 2016 1011 2387 
Q 666 2605 531 2809 
Q 397 3014 397 3328 
Q 397 3859 777 4198 
Q 1158 4538 1760 4538 
Q 2362 4538 2742 4198 
Q 3123 3859 3123 3328 
Q 3123 3008 2988 2803 
Q 2854 2598 2502 2387 
Q 3283 2016 3283 1280 
z
M 2547 3315 
Q 2547 3648 2332 3843 
Q 2118 4038 1760 4038 
Q 1402 4038 1187 3843 
Q 973 3648 973 3322 
Q 973 3002 1187 2806 
Q 1402 2611 1760 2611 
Q 2112 2611 2329 2803 
Q 2547 2995 2547 3315 
z
M 2707 1274 
Q 2707 1670 2448 1904 
Q 2189 2138 1760 2138 
Q 1331 2138 1072 1904 
Q 813 1670 813 1273 
Q 813 877 1072 640 
Q 1331 403 1747 403 
Q 2182 403 2444 636 
Q 2707 870 2707 1274 
z
" id="TeXGyreHeros-Regular-38" transform="scale(0.015625)"/>
       </defs>
       <use xlink:href="#TeXGyreHeros-Regular-31"/>
       <use x="55.599991" xlink:href="#TeXGyreHeros-Regular-38"/>
      </g>
     </g>
    </g>
    <g id="xtick_8">
     <g id="line2d_8">
      <path clip-path="url(#p6c82ba9484)" d="M 200.54 212.74 
L 327.819221 340.019221 
" style="fill:none;stroke:#000000;stroke-linecap:square;stroke-opacity:0.1;stroke-width:0.6;"/>
     </g>
     <g id="text_8">
      <!-- 21 -->
      <g transform="translate(330.593958 350.097317)scale(0.09 -0.09)">
       <use xlink:href="#TeXGyreHeros-Regular-32"/>
       <use x="55.599991" xlink:href="#TeXGyreHeros-Regular-31"/>
      </g>
     </g>
    </g>
    <g id="xtick_9"/>
    <g id="xtick_10"/>
    <g id="xtick_11"/>
    <g id="xtick_12"/>
    <g id="xtick_13"/>
    <g id="xtick_14"/>
    <g id="xtick_15"/>
    <g id="xtick_16"/>
    <g id="xtick_17"/>
    <g id="xtick_18"/>
    <g id="xtick_19"/>
    <g id="xtick_20"/>
    <g id="xtick_21"/>
    <g id="xtick_22"/>
    <g id="xtick_23"/>
    <g id="xtick_24"/>
    <g id="xtick_25"/>
    <g id="xtick_26"/>
    <g id="xtick_27"/>
    <g id="xtick_28"/>
    <g id="xtick_29"/>
    <g id="xtick_30"/>
    <g id="xtick_31"/>
    <g id="xtick_32"/>
    <g id="xtick_33"/>
   </g>
   <g id="matplotlib.axis_2">
    <g id="ytick_1">
     <g id="line2d_9">
      <path clip-path="url(#p6c82ba9484)" d="M 224.54 212.74 
C 224.54 209.588349 223.919193 206.467344 222.713109 203.555598 
C 221.507024 200.643852 219.739117 197.997991 217.510563 195.769437 
C 215.282009 193.540883 212.636148 191.772976 209.724402 190.566891 
C 206.812656 189.360807 203.691651 188.74 200.54 188.74 
C 197.388349 188.74 194.267344 189.360807 191.355598 190.566891 
C 188.443852 191.772976 185.797991 193.540883 183.569437 195.769437 
C 181.340883 197.997991 179.572976 200.643852 178.366891 203.555598 
C 177.160807 206.467344 176.54 209.588349 176.54 212.74 
C 176.54 215.891651 177.160807 219.012656 178.366891 221.924402 
C 179.572976 224.836148 181.340883 227.482009 183.569437 229.710563 
C 185.797991 231.939117 188.443852 233.707024 191.355598 234.913109 
C 194.267344 236.119193 197.388349 236.74 200.54 236.74 
C 203.691651 236.74 206.812656 236.119193 209.724402 234.913109 
C 212.636148 233.707024 215.282009 231.939117 217.510563 229.710563 
C 219.739117 227.482009 221.507024 224.836148 222.713109 221.924402 
C 223.919193 219.012656 224.54 215.891651 224.54 212.74 
" style="fill:none;stroke:#000000;stroke-linecap:square;stroke-opacity:0.1;stroke-width:0.6;"/>
     </g>
     <g id="text_9">
      <!-- 2 -->
      <g transform="translate(183.569437 193.807719)scale(0.09 -0.09)">
       <use xlink:href="#TeXGyreHeros-Regular-32"/>
      </g>
     </g>
    </g>
    <g id="ytick_2">
     <g id="line2d_10">
      <path clip-path="url(#p6c82ba9484)" d="M 248.54 212.74 
C 248.54 206.436698 247.298387 200.194687 244.886218 194.371195 
C 242.474048 188.547703 238.938233 183.255982 234.481125 178.798875 
C 230.024018 174.341767 224.732297 170.805952 218.908805 168.393782 
C 213.085313 165.981613 206.843302 164.74 200.54 164.74 
C 194.236698 164.74 187.994687 165.981613 182.171195 168.393782 
C 176.347703 170.805952 171.055982 174.341767 166.598875 178.798875 
C 162.141767 183.255982 158.605952 188.547703 156.193782 194.371195 
C 153.781613 200.194687 152.54 206.436698 152.54 212.74 
C 152.54 219.043302 153.781613 225.285313 156.193782 231.108805 
C 158.605952 236.932297 162.141767 242.224018 166.598875 246.681125 
C 171.055982 251.138233 176.347703 254.674048 182.171195 257.086218 
C 187.994687 259.498387 194.236698 260.74 200.54 260.74 
C 206.843302 260.74 213.085313 259.498387 218.908805 257.086218 
C 224.732297 254.674048 230.024018 251.138233 234.481125 246.681125 
C 238.938233 242.224018 242.474048 236.932297 244.886218 231.108805 
C 247.298387 225.285313 248.54 219.043302 248.54 212.74 
" style="fill:none;stroke:#000000;stroke-linecap:square;stroke-opacity:0.1;stroke-width:0.6;"/>
     </g>
     <g id="text_10">
      <!-- 4 -->
      <g transform="translate(166.598875 176.837156)scale(0.09 -0.09)">
       <defs>
        <path d="M 3328 1088 
L 2656 1088 
L 2656 0 
L 2093 0 
L 2093 1088 
L 179 1088 
L 179 1683 
L 2240 4538 
L 2656 4538 
L 2656 1594 
L 3328 1594 
L 3328 1088 
z
M 2093 1594 
L 2093 3578 
L 672 1594 
L 2093 1594 
z
" id="TeXGyreHeros-Regular-34" transform="scale(0.015625)"/>
       </defs>
       <use xlink:href="#TeXGyreHeros-Regular-34"/>
      </g>
     </g>
    </g>
    <g id="ytick_3">
     <g id="line2d_11">
      <path clip-path="url(#p6c82ba9484)" d="M 272.54 212.74 
C 272.54 203.285047 270.67758 193.922031 267.059326 185.186793 
C 263.441072 176.451555 258.13735 168.513973 251.451688 161.828312 
C 244.766027 155.14265 236.828445 149.838928 228.093207 146.220674 
C 219.357969 142.60242 209.994953 140.74 200.54 140.74 
C 191.085047 140.74 181.722031 142.60242 172.986793 146.220674 
C 164.251555 149.838928 156.313973 155.14265 149.628312 161.828312 
C 142.94265 168.513973 137.638928 176.451555 134.020674 185.186793 
C 130.40242 193.922031 128.54 203.285047 128.54 212.74 
C 128.54 222.194953 130.40242 231.557969 134.020674 240.293207 
C 137.638928 249.028445 142.94265 256.966027 149.628312 263.651688 
C 156.313973 270.33735 164.251555 275.641072 172.986793 279.259326 
C 181.722031 282.87758 191.085047 284.74 200.54 284.74 
C 209.994953 284.74 219.357969 282.87758 228.093207 279.259326 
C 236.828445 275.641072 244.766027 270.33735 251.451688 263.651688 
C 258.13735 256.966027 263.441072 249.028445 267.059326 240.293207 
C 270.67758 231.557969 272.54 222.194953 272.54 212.74 
" style="fill:none;stroke:#000000;stroke-linecap:square;stroke-opacity:0.1;stroke-width:0.6;"/>
     </g>
     <g id="text_11">
      <!-- 6 -->
      <g transform="translate(149.628312 159.866593)scale(0.09 -0.09)">
       <use xlink:href="#TeXGyreHeros-Regular-36"/>
      </g>
     </g>
    </g>
    <g id="ytick_4">
     <g id="line2d_12">
      <path clip-path="url(#p6c82ba9484)" d="M 296.54 212.74 
C 296.54 200.133396 294.056774 187.649374 289.232435 176.00239 
C 284.408096 164.355407 277.336467 153.771965 268.422251 144.857749 
C 259.508035 135.943533 248.924593 128.871904 237.27761 124.047565 
C 225.630626 119.223226 213.146604 116.74 200.54 116.74 
C 187.933396 116.74 175.449374 119.223226 163.80239 124.047565 
C 152.155407 128.871904 141.571965 135.943533 132.657749 144.857749 
C 123.743533 153.771965 116.671904 164.355407 111.847565 176.00239 
C 107.023226 187.649374 104.54 200.133396 104.54 212.74 
C 104.54 225.346604 107.023226 237.830626 111.847565 249.47761 
C 116.671904 261.124593 123.743533 271.708035 132.657749 280.622251 
C 141.571965 289.536467 152.155407 296.608096 163.80239 301.432435 
C 175.449374 306.256774 187.933396 308.74 200.54 308.74 
C 213.146604 308.74 225.630626 306.256774 237.27761 301.432435 
C 248.924593 296.608096 259.508035 289.536467 268.422251 280.622251 
C 277.336467 271.708035 284.408096 261.124593 289.232435 249.47761 
C 294.056774 237.830626 296.54 225.346604 296.54 212.74 
" style="fill:none;stroke:#000000;stroke-linecap:square;stroke-opacity:0.1;stroke-width:0.6;"/>
     </g>
     <g id="text_12">
      <!-- 8 -->
      <g transform="translate(132.657749 142.89603)scale(0.09 -0.09)">
       <use xlink:href="#TeXGyreHeros-Regular-38"/>
      </g>
     </g>
    </g>
    <g id="ytick_5">
     <g id="line2d_13">
      <path clip-path="url(#p6c82ba9484)" d="M 320.54 212.74 
C 320.54 196.981744 317.435967 181.376718 311.405544 166.817988 
C 305.375121 152.259258 296.535583 139.029956 285.392814 127.887186 
C 274.250044 116.744417 261.020742 107.904879 246.462012 101.874456 
C 231.903282 95.844033 216.298256 92.74 200.54 92.74 
C 184.781744 92.74 169.176718 95.844033 154.617988 101.874456 
C 140.059258 107.904879 126.829956 116.744417 115.687186 127.887186 
C 104.544417 139.029956 95.704879 152.259258 89.674456 166.817988 
C 83.644033 181.376718 80.54 196.981744 80.54 212.74 
C 80.54 228.498256 83.644033 244.103282 89.674456 258.662012 
C 95.704879 273.220742 104.544417 286.450044 115.687186 297.592814 
C 126.829956 308.735583 140.059258 317.575121 154.617988 323.605544 
C 169.176718 329.635967 184.781744 332.74 200.54 332.74 
C 216.298256 332.74 231.903282 329.635967 246.462012 323.605544 
C 261.020742 317.575121 274.250044 308.735583 285.392814 297.592814 
C 296.535583 286.450044 305.375121 273.220742 311.405544 258.662012 
C 317.435967 244.103282 320.54 228.498256 320.54 212.74 
" style="fill:none;stroke:#000000;stroke-linecap:square;stroke-opacity:0.1;stroke-width:0.6;"/>
     </g>
     <g id="text_13">
      <!-- 10 -->
      <g transform="translate(115.687186 125.925468)scale(0.09 -0.09)">
       <use xlink:href="#TeXGyreHeros-Regular-31"/>
       <use x="55.599991" xlink:href="#TeXGyreHeros-Regular-30"/>
      </g>
     </g>
    </g>
    <g id="ytick_6">
     <g id="line2d_14">
      <path clip-path="url(#p6c82ba9484)" d="M 344.54 212.74 
C 344.54 193.830093 340.815161 175.104062 333.578653 157.633586 
C 326.342145 140.16311 315.7347 124.287947 302.363376 110.916624 
C 288.992053 97.5453 273.11689 86.937855 255.646414 79.701347 
C 238.175938 72.464839 219.449907 68.74 200.54 68.74 
C 181.630093 68.74 162.904062 72.464839 145.433586 79.701347 
C 127.96311 86.937855 112.087947 97.5453 98.716624 110.916624 
C 85.3453 124.287947 74.737855 140.16311 67.501347 157.633586 
C 60.264839 175.104062 56.54 193.830093 56.54 212.74 
C 56.54 231.649907 60.264839 250.375938 67.501347 267.846414 
C 74.737855 285.31689 85.3453 301.192053 98.716624 314.563376 
C 112.087947 327.9347 127.96311 338.542145 145.433586 345.778653 
C 162.904062 353.015161 181.630093 356.74 200.54 356.74 
C 219.449907 356.74 238.175938 353.015161 255.646414 345.778653 
C 273.11689 338.542145 288.992053 327.9347 302.363376 314.563376 
C 315.7347 301.192053 326.342145 285.31689 333.578653 267.846414 
C 340.815161 250.375938 344.54 231.649907 344.54 212.74 
" style="fill:none;stroke:#000000;stroke-linecap:square;stroke-opacity:0.1;stroke-width:0.6;"/>
     </g>
     <g id="text_14">
      <!-- 12 -->
      <g transform="translate(98.716624 108.954905)scale(0.09 -0.09)">
       <use xlink:href="#TeXGyreHeros-Regular-31"/>
       <use x="55.599991" xlink:href="#TeXGyreHeros-Regular-32"/>
      </g>
     </g>
    </g>
    <g id="ytick_7">
     <g id="line2d_15">
      <path clip-path="url(#p6c82ba9484)" d="M 368.54 212.74 
C 368.54 190.678442 364.194354 168.831405 355.751761 148.449183 
C 347.309169 128.066962 334.933816 109.545938 319.333939 93.946061 
C 303.734062 78.346184 285.213038 65.970831 264.830817 57.528239 
C 244.448595 49.085646 222.601558 44.74 200.54 44.74 
C 178.478442 44.74 156.631405 49.085646 136.249183 57.528239 
C 115.866962 65.970831 97.345938 78.346184 81.746061 93.946061 
C 66.146184 109.545938 53.770831 128.066962 45.328239 148.449183 
C 36.885646 168.831405 32.54 190.678442 32.54 212.74 
C 32.54 234.801558 36.885646 256.648595 45.328239 277.030817 
C 53.770831 297.413038 66.146184 315.934062 81.746061 331.533939 
C 97.345938 347.133816 115.866962 359.509169 136.249183 367.951761 
C 156.631405 376.394354 178.478442 380.74 200.54 380.74 
C 222.601558 380.74 244.448595 376.394354 264.830817 367.951761 
C 285.213038 359.509169 303.734062 347.133816 319.333939 331.533939 
C 334.933816 315.934062 347.309169 297.413038 355.751761 277.030817 
C 364.194354 256.648595 368.54 234.801558 368.54 212.74 
" style="fill:none;stroke:#000000;stroke-linecap:square;stroke-opacity:0.1;stroke-width:0.6;"/>
     </g>
     <g id="text_15">
      <!-- 14 -->
      <g transform="translate(81.746061 91.984342)scale(0.09 -0.09)">
       <use xlink:href="#TeXGyreHeros-Regular-31"/>
       <use x="55.599991" xlink:href="#TeXGyreHeros-Regular-34"/>
      </g>
     </g>
    </g>
    <g id="ytick_8"/>
    <g id="ytick_9"/>
    <g id="ytick_10"/>
    <g id="ytick_11"/>
    <g id="ytick_12"/>
    <g id="ytick_13"/>
    <g id="ytick_14"/>
    <g id="ytick_15"/>
    <g id="ytick_16"/>
    <g id="ytick_17"/>
    <g id="ytick_18"/>
    <g id="ytick_19"/>
    <g id="ytick_20"/>
    <g id="ytick_21"/>
    <g id="ytick_22"/>
    <g id="ytick_23"/>
    <g id="ytick_24"/>
    <g id="ytick_25"/>
    <g id="ytick_26"/>
    <g id="ytick_27"/>
    <g id="ytick_28"/>
    <g id="ytick_29"/>
    <g id="ytick_30"/>
   </g>
   <g id="line2d_16">
    <path clip-path="url(#p6c82ba9484)" d="M 193.273826 258.360442 
L 188.732763 267.408165 
L 181.367885 279.814573 
L 169.145007 296.520705 
L 149.683451 315.965667 
L 119.633165 335.672997 
M 190.216391 252.869873 
L 185.325074 259.639534 
L 177.860428 268.447141 
L 166.163478 279.834502 
L 148.263886 292.918706 
L 123.15141 304.006467 
L 89.490095 309.669704 
L 89.490095 309.669704 
" style="fill:none;stroke:#5bbe94;stroke-linecap:square;stroke-opacity:0.618;stroke-width:1.5;"/>
   </g>
   <g id="line2d_17">
    <path clip-path="url(#p6c82ba9484)" d="M 181.367885 279.814573 
L 169.145007 296.520705 
L 149.683451 315.965667 
M 166.163478 279.834502 
L 148.263886 292.918706 
L 123.15141 304.006467 
L 123.15141 304.006467 
" style="fill:none;stroke:#5bbe94;stroke-linecap:square;stroke-width:4;"/>
   </g>
   <g id="line2d_18">
    <path clip-path="url(#p6c82ba9484)" d="M 205.916129 258.603804 
L 204.765794 269.613931 
L 202.216495 287.147948 
L 196.163073 317.819935 
L 181.838674 363.556591 
L 160.050257 413.56 
M 197.452881 265.73244 
L 192.265576 278.607826 
L 182.870864 297.218747 
L 166.182065 321.337071 
L 138.117779 348.349982 
L 76.643577 398.895285 
L 76.643577 398.895285 
" style="fill:none;stroke:#91be64;stroke-linecap:square;stroke-opacity:0.618;stroke-width:1.5;"/>
   </g>
   <g id="line2d_19">
    <path clip-path="url(#p6c82ba9484)" d="M 202.216495 287.147948 
L 196.163073 317.819935 
L 181.838674 363.556591 
M 192.265576 278.607826 
L 182.870864 297.218747 
L 166.182065 321.337071 
L 138.117779 348.349982 
L 138.117779 348.349982 
" style="fill:none;stroke:#91be64;stroke-linecap:square;stroke-width:4;"/>
   </g>
   <g id="line2d_20">
    <path clip-path="url(#p6c82ba9484)" d="M 225.671381 298.750844 
L 229.777239 297.736718 
L 233.828938 296.49599 
L 237.815244 295.036472 
L 242.443554 293.070289 
L 246.257933 291.167325 
L 249.975789 289.067962 
L 254.253885 286.372307 
L 257.743174 283.88258 
L 261.111313 281.219868 
L 264.951626 277.88646 
L 268.043524 274.881864 
L 271.265834 271.442769 
L 273.823354 268.451508 
L 276.479801 265.023604 
L 279.434089 260.820758 
L 281.74124 257.125441 
L 283.868713 253.314495 
L 286.178762 248.689007 
L 287.906332 244.66047 
L 289.581519 240.17199 
L 290.788915 236.359635 
L 291.906898 232.100003 
L 292.805076 227.783236 
L 293.487426 223.422952 
L 293.919844 219.431097 
L 294.163254 215.01931 
L 294.17201 210.600154 
L 293.9468 206.187581 
L 293.487529 201.795123 
L 292.856888 197.832872 
L 291.973332 193.513812 
L 290.870608 189.250629 
L 289.552983 185.05514 
L 288.163615 181.312716 
L 285.099954 174.396523 
L 283.067834 170.528877 
L 280.641146 166.438355 
L 278.253028 162.802484 
L 275.927288 159.612899 
L 270.649124 153.255206 
L 267.940329 150.414266 
L 261.903811 144.836926 
L 258.551939 142.151086 
L 254.437475 139.194897 
L 250.841664 136.875522 
L 247.136741 134.747705 
L 242.983054 132.650896 
L 239.092406 130.92269 
L 235.121505 129.40632 
L 231.445271 128.233539 
L 227.357891 127.124846 
L 223.223559 126.242836 
L 219.055048 125.591788 
L 215.245996 125.209343 
L 208.384963 124.96718 
L 204.206341 125.100286 
L 200.051773 125.441598 
L 195.558625 126.040472 
L 191.116992 126.86484 
L 186.737713 127.913257 
L 181.358237 129.492557 
L 181.358237 129.492557 
" style="fill:none;stroke:#e5cf6c;stroke-linecap:square;stroke-opacity:0.618;stroke-width:1.5;"/>
   </g>
   <g id="line2d_21">
    <path clip-path="url(#p6c82ba9484)" d="M 266.092223 276.811959 
L 269.132753 273.751476 
L 272.562804 269.963745 
L 274.071463 268.1455 
M 290.676497 236.743682 
L 291.814152 232.489316 
L 292.732591 228.177684 
L 293.260539 225.012306 
M 281.262442 167.450844 
L 278.92139 163.781801 
L 276.406586 160.239804 
L 274.469539 157.750682 
L 274.469539 157.750682 
" style="fill:none;stroke:#e5cf6c;stroke-linecap:square;stroke-width:4;"/>
   </g>
   <g id="line2d_22">
    <path clip-path="url(#p6c82ba9484)" d="M 29.077028 195.952905 
L 27.503675 196.788378 
L 26.37532 197.694811 
L 25.616069 197.885412 
L 29.010603 198.932694 
L 33.709912 200.560504 
L 39.812542 202.48293 
L 39.648629 202.722318 
L 46.16151 204.342245 
L 52.337694 206.111299 
L 55.848826 207.222629 
L 57.767165 207.533739 
L 68.34131 210.649007 
L 74.196577 212.569802 
L 83.489372 216.197828 
L 87.573034 218.185804 
L 90.607163 219.961707 
L 93.577138 222.244638 
L 94.700381 223.434404 
L 95.238696 224.171685 
L 95.673542 225.202669 
L 95.733178 225.746031 
L 95.578402 226.325168 
L 79.864625 228.684092 
L 78.695126 229.503163 
L 78.059026 230.268837 
L 77.469979 231.395592 
L 77.24371 232.498929 
L 77.220443 233.969447 
L 77.532447 235.427269 
L 77.707732 236.168827 
L 78.450831 238.009246 
L 79.447054 239.857325 
L 80.411644 241.33929 
L 82.972964 244.707027 
L 86.126511 248.083139 
L 88.998305 250.689137 
L 93.185679 253.995455 
L 97.443449 256.832179 
L 99.781105 258.191478 
L 104.19644 260.453632 
L 106.900035 261.66851 
L 111.262524 263.326618 
L 115.182369 264.52832 
L 119.348379 265.542404 
L 123.751236 266.341491 
L 127.43754 266.804852 
L 131.284069 267.076811 
L 135.224376 267.184237 
L 140.324527 267.013785 
L 144.466848 266.668565 
L 148.662075 266.109222 
L 152.850247 265.370376 
L 157.01507 264.445114 
L 161.110332 263.363946 
L 166.109804 261.790504 
L 169.963978 260.401709 
L 173.66811 258.918156 
L 178.913357 256.555042 
L 183.751511 254.101258 
L 188.861324 251.246555 
L 200.241687 244.749179 
L 202.370459 243.805018 
L 205.053937 242.888272 
L 207.302437 242.383868 
L 209.729942 242.082003 
L 212.429179 241.958296 
L 216.336958 241.983879 
L 224.295686 242.081898 
L 229.226356 241.880522 
L 233.388993 241.502344 
L 237.941146 240.839045 
L 242.873935 239.824406 
L 248.195027 238.410912 
L 253.9058 236.550234 
L 260.101145 234.230599 
L 278.337438 227.018879 
L 281.9164 225.781998 
L 286.035156 224.490123 
L 290.836879 223.12615 
L 296.515761 221.666495 
L 310.763487 218.262216 
L 318.783015 216.189892 
L 326.703983 213.823133 
L 334.070045 211.178807 
L 340.695001 208.30203 
L 346.545837 205.242936 
L 351.632004 202.049613 
L 356.027393 198.762965 
L 359.815197 195.415052 
L 363.037622 192.036329 
L 365.756936 188.648108 
L 368.025744 185.272912 
L 369.901392 181.923309 
L 371.410585 178.615667 
L 372.584512 175.36141 
L 373.466831 172.168588 
L 374.084428 169.042983 
L 374.457229 165.992861 
L 374.618061 163.021761 
L 374.562903 160.138522 
L 374.350791 157.335274 
L 373.973572 154.621049 
L 373.45042 151.995733 
L 372.787949 149.463298 
L 372.026989 147.013339 
L 371.173049 144.647778 
L 369.176478 140.18571 
L 366.938188 136.039066 
L 364.486318 132.209092 
L 361.902977 128.66308 
L 359.223984 125.385117 
L 356.495702 122.351228 
L 353.749288 119.540569 
L 349.632535 115.705578 
L 345.575838 112.274078 
L 340.339489 108.225438 
L 335.325714 104.699253 
L 330.571303 101.59877 
L 323.905592 97.622047 
L 319.797086 95.312037 
L 311.356221 90.97526 
L 299.465006 85.612546 
L 292.124793 82.705732 
L 285.696339 80.419375 
L 275.855851 77.334896 
L 249.991501 70.47297 
L 242.007405 67.592327 
L 235.822115 64.494091 
L 231.096507 61.374796 
L 231.096507 61.374796 
" style="fill:none;stroke:#e87b70;stroke-linecap:square;stroke-opacity:0.618;stroke-width:1.5;"/>
   </g>
   <g id="line2d_23">
    <path clip-path="url(#p6c82ba9484)" d="M 162.126133 263.063229 
L 167.07925 261.463691 
L 171.831608 259.677388 
L 175.46351 258.139022 
M 299.465006 85.612546 
L 292.124793 82.705732 
L 290.286219 82.031984 
L 290.286219 82.031984 
" style="fill:none;stroke:#e87b70;stroke-linecap:square;stroke-width:4;"/>
   </g>
   <g id="line2d_24">
    <path clip-path="url(#p6c82ba9484)" d="M 289.637118 220.846251 
L 281.725898 207.000247 
L 280.228195 204.434339 
L 277.849948 201.177469 
L 276.176857 199.492395 
L 274.531555 198.185442 
L 272.861404 197.082105 
L 270.946489 196.031488 
L 267.16792 194.362986 
L 263.163895 193.012534 
L 259.296715 191.890667 
L 252.393605 190.166511 
L 239.47025 187.370571 
L 226.550578 184.624768 
L 218.099396 182.823614 
L 213.900763 182.18468 
L 210.951811 181.94968 
L 208.760442 181.924627 
L 206.363263 182.084342 
L 203.756407 182.497309 
L 200.954666 183.263621 
L 199.495448 183.821114 
L 198.01189 184.510041 
L 196.518891 185.341669 
L 195.035564 186.326839 
L 193.585936 187.476402 
L 192.19703 188.791682 
L 190.898646 190.268481 
L 189.722787 191.897161 
L 188.695312 193.650128 
L 187.848262 195.509285 
L 187.193588 197.427771 
L 186.749205 199.374147 
L 186.509092 201.298861 
L 186.462473 203.161884 
L 186.578128 204.922154 
L 187.144651 208.036426 
L 188.763495 214.411488 
L 188.866779 216.122382 
L 188.931851 223.686094 
L 189.324266 226.92976 
L 189.786296 229.162364 
L 190.422529 231.410532 
L 191.229525 233.647374 
L 192.199286 235.846363 
L 193.321873 237.975457 
L 194.578035 240.024439 
L 196.674807 242.919462 
L 198.974642 245.56925 
L 201.42097 247.966318 
L 203.965908 250.120969 
L 206.569429 252.035783 
L 209.200714 253.733097 
L 212.710473 255.683945 
L 216.18657 257.323655 
L 219.602426 258.692848 
L 223.760989 260.074822 
L 227.78165 261.151024 
L 231.653362 261.964956 
L 235.383464 262.57038 
L 240.371321 263.122329 
L 245.099183 263.390004 
L 250.202043 263.409333 
L 255.002941 263.172944 
L 259.508553 262.711006 
L 263.712117 262.038565 
L 267.591771 261.159368 
L 270.689421 260.215791 
L 273.496149 259.117813 
L 275.657693 258.058443 
L 277.565598 256.884528 
L 279.248557 255.623524 
L 281.093843 253.796663 
L 282.034704 252.589567 
L 282.942946 251.080346 
L 283.53601 249.786682 
L 284.138355 247.937208 
L 284.489955 246.05605 
L 284.636561 244.440378 
L 284.588724 241.49577 
L 284.029438 237.096892 
L 283.447727 233.908244 
L 282.326287 226.905873 
L 282.108456 224.35786 
L 282.007326 221.021461 
L 282.055899 217.264004 
L 282.029287 215.992586 
L 281.944304 214.278024 
L 281.334982 211.221869 
L 280.688991 209.679451 
L 279.931695 208.359619 
L 278.956778 207.050925 
L 277.565662 205.54734 
L 275.85439 204.085994 
L 273.373955 202.268098 
L 270.046677 200.139924 
L 265.588761 197.550836 
L 265.588761 197.550836 
" style="fill:none;stroke:#cc6686;stroke-linecap:square;stroke-opacity:0.618;stroke-width:1.5;"/>
   </g>
   <g id="line2d_25">
    <path clip-path="url(#p6c82ba9484)" d="M 283.396051 210.067849 
L 282.010083 207.511637 
M 267.125742 261.280719 
L 270.264415 260.360234 
L 273.113586 259.283855 
L 273.496149 259.117813 
L 273.496149 259.117813 
" style="fill:none;stroke:#cc6686;stroke-linecap:square;stroke-width:4;"/>
   </g>
   <g id="line2d_26">
    <path clip-path="url(#p6c82ba9484)" d="M 212.54 212.74 
L 212.425308 211.084872 
L 212.083425 209.461382 
L 211.520886 207.900564 
L 210.748444 206.432253 
L 209.780865 205.084517 
L 208.636643 203.883118 
L 207.337652 202.85102 
L 205.908722 202.007953 
L 204.377167 201.370033 
L 202.772264 200.949453 
L 201.12469 200.754253 
L 199.465939 200.788164 
L 197.82772 201.050537 
L 196.241346 201.536359 
L 194.737143 202.236341 
L 193.343863 203.137104 
L 192.088139 204.221429 
L 190.993975 205.468589 
L 190.082286 206.854745 
L 189.3705 208.353399 
L 188.872222 209.935904 
L 188.596977 211.57201 
L 188.550026 213.230442 
L 188.732268 214.8795 
L 189.140218 216.487661 
L 189.766077 218.024183 
L 190.597884 219.459697 
L 191.619737 220.766762 
L 192.812104 221.920394 
L 194.152192 222.898539 
L 195.614385 223.6825 
L 197.170732 224.257293 
L 198.791484 224.611929 
L 200.445659 224.739629 
L 202.101637 224.637953 
L 203.727765 224.308844 
L 205.292957 223.758593 
L 206.767295 222.997719 
L 208.122597 222.040765 
L 209.332955 220.906024 
L 210.375233 219.615187 
L 211.229507 218.192929 
L 211.879449 216.666436 
L 212.312633 215.064889 
L 212.52078 213.418901 
L 212.54 212.74 
L 212.54 212.74 
" style="fill:none;stroke:#000000;stroke-linecap:square;stroke-width:0.5;"/>
   </g>
   <g id="line2d_27">
    <path clip-path="url(#p6c82ba9484)" d="M 150.366101 303.385553 
L 168.837398 276.217875 
L 178.730082 260.164701 
L 184.41653 250.283164 
L 187.993505 243.709144 
M 134.182472 320.640379 
L 160.65298 285.653995 
L 174.474408 265.006097 
L 181.950466 252.952047 
L 186.422571 245.296437 
M 146.683644 315.535761 
L 167.751157 281.237088 
L 178.563154 262.097418 
L 184.519189 250.943515 
L 188.175072 243.765595 
L 188.175072 243.765595 
" style="fill:none;stroke:#5884b3;stroke-linecap:square;stroke-opacity:0.618;stroke-width:1.5;"/>
   </g>
   <g id="line2d_28">
    <path clip-path="url(#p6c82ba9484)" d="M 168.837398 276.217875 
L 178.730082 260.164701 
M 167.751157 281.237088 
L 178.563154 262.097418 
L 178.563154 262.097418 
" style="fill:none;stroke:#5884b3;stroke-linecap:square;stroke-width:4;"/>
   </g>
   <g id="patch_3">
    <path d="M 380.54 212.74 
C 380.54 189.102617 375.883951 165.695077 366.838316 143.856982 
C 357.792681 122.018887 344.533375 102.174933 327.819221 85.460779 
C 311.105067 68.746625 291.261113 55.487319 269.423018 46.441684 
C 247.584923 37.396049 224.177383 32.74 200.54 32.74 
C 176.902617 32.74 153.495077 37.396049 131.656982 46.441684 
C 109.818887 55.487319 89.974933 68.746625 73.260779 85.460779 
C 56.546625 102.174933 43.287319 122.018887 34.241684 143.856982 
C 25.196049 165.695077 20.54 189.102617 20.54 212.74 
C 20.54 236.377383 25.196049 259.784923 34.241684 281.623018 
C 43.287319 303.461113 56.546625 323.305067 73.260779 340.019221 
C 89.974933 356.733375 109.818887 369.992681 131.656982 379.038316 
C 153.495077 388.083951 176.902617 392.74 200.54 392.74 
C 224.177383 392.74 247.584923 388.083951 269.423018 379.038316 
C 291.261113 369.992681 311.105067 356.733375 327.819221 340.019221 
C 344.533375 323.305067 357.792681 303.461113 366.838316 281.623018 
C 375.883951 259.784923 380.54 236.377383 380.54 212.74 
" style="fill:none;stroke:#000000;stroke-linecap:square;stroke-linejoin:miter;stroke-width:0.6;"/>
   </g>
   <g id="text_16">
    <!-- 01:47 -->
    <g transform="translate(190.969371 260.648762)rotate(-260.950257)scale(0.07497 -0.07497)">
     <defs>
      <path d="M 1222 0 
L 557 0 
L 557 666 
L 1222 666 
L 1222 0 
z
M 1222 2688 
L 557 2688 
L 557 3354 
L 1222 3354 
L 1222 2688 
z
" id="TeXGyreHeros-Regular-3a" transform="scale(0.015625)"/>
      <path d="M 3328 3968 
Q 1862 2227 1485 0 
L 883 0 
Q 1363 2144 2746 3885 
L 294 3885 
L 294 4442 
L 3328 4442 
L 3328 3968 
z
" id="TeXGyreHeros-Regular-37" transform="scale(0.015625)"/>
     </defs>
     <use xlink:href="#TeXGyreHeros-Regular-30"/>
     <use x="55.599991" xlink:href="#TeXGyreHeros-Regular-31"/>
     <use x="111.199982" xlink:href="#TeXGyreHeros-Regular-3a"/>
     <use x="138.999969" xlink:href="#TeXGyreHeros-Regular-34"/>
     <use x="194.59996" xlink:href="#TeXGyreHeros-Regular-37"/>
    </g>
   </g>
   <g id="text_17">
    <!-- 03:30 -->
    <g transform="translate(187.70764 254.932173)rotate(-255.573202)scale(0.07497 -0.07497)">
     <use xlink:href="#TeXGyreHeros-Regular-30"/>
     <use x="55.599991" xlink:href="#TeXGyreHeros-Regular-33"/>
     <use x="111.199982" xlink:href="#TeXGyreHeros-Regular-3a"/>
     <use x="138.999969" xlink:href="#TeXGyreHeros-Regular-33"/>
     <use x="194.59996" xlink:href="#TeXGyreHeros-Regular-30"/>
    </g>
   </g>
   <g id="text_18">
    <!-- 01:15 -->
    <g transform="translate(204.318617 261.431325)rotate(-276.685668)scale(0.07497 -0.07497)">
     <use xlink:href="#TeXGyreHeros-Regular-30"/>
     <use x="55.599991" xlink:href="#TeXGyreHeros-Regular-31"/>
     <use x="111.199982" xlink:href="#TeXGyreHeros-Regular-3a"/>
     <use x="138.999969" xlink:href="#TeXGyreHeros-Regular-31"/>
     <use x="194.59996" xlink:href="#TeXGyreHeros-Regular-35"/>
    </g>
   </g>
   <g id="text_19">
    <!-- 02:58 -->
    <g transform="translate(195.387783 268.238889)rotate(-266.665955)scale(0.07497 -0.07497)">
     <use xlink:href="#TeXGyreHeros-Regular-30"/>
     <use x="55.599991" xlink:href="#TeXGyreHeros-Regular-32"/>
     <use x="111.199982" xlink:href="#TeXGyreHeros-Regular-3a"/>
     <use x="138.999969" xlink:href="#TeXGyreHeros-Regular-35"/>
     <use x="194.59996" xlink:href="#TeXGyreHeros-Regular-38"/>
    </g>
   </g>
   <g id="text_20">
    <!-- 00:00 -->
    <g transform="translate(224.567894 301.805224)rotate(-286.287757)scale(0.07497 -0.07497)">
     <use xlink:href="#TeXGyreHeros-Regular-30"/>
     <use x="55.599991" xlink:href="#TeXGyreHeros-Regular-30"/>
     <use x="111.199982" xlink:href="#TeXGyreHeros-Regular-3a"/>
     <use x="138.999969" xlink:href="#TeXGyreHeros-Regular-30"/>
     <use x="194.59996" xlink:href="#TeXGyreHeros-Regular-30"/>
    </g>
   </g>
   <g id="text_21">
    <!-- 02:00 -->
    <g transform="translate(266.628384 280.014996)rotate(-315.65427)scale(0.07497 -0.07497)">
     <use xlink:href="#TeXGyreHeros-Regular-30"/>
     <use x="55.599991" xlink:href="#TeXGyreHeros-Regular-32"/>
     <use x="111.199982" xlink:href="#TeXGyreHeros-Regular-3a"/>
     <use x="138.999969" xlink:href="#TeXGyreHeros-Regular-30"/>
     <use x="194.59996" xlink:href="#TeXGyreHeros-Regular-30"/>
    </g>
   </g>
   <g id="text_22">
    <!-- 02:30 -->
    <g transform="translate(275.012872 271.253662)rotate(-323.002202)scale(0.07497 -0.07497)">
     <use xlink:href="#TeXGyreHeros-Regular-30"/>
     <use x="55.599991" xlink:href="#TeXGyreHeros-Regular-32"/>
     <use x="111.199982" xlink:href="#TeXGyreHeros-Regular-3a"/>
     <use x="138.999969" xlink:href="#TeXGyreHeros-Regular-33"/>
     <use x="194.59996" xlink:href="#TeXGyreHeros-Regular-30"/>
    </g>
   </g>
   <g id="text_23">
    <!-- 04:00 -->
    <g transform="translate(292.717479 239.269808)rotate(-345.088)scale(0.07497 -0.07497)">
     <use xlink:href="#TeXGyreHeros-Regular-30"/>
     <use x="55.599991" xlink:href="#TeXGyreHeros-Regular-34"/>
     <use x="111.199982" xlink:href="#TeXGyreHeros-Regular-3a"/>
     <use x="138.999969" xlink:href="#TeXGyreHeros-Regular-30"/>
     <use x="194.59996" xlink:href="#TeXGyreHeros-Regular-30"/>
    </g>
   </g>
   <g id="text_24">
    <!-- 04:30 -->
    <g transform="translate(295.60879 227.255659)rotate(-352.460269)scale(0.07497 -0.07497)">
     <use xlink:href="#TeXGyreHeros-Regular-30"/>
     <use x="55.599991" xlink:href="#TeXGyreHeros-Regular-34"/>
     <use x="111.199982" xlink:href="#TeXGyreHeros-Regular-3a"/>
     <use x="138.999969" xlink:href="#TeXGyreHeros-Regular-33"/>
     <use x="194.59996" xlink:href="#TeXGyreHeros-Regular-30"/>
    </g>
   </g>
   <g id="text_25">
    <!-- 07:00 -->
    <g transform="translate(284.486814 167.838583)rotate(-29.294512)scale(0.07497 -0.07497)">
     <use xlink:href="#TeXGyreHeros-Regular-30"/>
     <use x="55.599991" xlink:href="#TeXGyreHeros-Regular-37"/>
     <use x="111.199982" xlink:href="#TeXGyreHeros-Regular-3a"/>
     <use x="138.999969" xlink:href="#TeXGyreHeros-Regular-30"/>
     <use x="194.59996" xlink:href="#TeXGyreHeros-Regular-30"/>
    </g>
   </g>
   <g id="text_26">
    <!-- 07:30 -->
    <g transform="translate(277.717022 157.722875)rotate(-36.642134)scale(0.07497 -0.07497)">
     <use xlink:href="#TeXGyreHeros-Regular-30"/>
     <use x="55.599991" xlink:href="#TeXGyreHeros-Regular-37"/>
     <use x="111.199982" xlink:href="#TeXGyreHeros-Regular-3a"/>
     <use x="138.999969" xlink:href="#TeXGyreHeros-Regular-33"/>
     <use x="194.59996" xlink:href="#TeXGyreHeros-Regular-30"/>
    </g>
   </g>
   <g id="text_27">
    <!-- 00:00 -->
    <g transform="translate(26.653876 193.790671)rotate(-174.408273)scale(0.07497 -0.07497)">
     <use xlink:href="#TeXGyreHeros-Regular-30"/>
     <use x="55.599991" xlink:href="#TeXGyreHeros-Regular-30"/>
     <use x="111.199982" xlink:href="#TeXGyreHeros-Regular-3a"/>
     <use x="138.999969" xlink:href="#TeXGyreHeros-Regular-30"/>
     <use x="194.59996" xlink:href="#TeXGyreHeros-Regular-30"/>
    </g>
   </g>
   <g id="text_28">
    <!-- 04:30 -->
    <g transform="translate(159.012146 263.985186)rotate(-232.643962)scale(0.07497 -0.07497)">
     <use xlink:href="#TeXGyreHeros-Regular-30"/>
     <use x="55.599991" xlink:href="#TeXGyreHeros-Regular-34"/>
     <use x="111.199982" xlink:href="#TeXGyreHeros-Regular-3a"/>
     <use x="138.999969" xlink:href="#TeXGyreHeros-Regular-33"/>
     <use x="194.59996" xlink:href="#TeXGyreHeros-Regular-30"/>
    </g>
   </g>
   <g id="text_29">
    <!-- 04:45 -->
    <g transform="translate(173.410369 259.155994)rotate(-241.736347)scale(0.07497 -0.07497)">
     <use xlink:href="#TeXGyreHeros-Regular-30"/>
     <use x="55.599991" xlink:href="#TeXGyreHeros-Regular-34"/>
     <use x="111.199982" xlink:href="#TeXGyreHeros-Regular-3a"/>
     <use x="138.999969" xlink:href="#TeXGyreHeros-Regular-34"/>
     <use x="194.59996" xlink:href="#TeXGyreHeros-Regular-35"/>
    </g>
   </g>
   <g id="text_30">
    <!-- 08:00 -->
    <g transform="translate(302.587426 84.719567)rotate(-52.111512)scale(0.07497 -0.07497)">
     <use xlink:href="#TeXGyreHeros-Regular-30"/>
     <use x="55.599991" xlink:href="#TeXGyreHeros-Regular-38"/>
     <use x="111.199982" xlink:href="#TeXGyreHeros-Regular-3a"/>
     <use x="138.999969" xlink:href="#TeXGyreHeros-Regular-30"/>
     <use x="194.59996" xlink:href="#TeXGyreHeros-Regular-30"/>
    </g>
   </g>
   <g id="text_31">
    <!-- 08:15 -->
    <g transform="translate(292.746912 80.728247)rotate(-55.748367)scale(0.07497 -0.07497)">
     <use xlink:href="#TeXGyreHeros-Regular-30"/>
     <use x="55.599991" xlink:href="#TeXGyreHeros-Regular-38"/>
     <use x="111.199982" xlink:href="#TeXGyreHeros-Regular-3a"/>
     <use x="138.999969" xlink:href="#TeXGyreHeros-Regular-31"/>
     <use x="194.59996" xlink:href="#TeXGyreHeros-Regular-35"/>
    </g>
   </g>
   <g id="text_32">
    <!-- 00:00 -->
    <g transform="translate(292.075049 222.991807)rotate(-354.801417)scale(0.07497 -0.07497)">
     <use xlink:href="#TeXGyreHeros-Regular-30"/>
     <use x="55.599991" xlink:href="#TeXGyreHeros-Regular-30"/>
     <use x="111.199982" xlink:href="#TeXGyreHeros-Regular-3a"/>
     <use x="138.999969" xlink:href="#TeXGyreHeros-Regular-30"/>
     <use x="194.59996" xlink:href="#TeXGyreHeros-Regular-30"/>
    </g>
   </g>
   <g id="text_33">
    <!-- 01:00 -->
    <g transform="translate(286.07875 211.898162)rotate(-1.847178)scale(0.07497 -0.07497)">
     <use xlink:href="#TeXGyreHeros-Regular-30"/>
     <use x="55.599991" xlink:href="#TeXGyreHeros-Regular-31"/>
     <use x="111.199982" xlink:href="#TeXGyreHeros-Regular-3a"/>
     <use x="138.999969" xlink:href="#TeXGyreHeros-Regular-30"/>
     <use x="194.59996" xlink:href="#TeXGyreHeros-Regular-30"/>
    </g>
   </g>
   <g id="text_34">
    <!-- 01:15 -->
    <g transform="translate(284.749703 209.255597)rotate(-3.671936)scale(0.07497 -0.07497)">
     <use xlink:href="#TeXGyreHeros-Regular-30"/>
     <use x="55.599991" xlink:href="#TeXGyreHeros-Regular-31"/>
     <use x="111.199982" xlink:href="#TeXGyreHeros-Regular-3a"/>
     <use x="138.999969" xlink:href="#TeXGyreHeros-Regular-31"/>
     <use x="194.59996" xlink:href="#TeXGyreHeros-Regular-35"/>
    </g>
   </g>
   <g id="text_35">
    <!-- 07:10 -->
    <g transform="translate(268.116175 264.373608)rotate(-323.908112)scale(0.07497 -0.07497)">
     <use xlink:href="#TeXGyreHeros-Regular-30"/>
     <use x="55.599991" xlink:href="#TeXGyreHeros-Regular-37"/>
     <use x="111.199982" xlink:href="#TeXGyreHeros-Regular-3a"/>
     <use x="138.999969" xlink:href="#TeXGyreHeros-Regular-31"/>
     <use x="194.59996" xlink:href="#TeXGyreHeros-Regular-30"/>
    </g>
   </g>
   <g id="text_36">
    <!-- 07:25 -->
    <g transform="translate(274.681364 262.141417)rotate(-327.55611)scale(0.07497 -0.07497)">
     <use xlink:href="#TeXGyreHeros-Regular-30"/>
     <use x="55.599991" xlink:href="#TeXGyreHeros-Regular-37"/>
     <use x="111.199982" xlink:href="#TeXGyreHeros-Regular-3a"/>
     <use x="138.999969" xlink:href="#TeXGyreHeros-Regular-32"/>
     <use x="194.59996" xlink:href="#TeXGyreHeros-Regular-35"/>
    </g>
   </g>
   <g id="text_37">
    <!-- 02:42 -->
    <g transform="translate(147.419981 304.752044)rotate(-241.034705)scale(0.07497 -0.07497)">
     <use xlink:href="#TeXGyreHeros-Regular-30"/>
     <use x="55.599991" xlink:href="#TeXGyreHeros-Regular-32"/>
     <use x="111.199982" xlink:href="#TeXGyreHeros-Regular-3a"/>
     <use x="138.999969" xlink:href="#TeXGyreHeros-Regular-34"/>
     <use x="194.59996" xlink:href="#TeXGyreHeros-Regular-32"/>
    </g>
   </g>
   <g id="text_38">
    <!-- 04:14 -->
    <g transform="translate(131.176844 321.870468)rotate(-238.408949)scale(0.07497 -0.07497)">
     <use xlink:href="#TeXGyreHeros-Regular-30"/>
     <use x="55.599991" xlink:href="#TeXGyreHeros-Regular-34"/>
     <use x="111.199982" xlink:href="#TeXGyreHeros-Regular-3a"/>
     <use x="138.999969" xlink:href="#TeXGyreHeros-Regular-31"/>
     <use x="194.59996" xlink:href="#TeXGyreHeros-Regular-34"/>
    </g>
   </g>
   <g id="text_39">
    <!-- 05:47 -->
    <g transform="translate(143.769648 316.969479)rotate(-242.349232)scale(0.07497 -0.07497)">
     <use xlink:href="#TeXGyreHeros-Regular-30"/>
     <use x="55.599991" xlink:href="#TeXGyreHeros-Regular-35"/>
     <use x="111.199982" xlink:href="#TeXGyreHeros-Regular-3a"/>
     <use x="138.999969" xlink:href="#TeXGyreHeros-Regular-34"/>
     <use x="194.59996" xlink:href="#TeXGyreHeros-Regular-37"/>
    </g>
   </g>
   <g id="text_40">
    <!-- Multi-mission orbits: 2021-04-17/00-12 -->
    <g transform="translate(116.094547 12.478359)scale(0.099 -0.099)">
     <defs>
      <path d="M 4870 0 
L 4307 0 
L 4307 3910 
L 2995 0 
L 2368 0 
L 1043 3910 
L 1043 0 
L 480 0 
L 480 4666 
L 1306 4666 
L 2688 602 
L 4045 4666 
L 4870 4666 
L 4870 0 
z
" id="TeXGyreHeros-Regular-4d" transform="scale(0.015625)"/>
      <path d="M 3085 0 
L 2605 0 
L 2605 518 
Q 2368 186 2112 45 
Q 1856 -96 1485 -96 
Q 998 -96 707 153 
Q 416 403 416 819 
L 416 3354 
L 947 3354 
L 947 1030 
Q 947 730 1132 550 
Q 1318 371 1638 371 
Q 2054 371 2304 681 
Q 2554 992 2554 1504 
L 2554 3354 
L 3085 3354 
L 3085 0 
z
" id="TeXGyreHeros-Regular-75" transform="scale(0.015625)"/>
      <path d="M 966 0 
L 435 0 
L 435 4666 
L 966 4666 
L 966 0 
z
" id="TeXGyreHeros-Regular-6c" transform="scale(0.015625)"/>
      <path d="M 1626 0 
Q 1376 -45 1190 -45 
Q 877 -45 710 92 
Q 544 230 544 486 
L 544 2918 
L 90 2918 
L 90 3354 
L 544 3354 
L 544 4275 
L 1075 4275 
L 1075 3354 
L 1626 3354 
L 1626 2918 
L 1075 2918 
L 1075 723 
Q 1075 544 1136 483 
Q 1197 422 1370 422 
Q 1530 422 1626 448 
L 1626 0 
z
" id="TeXGyreHeros-Regular-74" transform="scale(0.015625)"/>
      <path d="M 979 0 
L 448 0 
L 448 3354 
L 979 3354 
L 979 0 
z
M 1050 3859 
L 384 3859 
L 384 4525 
L 1050 4525 
L 1050 3859 
z
" id="TeXGyreHeros-Regular-69" transform="scale(0.015625)"/>
      <path d="M 1818 1536 
L 294 1536 
L 294 1997 
L 1818 1997 
L 1818 1536 
z
" id="TeXGyreHeros-Regular-2d" transform="scale(0.015625)"/>
      <path d="M 4864 0 
L 4333 0 
L 4333 2310 
Q 4333 2630 4173 2806 
Q 4013 2982 3718 2982 
Q 3392 2982 3158 2726 
Q 2925 2470 2925 2106 
L 2925 0 
L 2394 0 
L 2394 2310 
Q 2394 2630 2230 2806 
Q 2067 2982 1773 2982 
Q 1446 2982 1216 2726 
Q 986 2470 986 2106 
L 986 0 
L 454 0 
L 454 3354 
L 941 3354 
L 941 2880 
Q 1158 3181 1398 3315 
Q 1638 3450 1971 3450 
Q 2592 3450 2874 2938 
Q 3110 3219 3340 3334 
Q 3571 3450 3904 3450 
Q 4371 3450 4617 3210 
Q 4864 2970 4864 2515 
L 4864 0 
z
" id="TeXGyreHeros-Regular-6d" transform="scale(0.015625)"/>
      <path d="M 2938 941 
Q 2938 461 2563 182 
Q 2189 -96 1555 -96 
Q 896 -96 566 176 
Q 237 448 218 1024 
L 781 1024 
Q 832 659 1024 528 
Q 1216 397 1600 397 
Q 1952 397 2166 531 
Q 2381 666 2381 896 
Q 2381 1075 2262 1171 
Q 2144 1267 1862 1338 
L 1363 1459 
Q 768 1600 534 1814 
Q 301 2029 301 2426 
Q 301 2893 653 3171 
Q 1005 3450 1587 3450 
Q 2170 3450 2483 3181 
Q 2797 2912 2803 2419 
L 2240 2419 
Q 2221 2957 1568 2957 
Q 1242 2957 1050 2819 
Q 858 2682 858 2451 
Q 858 2272 1005 2160 
Q 1152 2048 1478 1971 
L 1990 1850 
Q 2496 1728 2717 1520 
Q 2938 1312 2938 941 
z
" id="TeXGyreHeros-Regular-73" transform="scale(0.015625)"/>
      <path d="M 3264 1651 
Q 3264 826 2861 365 
Q 2458 -96 1747 -96 
Q 1030 -96 630 368 
Q 230 832 230 1677 
Q 230 2515 630 2982 
Q 1030 3450 1741 3450 
Q 2470 3450 2867 2982 
Q 3264 2515 3264 1651 
z
M 2707 1658 
Q 2707 2278 2454 2617 
Q 2202 2957 1747 2957 
Q 1299 2957 1043 2617 
Q 787 2278 787 1677 
Q 787 1069 1043 733 
Q 1299 397 1747 397 
Q 2189 397 2448 733 
Q 2707 1069 2707 1658 
z
" id="TeXGyreHeros-Regular-6f" transform="scale(0.015625)"/>
      <path d="M 3117 0 
L 2586 0 
L 2586 2323 
Q 2586 2624 2400 2803 
Q 2214 2982 1894 2982 
Q 1485 2982 1232 2672 
Q 979 2362 979 1850 
L 979 0 
L 448 0 
L 448 3354 
L 941 3354 
L 941 2790 
Q 1165 3142 1424 3296 
Q 1683 3450 2054 3450 
Q 2541 3450 2829 3200 
Q 3117 2950 3117 2534 
L 3117 0 
z
" id="TeXGyreHeros-Regular-6e" transform="scale(0.015625)"/>
      <path id="TeXGyreHeros-Regular-20" transform="scale(0.015625)"/>
      <path d="M 2054 2886 
Q 1453 2880 1216 2605 
Q 979 2330 979 1741 
L 979 0 
L 448 0 
L 448 3354 
L 934 3354 
L 934 2746 
Q 1165 3123 1379 3286 
Q 1594 3450 1850 3450 
Q 1920 3450 2054 3430 
L 2054 2886 
z
" id="TeXGyreHeros-Regular-72" transform="scale(0.015625)"/>
      <path d="M 3347 1715 
Q 3347 896 2947 400 
Q 2547 -96 1888 -96 
Q 1203 -96 826 480 
L 826 0 
L 346 0 
L 346 4666 
L 877 4666 
L 877 2899 
Q 1242 3450 1914 3450 
Q 2579 3450 2963 2989 
Q 3347 2528 3347 1715 
z
M 2790 1683 
Q 2790 2246 2521 2598 
Q 2253 2950 1811 2950 
Q 1389 2970 1133 2618 
Q 877 2266 877 1677 
Q 877 1107 1133 755 
Q 1389 403 1811 403 
Q 2246 403 2518 758 
Q 2790 1114 2790 1683 
z
" id="TeXGyreHeros-Regular-62" transform="scale(0.015625)"/>
      <path d="M 1818 4666 
L 301 -128 
L -51 -128 
L 1466 4666 
L 1818 4666 
z
" id="TeXGyreHeros-Regular-2f" transform="scale(0.015625)"/>
     </defs>
     <use xlink:href="#TeXGyreHeros-Regular-4d"/>
     <use x="83.299988" xlink:href="#TeXGyreHeros-Regular-75"/>
     <use x="138.899979" xlink:href="#TeXGyreHeros-Regular-6c"/>
     <use x="161.099976" xlink:href="#TeXGyreHeros-Regular-74"/>
     <use x="188.899963" xlink:href="#TeXGyreHeros-Regular-69"/>
     <use x="211.09996" xlink:href="#TeXGyreHeros-Regular-2d"/>
     <use x="244.399948" xlink:href="#TeXGyreHeros-Regular-6d"/>
     <use x="327.699936" xlink:href="#TeXGyreHeros-Regular-69"/>
     <use x="349.899933" xlink:href="#TeXGyreHeros-Regular-73"/>
     <use x="399.899918" xlink:href="#TeXGyreHeros-Regular-73"/>
     <use x="449.899902" xlink:href="#TeXGyreHeros-Regular-69"/>
     <use x="472.099899" xlink:href="#TeXGyreHeros-Regular-6f"/>
     <use x="527.69989" xlink:href="#TeXGyreHeros-Regular-6e"/>
     <use x="583.299881" xlink:href="#TeXGyreHeros-Regular-20"/>
     <use x="611.099869" xlink:href="#TeXGyreHeros-Regular-6f"/>
     <use x="666.69986" xlink:href="#TeXGyreHeros-Regular-72"/>
     <use x="699.999847" xlink:href="#TeXGyreHeros-Regular-62"/>
     <use x="755.599838" xlink:href="#TeXGyreHeros-Regular-69"/>
     <use x="777.799835" xlink:href="#TeXGyreHeros-Regular-74"/>
     <use x="805.599823" xlink:href="#TeXGyreHeros-Regular-73"/>
     <use x="855.599808" xlink:href="#TeXGyreHeros-Regular-3a"/>
     <use x="883.399796" xlink:href="#TeXGyreHeros-Regular-20"/>
     <use x="911.199783" xlink:href="#TeXGyreHeros-Regular-32"/>
     <use x="966.799774" xlink:href="#TeXGyreHeros-Regular-30"/>
     <use x="1022.399765" xlink:href="#TeXGyreHeros-Regular-32"/>
     <use x="1077.999756" xlink:href="#TeXGyreHeros-Regular-31"/>
     <use x="1133.599747" xlink:href="#TeXGyreHeros-Regular-2d"/>
     <use x="1166.899734" xlink:href="#TeXGyreHeros-Regular-30"/>
     <use x="1222.499725" xlink:href="#TeXGyreHeros-Regular-34"/>
     <use x="1278.099716" xlink:href="#TeXGyreHeros-Regular-2d"/>
     <use x="1311.399704" xlink:href="#TeXGyreHeros-Regular-31"/>
     <use x="1366.999695" xlink:href="#TeXGyreHeros-Regular-37"/>
     <use x="1422.599686" xlink:href="#TeXGyreHeros-Regular-2f"/>
     <use x="1450.399673" xlink:href="#TeXGyreHeros-Regular-30"/>
     <use x="1505.999664" xlink:href="#TeXGyreHeros-Regular-30"/>
     <use x="1561.599655" xlink:href="#TeXGyreHeros-Regular-2d"/>
     <use x="1594.899643" xlink:href="#TeXGyreHeros-Regular-31"/>
     <use x="1650.499634" xlink:href="#TeXGyreHeros-Regular-32"/>
    </g>
   </g>
  </g>
  <g id="axes_2">
   <g id="patch_4">
    <path d="M 398.56 392.74 
L 412.96 392.74 
L 412.96 32.74 
L 398.56 32.74 
z
" style="fill:none;"/>
   </g>
   <g id="legend_1">
    <g id="text_41">
     <!-- Orbits -->
     <g transform="translate(412.819375 175.970078)scale(0.09 -0.09)">
      <defs>
       <path d="M 4749 2259 
Q 4749 1216 4131 550 
Q 3514 -115 2496 -115 
Q 1485 -115 864 547 
Q 243 1210 243 2298 
Q 243 3398 867 4089 
Q 1491 4781 2490 4781 
Q 3514 4781 4131 4086 
Q 4749 3392 4749 2259 
z
M 4154 2272 
Q 4154 3162 3699 3709 
Q 3245 4256 2490 4256 
Q 1754 4256 1296 3709 
Q 838 3162 838 2298 
Q 838 1440 1292 925 
Q 1747 410 2496 410 
Q 3238 410 3696 922 
Q 4154 1434 4154 2272 
z
" id="TeXGyreHeros-Regular-4f" transform="scale(0.015625)"/>
      </defs>
      <use xlink:href="#TeXGyreHeros-Regular-4f"/>
      <use x="77.799988" xlink:href="#TeXGyreHeros-Regular-72"/>
      <use x="111.099976" xlink:href="#TeXGyreHeros-Regular-62"/>
      <use x="166.699966" xlink:href="#TeXGyreHeros-Regular-69"/>
      <use x="188.899963" xlink:href="#TeXGyreHeros-Regular-74"/>
      <use x="216.699951" xlink:href="#TeXGyreHeros-Regular-73"/>
     </g>
    </g>
    <g id="line2d_29">
     <path d="M 398.56 185.843359 
L 416.56 185.843359 
" style="fill:none;stroke:#5bbe94;stroke-opacity:0.618;stroke-width:1.5;"/>
    </g>
    <g id="line2d_30"/>
    <g id="text_42">
     <!-- noaa19 -->
     <g transform="translate(421.06 188.993359)scale(0.09 -0.09)">
      <defs>
       <path d="M 3424 13 
Q 3200 -45 3059 -45 
Q 2861 -45 2707 80 
Q 2554 205 2509 397 
Q 2048 -96 1370 -96 
Q 858 -96 563 160 
Q 269 416 269 870 
Q 269 1498 858 1741 
Q 1018 1805 1197 1840 
Q 1376 1875 1933 1946 
Q 2246 1984 2368 2067 
Q 2490 2150 2490 2317 
L 2490 2458 
Q 2490 2701 2294 2829 
Q 2099 2957 1741 2957 
Q 1370 2957 1178 2813 
Q 986 2669 954 2362 
L 416 2362 
Q 461 3450 1760 3450 
Q 2381 3450 2701 3216 
Q 3021 2982 3021 2534 
L 3021 666 
Q 3021 403 3309 403 
Q 3366 403 3424 416 
L 3424 13 
z
M 2490 1158 
L 2490 1658 
Q 2278 1562 1632 1472 
Q 1197 1408 1011 1277 
Q 826 1146 826 883 
Q 826 371 1485 371 
Q 1888 371 2189 592 
Q 2490 813 2490 1158 
z
" id="TeXGyreHeros-Regular-61" transform="scale(0.015625)"/>
      </defs>
      <use xlink:href="#TeXGyreHeros-Regular-6e"/>
      <use x="55.599991" xlink:href="#TeXGyreHeros-Regular-6f"/>
      <use x="111.199982" xlink:href="#TeXGyreHeros-Regular-61"/>
      <use x="166.799973" xlink:href="#TeXGyreHeros-Regular-61"/>
      <use x="222.399963" xlink:href="#TeXGyreHeros-Regular-31"/>
      <use x="277.999954" xlink:href="#TeXGyreHeros-Regular-39"/>
     </g>
    </g>
    <g id="line2d_31">
     <path d="M 398.56 198.866641 
L 416.56 198.866641 
" style="fill:none;stroke:#91be64;stroke-opacity:0.618;stroke-width:1.5;"/>
    </g>
    <g id="line2d_32"/>
    <g id="text_43">
     <!-- noaa15 -->
     <g transform="translate(421.06 202.016641)scale(0.09 -0.09)">
      <use xlink:href="#TeXGyreHeros-Regular-6e"/>
      <use x="55.599991" xlink:href="#TeXGyreHeros-Regular-6f"/>
      <use x="111.199982" xlink:href="#TeXGyreHeros-Regular-61"/>
      <use x="166.799973" xlink:href="#TeXGyreHeros-Regular-61"/>
      <use x="222.399963" xlink:href="#TeXGyreHeros-Regular-31"/>
      <use x="277.999954" xlink:href="#TeXGyreHeros-Regular-35"/>
     </g>
    </g>
    <g id="line2d_33">
     <path d="M 398.56 211.889922 
L 416.56 211.889922 
" style="fill:none;stroke:#e5cf6c;stroke-opacity:0.618;stroke-width:1.5;"/>
    </g>
    <g id="line2d_34"/>
    <g id="text_44">
     <!-- goes16 -->
     <g transform="translate(421.06 215.039922)scale(0.09 -0.09)">
      <defs>
       <path d="M 3130 550 
Q 3130 -538 2784 -966 
Q 2438 -1395 1632 -1395 
Q 1043 -1395 691 -1126 
Q 339 -858 294 -384 
L 838 -384 
Q 928 -947 1651 -947 
Q 2138 -947 2387 -656 
Q 2637 -365 2637 282 
L 2637 506 
Q 2368 186 2125 45 
Q 1882 -96 1568 -96 
Q 966 -96 576 384 
Q 186 864 186 1645 
Q 186 2458 579 2954 
Q 973 3450 1613 3450 
Q 2240 3450 2637 2867 
L 2637 3354 
L 3130 3354 
L 3130 550 
z
M 2586 1658 
Q 2586 2266 2342 2611 
Q 2099 2957 1670 2957 
Q 1242 2957 992 2617 
Q 742 2278 742 1677 
Q 742 1069 988 733 
Q 1235 397 1677 397 
Q 2099 397 2342 729 
Q 2586 1062 2586 1658 
z
" id="TeXGyreHeros-Regular-67" transform="scale(0.015625)"/>
       <path d="M 3283 1523 
L 813 1523 
Q 819 966 1091 681 
Q 1363 397 1798 397 
Q 2470 397 2675 1018 
L 3213 1018 
Q 3110 506 2729 205 
Q 2349 -96 1779 -96 
Q 1069 -96 662 368 
Q 256 832 256 1657 
Q 256 2483 672 2966 
Q 1088 3450 1792 3450 
Q 2266 3450 2627 3213 
Q 2989 2976 3149 2566 
Q 3283 2214 3283 1523 
z
M 2714 1997 
Q 2714 2394 2445 2675 
Q 2176 2957 1786 2957 
Q 1382 2957 1120 2681 
Q 858 2406 826 1958 
L 2707 1958 
L 2714 1997 
z
" id="TeXGyreHeros-Regular-65" transform="scale(0.015625)"/>
      </defs>
      <use xlink:href="#TeXGyreHeros-Regular-67"/>
      <use x="55.599991" xlink:href="#TeXGyreHeros-Regular-6f"/>
      <use x="111.199982" xlink:href="#TeXGyreHeros-Regular-65"/>
      <use x="166.799973" xlink:href="#TeXGyreHeros-Regular-73"/>
      <use x="216.799957" xlink:href="#TeXGyreHeros-Regular-31"/>
      <use x="272.399948" xlink:href="#TeXGyreHeros-Regular-36"/>
     </g>
    </g>
    <g id="line2d_35">
     <path d="M 398.56 224.913203 
L 416.56 224.913203 
" style="fill:none;stroke:#e87b70;stroke-opacity:0.618;stroke-width:1.5;"/>
    </g>
    <g id="line2d_36"/>
    <g id="text_45">
     <!-- mms1 -->
     <g transform="translate(421.06 228.063203)scale(0.09 -0.09)">
      <use xlink:href="#TeXGyreHeros-Regular-6d"/>
      <use x="83.299988" xlink:href="#TeXGyreHeros-Regular-6d"/>
      <use x="166.599976" xlink:href="#TeXGyreHeros-Regular-73"/>
      <use x="216.59996" xlink:href="#TeXGyreHeros-Regular-31"/>
     </g>
    </g>
    <g id="line2d_37">
     <path d="M 398.56 237.936484 
L 416.56 237.936484 
" style="fill:none;stroke:#cc6686;stroke-opacity:0.618;stroke-width:1.5;"/>
    </g>
    <g id="line2d_38"/>
    <g id="text_46">
     <!-- arase -->
     <g transform="translate(421.06 241.086484)scale(0.09 -0.09)">
      <use xlink:href="#TeXGyreHeros-Regular-61"/>
      <use x="55.599991" xlink:href="#TeXGyreHeros-Regular-72"/>
      <use x="88.899979" xlink:href="#TeXGyreHeros-Regular-61"/>
      <use x="144.499969" xlink:href="#TeXGyreHeros-Regular-73"/>
      <use x="194.499954" xlink:href="#TeXGyreHeros-Regular-65"/>
     </g>
    </g>
    <g id="line2d_39">
     <path d="M 398.56 250.959766 
L 416.56 250.959766 
" style="fill:none;stroke:#5884b3;stroke-opacity:0.618;stroke-width:1.5;"/>
    </g>
    <g id="line2d_40"/>
    <g id="text_47">
     <!-- elfinb -->
     <g transform="translate(421.06 254.109766)scale(0.09 -0.09)">
      <defs>
       <path d="M 1651 2918 
L 1094 2918 
L 1094 0 
L 563 0 
L 563 2918 
L 115 2918 
L 115 3354 
L 563 3354 
L 563 3923 
Q 563 4282 771 4483 
Q 979 4685 1350 4685 
Q 1498 4685 1651 4653 
L 1651 4211 
Q 1530 4218 1466 4218 
Q 1094 4218 1094 3878 
L 1094 3354 
L 1651 3354 
L 1651 2918 
z
" id="TeXGyreHeros-Regular-66" transform="scale(0.015625)"/>
      </defs>
      <use xlink:href="#TeXGyreHeros-Regular-65"/>
      <use x="55.599991" xlink:href="#TeXGyreHeros-Regular-6c"/>
      <use x="77.799988" xlink:href="#TeXGyreHeros-Regular-66"/>
      <use x="105.599976" xlink:href="#TeXGyreHeros-Regular-69"/>
      <use x="127.799973" xlink:href="#TeXGyreHeros-Regular-6e"/>
      <use x="183.399963" xlink:href="#TeXGyreHeros-Regular-62"/>
     </g>
    </g>
   </g>
  </g>
 </g>
 <defs>
  <clipPath id="p6c82ba9484">
   <path d="M 380.54 212.74 
C 380.54 189.102617 375.883951 165.695077 366.838316 143.856982 
C 357.792681 122.018887 344.533375 102.174933 327.819221 85.460779 
C 311.105067 68.746625 291.261113 55.487319 269.423018 46.441684 
C 247.584923 37.396049 224.177383 32.74 200.54 32.74 
C 176.902617 32.74 153.495077 37.396049 131.656982 46.441684 
C 109.818887 55.487319 89.974933 68.746625 73.260779 85.460779 
C 56.546625 102.174933 43.287319 122.018887 34.241684 143.856982 
C 25.196049 165.695077 20.54 189.102617 20.54 212.74 
C 20.54 236.377383 25.196049 259.784923 34.241684 281.623018 
C 43.287319 303.461113 56.546625 323.305067 73.260779 340.019221 
C 89.974933 356.733375 109.818887 369.992681 131.656982 379.038316 
C 153.495077 388.083951 176.902617 392.74 200.54 392.74 
C 224.177383 392.74 247.584923 388.083951 269.423018 379.038316 
C 291.261113 369.992681 311.105067 356.733375 327.819221 340.019221 
C 344.533375 323.305067 357.792681 303.461113 366.838316 281.623018 
C 375.883951 259.784923 380.54 236.377383 380.54 212.74 
M 200.54 212.74 
C 200.54 212.74 200.54 212.74 200.54 212.74 
C 200.54 212.74 200.54 212.74 200.54 212.74 
C 200.54 212.74 200.54 212.74 200.54 212.74 
C 200.54 212.74 200.54 212.74 200.54 212.74 
C 200.54 212.74 200.54 212.74 200.54 212.74 
C 200.54 212.74 200.54 212.74 200.54 212.74 
C 200.54 212.74 200.54 212.74 200.54 212.74 
C 200.54 212.74 200.54 212.74 200.54 212.74 
C 200.54 212.74 200.54 212.74 200.54 212.74 
C 200.54 212.74 200.54 212.74 200.54 212.74 
C 200.54 212.74 200.54 212.74 200.54 212.74 
C 200.54 212.74 200.54 212.74 200.54 212.74 
C 200.54 212.74 200.54 212.74 200.54 212.74 
C 200.54 212.74 200.54 212.74 200.54 212.74 
C 200.54 212.74 200.54 212.74 200.54 212.74 
C 200.54 212.74 200.54 212.74 200.54 212.74 
M 380.54 212.74 
z
"/>
  </clipPath>
 </defs>
</svg>
