<?xml version="1.0" encoding="utf-8" standalone="no"?>
<!DOCTYPE svg PUBLIC "-//W3C//DTD SVG 1.1//EN"
  "http://www.w3.org/Graphics/SVG/1.1/DTD/svg11.dtd">
<svg height="189.35056pt" version="1.1" viewBox="0 0 410.63392 189.35056" width="410.63392pt" xmlns="http://www.w3.org/2000/svg" xmlns:xlink="http://www.w3.org/1999/xlink">
 <metadata>
  <rdf:RDF xmlns:cc="http://creativecommons.org/ns#" xmlns:dc="http://purl.org/dc/elements/1.1/" xmlns:rdf="http://www.w3.org/1999/02/22-rdf-syntax-ns#">
   <cc:Work>
    <dc:type rdf:resource="http://purl.org/dc/dcmitype/StillImage"/>
    <dc:date>2024-08-05T11:43:38.809723</dc:date>
    <dc:format>image/svg+xml</dc:format>
    <dc:creator>
     <cc:Agent>
      <dc:title>Matplotlib v3.4.3, https://matplotlib.org/</dc:title>
     </cc:Agent>
    </dc:creator>
   </cc:Work>
  </rdf:RDF>
 </metadata>
 <defs>
  <style type="text/css">*{stroke-linecap:butt;stroke-linejoin:round;}</style>
 </defs>
 <g id="figure_1">
  <g id="patch_1">
   <path d="M 0 189.35056 
L 410.63392 189.35056 
L 410.63392 0 
L 0 0 
z
" style="fill:#ffffff;"/>
  </g>
  <g id="axes_1">
   <g id="patch_2">
    <path d="M 43.3 81.03528 
L 406.13392 81.03528 
L 406.13392 4.5 
L 43.3 4.5 
z
" style="fill:#ffffff;"/>
   </g>
   <g id="matplotlib.axis_1">
    <g id="xtick_1">
     <g id="line2d_1">
      <path clip-path="url(#p0fa233af2b)" d="M 43.3 81.03528 
L 43.3 4.5 
" style="fill:none;stroke:#000000;stroke-linecap:square;stroke-opacity:0.1;stroke-width:0.6;"/>
     </g>
     <g id="line2d_2">
      <defs>
       <path d="M 0 0 
L 0 4 
" id="m2734a3ce3e" style="stroke:#000000;stroke-width:0.6;"/>
      </defs>
      <g>
       <use style="stroke:#000000;stroke-width:0.6;" x="43.3" xlink:href="#m2734a3ce3e" y="81.03528"/>
      </g>
     </g>
    </g>
    <g id="xtick_2">
     <g id="line2d_3">
      <path clip-path="url(#p0fa233af2b)" d="M 134.134639 81.03528 
L 134.134639 4.5 
" style="fill:none;stroke:#000000;stroke-linecap:square;stroke-opacity:0.1;stroke-width:0.6;"/>
     </g>
     <g id="line2d_4">
      <g>
       <use style="stroke:#000000;stroke-width:0.6;" x="134.134639" xlink:href="#m2734a3ce3e" y="81.03528"/>
      </g>
     </g>
    </g>
    <g id="xtick_3">
     <g id="line2d_5">
      <path clip-path="url(#p0fa233af2b)" d="M 224.969278 81.03528 
L 224.969278 4.5 
" style="fill:none;stroke:#000000;stroke-linecap:square;stroke-opacity:0.1;stroke-width:0.6;"/>
     </g>
     <g id="line2d_6">
      <g>
       <use style="stroke:#000000;stroke-width:0.6;" x="224.969278" xlink:href="#m2734a3ce3e" y="81.03528"/>
      </g>
     </g>
    </g>
    <g id="xtick_4">
     <g id="line2d_7">
      <path clip-path="url(#p0fa233af2b)" d="M 315.803918 81.03528 
L 315.803918 4.5 
" style="fill:none;stroke:#000000;stroke-linecap:square;stroke-opacity:0.1;stroke-width:0.6;"/>
     </g>
     <g id="line2d_8">
      <g>
       <use style="stroke:#000000;stroke-width:0.6;" x="315.803918" xlink:href="#m2734a3ce3e" y="81.03528"/>
      </g>
     </g>
    </g>
    <g id="xtick_5">
     <g id="line2d_9">
      <defs>
       <path d="M 0 0 
L 0 2 
" id="m7ac32b4196" style="stroke:#000000;stroke-width:0.48;"/>
      </defs>
      <g>
       <use style="stroke:#000000;stroke-width:0.48;" x="66.00866" xlink:href="#m7ac32b4196" y="81.03528"/>
      </g>
     </g>
    </g>
    <g id="xtick_6">
     <g id="line2d_10">
      <g>
       <use style="stroke:#000000;stroke-width:0.48;" x="88.71732" xlink:href="#m7ac32b4196" y="81.03528"/>
      </g>
     </g>
    </g>
    <g id="xtick_7">
     <g id="line2d_11">
      <g>
       <use style="stroke:#000000;stroke-width:0.48;" x="111.425979" xlink:href="#m7ac32b4196" y="81.03528"/>
      </g>
     </g>
    </g>
    <g id="xtick_8">
     <g id="line2d_12">
      <g>
       <use style="stroke:#000000;stroke-width:0.48;" x="156.843299" xlink:href="#m7ac32b4196" y="81.03528"/>
      </g>
     </g>
    </g>
    <g id="xtick_9">
     <g id="line2d_13">
      <g>
       <use style="stroke:#000000;stroke-width:0.48;" x="179.551959" xlink:href="#m7ac32b4196" y="81.03528"/>
      </g>
     </g>
    </g>
    <g id="xtick_10">
     <g id="line2d_14">
      <g>
       <use style="stroke:#000000;stroke-width:0.48;" x="202.260619" xlink:href="#m7ac32b4196" y="81.03528"/>
      </g>
     </g>
    </g>
    <g id="xtick_11">
     <g id="line2d_15">
      <g>
       <use style="stroke:#000000;stroke-width:0.48;" x="247.677938" xlink:href="#m7ac32b4196" y="81.03528"/>
      </g>
     </g>
    </g>
    <g id="xtick_12">
     <g id="line2d_16">
      <g>
       <use style="stroke:#000000;stroke-width:0.48;" x="270.386598" xlink:href="#m7ac32b4196" y="81.03528"/>
      </g>
     </g>
    </g>
    <g id="xtick_13">
     <g id="line2d_17">
      <g>
       <use style="stroke:#000000;stroke-width:0.48;" x="293.095258" xlink:href="#m7ac32b4196" y="81.03528"/>
      </g>
     </g>
    </g>
    <g id="xtick_14">
     <g id="line2d_18">
      <g>
       <use style="stroke:#000000;stroke-width:0.48;" x="338.512577" xlink:href="#m7ac32b4196" y="81.03528"/>
      </g>
     </g>
    </g>
    <g id="xtick_15">
     <g id="line2d_19">
      <g>
       <use style="stroke:#000000;stroke-width:0.48;" x="361.221237" xlink:href="#m7ac32b4196" y="81.03528"/>
      </g>
     </g>
    </g>
    <g id="xtick_16">
     <g id="line2d_20">
      <g>
       <use style="stroke:#000000;stroke-width:0.48;" x="383.929897" xlink:href="#m7ac32b4196" y="81.03528"/>
      </g>
     </g>
    </g>
   </g>
   <g id="matplotlib.axis_2">
    <g id="ytick_1">
     <g id="line2d_21">
      <path clip-path="url(#p0fa233af2b)" d="M 43.3 72.724631 
L 406.13392 72.724631 
" style="fill:none;stroke:#000000;stroke-linecap:square;stroke-opacity:0.1;stroke-width:0.6;"/>
     </g>
     <g id="line2d_22">
      <defs>
       <path d="M 0 0 
L -4 0 
" id="m6a28a8f644" style="stroke:#000000;stroke-width:0.6;"/>
      </defs>
      <g>
       <use style="stroke:#000000;stroke-width:0.6;" x="43.3" xlink:href="#m6a28a8f644" y="72.724631"/>
      </g>
     </g>
     <g id="text_1">
      <text style="font-family:TeX Gyre Heros;font-size:9px;font-stretch:normal;font-style:normal;font-weight:normal;text-anchor:end;" transform="rotate(-0, 37.3, 76.005412)" x="37.3" y="76.005412">−60</text>
     </g>
    </g>
    <g id="ytick_2">
     <g id="line2d_23">
      <path clip-path="url(#p0fa233af2b)" d="M 43.3 53.39754 
L 406.13392 53.39754 
" style="fill:none;stroke:#000000;stroke-linecap:square;stroke-opacity:0.1;stroke-width:0.6;"/>
     </g>
     <g id="line2d_24">
      <g>
       <use style="stroke:#000000;stroke-width:0.6;" x="43.3" xlink:href="#m6a28a8f644" y="53.39754"/>
      </g>
     </g>
     <g id="text_2">
      <text style="font-family:TeX Gyre Heros;font-size:9px;font-stretch:normal;font-style:normal;font-weight:normal;text-anchor:end;" transform="rotate(-0, 37.3, 56.678321)" x="37.3" y="56.678321">−50</text>
     </g>
    </g>
    <g id="ytick_3">
     <g id="line2d_25">
      <path clip-path="url(#p0fa233af2b)" d="M 43.3 34.070449 
L 406.13392 34.070449 
" style="fill:none;stroke:#000000;stroke-linecap:square;stroke-opacity:0.1;stroke-width:0.6;"/>
     </g>
     <g id="line2d_26">
      <g>
       <use style="stroke:#000000;stroke-width:0.6;" x="43.3" xlink:href="#m6a28a8f644" y="34.070449"/>
      </g>
     </g>
     <g id="text_3">
      <text style="font-family:TeX Gyre Heros;font-size:9px;font-stretch:normal;font-style:normal;font-weight:normal;text-anchor:end;" transform="rotate(-0, 37.3, 37.35123)" x="37.3" y="37.35123">−40</text>
     </g>
    </g>
    <g id="ytick_4">
     <g id="line2d_27">
      <path clip-path="url(#p0fa233af2b)" d="M 43.3 14.743358 
L 406.13392 14.743358 
" style="fill:none;stroke:#000000;stroke-linecap:square;stroke-opacity:0.1;stroke-width:0.6;"/>
     </g>
     <g id="line2d_28">
      <g>
       <use style="stroke:#000000;stroke-width:0.6;" x="43.3" xlink:href="#m6a28a8f644" y="14.743358"/>
      </g>
     </g>
     <g id="text_4">
      <text style="font-family:TeX Gyre Heros;font-size:9px;font-stretch:normal;font-style:normal;font-weight:normal;text-anchor:end;" transform="rotate(-0, 37.3, 18.024139)" x="37.3" y="18.024139">−30</text>
     </g>
    </g>
    <g id="ytick_5">
     <g id="line2d_29">
      <defs>
       <path d="M 0 0 
L -2 0 
" id="m5ac284991e" style="stroke:#000000;stroke-width:0.48;"/>
      </defs>
      <g>
       <use style="stroke:#000000;stroke-width:0.48;" x="43.3" xlink:href="#m5ac284991e" y="80.455467"/>
      </g>
     </g>
    </g>
    <g id="ytick_6">
     <g id="line2d_30">
      <g>
       <use style="stroke:#000000;stroke-width:0.48;" x="43.3" xlink:href="#m5ac284991e" y="76.590049"/>
      </g>
     </g>
    </g>
    <g id="ytick_7">
     <g id="line2d_31">
      <g>
       <use style="stroke:#000000;stroke-width:0.48;" x="43.3" xlink:href="#m5ac284991e" y="68.859213"/>
      </g>
     </g>
    </g>
    <g id="ytick_8">
     <g id="line2d_32">
      <g>
       <use style="stroke:#000000;stroke-width:0.48;" x="43.3" xlink:href="#m5ac284991e" y="64.993795"/>
      </g>
     </g>
    </g>
    <g id="ytick_9">
     <g id="line2d_33">
      <g>
       <use style="stroke:#000000;stroke-width:0.48;" x="43.3" xlink:href="#m5ac284991e" y="61.128376"/>
      </g>
     </g>
    </g>
    <g id="ytick_10">
     <g id="line2d_34">
      <g>
       <use style="stroke:#000000;stroke-width:0.48;" x="43.3" xlink:href="#m5ac284991e" y="57.262958"/>
      </g>
     </g>
    </g>
    <g id="ytick_11">
     <g id="line2d_35">
      <g>
       <use style="stroke:#000000;stroke-width:0.48;" x="43.3" xlink:href="#m5ac284991e" y="49.532122"/>
      </g>
     </g>
    </g>
    <g id="ytick_12">
     <g id="line2d_36">
      <g>
       <use style="stroke:#000000;stroke-width:0.48;" x="43.3" xlink:href="#m5ac284991e" y="45.666704"/>
      </g>
     </g>
    </g>
    <g id="ytick_13">
     <g id="line2d_37">
      <g>
       <use style="stroke:#000000;stroke-width:0.48;" x="43.3" xlink:href="#m5ac284991e" y="41.801285"/>
      </g>
     </g>
    </g>
    <g id="ytick_14">
     <g id="line2d_38">
      <g>
       <use style="stroke:#000000;stroke-width:0.48;" x="43.3" xlink:href="#m5ac284991e" y="37.935867"/>
      </g>
     </g>
    </g>
    <g id="ytick_15">
     <g id="line2d_39">
      <g>
       <use style="stroke:#000000;stroke-width:0.48;" x="43.3" xlink:href="#m5ac284991e" y="30.205031"/>
      </g>
     </g>
    </g>
    <g id="ytick_16">
     <g id="line2d_40">
      <g>
       <use style="stroke:#000000;stroke-width:0.48;" x="43.3" xlink:href="#m5ac284991e" y="26.339613"/>
      </g>
     </g>
    </g>
    <g id="ytick_17">
     <g id="line2d_41">
      <g>
       <use style="stroke:#000000;stroke-width:0.48;" x="43.3" xlink:href="#m5ac284991e" y="22.474195"/>
      </g>
     </g>
    </g>
    <g id="ytick_18">
     <g id="line2d_42">
      <g>
       <use style="stroke:#000000;stroke-width:0.48;" x="43.3" xlink:href="#m5ac284991e" y="18.608776"/>
      </g>
     </g>
    </g>
    <g id="ytick_19">
     <g id="line2d_43">
      <g>
       <use style="stroke:#000000;stroke-width:0.48;" x="43.3" xlink:href="#m5ac284991e" y="10.87794"/>
      </g>
     </g>
    </g>
    <g id="ytick_20">
     <g id="line2d_44">
      <g>
       <use style="stroke:#000000;stroke-width:0.48;" x="43.3" xlink:href="#m5ac284991e" y="7.012522"/>
      </g>
     </g>
    </g>
    <g id="text_5">
     <text style="font-family:TeX Gyre Heros;font-size:9px;font-stretch:normal;font-style:normal;font-weight:normal;text-anchor:middle;" transform="rotate(-90, 16.074844, 42.76764)" x="16.074844" y="42.76764">SYM-H (nT)</text>
    </g>
   </g>
   <g id="line2d_45">
    <path clip-path="url(#p0fa233af2b)" d="M 43.3 37.935867 
L 44.309274 37.935867 
L 44.813911 36.003158 
L 45.318548 36.003158 
L 45.823184 37.935867 
L 46.327821 36.003158 
L 48.851006 36.003158 
L 49.355643 34.070449 
L 50.869553 34.070449 
L 51.37419 32.13774 
L 51.878827 32.13774 
L 52.383464 30.205031 
L 52.888101 30.205031 
L 53.392738 28.272322 
L 53.897375 28.272322 
L 54.402011 26.339613 
L 57.93447 26.339613 
L 58.439107 24.406904 
L 59.953017 24.406904 
L 60.457654 22.474195 
L 60.962291 22.474195 
L 61.466928 20.541485 
L 62.476202 20.541485 
L 62.980838 18.608776 
L 63.990112 18.608776 
L 64.494749 16.676067 
L 67.017934 16.676067 
L 67.52257 14.743358 
L 70.045755 14.743358 
L 70.550392 12.810649 
L 71.055029 14.743358 
L 72.064302 14.743358 
L 72.568939 16.676067 
L 74.08285 16.676067 
L 74.587487 18.608776 
L 78.119945 18.608776 
L 78.624582 20.541485 
L 85.689498 20.541485 
L 86.194135 22.474195 
L 86.698772 22.474195 
L 87.203409 24.406904 
L 87.708046 24.406904 
L 88.212683 26.339613 
L 89.221956 26.339613 
L 89.726593 28.272322 
L 90.735867 28.272322 
L 91.240504 26.339613 
L 91.745141 22.474195 
L 93.259052 16.676067 
L 94.268325 16.676067 
L 94.772962 18.608776 
L 95.277599 18.608776 
L 95.782236 16.676067 
L 96.286873 16.676067 
L 96.79151 18.608776 
L 97.296147 16.676067 
L 97.800784 16.676067 
L 98.810057 20.541485 
L 99.819331 20.541485 
L 100.323968 22.474195 
L 100.828605 22.474195 
L 101.333242 24.406904 
L 102.342515 24.406904 
L 102.847152 26.339613 
L 103.351789 26.339613 
L 103.856426 28.272322 
L 104.8657 28.272322 
L 105.874974 32.13774 
L 106.884247 32.13774 
L 107.388884 34.070449 
L 107.893521 34.070449 
L 108.398158 32.13774 
L 108.902795 34.070449 
L 109.407432 34.070449 
L 109.912069 36.003158 
L 110.416706 36.003158 
L 110.921343 37.935867 
L 111.425979 37.935867 
L 112.435253 41.801285 
L 112.93989 41.801285 
L 113.444527 43.733995 
L 113.949164 43.733995 
L 114.453801 45.666704 
L 118.995533 45.666704 
L 119.50017 47.599413 
L 120.004806 45.666704 
L 120.509443 47.599413 
L 121.518717 43.733995 
L 124.041902 43.733995 
L 124.546538 41.801285 
L 126.060449 41.801285 
L 126.565086 39.868576 
L 129.08827 39.868576 
L 129.592907 37.935867 
L 130.097544 39.868576 
L 134.639276 39.868576 
L 135.143913 37.935867 
L 136.657824 37.935867 
L 137.162461 36.003158 
L 138.171734 36.003158 
L 138.676371 34.070449 
L 139.181008 36.003158 
L 139.685645 34.070449 
L 141.199556 34.070449 
L 141.704192 32.13774 
L 142.208829 32.13774 
L 142.713466 30.205031 
L 143.72274 30.205031 
L 144.227377 32.13774 
L 145.236651 32.13774 
L 145.741288 34.070449 
L 146.245924 34.070449 
L 146.750561 32.13774 
L 148.264472 32.13774 
L 148.769109 34.070449 
L 149.778383 34.070449 
L 151.292293 39.868576 
L 152.301567 39.868576 
L 152.806204 41.801285 
L 153.310841 39.868576 
L 153.815478 39.868576 
L 154.320115 41.801285 
L 154.824751 41.801285 
L 155.329388 43.733995 
L 155.834025 43.733995 
L 156.338662 45.666704 
L 158.35721 45.666704 
L 158.861847 47.599413 
L 159.366483 47.599413 
L 159.87112 49.532122 
L 160.880394 49.532122 
L 161.385031 51.464831 
L 162.898942 51.464831 
L 163.403579 53.39754 
L 164.917489 53.39754 
L 165.422126 55.330249 
L 169.459221 55.330249 
L 169.963858 53.39754 
L 170.468495 55.330249 
L 170.973132 53.39754 
L 174.50559 53.39754 
L 175.010227 51.464831 
L 175.514864 53.39754 
L 176.524138 53.39754 
L 177.028774 51.464831 
L 178.038048 51.464831 
L 178.542685 49.532122 
L 179.047322 51.464831 
L 183.084417 51.464831 
L 183.589054 53.39754 
L 184.093691 53.39754 
L 185.102965 57.262958 
L 187.626149 57.262958 
L 188.130786 59.195667 
L 188.635423 59.195667 
L 189.14006 61.128376 
L 190.149333 61.128376 
L 190.65397 59.195667 
L 192.167881 59.195667 
L 192.672518 61.128376 
L 197.21425 61.128376 
L 197.718887 59.195667 
L 198.223524 59.195667 
L 198.72816 61.128376 
L 199.737434 61.128376 
L 200.242071 63.061085 
L 200.746708 63.061085 
L 201.251345 64.993795 
L 202.260619 64.993795 
L 203.269892 68.859213 
L 203.774529 68.859213 
L 204.783803 72.724631 
L 205.28844 72.724631 
L 205.793077 74.65734 
L 206.297714 74.65734 
L 206.802351 72.724631 
L 207.306987 74.65734 
L 207.811624 72.724631 
L 208.316261 72.724631 
L 209.325535 68.859213 
L 210.839446 68.859213 
L 211.344083 66.926504 
L 212.353356 66.926504 
L 212.857993 68.859213 
L 213.36263 68.859213 
L 213.867267 66.926504 
L 218.408999 66.926504 
L 219.418273 63.061085 
L 219.92291 63.061085 
L 220.932183 59.195667 
L 221.941457 59.195667 
L 222.446094 57.262958 
L 222.950731 57.262958 
L 223.455368 55.330249 
L 223.960005 55.330249 
L 224.464642 57.262958 
L 225.473915 53.39754 
L 226.987826 53.39754 
L 227.492463 51.464831 
L 229.51101 51.464831 
L 230.015647 49.532122 
L 233.043469 49.532122 
L 234.052742 45.666704 
L 234.557379 45.666704 
L 235.062016 43.733995 
L 236.575927 43.733995 
L 237.080564 41.801285 
L 237.585201 43.733995 
L 238.089837 43.733995 
L 238.594474 41.801285 
L 239.603748 41.801285 
L 240.108385 43.733995 
L 240.613022 43.733995 
L 241.117659 45.666704 
L 241.622296 49.532122 
L 243.136206 49.532122 
L 243.640843 51.464831 
L 244.14548 51.464831 
L 245.659391 45.666704 
L 246.164028 45.666704 
L 246.668664 43.733995 
L 247.173301 45.666704 
L 248.182575 45.666704 
L 248.687212 43.733995 
L 249.696486 43.733995 
L 250.201123 41.801285 
L 250.70576 43.733995 
L 251.210396 43.733995 
L 251.715033 45.666704 
L 252.21967 45.666704 
L 252.724307 47.599413 
L 254.238218 47.599413 
L 254.742855 49.532122 
L 255.247492 49.532122 
L 255.752128 51.464831 
L 256.256765 51.464831 
L 256.761402 53.39754 
L 259.789223 53.39754 
L 260.29386 51.464831 
L 260.798497 53.39754 
L 261.807771 53.39754 
L 262.312408 55.330249 
L 264.330955 55.330249 
L 264.835592 53.39754 
L 266.349503 53.39754 
L 266.85414 51.464831 
L 267.863414 51.464831 
L 268.368051 49.532122 
L 268.872687 51.464831 
L 270.891235 51.464831 
L 271.395872 53.39754 
L 271.900509 53.39754 
L 272.405146 55.330249 
L 272.909782 55.330249 
L 273.414419 57.262958 
L 277.956151 57.262958 
L 278.460788 55.330249 
L 278.965425 55.330249 
L 279.974699 51.464831 
L 280.983973 51.464831 
L 281.48861 49.532122 
L 281.993246 49.532122 
L 282.497883 47.599413 
L 283.00252 47.599413 
L 283.507157 45.666704 
L 284.011794 47.599413 
L 287.544252 47.599413 
L 288.048889 45.666704 
L 289.5628 45.666704 
L 290.067437 43.733995 
L 290.572073 43.733995 
L 291.07671 45.666704 
L 291.581347 45.666704 
L 292.085984 47.599413 
L 292.590621 47.599413 
L 293.095258 49.532122 
L 293.599895 49.532122 
L 294.104532 51.464831 
L 294.609169 49.532122 
L 296.123079 49.532122 
L 296.627716 47.599413 
L 297.132353 49.532122 
L 297.63699 47.599413 
L 298.141627 47.599413 
L 298.646264 49.532122 
L 299.655537 49.532122 
L 301.169448 43.733995 
L 301.674085 43.733995 
L 302.178722 41.801285 
L 303.187996 41.801285 
L 303.692632 39.868576 
L 304.197269 39.868576 
L 304.701906 37.935867 
L 305.71118 41.801285 
L 306.215817 39.868576 
L 307.729728 39.868576 
L 308.234364 37.935867 
L 310.252912 37.935867 
L 311.262186 41.801285 
L 312.776096 41.801285 
L 314.290007 47.599413 
L 314.794644 51.464831 
L 315.299281 51.464831 
L 315.803918 49.532122 
L 316.813191 49.532122 
L 317.317828 51.464831 
L 317.822465 51.464831 
L 318.327102 53.39754 
L 321.85956 53.39754 
L 322.364197 55.330249 
L 323.373471 55.330249 
L 323.878108 53.39754 
L 324.382745 49.532122 
L 324.887382 49.532122 
L 325.392018 47.599413 
L 325.896655 49.532122 
L 326.905929 45.666704 
L 327.410566 45.666704 
L 328.924477 39.868576 
L 329.93375 39.868576 
L 330.438387 37.935867 
L 330.943024 37.935867 
L 331.447661 39.868576 
L 332.456935 39.868576 
L 332.961572 41.801285 
L 334.980119 41.801285 
L 335.484756 43.733995 
L 335.989393 41.801285 
L 340.531125 41.801285 
L 341.035762 39.868576 
L 341.540399 39.868576 
L 342.045036 37.935867 
L 347.091405 37.935867 
L 347.596041 36.003158 
L 348.100678 37.935867 
L 348.605315 36.003158 
L 350.119226 36.003158 
L 351.1285 32.13774 
L 354.660958 32.13774 
L 355.165595 30.205031 
L 357.688779 30.205031 
L 358.193416 32.13774 
L 358.698053 30.205031 
L 359.20269 30.205031 
L 359.707327 28.272322 
L 360.211964 28.272322 
L 360.7166 26.339613 
L 361.221237 26.339613 
L 361.725874 24.406904 
L 362.735148 24.406904 
L 363.239785 22.474195 
L 364.753695 22.474195 
L 365.258332 24.406904 
L 367.27688 24.406904 
L 367.781517 22.474195 
L 368.790791 22.474195 
L 369.295427 20.541485 
L 369.800064 20.541485 
L 370.304701 18.608776 
L 370.809338 18.608776 
L 371.313975 20.541485 
L 371.818612 18.608776 
L 372.827886 18.608776 
L 373.332523 16.676067 
L 374.341796 16.676067 
L 374.846433 14.743358 
L 377.874254 14.743358 
L 378.378891 16.676067 
L 382.920623 16.676067 
L 383.42526 18.608776 
L 384.434534 18.608776 
L 385.443808 14.743358 
L 386.957718 14.743358 
L 387.462355 12.810649 
L 390.490177 12.810649 
L 392.004087 18.608776 
L 394.527272 18.608776 
L 395.031909 20.541485 
L 396.545819 20.541485 
L 397.050456 18.608776 
L 397.555093 18.608776 
L 399.069004 12.810649 
L 400.078277 12.810649 
L 400.582914 14.743358 
L 401.592188 14.743358 
L 402.601462 10.87794 
L 403.610736 10.87794 
L 404.115372 12.810649 
L 404.620009 12.810649 
L 405.124646 10.87794 
L 406.638557 10.87794 
L 406.638557 10.87794 
" style="fill:none;stroke:#0072b2;stroke-linecap:square;"/>
   </g>
   <g id="patch_3">
    <path d="M 43.3 81.03528 
L 43.3 4.5 
" style="fill:none;stroke:#000000;stroke-linecap:square;stroke-linejoin:miter;stroke-width:0.6;"/>
   </g>
   <g id="patch_4">
    <path d="M 406.13392 81.03528 
L 406.13392 4.5 
" style="fill:none;stroke:#000000;stroke-linecap:square;stroke-linejoin:miter;stroke-width:0.6;"/>
   </g>
   <g id="patch_5">
    <path d="M 43.3 81.03528 
L 406.13392 81.03528 
" style="fill:none;stroke:#000000;stroke-linecap:square;stroke-linejoin:miter;stroke-width:0.6;"/>
   </g>
   <g id="patch_6">
    <path d="M 43.3 4.5 
L 406.13392 4.5 
" style="fill:none;stroke:#000000;stroke-linecap:square;stroke-linejoin:miter;stroke-width:0.6;"/>
   </g>
  </g>
  <g id="axes_2">
   <g id="patch_7">
    <path d="M 43.3 157.57056 
L 406.13392 157.57056 
L 406.13392 81.03528 
L 43.3 81.03528 
z
" style="fill:#ffffff;"/>
   </g>
   <g id="matplotlib.axis_3">
    <g id="xtick_17">
     <g id="line2d_46">
      <path clip-path="url(#p3fc3cb4441)" d="M 43.3 157.57056 
L 43.3 81.03528 
" style="fill:none;stroke:#000000;stroke-linecap:square;stroke-opacity:0.1;stroke-width:0.6;"/>
     </g>
     <g id="line2d_47">
      <g>
       <use style="stroke:#000000;stroke-width:0.6;" x="43.3" xlink:href="#m2734a3ce3e" y="157.57056"/>
      </g>
     </g>
     <g id="text_6">
      <text style="font-family:TeX Gyre Heros;font-size:9px;font-stretch:normal;font-style:normal;font-weight:normal;text-anchor:middle;" transform="rotate(-0, 43.3, 170.132122)" x="43.3" y="170.132122">Apr-17</text>
     </g>
    </g>
    <g id="xtick_18">
     <g id="line2d_48">
      <path clip-path="url(#p3fc3cb4441)" d="M 134.134639 157.57056 
L 134.134639 81.03528 
" style="fill:none;stroke:#000000;stroke-linecap:square;stroke-opacity:0.1;stroke-width:0.6;"/>
     </g>
     <g id="line2d_49">
      <g>
       <use style="stroke:#000000;stroke-width:0.6;" x="134.134639" xlink:href="#m2734a3ce3e" y="157.57056"/>
      </g>
     </g>
     <g id="text_7">
      <text style="font-family:TeX Gyre Heros;font-size:9px;font-stretch:normal;font-style:normal;font-weight:normal;text-anchor:middle;" transform="rotate(-0, 134.134639, 170.132122)" x="134.134639" y="170.132122">03:00</text>
     </g>
    </g>
    <g id="xtick_19">
     <g id="line2d_50">
      <path clip-path="url(#p3fc3cb4441)" d="M 224.969278 157.57056 
L 224.969278 81.03528 
" style="fill:none;stroke:#000000;stroke-linecap:square;stroke-opacity:0.1;stroke-width:0.6;"/>
     </g>
     <g id="line2d_51">
      <g>
       <use style="stroke:#000000;stroke-width:0.6;" x="224.969278" xlink:href="#m2734a3ce3e" y="157.57056"/>
      </g>
     </g>
     <g id="text_8">
      <text style="font-family:TeX Gyre Heros;font-size:9px;font-stretch:normal;font-style:normal;font-weight:normal;text-anchor:middle;" transform="rotate(-0, 224.969278, 170.132122)" x="224.969278" y="170.132122">06:00</text>
     </g>
    </g>
    <g id="xtick_20">
     <g id="line2d_52">
      <path clip-path="url(#p3fc3cb4441)" d="M 315.803918 157.57056 
L 315.803918 81.03528 
" style="fill:none;stroke:#000000;stroke-linecap:square;stroke-opacity:0.1;stroke-width:0.6;"/>
     </g>
     <g id="line2d_53">
      <g>
       <use style="stroke:#000000;stroke-width:0.6;" x="315.803918" xlink:href="#m2734a3ce3e" y="157.57056"/>
      </g>
     </g>
     <g id="text_9">
      <text style="font-family:TeX Gyre Heros;font-size:9px;font-stretch:normal;font-style:normal;font-weight:normal;text-anchor:middle;" transform="rotate(-0, 315.803918, 170.132122)" x="315.803918" y="170.132122">09:00</text>
     </g>
    </g>
    <g id="xtick_21">
     <g id="line2d_54">
      <g>
       <use style="stroke:#000000;stroke-width:0.48;" x="66.00866" xlink:href="#m7ac32b4196" y="157.57056"/>
      </g>
     </g>
    </g>
    <g id="xtick_22">
     <g id="line2d_55">
      <g>
       <use style="stroke:#000000;stroke-width:0.48;" x="88.71732" xlink:href="#m7ac32b4196" y="157.57056"/>
      </g>
     </g>
    </g>
    <g id="xtick_23">
     <g id="line2d_56">
      <g>
       <use style="stroke:#000000;stroke-width:0.48;" x="111.425979" xlink:href="#m7ac32b4196" y="157.57056"/>
      </g>
     </g>
    </g>
    <g id="xtick_24">
     <g id="line2d_57">
      <g>
       <use style="stroke:#000000;stroke-width:0.48;" x="156.843299" xlink:href="#m7ac32b4196" y="157.57056"/>
      </g>
     </g>
    </g>
    <g id="xtick_25">
     <g id="line2d_58">
      <g>
       <use style="stroke:#000000;stroke-width:0.48;" x="179.551959" xlink:href="#m7ac32b4196" y="157.57056"/>
      </g>
     </g>
    </g>
    <g id="xtick_26">
     <g id="line2d_59">
      <g>
       <use style="stroke:#000000;stroke-width:0.48;" x="202.260619" xlink:href="#m7ac32b4196" y="157.57056"/>
      </g>
     </g>
    </g>
    <g id="xtick_27">
     <g id="line2d_60">
      <g>
       <use style="stroke:#000000;stroke-width:0.48;" x="247.677938" xlink:href="#m7ac32b4196" y="157.57056"/>
      </g>
     </g>
    </g>
    <g id="xtick_28">
     <g id="line2d_61">
      <g>
       <use style="stroke:#000000;stroke-width:0.48;" x="270.386598" xlink:href="#m7ac32b4196" y="157.57056"/>
      </g>
     </g>
    </g>
    <g id="xtick_29">
     <g id="line2d_62">
      <g>
       <use style="stroke:#000000;stroke-width:0.48;" x="293.095258" xlink:href="#m7ac32b4196" y="157.57056"/>
      </g>
     </g>
    </g>
    <g id="xtick_30">
     <g id="line2d_63">
      <g>
       <use style="stroke:#000000;stroke-width:0.48;" x="338.512577" xlink:href="#m7ac32b4196" y="157.57056"/>
      </g>
     </g>
    </g>
    <g id="xtick_31">
     <g id="line2d_64">
      <g>
       <use style="stroke:#000000;stroke-width:0.48;" x="361.221237" xlink:href="#m7ac32b4196" y="157.57056"/>
      </g>
     </g>
    </g>
    <g id="xtick_32">
     <g id="line2d_65">
      <g>
       <use style="stroke:#000000;stroke-width:0.48;" x="383.929897" xlink:href="#m7ac32b4196" y="157.57056"/>
      </g>
     </g>
    </g>
    <g id="text_10">
     <text style="font-family:TeX Gyre Heros;font-size:9px;font-stretch:normal;font-style:normal;font-weight:normal;text-anchor:middle;" transform="rotate(-0, 224.71696, 182.655404)" x="224.71696" y="182.655404"> </text>
    </g>
    <g id="text_11">
     <text style="font-family:TeX Gyre Heros;font-size:9px;font-stretch:normal;font-style:normal;font-weight:normal;text-anchor:end;" transform="rotate(-0, 406.13392, 181.655404)" x="406.13392" y="181.655404">2021-Apr-17</text>
    </g>
   </g>
   <g id="matplotlib.axis_4">
    <g id="ytick_21">
     <g id="line2d_66">
      <path clip-path="url(#p3fc3cb4441)" d="M 43.3 157.285172 
L 406.13392 157.285172 
" style="fill:none;stroke:#000000;stroke-linecap:square;stroke-opacity:0.1;stroke-width:0.6;"/>
     </g>
     <g id="line2d_67">
      <g>
       <use style="stroke:#000000;stroke-width:0.6;" x="43.3" xlink:href="#m6a28a8f644" y="157.285172"/>
      </g>
     </g>
     <g id="text_12">
      <text style="font-family:TeX Gyre Heros;font-size:9px;font-stretch:normal;font-style:normal;font-weight:normal;text-anchor:end;" transform="rotate(-0, 37.3, 160.565953)" x="37.3" y="160.565953">0</text>
     </g>
    </g>
    <g id="ytick_22">
     <g id="line2d_68">
      <path clip-path="url(#p3fc3cb4441)" d="M 43.3 128.321101 
L 406.13392 128.321101 
" style="fill:none;stroke:#000000;stroke-linecap:square;stroke-opacity:0.1;stroke-width:0.6;"/>
     </g>
     <g id="line2d_69">
      <g>
       <use style="stroke:#000000;stroke-width:0.6;" x="43.3" xlink:href="#m6a28a8f644" y="128.321101"/>
      </g>
     </g>
     <g id="text_13">
      <text style="font-family:TeX Gyre Heros;font-size:9px;font-stretch:normal;font-style:normal;font-weight:normal;text-anchor:end;" transform="rotate(-0, 37.3, 131.601883)" x="37.3" y="131.601883">500</text>
     </g>
    </g>
    <g id="ytick_23">
     <g id="line2d_70">
      <path clip-path="url(#p3fc3cb4441)" d="M 43.3 99.357031 
L 406.13392 99.357031 
" style="fill:none;stroke:#000000;stroke-linecap:square;stroke-opacity:0.1;stroke-width:0.6;"/>
     </g>
     <g id="line2d_71">
      <g>
       <use style="stroke:#000000;stroke-width:0.6;" x="43.3" xlink:href="#m6a28a8f644" y="99.357031"/>
      </g>
     </g>
     <g id="text_14">
      <text style="font-family:TeX Gyre Heros;font-size:9px;font-stretch:normal;font-style:normal;font-weight:normal;text-anchor:end;" transform="rotate(-0, 37.3, 102.637812)" x="37.3" y="102.637812">1000</text>
     </g>
    </g>
    <g id="ytick_24">
     <g id="line2d_72">
      <g>
       <use style="stroke:#000000;stroke-width:0.48;" x="43.3" xlink:href="#m5ac284991e" y="151.492358"/>
      </g>
     </g>
    </g>
    <g id="ytick_25">
     <g id="line2d_73">
      <g>
       <use style="stroke:#000000;stroke-width:0.48;" x="43.3" xlink:href="#m5ac284991e" y="145.699544"/>
      </g>
     </g>
    </g>
    <g id="ytick_26">
     <g id="line2d_74">
      <g>
       <use style="stroke:#000000;stroke-width:0.48;" x="43.3" xlink:href="#m5ac284991e" y="139.90673"/>
      </g>
     </g>
    </g>
    <g id="ytick_27">
     <g id="line2d_75">
      <g>
       <use style="stroke:#000000;stroke-width:0.48;" x="43.3" xlink:href="#m5ac284991e" y="134.113915"/>
      </g>
     </g>
    </g>
    <g id="ytick_28">
     <g id="line2d_76">
      <g>
       <use style="stroke:#000000;stroke-width:0.48;" x="43.3" xlink:href="#m5ac284991e" y="122.528287"/>
      </g>
     </g>
    </g>
    <g id="ytick_29">
     <g id="line2d_77">
      <g>
       <use style="stroke:#000000;stroke-width:0.48;" x="43.3" xlink:href="#m5ac284991e" y="116.735473"/>
      </g>
     </g>
    </g>
    <g id="ytick_30">
     <g id="line2d_78">
      <g>
       <use style="stroke:#000000;stroke-width:0.48;" x="43.3" xlink:href="#m5ac284991e" y="110.942659"/>
      </g>
     </g>
    </g>
    <g id="ytick_31">
     <g id="line2d_79">
      <g>
       <use style="stroke:#000000;stroke-width:0.48;" x="43.3" xlink:href="#m5ac284991e" y="105.149845"/>
      </g>
     </g>
    </g>
    <g id="ytick_32">
     <g id="line2d_80">
      <g>
       <use style="stroke:#000000;stroke-width:0.48;" x="43.3" xlink:href="#m5ac284991e" y="93.564217"/>
      </g>
     </g>
    </g>
    <g id="ytick_33">
     <g id="line2d_81">
      <g>
       <use style="stroke:#000000;stroke-width:0.48;" x="43.3" xlink:href="#m5ac284991e" y="87.771403"/>
      </g>
     </g>
    </g>
    <g id="ytick_34">
     <g id="line2d_82">
      <g>
       <use style="stroke:#000000;stroke-width:0.48;" x="43.3" xlink:href="#m5ac284991e" y="81.978589"/>
      </g>
     </g>
    </g>
    <g id="text_15">
     <text style="font-family:TeX Gyre Heros;font-size:9px;font-stretch:normal;font-style:normal;font-weight:normal;text-anchor:middle;" transform="rotate(-90, 11.324531, 119.30292)" x="11.324531" y="119.30292">SME (nT)</text>
    </g>
   </g>
   <g id="line2d_83">
    <path clip-path="url(#p3fc3cb4441)" d="M 43.3 126.225559 
L 44.813911 128.262622 
L 45.318548 129.387872 
L 47.337095 136.248269 
L 48.346369 137.808082 
L 48.851006 137.926479 
L 49.355643 138.336523 
L 49.86028 139.51819 
L 50.364916 140.196027 
L 50.869553 140.517881 
L 51.878827 142.025212 
L 52.383464 142.488766 
L 52.888101 142.103712 
L 53.392738 142.116827 
L 53.897375 142.525705 
L 54.402011 143.502538 
L 54.906648 144.076504 
L 55.411285 144.3945 
L 55.915922 145.258303 
L 56.420559 144.683209 
L 56.925196 145.201128 
L 57.429833 144.771588 
L 57.93447 144.893931 
L 58.439107 144.136765 
L 59.44838 141.322324 
L 59.953017 141.788461 
L 60.457654 142.851289 
L 61.466928 140.669734 
L 61.971565 142.170423 
L 62.476202 141.737943 
L 62.980838 140.742222 
L 63.485475 140.628598 
L 63.990112 141.757156 
L 64.494749 141.986855 
L 64.999386 141.020651 
L 65.504023 141.076263 
L 66.00866 141.456488 
L 67.52257 137.123474 
L 68.027207 136.133786 
L 68.531844 136.899087 
L 69.541118 134.448095 
L 70.045755 133.862142 
L 70.550392 133.70448 
L 71.055029 133.940605 
L 71.559666 133.74014 
L 72.064302 132.986044 
L 73.578213 131.950787 
L 74.08285 132.197086 
L 74.587487 132.000097 
L 75.596761 132.146708 
L 76.101397 131.182764 
L 77.110671 130.34585 
L 78.119945 130.187368 
L 78.624582 129.983078 
L 79.129219 131.105301 
L 80.643129 129.691185 
L 81.147766 130.472652 
L 81.652403 132.22235 
L 82.15704 132.192564 
L 82.661677 130.731994 
L 83.166314 130.614298 
L 84.680225 129.098567 
L 85.184861 125.462236 
L 86.194135 122.115687 
L 86.698772 121.651233 
L 87.203409 116.697932 
L 87.708046 118.605586 
L 88.212683 117.569569 
L 88.71732 117.294467 
L 89.221956 114.100994 
L 89.726593 111.818988 
L 90.23123 116.020295 
L 90.735867 118.248726 
L 91.240504 115.241943 
L 92.249778 105.772587 
L 92.754415 105.920515 
L 93.259052 108.170014 
L 93.763688 112.86953 
L 94.268325 110.83968 
L 94.772962 110.37728 
L 95.277599 112.217227 
L 95.782236 111.772046 
L 96.286873 111.567819 
L 96.79151 111.676838 
L 97.296147 108.947893 
L 97.800784 101.000332 
L 98.30542 98.123258 
L 99.314694 89.093525 
L 99.819331 87.41322 
L 100.323968 88.770161 
L 100.828605 90.765111 
L 102.847152 90.937983 
L 104.361063 102.718384 
L 104.8657 103.528409 
L 105.370337 103.29263 
L 105.874974 103.610096 
L 106.884247 104.620781 
L 107.388884 104.234422 
L 107.893521 105.213031 
L 108.398158 107.340557 
L 108.902795 107.049771 
L 109.407432 106.229372 
L 109.912069 104.922195 
L 110.416706 101.944514 
L 110.921343 101.747263 
L 111.425979 100.656497 
L 111.930616 101.540141 
L 112.435253 101.652625 
L 112.93989 98.344187 
L 113.444527 99.751419 
L 113.949164 98.052375 
L 114.453801 98.64751 
L 114.958438 97.734916 
L 115.463074 97.543524 
L 115.967711 96.445095 
L 116.472348 96.508454 
L 116.976985 92.480363 
L 117.481622 91.264119 
L 117.986259 90.379442 
L 118.490896 91.284166 
L 119.50017 95.530493 
L 120.004806 94.419407 
L 120.509443 95.758182 
L 121.01408 100.708329 
L 121.518717 102.213563 
L 122.023354 103.352475 
L 122.527991 106.386468 
L 123.032628 106.126149 
L 123.537265 105.48046 
L 124.041902 105.540429 
L 124.546538 105.063717 
L 125.051175 103.12812 
L 125.555812 100.070869 
L 126.060449 100.082872 
L 126.565086 100.325648 
L 127.57436 101.577202 
L 128.078997 102.887161 
L 128.583633 102.809957 
L 129.08827 101.679937 
L 129.592907 100.276764 
L 130.097544 101.942619 
L 130.602181 106.680327 
L 131.106818 105.672075 
L 131.611455 108.001745 
L 132.116092 110.933304 
L 132.620729 115.451663 
L 133.125365 117.565864 
L 133.630002 116.733861 
L 134.134639 116.987438 
L 134.639276 117.578833 
L 135.143913 117.451178 
L 136.657824 123.275477 
L 137.162461 124.559902 
L 137.667097 124.285606 
L 138.676371 124.30304 
L 139.181008 124.161837 
L 139.685645 122.964757 
L 140.190282 121.441194 
L 140.694919 119.40504 
L 141.199556 118.361994 
L 141.704192 117.988403 
L 142.713466 115.825488 
L 143.218103 115.97255 
L 143.72274 114.442333 
L 144.227377 114.400673 
L 144.732014 116.167453 
L 145.236651 116.904435 
L 145.741288 118.803031 
L 146.245924 118.956351 
L 146.750561 120.835509 
L 147.255198 120.101882 
L 148.264472 117.063264 
L 148.769109 116.296479 
L 149.273746 116.13758 
L 150.28302 116.254472 
L 150.787656 115.849234 
L 151.292293 115.970881 
L 151.79693 116.473679 
L 152.301567 114.512311 
L 152.806204 114.594211 
L 153.310841 115.146141 
L 153.815478 113.916624 
L 154.320115 113.309093 
L 154.824751 112.46462 
L 155.329388 113.220065 
L 155.834025 111.422921 
L 156.338662 110.215715 
L 156.843299 109.556125 
L 157.347936 109.798713 
L 158.35721 112.617572 
L 158.861847 113.258561 
L 159.366483 108.085653 
L 159.87112 108.825966 
L 160.375757 107.715563 
L 160.880394 108.282618 
L 161.889668 112.893739 
L 162.394305 111.720178 
L 162.898942 112.840435 
L 164.412852 117.620546 
L 164.917489 117.976339 
L 165.422126 121.109154 
L 165.926763 122.86677 
L 166.4314 122.925765 
L 166.936037 120.916387 
L 167.440674 119.861556 
L 167.94531 118.466798 
L 168.449947 118.595686 
L 168.954584 119.578372 
L 169.459221 120.127494 
L 169.963858 119.247173 
L 170.973132 119.837387 
L 171.477769 119.511809 
L 171.982406 120.208807 
L 172.487042 119.463594 
L 172.991679 119.360703 
L 173.496316 117.557562 
L 174.000953 116.366471 
L 174.50559 115.472404 
L 175.010227 116.539485 
L 175.514864 117.92119 
L 176.019501 117.065039 
L 176.524138 114.35722 
L 177.028774 117.657342 
L 177.533411 115.949314 
L 178.038048 113.832402 
L 178.542685 113.350517 
L 179.047322 113.915747 
L 179.551959 116.035209 
L 180.056596 116.869269 
L 180.561233 116.951031 
L 181.065869 115.078093 
L 181.570506 114.754171 
L 182.57978 118.576587 
L 183.084417 118.399048 
L 184.093691 119.874058 
L 184.598328 120.234854 
L 185.102965 119.817841 
L 185.607601 117.689336 
L 186.112238 116.23911 
L 186.616875 114.404781 
L 187.121512 111.782858 
L 187.626149 113.355138 
L 188.130786 116.010031 
L 188.635423 116.01525 
L 189.14006 112.80766 
L 189.644697 116.960376 
L 190.149333 109.756334 
L 190.65397 109.916743 
L 191.158607 112.231539 
L 191.663244 111.430438 
L 192.167881 114.873584 
L 192.672518 116.319065 
L 193.177155 116.885537 
L 193.681792 114.210624 
L 194.186428 113.107016 
L 194.691065 112.8616 
L 195.195702 111.592399 
L 195.700339 112.557795 
L 196.204976 110.871692 
L 196.709613 107.53499 
L 197.21425 107.36967 
L 197.718887 108.984059 
L 198.223524 108.713296 
L 198.72816 106.934933 
L 199.232797 110.531321 
L 199.737434 108.47215 
L 200.242071 107.493043 
L 201.251345 112.334363 
L 201.755982 113.078317 
L 202.260619 113.565477 
L 202.765256 111.785997 
L 203.269892 111.269375 
L 203.774529 110.352 
L 204.279166 111.533085 
L 204.783803 113.171245 
L 205.28844 111.122737 
L 205.793077 111.235609 
L 206.297714 114.680506 
L 206.802351 119.083847 
L 207.306987 120.462023 
L 207.811624 120.927616 
L 208.316261 124.927822 
L 208.820898 125.781406 
L 209.325535 126.403589 
L 209.830172 125.292535 
L 210.334809 123.498548 
L 210.839446 125.720476 
L 211.344083 127.036344 
L 211.848719 127.032267 
L 212.353356 126.821535 
L 212.857993 127.058028 
L 213.36263 127.942207 
L 213.867267 130.031718 
L 214.371904 130.35707 
L 214.876541 131.186559 
L 215.381178 132.292821 
L 215.885815 132.624636 
L 216.390451 132.766444 
L 216.895088 130.803469 
L 217.399725 130.626289 
L 217.904362 131.928373 
L 218.913636 137.301984 
L 219.418273 138.440993 
L 219.92291 139.256924 
L 220.427546 137.584472 
L 220.932183 137.395072 
L 221.43682 137.931799 
L 221.941457 137.380373 
L 222.446094 138.078546 
L 222.950731 136.030314 
L 223.455368 133.396592 
L 223.960005 137.452421 
L 224.464642 138.094378 
L 224.969278 131.853988 
L 225.473915 132.690778 
L 226.483189 139.415352 
L 226.987826 141.319654 
L 227.9971 142.237231 
L 228.501737 142.975648 
L 229.006374 143.226542 
L 229.51101 142.637782 
L 230.015647 141.636664 
L 231.024921 144.530068 
L 231.529558 143.631202 
L 232.034195 143.651829 
L 232.538832 143.48676 
L 233.548105 141.890038 
L 234.052742 141.412225 
L 234.557379 141.857508 
L 235.062016 142.985764 
L 235.566653 143.780524 
L 236.07129 144.132021 
L 237.080564 141.665588 
L 237.585201 142.581654 
L 238.089837 143.264828 
L 238.594474 140.69678 
L 239.099111 139.511005 
L 239.603748 137.636179 
L 240.108385 137.113097 
L 240.613022 137.463415 
L 241.117659 139.568919 
L 241.622296 141.111763 
L 242.631569 138.77779 
L 243.136206 140.22748 
L 243.640843 141.098902 
L 244.14548 141.413671 
L 244.650117 141.162859 
L 245.154754 139.192524 
L 245.659391 138.215369 
L 246.164028 137.676943 
L 246.668664 135.31556 
L 247.173301 135.289485 
L 247.677938 133.924896 
L 248.182575 131.587534 
L 248.687212 130.074902 
L 249.191849 129.951564 
L 249.696486 131.140323 
L 250.201123 129.500316 
L 250.70576 131.982991 
L 251.210396 131.655162 
L 251.715033 130.797703 
L 252.21967 128.187219 
L 252.724307 127.174114 
L 253.733581 125.646238 
L 254.238218 126.157239 
L 254.742855 126.22208 
L 255.752128 130.421965 
L 256.256765 129.710097 
L 256.761402 129.37724 
L 257.266039 130.203308 
L 257.770676 130.120867 
L 258.275313 130.657855 
L 258.77995 129.503291 
L 259.284587 130.717617 
L 259.789223 130.167939 
L 260.29386 123.017876 
L 260.798497 128.117234 
L 261.303134 127.673158 
L 261.807771 126.106032 
L 262.817045 121.811847 
L 263.321682 120.815072 
L 263.826319 118.491013 
L 264.330955 108.509409 
L 264.835592 115.634054 
L 265.844866 113.344351 
L 266.349503 113.068746 
L 266.85414 110.614787 
L 267.863414 107.510664 
L 268.368051 104.873141 
L 268.872687 99.126284 
L 269.377324 90.54211 
L 269.881961 92.341977 
L 270.386598 96.734185 
L 270.891235 98.190888 
L 271.395872 100.152818 
L 271.900509 98.793837 
L 272.405146 88.556792 
L 272.909782 89.553754 
L 273.414419 98.536208 
L 273.919056 94.593962 
L 274.423693 98.333315 
L 274.92833 95.539862 
L 275.432967 90.641363 
L 276.442241 100.978178 
L 276.946878 103.538259 
L 277.956151 99.307246 
L 278.460788 103.640372 
L 278.965425 106.328561 
L 279.470062 107.559739 
L 279.974699 103.095517 
L 280.479336 105.066216 
L 280.983973 106.508982 
L 281.48861 108.354717 
L 281.993246 103.873237 
L 282.497883 106.632981 
L 283.00252 103.958984 
L 283.507157 102.015807 
L 284.011794 103.685837 
L 284.516431 103.638102 
L 285.021068 103.38444 
L 285.525705 101.541587 
L 286.030341 101.022408 
L 286.534978 100.874576 
L 287.039615 102.699312 
L 287.544252 102.349749 
L 288.048889 104.062275 
L 288.553526 102.363266 
L 290.067437 98.593079 
L 291.581347 107.181046 
L 292.085984 108.716273 
L 292.590621 102.33531 
L 293.095258 102.558752 
L 293.599895 107.423436 
L 294.104532 107.33514 
L 294.609169 105.072025 
L 295.113805 101.676299 
L 295.618442 102.784168 
L 296.123079 102.826963 
L 296.627716 106.074323 
L 297.132353 110.227694 
L 297.63699 112.455738 
L 298.141627 111.112993 
L 298.646264 111.356189 
L 299.1509 113.734711 
L 299.655537 114.161055 
L 300.160174 114.412981 
L 300.664811 114.406114 
L 301.169448 116.923588 
L 301.674085 117.064547 
L 302.178722 116.825328 
L 302.683359 116.364905 
L 303.187996 118.744948 
L 303.692632 120.039697 
L 304.197269 123.505892 
L 304.701906 124.430812 
L 305.206543 126.157957 
L 305.71118 127.434738 
L 306.215817 124.728114 
L 306.720454 129.972916 
L 307.225091 131.310093 
L 307.729728 129.999607 
L 308.234364 129.692516 
L 308.739001 127.542427 
L 309.243638 126.676722 
L 309.748275 127.036899 
L 310.252912 128.065594 
L 311.262186 128.927574 
L 311.766823 128.257095 
L 312.271459 128.393322 
L 312.776096 127.697032 
L 313.280733 129.798645 
L 313.78537 133.247253 
L 314.290007 134.773251 
L 314.794644 133.882998 
L 315.299281 132.045645 
L 315.803918 133.54408 
L 316.308555 133.760037 
L 316.813191 130.967025 
L 317.317828 123.343482 
L 317.822465 122.490891 
L 318.327102 130.09391 
L 318.831739 131.548269 
L 319.336376 132.181561 
L 319.841013 131.531292 
L 320.34565 135.398471 
L 320.850287 132.950258 
L 321.354923 134.561559 
L 321.85956 130.526233 
L 322.364197 131.289954 
L 322.868834 132.404523 
L 323.373471 136.050472 
L 323.878108 134.970328 
L 324.382745 134.654503 
L 324.887382 136.073853 
L 325.392018 138.473128 
L 325.896655 137.70802 
L 326.401292 135.329035 
L 327.410566 137.390913 
L 328.41984 138.028958 
L 329.429114 137.932071 
L 329.93375 138.29368 
L 330.438387 139.153071 
L 330.943024 138.99244 
L 331.447661 137.882213 
L 331.952298 137.662969 
L 332.456935 140.527491 
L 332.961572 141.339815 
L 333.466209 140.991162 
L 333.970846 138.771932 
L 334.980119 139.018011 
L 335.484756 139.912213 
L 335.989393 138.37582 
L 336.49403 138.304824 
L 336.998667 140.188309 
L 337.503304 140.067637 
L 338.512577 139.053131 
L 339.017214 140.774906 
L 339.521851 141.95076 
L 340.026488 141.851112 
L 340.531125 142.383041 
L 341.035762 144.608118 
L 341.540399 145.61138 
L 342.045036 145.436134 
L 343.054309 145.68712 
L 343.558946 144.81781 
L 344.063583 145.153899 
L 344.56822 145.193562 
L 345.072857 144.248212 
L 345.577494 145.513948 
L 346.082131 145.456225 
L 346.586768 144.683481 
L 347.091405 144.550397 
L 347.596041 145.621605 
L 348.100678 144.97029 
L 348.605315 144.041437 
L 349.109952 144.245036 
L 349.614589 144.699381 
L 350.119226 144.350646 
L 350.623863 146.268862 
L 351.1285 146.569226 
L 351.633136 147.12249 
L 352.137773 145.875144 
L 352.64241 147.872466 
L 353.147047 148.374186 
L 353.651684 148.548269 
L 354.156321 147.563616 
L 354.660958 146.936711 
L 355.165595 147.759846 
L 355.670232 148.342626 
L 356.679505 147.203537 
L 357.184142 147.783521 
L 357.688779 149.095519 
L 358.193416 149.061451 
L 358.698053 148.80763 
L 359.20269 149.905956 
L 359.707327 150.140467 
L 360.211964 148.778127 
L 360.7166 149.501243 
L 361.221237 145.184265 
L 362.230511 144.66192 
L 362.735148 147.261276 
L 363.239785 148.862475 
L 363.744422 147.834769 
L 364.249059 148.339701 
L 365.258332 151.19262 
L 365.762969 149.381444 
L 366.267606 149.040311 
L 367.27688 151.007049 
L 367.781517 150.92216 
L 368.286154 150.345221 
L 368.790791 150.039621 
L 369.295427 150.871397 
L 369.800064 149.568974 
L 370.304701 149.000259 
L 370.809338 148.900222 
L 371.313975 147.829736 
L 371.818612 149.129246 
L 372.323249 149.027905 
L 372.827886 150.925357 
L 373.332523 149.044051 
L 373.837159 149.568551 
L 374.341796 148.402059 
L 374.846433 146.071323 
L 375.35107 144.909941 
L 375.855707 147.11252 
L 376.360344 143.796039 
L 376.864981 143.688968 
L 377.369618 143.939075 
L 377.874254 144.511088 
L 378.378891 143.649026 
L 378.883528 141.261525 
L 379.388165 141.610838 
L 379.892802 142.671152 
L 380.397439 142.286061 
L 381.406713 142.500196 
L 381.91135 142.257341 
L 382.415986 144.409683 
L 382.920623 143.313387 
L 383.42526 142.801366 
L 383.929897 138.669592 
L 384.434534 137.57064 
L 385.948445 131.606973 
L 386.453082 131.317023 
L 386.957718 132.527457 
L 387.462355 133.31231 
L 387.966992 134.460669 
L 388.471629 136.538689 
L 388.976266 137.711213 
L 389.480903 137.677506 
L 389.98554 139.67055 
L 390.490177 143.620599 
L 391.49945 138.829527 
L 392.004087 136.423441 
L 392.508724 132.41711 
L 393.013361 131.933821 
L 394.022635 126.511667 
L 394.527272 125.078137 
L 395.031909 124.053586 
L 395.536545 122.662769 
L 396.041182 126.359846 
L 396.545819 125.240893 
L 397.050456 123.829404 
L 397.555093 122.848335 
L 398.05973 124.498046 
L 398.564367 125.248658 
L 399.573641 120.30899 
L 400.078277 117.014641 
L 400.582914 116.944505 
L 401.087551 115.016912 
L 401.592188 113.698803 
L 402.096825 111.951211 
L 402.601462 108.665172 
L 403.106099 107.675896 
L 403.610736 105.525296 
L 404.115372 97.31505 
L 404.620009 98.819212 
L 405.124646 100.771978 
L 405.629283 100.605788 
L 406.13392 97.542548 
L 406.13392 97.542548 
" style="fill:none;stroke:#0072b2;stroke-linecap:square;"/>
   </g>
   <g id="patch_8">
    <path d="M 43.3 157.57056 
L 43.3 81.03528 
" style="fill:none;stroke:#000000;stroke-linecap:square;stroke-linejoin:miter;stroke-width:0.6;"/>
   </g>
   <g id="patch_9">
    <path d="M 406.13392 157.57056 
L 406.13392 81.03528 
" style="fill:none;stroke:#000000;stroke-linecap:square;stroke-linejoin:miter;stroke-width:0.6;"/>
   </g>
   <g id="patch_10">
    <path d="M 43.3 157.57056 
L 406.13392 157.57056 
" style="fill:none;stroke:#000000;stroke-linecap:square;stroke-linejoin:miter;stroke-width:0.6;"/>
   </g>
   <g id="patch_11">
    <path d="M 43.3 81.03528 
L 406.13392 81.03528 
" style="fill:none;stroke:#000000;stroke-linecap:square;stroke-linejoin:miter;stroke-width:0.6;"/>
   </g>
  </g>
  <g id="text_16">
   <text style="font-family:TeX Gyre Heros;font-size:9px;font-stretch:normal;font-style:normal;font-weight:normal;text-anchor:middle;" transform="rotate(-0, 224.71696, 182.655404)" x="224.71696" y="182.655404">time</text>
  </g>
 </g>
 <defs>
  <clipPath id="p0fa233af2b">
   <rect height="76.53528" width="362.83392" x="43.3" y="4.5"/>
  </clipPath>
  <clipPath id="p3fc3cb4441">
   <rect height="76.53528" width="362.83392" x="43.3" y="81.03528"/>
  </clipPath>
 </defs>
</svg>
