<?xml version="1.0" encoding="utf-8" standalone="no"?>
<!DOCTYPE svg PUBLIC "-//W3C//DTD SVG 1.1//EN"
  "http://www.w3.org/Graphics/SVG/1.1/DTD/svg11.dtd">
<svg height="112.81528pt" version="1.1" viewBox="0 0 444.57392 112.81528" width="444.57392pt" xmlns="http://www.w3.org/2000/svg" xmlns:xlink="http://www.w3.org/1999/xlink">
 <metadata>
  <rdf:RDF xmlns:cc="http://creativecommons.org/ns#" xmlns:dc="http://purl.org/dc/elements/1.1/" xmlns:rdf="http://www.w3.org/1999/02/22-rdf-syntax-ns#">
   <cc:Work>
    <dc:type rdf:resource="http://purl.org/dc/dcmitype/StillImage"/>
    <dc:date>2023-09-09T12:28:42.662522</dc:date>
    <dc:format>image/svg+xml</dc:format>
    <dc:creator>
     <cc:Agent>
      <dc:title>Matplotlib v3.4.3, https://matplotlib.org/</dc:title>
     </cc:Agent>
    </dc:creator>
   </cc:Work>
  </rdf:RDF>
 </metadata>
 <defs>
  <style type="text/css">*{stroke-linecap:butt;stroke-linejoin:round;}</style>
 </defs>
 <g id="figure_1">
  <g id="patch_1">
   <path d="M 0 112.81528 
L 444.57392 112.81528 
L 444.57392 0 
L 0 0 
z
" style="fill:#ffffff;"/>
  </g>
  <g id="axes_1">
   <g id="patch_2">
    <path d="M 38.44 81.03528 
L 401.27392 81.03528 
L 401.27392 4.5 
L 38.44 4.5 
z
" style="fill:#ffffff;"/>
   </g>
   <g id="matplotlib.axis_1">
    <g id="xtick_1">
     <g id="line2d_1">
      <path clip-path="url(#p6d332a45ce)" d="M 38.44 81.03528 
L 38.44 4.5 
" style="fill:none;stroke:#000000;stroke-linecap:square;stroke-opacity:0.1;stroke-width:0.6;"/>
     </g>
     <g id="line2d_2">
      <defs>
       <path d="M 0 0 
L 0 4 
" id="me1054861be" style="stroke:#000000;stroke-width:0.6;"/>
      </defs>
      <g>
       <use style="stroke:#000000;stroke-width:0.6;" x="38.44" xlink:href="#me1054861be" y="81.03528"/>
      </g>
     </g>
     <g id="text_1">
      <text style="font-family:TeX Gyre Heros;font-size:9px;font-stretch:normal;font-style:normal;font-weight:normal;text-anchor:middle;" transform="rotate(-0, 38.44, 93.596843)" x="38.44" y="93.596843">Apr-17</text>
     </g>
    </g>
    <g id="xtick_2">
     <g id="line2d_3">
      <path clip-path="url(#p6d332a45ce)" d="M 129.274639 81.03528 
L 129.274639 4.5 
" style="fill:none;stroke:#000000;stroke-linecap:square;stroke-opacity:0.1;stroke-width:0.6;"/>
     </g>
     <g id="line2d_4">
      <g>
       <use style="stroke:#000000;stroke-width:0.6;" x="129.274639" xlink:href="#me1054861be" y="81.03528"/>
      </g>
     </g>
     <g id="text_2">
      <text style="font-family:TeX Gyre Heros;font-size:9px;font-stretch:normal;font-style:normal;font-weight:normal;text-anchor:middle;" transform="rotate(-0, 129.274639, 93.596843)" x="129.274639" y="93.596843">03:00</text>
     </g>
    </g>
    <g id="xtick_3">
     <g id="line2d_5">
      <path clip-path="url(#p6d332a45ce)" d="M 220.109278 81.03528 
L 220.109278 4.5 
" style="fill:none;stroke:#000000;stroke-linecap:square;stroke-opacity:0.1;stroke-width:0.6;"/>
     </g>
     <g id="line2d_6">
      <g>
       <use style="stroke:#000000;stroke-width:0.6;" x="220.109278" xlink:href="#me1054861be" y="81.03528"/>
      </g>
     </g>
     <g id="text_3">
      <text style="font-family:TeX Gyre Heros;font-size:9px;font-stretch:normal;font-style:normal;font-weight:normal;text-anchor:middle;" transform="rotate(-0, 220.109278, 93.596843)" x="220.109278" y="93.596843">06:00</text>
     </g>
    </g>
    <g id="xtick_4">
     <g id="line2d_7">
      <path clip-path="url(#p6d332a45ce)" d="M 310.943918 81.03528 
L 310.943918 4.5 
" style="fill:none;stroke:#000000;stroke-linecap:square;stroke-opacity:0.1;stroke-width:0.6;"/>
     </g>
     <g id="line2d_8">
      <g>
       <use style="stroke:#000000;stroke-width:0.6;" x="310.943918" xlink:href="#me1054861be" y="81.03528"/>
      </g>
     </g>
     <g id="text_4">
      <text style="font-family:TeX Gyre Heros;font-size:9px;font-stretch:normal;font-style:normal;font-weight:normal;text-anchor:middle;" transform="rotate(-0, 310.943918, 93.596843)" x="310.943918" y="93.596843">09:00</text>
     </g>
    </g>
    <g id="xtick_5">
     <g id="line2d_9">
      <defs>
       <path d="M 0 0 
L 0 2 
" id="m897df5df2a" style="stroke:#000000;stroke-width:0.48;"/>
      </defs>
      <g>
       <use style="stroke:#000000;stroke-width:0.48;" x="61.14866" xlink:href="#m897df5df2a" y="81.03528"/>
      </g>
     </g>
    </g>
    <g id="xtick_6">
     <g id="line2d_10">
      <g>
       <use style="stroke:#000000;stroke-width:0.48;" x="83.85732" xlink:href="#m897df5df2a" y="81.03528"/>
      </g>
     </g>
    </g>
    <g id="xtick_7">
     <g id="line2d_11">
      <g>
       <use style="stroke:#000000;stroke-width:0.48;" x="106.565979" xlink:href="#m897df5df2a" y="81.03528"/>
      </g>
     </g>
    </g>
    <g id="xtick_8">
     <g id="line2d_12">
      <g>
       <use style="stroke:#000000;stroke-width:0.48;" x="151.983299" xlink:href="#m897df5df2a" y="81.03528"/>
      </g>
     </g>
    </g>
    <g id="xtick_9">
     <g id="line2d_13">
      <g>
       <use style="stroke:#000000;stroke-width:0.48;" x="174.691959" xlink:href="#m897df5df2a" y="81.03528"/>
      </g>
     </g>
    </g>
    <g id="xtick_10">
     <g id="line2d_14">
      <g>
       <use style="stroke:#000000;stroke-width:0.48;" x="197.400619" xlink:href="#m897df5df2a" y="81.03528"/>
      </g>
     </g>
    </g>
    <g id="xtick_11">
     <g id="line2d_15">
      <g>
       <use style="stroke:#000000;stroke-width:0.48;" x="242.817938" xlink:href="#m897df5df2a" y="81.03528"/>
      </g>
     </g>
    </g>
    <g id="xtick_12">
     <g id="line2d_16">
      <g>
       <use style="stroke:#000000;stroke-width:0.48;" x="265.526598" xlink:href="#m897df5df2a" y="81.03528"/>
      </g>
     </g>
    </g>
    <g id="xtick_13">
     <g id="line2d_17">
      <g>
       <use style="stroke:#000000;stroke-width:0.48;" x="288.235258" xlink:href="#m897df5df2a" y="81.03528"/>
      </g>
     </g>
    </g>
    <g id="xtick_14">
     <g id="line2d_18">
      <g>
       <use style="stroke:#000000;stroke-width:0.48;" x="333.652577" xlink:href="#m897df5df2a" y="81.03528"/>
      </g>
     </g>
    </g>
    <g id="xtick_15">
     <g id="line2d_19">
      <g>
       <use style="stroke:#000000;stroke-width:0.48;" x="356.361237" xlink:href="#m897df5df2a" y="81.03528"/>
      </g>
     </g>
    </g>
    <g id="xtick_16">
     <g id="line2d_20">
      <g>
       <use style="stroke:#000000;stroke-width:0.48;" x="379.069897" xlink:href="#m897df5df2a" y="81.03528"/>
      </g>
     </g>
    </g>
    <g id="text_5">
     <text style="font-family:TeX Gyre Heros;font-size:9px;font-stretch:normal;font-style:normal;font-weight:normal;text-anchor:middle;" transform="rotate(-0, 219.85696, 106.120124)" x="219.85696" y="106.120124"> </text>
    </g>
    <g id="text_6">
     <text style="font-family:TeX Gyre Heros;font-size:9px;font-stretch:normal;font-style:normal;font-weight:normal;text-anchor:end;" transform="rotate(-0, 401.27392, 105.120124)" x="401.27392" y="105.120124">2021-Apr-17</text>
    </g>
   </g>
   <g id="matplotlib.axis_2">
    <g id="ytick_1">
     <g id="line2d_21">
      <path clip-path="url(#p6d332a45ce)" d="M 38.44 72.724631 
L 401.27392 72.724631 
" style="fill:none;stroke:#000000;stroke-linecap:square;stroke-opacity:0.1;stroke-width:0.6;"/>
     </g>
     <g id="line2d_22">
      <defs>
       <path d="M 0 0 
L -4 0 
" id="m9909a0c893" style="stroke:#000000;stroke-width:0.6;"/>
      </defs>
      <g>
       <use style="stroke:#000000;stroke-width:0.6;" x="38.44" xlink:href="#m9909a0c893" y="72.724631"/>
      </g>
     </g>
     <g id="text_7">
      <text style="font-family:TeX Gyre Heros;font-size:9px;font-stretch:normal;font-style:normal;font-weight:normal;text-anchor:end;" transform="rotate(-0, 32.44, 76.005412)" x="32.44" y="76.005412">−60</text>
     </g>
    </g>
    <g id="ytick_2">
     <g id="line2d_23">
      <path clip-path="url(#p6d332a45ce)" d="M 38.44 53.39754 
L 401.27392 53.39754 
" style="fill:none;stroke:#000000;stroke-linecap:square;stroke-opacity:0.1;stroke-width:0.6;"/>
     </g>
     <g id="line2d_24">
      <g>
       <use style="stroke:#000000;stroke-width:0.6;" x="38.44" xlink:href="#m9909a0c893" y="53.39754"/>
      </g>
     </g>
     <g id="text_8">
      <text style="font-family:TeX Gyre Heros;font-size:9px;font-stretch:normal;font-style:normal;font-weight:normal;text-anchor:end;" transform="rotate(-0, 32.44, 56.678321)" x="32.44" y="56.678321">−50</text>
     </g>
    </g>
    <g id="ytick_3">
     <g id="line2d_25">
      <path clip-path="url(#p6d332a45ce)" d="M 38.44 34.070449 
L 401.27392 34.070449 
" style="fill:none;stroke:#000000;stroke-linecap:square;stroke-opacity:0.1;stroke-width:0.6;"/>
     </g>
     <g id="line2d_26">
      <g>
       <use style="stroke:#000000;stroke-width:0.6;" x="38.44" xlink:href="#m9909a0c893" y="34.070449"/>
      </g>
     </g>
     <g id="text_9">
      <text style="font-family:TeX Gyre Heros;font-size:9px;font-stretch:normal;font-style:normal;font-weight:normal;text-anchor:end;" transform="rotate(-0, 32.44, 37.35123)" x="32.44" y="37.35123">−40</text>
     </g>
    </g>
    <g id="ytick_4">
     <g id="line2d_27">
      <path clip-path="url(#p6d332a45ce)" d="M 38.44 14.743358 
L 401.27392 14.743358 
" style="fill:none;stroke:#000000;stroke-linecap:square;stroke-opacity:0.1;stroke-width:0.6;"/>
     </g>
     <g id="line2d_28">
      <g>
       <use style="stroke:#000000;stroke-width:0.6;" x="38.44" xlink:href="#m9909a0c893" y="14.743358"/>
      </g>
     </g>
     <g id="text_10">
      <text style="font-family:TeX Gyre Heros;font-size:9px;font-stretch:normal;font-style:normal;font-weight:normal;text-anchor:end;" transform="rotate(-0, 32.44, 18.024139)" x="32.44" y="18.024139">−30</text>
     </g>
    </g>
    <g id="ytick_5">
     <g id="line2d_29">
      <defs>
       <path d="M 0 0 
L -2 0 
" id="me3af88a394" style="stroke:#000000;stroke-width:0.48;"/>
      </defs>
      <g>
       <use style="stroke:#000000;stroke-width:0.48;" x="38.44" xlink:href="#me3af88a394" y="80.455467"/>
      </g>
     </g>
    </g>
    <g id="ytick_6">
     <g id="line2d_30">
      <g>
       <use style="stroke:#000000;stroke-width:0.48;" x="38.44" xlink:href="#me3af88a394" y="76.590049"/>
      </g>
     </g>
    </g>
    <g id="ytick_7">
     <g id="line2d_31">
      <g>
       <use style="stroke:#000000;stroke-width:0.48;" x="38.44" xlink:href="#me3af88a394" y="68.859213"/>
      </g>
     </g>
    </g>
    <g id="ytick_8">
     <g id="line2d_32">
      <g>
       <use style="stroke:#000000;stroke-width:0.48;" x="38.44" xlink:href="#me3af88a394" y="64.993795"/>
      </g>
     </g>
    </g>
    <g id="ytick_9">
     <g id="line2d_33">
      <g>
       <use style="stroke:#000000;stroke-width:0.48;" x="38.44" xlink:href="#me3af88a394" y="61.128376"/>
      </g>
     </g>
    </g>
    <g id="ytick_10">
     <g id="line2d_34">
      <g>
       <use style="stroke:#000000;stroke-width:0.48;" x="38.44" xlink:href="#me3af88a394" y="57.262958"/>
      </g>
     </g>
    </g>
    <g id="ytick_11">
     <g id="line2d_35">
      <g>
       <use style="stroke:#000000;stroke-width:0.48;" x="38.44" xlink:href="#me3af88a394" y="49.532122"/>
      </g>
     </g>
    </g>
    <g id="ytick_12">
     <g id="line2d_36">
      <g>
       <use style="stroke:#000000;stroke-width:0.48;" x="38.44" xlink:href="#me3af88a394" y="45.666704"/>
      </g>
     </g>
    </g>
    <g id="ytick_13">
     <g id="line2d_37">
      <g>
       <use style="stroke:#000000;stroke-width:0.48;" x="38.44" xlink:href="#me3af88a394" y="41.801285"/>
      </g>
     </g>
    </g>
    <g id="ytick_14">
     <g id="line2d_38">
      <g>
       <use style="stroke:#000000;stroke-width:0.48;" x="38.44" xlink:href="#me3af88a394" y="37.935867"/>
      </g>
     </g>
    </g>
    <g id="ytick_15">
     <g id="line2d_39">
      <g>
       <use style="stroke:#000000;stroke-width:0.48;" x="38.44" xlink:href="#me3af88a394" y="30.205031"/>
      </g>
     </g>
    </g>
    <g id="ytick_16">
     <g id="line2d_40">
      <g>
       <use style="stroke:#000000;stroke-width:0.48;" x="38.44" xlink:href="#me3af88a394" y="26.339613"/>
      </g>
     </g>
    </g>
    <g id="ytick_17">
     <g id="line2d_41">
      <g>
       <use style="stroke:#000000;stroke-width:0.48;" x="38.44" xlink:href="#me3af88a394" y="22.474195"/>
      </g>
     </g>
    </g>
    <g id="ytick_18">
     <g id="line2d_42">
      <g>
       <use style="stroke:#000000;stroke-width:0.48;" x="38.44" xlink:href="#me3af88a394" y="18.608776"/>
      </g>
     </g>
    </g>
    <g id="ytick_19">
     <g id="line2d_43">
      <g>
       <use style="stroke:#000000;stroke-width:0.48;" x="38.44" xlink:href="#me3af88a394" y="10.87794"/>
      </g>
     </g>
    </g>
    <g id="ytick_20">
     <g id="line2d_44">
      <g>
       <use style="stroke:#000000;stroke-width:0.48;" x="38.44" xlink:href="#me3af88a394" y="7.012522"/>
      </g>
     </g>
    </g>
    <g id="text_11">
     <text style="font-family:TeX Gyre Heros;font-size:9px;font-stretch:normal;font-style:normal;font-weight:normal;text-anchor:middle;" transform="rotate(-90, 11.214844, 42.76764)" x="11.214844" y="42.76764"> </text>
    </g>
   </g>
   <g id="line2d_45">
    <path clip-path="url(#p6d332a45ce)" d="M 38.44 37.935867 
L 39.449274 37.935867 
L 39.953911 36.003158 
L 40.458548 36.003158 
L 40.963184 37.935867 
L 41.467821 36.003158 
L 43.991006 36.003158 
L 44.495643 34.070449 
L 46.009553 34.070449 
L 46.51419 32.13774 
L 47.018827 32.13774 
L 47.523464 30.205031 
L 48.028101 30.205031 
L 48.532738 28.272322 
L 49.037375 28.272322 
L 49.542011 26.339613 
L 53.07447 26.339613 
L 53.579107 24.406904 
L 55.093017 24.406904 
L 55.597654 22.474195 
L 56.102291 22.474195 
L 56.606928 20.541485 
L 57.616202 20.541485 
L 58.120838 18.608776 
L 59.130112 18.608776 
L 59.634749 16.676067 
L 62.157934 16.676067 
L 62.66257 14.743358 
L 65.185755 14.743358 
L 65.690392 12.810649 
L 66.195029 14.743358 
L 67.204302 14.743358 
L 67.708939 16.676067 
L 69.22285 16.676067 
L 69.727487 18.608776 
L 73.259945 18.608776 
L 73.764582 20.541485 
L 80.829498 20.541485 
L 81.334135 22.474195 
L 81.838772 22.474195 
L 82.343409 24.406904 
L 82.848046 24.406904 
L 83.352683 26.339613 
L 84.361956 26.339613 
L 84.866593 28.272322 
L 85.875867 28.272322 
L 86.380504 26.339613 
L 86.885141 22.474195 
L 88.399052 16.676067 
L 89.408325 16.676067 
L 89.912962 18.608776 
L 90.417599 18.608776 
L 90.922236 16.676067 
L 91.426873 16.676067 
L 91.93151 18.608776 
L 92.436147 16.676067 
L 92.940784 16.676067 
L 93.950057 20.541485 
L 94.959331 20.541485 
L 95.463968 22.474195 
L 95.968605 22.474195 
L 96.473242 24.406904 
L 97.482515 24.406904 
L 97.987152 26.339613 
L 98.491789 26.339613 
L 98.996426 28.272322 
L 100.0057 28.272322 
L 101.014974 32.13774 
L 102.024247 32.13774 
L 102.528884 34.070449 
L 103.033521 34.070449 
L 103.538158 32.13774 
L 104.042795 34.070449 
L 104.547432 34.070449 
L 105.052069 36.003158 
L 105.556706 36.003158 
L 106.061343 37.935867 
L 106.565979 37.935867 
L 107.575253 41.801285 
L 108.07989 41.801285 
L 108.584527 43.733995 
L 109.089164 43.733995 
L 109.593801 45.666704 
L 114.135533 45.666704 
L 114.64017 47.599413 
L 115.144806 45.666704 
L 115.649443 47.599413 
L 116.658717 43.733995 
L 119.181902 43.733995 
L 119.686538 41.801285 
L 121.200449 41.801285 
L 121.705086 39.868576 
L 124.22827 39.868576 
L 124.732907 37.935867 
L 125.237544 39.868576 
L 129.779276 39.868576 
L 130.283913 37.935867 
L 131.797824 37.935867 
L 132.302461 36.003158 
L 133.311734 36.003158 
L 133.816371 34.070449 
L 134.321008 36.003158 
L 134.825645 34.070449 
L 136.339556 34.070449 
L 136.844192 32.13774 
L 137.348829 32.13774 
L 137.853466 30.205031 
L 138.86274 30.205031 
L 139.367377 32.13774 
L 140.376651 32.13774 
L 140.881288 34.070449 
L 141.385924 34.070449 
L 141.890561 32.13774 
L 143.404472 32.13774 
L 143.909109 34.070449 
L 144.918383 34.070449 
L 146.432293 39.868576 
L 147.441567 39.868576 
L 147.946204 41.801285 
L 148.450841 39.868576 
L 148.955478 39.868576 
L 149.460115 41.801285 
L 149.964751 41.801285 
L 150.469388 43.733995 
L 150.974025 43.733995 
L 151.478662 45.666704 
L 153.49721 45.666704 
L 154.001847 47.599413 
L 154.506483 47.599413 
L 155.01112 49.532122 
L 156.020394 49.532122 
L 156.525031 51.464831 
L 158.038942 51.464831 
L 158.543579 53.39754 
L 160.057489 53.39754 
L 160.562126 55.330249 
L 164.599221 55.330249 
L 165.103858 53.39754 
L 165.608495 55.330249 
L 166.113132 53.39754 
L 169.64559 53.39754 
L 170.150227 51.464831 
L 170.654864 53.39754 
L 171.664138 53.39754 
L 172.168774 51.464831 
L 173.178048 51.464831 
L 173.682685 49.532122 
L 174.187322 51.464831 
L 178.224417 51.464831 
L 178.729054 53.39754 
L 179.233691 53.39754 
L 180.242965 57.262958 
L 182.766149 57.262958 
L 183.270786 59.195667 
L 183.775423 59.195667 
L 184.28006 61.128376 
L 185.289333 61.128376 
L 185.79397 59.195667 
L 187.307881 59.195667 
L 187.812518 61.128376 
L 192.35425 61.128376 
L 192.858887 59.195667 
L 193.363524 59.195667 
L 193.86816 61.128376 
L 194.877434 61.128376 
L 195.382071 63.061085 
L 195.886708 63.061085 
L 196.391345 64.993795 
L 197.400619 64.993795 
L 198.409892 68.859213 
L 198.914529 68.859213 
L 199.923803 72.724631 
L 200.42844 72.724631 
L 200.933077 74.65734 
L 201.437714 74.65734 
L 201.942351 72.724631 
L 202.446987 74.65734 
L 202.951624 72.724631 
L 203.456261 72.724631 
L 204.465535 68.859213 
L 205.979446 68.859213 
L 206.484083 66.926504 
L 207.493356 66.926504 
L 207.997993 68.859213 
L 208.50263 68.859213 
L 209.007267 66.926504 
L 213.548999 66.926504 
L 214.558273 63.061085 
L 215.06291 63.061085 
L 216.072183 59.195667 
L 217.081457 59.195667 
L 217.586094 57.262958 
L 218.090731 57.262958 
L 218.595368 55.330249 
L 219.100005 55.330249 
L 219.604642 57.262958 
L 220.613915 53.39754 
L 222.127826 53.39754 
L 222.632463 51.464831 
L 224.65101 51.464831 
L 225.155647 49.532122 
L 228.183469 49.532122 
L 229.192742 45.666704 
L 229.697379 45.666704 
L 230.202016 43.733995 
L 231.715927 43.733995 
L 232.220564 41.801285 
L 232.725201 43.733995 
L 233.229837 43.733995 
L 233.734474 41.801285 
L 234.743748 41.801285 
L 235.248385 43.733995 
L 235.753022 43.733995 
L 236.257659 45.666704 
L 236.762296 49.532122 
L 238.276206 49.532122 
L 238.780843 51.464831 
L 239.28548 51.464831 
L 240.799391 45.666704 
L 241.304028 45.666704 
L 241.808664 43.733995 
L 242.313301 45.666704 
L 243.322575 45.666704 
L 243.827212 43.733995 
L 244.836486 43.733995 
L 245.341123 41.801285 
L 245.84576 43.733995 
L 246.350396 43.733995 
L 246.855033 45.666704 
L 247.35967 45.666704 
L 247.864307 47.599413 
L 249.378218 47.599413 
L 249.882855 49.532122 
L 250.387492 49.532122 
L 250.892128 51.464831 
L 251.396765 51.464831 
L 251.901402 53.39754 
L 254.929223 53.39754 
L 255.43386 51.464831 
L 255.938497 53.39754 
L 256.947771 53.39754 
L 257.452408 55.330249 
L 259.470955 55.330249 
L 259.975592 53.39754 
L 261.489503 53.39754 
L 261.99414 51.464831 
L 263.003414 51.464831 
L 263.508051 49.532122 
L 264.012687 51.464831 
L 266.031235 51.464831 
L 266.535872 53.39754 
L 267.040509 53.39754 
L 267.545146 55.330249 
L 268.049782 55.330249 
L 268.554419 57.262958 
L 273.096151 57.262958 
L 273.600788 55.330249 
L 274.105425 55.330249 
L 275.114699 51.464831 
L 276.123973 51.464831 
L 276.62861 49.532122 
L 277.133246 49.532122 
L 277.637883 47.599413 
L 278.14252 47.599413 
L 278.647157 45.666704 
L 279.151794 47.599413 
L 282.684252 47.599413 
L 283.188889 45.666704 
L 284.7028 45.666704 
L 285.207437 43.733995 
L 285.712073 43.733995 
L 286.21671 45.666704 
L 286.721347 45.666704 
L 287.225984 47.599413 
L 287.730621 47.599413 
L 288.235258 49.532122 
L 288.739895 49.532122 
L 289.244532 51.464831 
L 289.749169 49.532122 
L 291.263079 49.532122 
L 291.767716 47.599413 
L 292.272353 49.532122 
L 292.77699 47.599413 
L 293.281627 47.599413 
L 293.786264 49.532122 
L 294.795537 49.532122 
L 296.309448 43.733995 
L 296.814085 43.733995 
L 297.318722 41.801285 
L 298.327996 41.801285 
L 298.832632 39.868576 
L 299.337269 39.868576 
L 299.841906 37.935867 
L 300.85118 41.801285 
L 301.355817 39.868576 
L 302.869728 39.868576 
L 303.374364 37.935867 
L 305.392912 37.935867 
L 306.402186 41.801285 
L 307.916096 41.801285 
L 309.430007 47.599413 
L 309.934644 51.464831 
L 310.439281 51.464831 
L 310.943918 49.532122 
L 311.953191 49.532122 
L 312.457828 51.464831 
L 312.962465 51.464831 
L 313.467102 53.39754 
L 316.99956 53.39754 
L 317.504197 55.330249 
L 318.513471 55.330249 
L 319.018108 53.39754 
L 319.522745 49.532122 
L 320.027382 49.532122 
L 320.532018 47.599413 
L 321.036655 49.532122 
L 322.045929 45.666704 
L 322.550566 45.666704 
L 324.064477 39.868576 
L 325.07375 39.868576 
L 325.578387 37.935867 
L 326.083024 37.935867 
L 326.587661 39.868576 
L 327.596935 39.868576 
L 328.101572 41.801285 
L 330.120119 41.801285 
L 330.624756 43.733995 
L 331.129393 41.801285 
L 335.671125 41.801285 
L 336.175762 39.868576 
L 336.680399 39.868576 
L 337.185036 37.935867 
L 342.231405 37.935867 
L 342.736041 36.003158 
L 343.240678 37.935867 
L 343.745315 36.003158 
L 345.259226 36.003158 
L 346.2685 32.13774 
L 349.800958 32.13774 
L 350.305595 30.205031 
L 352.828779 30.205031 
L 353.333416 32.13774 
L 353.838053 30.205031 
L 354.34269 30.205031 
L 354.847327 28.272322 
L 355.351964 28.272322 
L 355.8566 26.339613 
L 356.361237 26.339613 
L 356.865874 24.406904 
L 357.875148 24.406904 
L 358.379785 22.474195 
L 359.893695 22.474195 
L 360.398332 24.406904 
L 362.41688 24.406904 
L 362.921517 22.474195 
L 363.930791 22.474195 
L 364.435427 20.541485 
L 364.940064 20.541485 
L 365.444701 18.608776 
L 365.949338 18.608776 
L 366.453975 20.541485 
L 366.958612 18.608776 
L 367.967886 18.608776 
L 368.472523 16.676067 
L 369.481796 16.676067 
L 369.986433 14.743358 
L 373.014254 14.743358 
L 373.518891 16.676067 
L 378.060623 16.676067 
L 378.56526 18.608776 
L 379.574534 18.608776 
L 380.583808 14.743358 
L 382.097718 14.743358 
L 382.602355 12.810649 
L 385.630177 12.810649 
L 387.144087 18.608776 
L 389.667272 18.608776 
L 390.171909 20.541485 
L 391.685819 20.541485 
L 392.190456 18.608776 
L 392.695093 18.608776 
L 394.209004 12.810649 
L 395.218277 12.810649 
L 395.722914 14.743358 
L 396.732188 14.743358 
L 397.741462 10.87794 
L 398.750736 10.87794 
L 399.255372 12.810649 
L 399.760009 12.810649 
L 400.264646 10.87794 
L 401.778557 10.87794 
L 401.778557 10.87794 
" style="fill:none;stroke:#000000;stroke-linecap:square;"/>
   </g>
   <g id="patch_3">
    <path d="M 38.44 81.03528 
L 38.44 4.5 
" style="fill:none;stroke:#000000;stroke-linecap:square;stroke-linejoin:miter;stroke-width:0.6;"/>
   </g>
   <g id="patch_4">
    <path d="M 38.44 81.03528 
L 401.27392 81.03528 
" style="fill:none;stroke:#000000;stroke-linecap:square;stroke-linejoin:miter;stroke-width:0.6;"/>
   </g>
   <g id="patch_5">
    <path d="M 38.44 4.5 
L 401.27392 4.5 
" style="fill:none;stroke:#000000;stroke-linecap:square;stroke-linejoin:miter;stroke-width:0.6;"/>
   </g>
   <g id="axes_2">
    <g id="matplotlib.axis_3">
     <g id="ytick_21">
      <g id="line2d_46">
       <defs>
        <path d="M 0 0 
L 4 0 
" id="m8017955323" style="stroke:#ff0000;stroke-width:0.6;"/>
       </defs>
       <g>
        <use style="fill:#ff0000;stroke:#ff0000;stroke-width:0.6;" x="401.27392" xlink:href="#m8017955323" y="80.749892"/>
       </g>
      </g>
      <g id="text_12">
       <text style="fill:#ff0000;font-family:TeX Gyre Heros;font-size:9px;font-stretch:normal;font-style:normal;font-weight:normal;text-anchor:start;" transform="rotate(-0, 407.27392, 84.030673)" x="407.27392" y="84.030673">0</text>
      </g>
     </g>
     <g id="ytick_22">
      <g id="line2d_47">
       <g>
        <use style="fill:#ff0000;stroke:#ff0000;stroke-width:0.6;" x="401.27392" xlink:href="#m8017955323" y="51.785821"/>
       </g>
      </g>
      <g id="text_13">
       <text style="fill:#ff0000;font-family:TeX Gyre Heros;font-size:9px;font-stretch:normal;font-style:normal;font-weight:normal;text-anchor:start;" transform="rotate(-0, 407.27392, 55.066603)" x="407.27392" y="55.066603">500</text>
      </g>
     </g>
     <g id="ytick_23">
      <g id="line2d_48">
       <g>
        <use style="fill:#ff0000;stroke:#ff0000;stroke-width:0.6;" x="401.27392" xlink:href="#m8017955323" y="22.821751"/>
       </g>
      </g>
      <g id="text_14">
       <text style="fill:#ff0000;font-family:TeX Gyre Heros;font-size:9px;font-stretch:normal;font-style:normal;font-weight:normal;text-anchor:start;" transform="rotate(-0, 407.27392, 26.102532)" x="407.27392" y="26.102532">1000</text>
      </g>
     </g>
     <g id="ytick_24">
      <g id="line2d_49">
       <defs>
        <path d="M 0 0 
L 2 0 
" id="mc2f8395aa4" style="stroke:#ff0000;stroke-width:0.48;"/>
       </defs>
       <g>
        <use style="fill:#ff0000;stroke:#ff0000;stroke-width:0.48;" x="401.27392" xlink:href="#mc2f8395aa4" y="74.957078"/>
       </g>
      </g>
     </g>
     <g id="ytick_25">
      <g id="line2d_50">
       <g>
        <use style="fill:#ff0000;stroke:#ff0000;stroke-width:0.48;" x="401.27392" xlink:href="#mc2f8395aa4" y="69.164264"/>
       </g>
      </g>
     </g>
     <g id="ytick_26">
      <g id="line2d_51">
       <g>
        <use style="fill:#ff0000;stroke:#ff0000;stroke-width:0.48;" x="401.27392" xlink:href="#mc2f8395aa4" y="63.37145"/>
       </g>
      </g>
     </g>
     <g id="ytick_27">
      <g id="line2d_52">
       <g>
        <use style="fill:#ff0000;stroke:#ff0000;stroke-width:0.48;" x="401.27392" xlink:href="#mc2f8395aa4" y="57.578635"/>
       </g>
      </g>
     </g>
     <g id="ytick_28">
      <g id="line2d_53">
       <g>
        <use style="fill:#ff0000;stroke:#ff0000;stroke-width:0.48;" x="401.27392" xlink:href="#mc2f8395aa4" y="45.993007"/>
       </g>
      </g>
     </g>
     <g id="ytick_29">
      <g id="line2d_54">
       <g>
        <use style="fill:#ff0000;stroke:#ff0000;stroke-width:0.48;" x="401.27392" xlink:href="#mc2f8395aa4" y="40.200193"/>
       </g>
      </g>
     </g>
     <g id="ytick_30">
      <g id="line2d_55">
       <g>
        <use style="fill:#ff0000;stroke:#ff0000;stroke-width:0.48;" x="401.27392" xlink:href="#mc2f8395aa4" y="34.407379"/>
       </g>
      </g>
     </g>
     <g id="ytick_31">
      <g id="line2d_56">
       <g>
        <use style="fill:#ff0000;stroke:#ff0000;stroke-width:0.48;" x="401.27392" xlink:href="#mc2f8395aa4" y="28.614565"/>
       </g>
      </g>
     </g>
     <g id="ytick_32">
      <g id="line2d_57">
       <g>
        <use style="fill:#ff0000;stroke:#ff0000;stroke-width:0.48;" x="401.27392" xlink:href="#mc2f8395aa4" y="17.028937"/>
       </g>
      </g>
     </g>
     <g id="ytick_33">
      <g id="line2d_58">
       <g>
        <use style="fill:#ff0000;stroke:#ff0000;stroke-width:0.48;" x="401.27392" xlink:href="#mc2f8395aa4" y="11.236123"/>
       </g>
      </g>
     </g>
     <g id="ytick_34">
      <g id="line2d_59">
       <g>
        <use style="fill:#ff0000;stroke:#ff0000;stroke-width:0.48;" x="401.27392" xlink:href="#mc2f8395aa4" y="5.443309"/>
       </g>
      </g>
     </g>
     <g id="text_15">
      <text style="fill:#ff0000;font-family:TeX Gyre Heros;font-size:9px;font-stretch:normal;font-style:normal;font-weight:normal;text-anchor:middle;" transform="rotate(-90, 437.957514, 42.76764)" x="437.957514" y="42.76764">SME (nT)</text>
     </g>
    </g>
    <g id="line2d_60">
     <path clip-path="url(#p6d332a45ce)" d="M 38.44 49.690279 
L 39.953911 51.727342 
L 40.458548 52.852592 
L 42.477095 59.712989 
L 43.486369 61.272802 
L 43.991006 61.391199 
L 44.495643 61.801243 
L 45.000279 62.98291 
L 45.504916 63.660747 
L 46.009553 63.982601 
L 47.018827 65.489932 
L 47.523464 65.953486 
L 48.028101 65.568432 
L 48.532738 65.581547 
L 49.037375 65.990425 
L 49.542011 66.967258 
L 50.046648 67.541224 
L 50.551285 67.85922 
L 51.055922 68.723023 
L 51.560559 68.147929 
L 52.065196 68.665848 
L 52.569833 68.236308 
L 53.07447 68.358651 
L 53.579107 67.601485 
L 54.58838 64.787044 
L 55.093017 65.253181 
L 55.597654 66.316009 
L 56.606928 64.134454 
L 57.111565 65.635143 
L 57.616202 65.202663 
L 58.120838 64.206942 
L 58.625475 64.093318 
L 59.130112 65.221876 
L 59.634749 65.451575 
L 60.139386 64.485371 
L 60.644023 64.540983 
L 61.14866 64.921208 
L 62.66257 60.588194 
L 63.167207 59.598506 
L 63.671844 60.363807 
L 64.681118 57.912815 
L 65.185755 57.326862 
L 65.690392 57.1692 
L 66.195029 57.405325 
L 66.699666 57.20486 
L 67.204302 56.450764 
L 68.718213 55.415507 
L 69.22285 55.661806 
L 69.727487 55.464817 
L 70.736761 55.611485 
L 71.241397 54.64754 
L 72.250671 53.810626 
L 73.259945 53.652144 
L 73.764582 53.447854 
L 74.269219 54.570077 
L 75.783129 53.155961 
L 76.287766 53.937372 
L 76.792403 55.68707 
L 77.29704 55.657284 
L 77.801677 54.196714 
L 78.306314 54.079018 
L 79.820225 52.563287 
L 80.324861 48.926956 
L 81.334135 45.580407 
L 81.838772 45.115953 
L 82.343409 40.162652 
L 82.848046 42.070306 
L 83.352683 41.034289 
L 83.85732 40.759187 
L 84.361956 37.565714 
L 84.866593 35.283708 
L 85.37123 39.485015 
L 85.875867 41.713446 
L 86.380504 38.706663 
L 87.389778 29.237307 
L 87.894415 29.385235 
L 88.399052 31.634734 
L 88.903688 36.33425 
L 89.408325 34.3044 
L 89.912962 33.842 
L 90.417599 35.681947 
L 90.922236 35.236766 
L 91.426873 35.032539 
L 91.93151 35.141558 
L 92.436147 32.412613 
L 92.940784 24.465052 
L 93.44542 21.587978 
L 94.454694 12.558245 
L 94.959331 10.87794 
L 95.463968 12.234881 
L 95.968605 14.229831 
L 97.987152 14.402703 
L 99.501063 26.572796 
L 100.0057 26.993129 
L 100.510337 26.75735 
L 101.014974 27.074816 
L 102.024247 28.085501 
L 102.528884 27.699142 
L 103.033521 28.677751 
L 103.538158 30.805277 
L 104.042795 30.514491 
L 104.547432 29.694092 
L 105.052069 28.386915 
L 105.556706 25.409234 
L 106.061343 25.211983 
L 106.565979 24.121217 
L 107.070616 25.004861 
L 107.575253 25.117345 
L 108.07989 21.808907 
L 108.584527 23.216139 
L 109.089164 22.27889 
L 109.593801 23.739232 
L 110.098438 23.131768 
L 110.603074 21.008244 
L 111.107711 19.909815 
L 112.116985 21.055558 
L 112.621622 22.189537 
L 113.126259 23.698925 
L 113.630896 24.555059 
L 114.135533 29.212745 
L 114.64017 28.825792 
L 115.144806 29.042535 
L 115.649443 31.434376 
L 116.15408 34.561392 
L 116.658717 34.398858 
L 117.163354 33.083312 
L 117.667991 30.816736 
L 118.172628 29.590869 
L 118.677265 28.94518 
L 119.181902 29.005149 
L 119.686538 28.528437 
L 120.191175 26.59284 
L 120.695812 23.535589 
L 121.200449 23.547592 
L 121.705086 23.790368 
L 122.71436 25.041922 
L 123.218997 26.351881 
L 123.723633 26.274677 
L 124.22827 25.144657 
L 124.732907 23.741484 
L 125.237544 25.407339 
L 125.742181 30.145047 
L 126.246818 29.136795 
L 126.751455 31.466465 
L 127.256092 34.398024 
L 127.760729 38.916383 
L 128.265365 41.030584 
L 128.770002 40.198581 
L 129.274639 40.452158 
L 129.779276 41.043553 
L 130.283913 40.915898 
L 131.797824 46.740197 
L 132.302461 48.024622 
L 132.807097 47.750326 
L 133.816371 47.76776 
L 134.321008 47.626557 
L 134.825645 46.429477 
L 135.330282 44.905914 
L 135.834919 42.86976 
L 136.339556 41.826714 
L 136.844192 41.453123 
L 137.853466 39.290208 
L 138.358103 39.43727 
L 138.86274 37.907053 
L 139.367377 37.865393 
L 139.872014 39.632173 
L 140.376651 40.369155 
L 140.881288 42.267751 
L 141.385924 42.421071 
L 141.890561 44.300229 
L 142.395198 43.566602 
L 143.404472 40.527984 
L 143.909109 39.761199 
L 144.413746 39.6023 
L 145.42302 39.719192 
L 145.927656 39.313954 
L 146.432293 39.435601 
L 146.93693 39.938399 
L 147.441567 37.977031 
L 147.946204 38.058931 
L 148.450841 38.610861 
L 148.955478 37.381344 
L 149.460115 36.773813 
L 149.964751 35.92934 
L 150.469388 36.684785 
L 150.974025 34.887641 
L 151.478662 33.680435 
L 151.983299 33.020845 
L 152.487936 33.263433 
L 152.992573 35.374129 
L 153.49721 38.527592 
L 154.001847 36.723281 
L 154.506483 31.550373 
L 155.01112 32.290686 
L 155.515757 31.180283 
L 156.020394 31.747338 
L 157.029668 36.358459 
L 157.534305 35.184898 
L 158.038942 36.305155 
L 159.552852 41.085266 
L 160.057489 41.441059 
L 160.562126 44.573874 
L 161.066763 46.367497 
L 161.5714 46.390485 
L 162.076037 44.381107 
L 162.580674 43.326276 
L 163.08531 41.931518 
L 163.589947 42.060406 
L 164.094584 43.043092 
L 164.599221 43.592214 
L 165.103858 42.711893 
L 166.113132 43.302107 
L 166.617769 42.976529 
L 167.122406 43.673527 
L 167.627042 42.928314 
L 168.131679 42.825423 
L 168.636316 41.022282 
L 169.140953 39.831191 
L 169.64559 38.937124 
L 170.150227 40.004205 
L 170.654864 41.38591 
L 171.159501 40.529759 
L 171.664138 37.82194 
L 172.168774 41.122062 
L 172.673411 39.414034 
L 173.178048 37.297122 
L 173.682685 36.815237 
L 174.187322 37.380467 
L 174.691959 39.499929 
L 175.196596 40.333989 
L 175.701233 40.415751 
L 176.205869 38.542813 
L 176.710506 38.218891 
L 177.71978 42.041307 
L 178.224417 41.863768 
L 179.233691 43.338778 
L 179.738328 43.699574 
L 180.242965 43.282561 
L 180.747601 41.154056 
L 181.252238 39.70383 
L 181.756875 37.869501 
L 182.261512 35.247578 
L 182.766149 36.819858 
L 183.270786 39.474751 
L 183.775423 39.47997 
L 184.28006 36.27238 
L 184.784697 40.425096 
L 185.289333 33.221054 
L 185.79397 33.381463 
L 186.298607 35.696259 
L 186.803244 34.895158 
L 187.307881 38.338304 
L 187.812518 39.783785 
L 188.317155 40.350257 
L 188.821792 37.675344 
L 189.326428 36.571736 
L 189.831065 36.32632 
L 190.335702 35.057119 
L 190.840339 36.022515 
L 191.344976 34.336412 
L 191.849613 30.99971 
L 192.35425 30.83439 
L 192.858887 32.448779 
L 193.363524 34.704696 
L 193.86816 33.889081 
L 194.372797 33.996041 
L 194.877434 31.93687 
L 195.382071 30.957763 
L 196.391345 35.799083 
L 196.895982 36.543037 
L 197.400619 37.030197 
L 198.409892 34.874694 
L 198.914529 36.061333 
L 199.419166 39.916061 
L 199.923803 41.235609 
L 200.42844 40.397051 
L 200.933077 38.464081 
L 201.942351 44.726384 
L 202.446987 44.592917 
L 202.951624 46.734526 
L 203.456261 50.449801 
L 203.960898 51.33301 
L 204.465535 52.625914 
L 204.970172 51.664465 
L 205.474809 49.182262 
L 205.979446 49.331272 
L 206.484083 50.501064 
L 206.988719 50.496987 
L 207.493356 50.286255 
L 207.997993 50.522748 
L 208.50263 51.406927 
L 209.007267 53.496438 
L 209.511904 53.82179 
L 210.016541 54.651279 
L 210.521178 55.757541 
L 211.025815 56.497836 
L 211.530451 56.231164 
L 212.035088 54.268189 
L 212.539725 54.091009 
L 213.044362 55.393093 
L 214.053636 60.766704 
L 215.06291 62.895126 
L 215.567546 62.422795 
L 216.072183 61.71286 
L 216.57682 62.754441 
L 217.081457 62.639398 
L 217.586094 61.543266 
L 218.090731 59.495034 
L 218.595368 56.861312 
L 219.100005 60.917141 
L 219.604642 61.559098 
L 220.109278 55.318708 
L 220.613915 56.155498 
L 221.623189 62.880072 
L 222.127826 64.784374 
L 223.1371 65.701951 
L 223.641737 66.440368 
L 224.146374 66.691262 
L 224.65101 66.102502 
L 225.155647 65.101384 
L 226.164921 67.994788 
L 226.669558 67.095922 
L 227.174195 67.116549 
L 227.678832 66.95148 
L 228.688105 65.354758 
L 229.192742 64.876945 
L 229.697379 65.322228 
L 230.202016 66.450484 
L 230.706653 67.245244 
L 231.21129 67.596741 
L 232.220564 65.130308 
L 232.725201 66.046374 
L 233.229837 66.729548 
L 233.734474 64.1615 
L 234.239111 62.975725 
L 234.743748 61.100899 
L 235.248385 60.577817 
L 235.753022 60.928135 
L 236.257659 63.033639 
L 236.762296 64.576483 
L 237.771569 62.24251 
L 238.276206 63.6922 
L 238.780843 64.563622 
L 239.28548 64.878391 
L 239.790117 64.627579 
L 240.294754 62.657244 
L 240.799391 61.680089 
L 241.304028 61.141663 
L 241.808664 58.78028 
L 242.313301 58.754205 
L 242.817938 57.389616 
L 243.322575 55.052254 
L 243.827212 53.539622 
L 244.331849 53.416284 
L 244.836486 54.605043 
L 245.341123 52.965036 
L 245.84576 55.447711 
L 246.350396 55.119882 
L 246.855033 54.262423 
L 247.35967 51.651939 
L 247.864307 50.638834 
L 248.873581 49.110958 
L 249.378218 49.621959 
L 249.882855 49.6868 
L 250.892128 53.886685 
L 251.396765 53.174817 
L 251.901402 52.84196 
L 252.406039 53.668028 
L 252.910676 53.585587 
L 253.415313 54.122575 
L 253.91995 52.968011 
L 254.424587 54.182337 
L 254.929223 53.632659 
L 255.43386 46.48254 
L 255.938497 51.581954 
L 256.443134 51.137878 
L 256.947771 49.570752 
L 257.957045 45.276567 
L 258.461682 44.279792 
L 258.966319 41.955733 
L 259.470955 31.974129 
L 259.975592 39.098774 
L 260.984866 36.809071 
L 261.489503 36.533466 
L 261.99414 34.079507 
L 263.003414 30.975384 
L 263.508051 28.337861 
L 264.012687 22.591004 
L 264.517324 14.00683 
L 265.021961 15.806697 
L 265.526598 20.198905 
L 266.031235 21.655608 
L 266.535872 23.617538 
L 267.040509 22.258557 
L 267.545146 12.021512 
L 268.049782 13.018474 
L 268.554419 22.000928 
L 269.059056 18.058682 
L 269.563693 21.798035 
L 270.06833 19.004582 
L 270.572967 14.106083 
L 271.582241 24.442898 
L 272.086878 27.002979 
L 273.096151 22.771966 
L 273.600788 27.105092 
L 274.105425 29.793281 
L 274.610062 31.024459 
L 275.114699 26.560237 
L 275.619336 28.530936 
L 276.123973 29.973702 
L 276.62861 31.819437 
L 277.133246 27.337957 
L 277.637883 30.097701 
L 278.14252 27.423704 
L 278.647157 25.480527 
L 279.151794 27.150557 
L 279.656431 27.102822 
L 280.161068 26.84916 
L 280.665705 25.006307 
L 281.170341 24.487128 
L 281.674978 24.339296 
L 282.179615 26.164032 
L 282.684252 25.814469 
L 283.188889 27.526995 
L 283.693526 25.827986 
L 285.207437 22.057799 
L 286.721347 30.645766 
L 287.225984 32.180993 
L 287.730621 25.80003 
L 288.235258 26.023472 
L 288.739895 30.888156 
L 289.244532 30.79986 
L 289.749169 28.536745 
L 290.253805 25.141019 
L 290.758442 26.248888 
L 291.263079 26.291683 
L 291.767716 29.539043 
L 292.272353 33.692414 
L 292.77699 35.920458 
L 293.281627 34.577713 
L 293.786264 34.820909 
L 294.2909 37.199431 
L 294.795537 37.625775 
L 295.300174 37.877701 
L 295.804811 37.870834 
L 296.309448 40.388308 
L 296.814085 40.529267 
L 297.318722 40.290048 
L 297.823359 39.829625 
L 298.327996 42.209668 
L 298.832632 43.504417 
L 299.337269 46.970612 
L 299.841906 47.895532 
L 300.346543 49.622677 
L 300.85118 50.899458 
L 301.355817 48.192834 
L 301.860454 53.437636 
L 302.365091 54.774813 
L 302.869728 53.464327 
L 303.374364 53.157236 
L 303.879001 51.007147 
L 304.383638 50.141442 
L 304.888275 50.501619 
L 305.392912 51.530314 
L 306.402186 52.392294 
L 306.906823 51.721815 
L 307.411459 51.858042 
L 307.916096 51.161752 
L 308.420733 53.263365 
L 308.92537 56.711973 
L 309.430007 58.237971 
L 309.934644 57.347718 
L 310.439281 55.510365 
L 310.943918 57.0088 
L 311.448555 57.224757 
L 311.953191 54.431745 
L 312.457828 46.808202 
L 312.962465 45.955611 
L 313.467102 53.55863 
L 313.971739 55.012989 
L 314.476376 55.646281 
L 314.981013 54.996012 
L 315.48565 58.863191 
L 315.990287 56.414978 
L 316.494923 58.026279 
L 316.99956 53.990953 
L 317.504197 54.754674 
L 318.008834 55.869243 
L 318.513471 59.515192 
L 319.018108 58.435048 
L 319.522745 58.119223 
L 320.027382 59.538573 
L 320.532018 61.937848 
L 321.036655 61.17274 
L 321.541292 58.793755 
L 322.550566 60.855633 
L 323.55984 61.493678 
L 324.569114 61.396791 
L 325.07375 61.7584 
L 325.578387 62.617791 
L 326.083024 62.45716 
L 326.587661 61.346933 
L 327.092298 61.127689 
L 327.596935 63.992211 
L 328.101572 64.804535 
L 328.606209 64.455882 
L 329.110846 62.236652 
L 330.120119 62.482731 
L 330.624756 63.376933 
L 331.129393 61.84054 
L 331.63403 61.769544 
L 332.138667 63.653029 
L 332.643304 63.532357 
L 333.652577 62.517851 
L 334.157214 64.239626 
L 334.661851 65.41548 
L 335.166488 65.315832 
L 335.671125 65.847761 
L 336.175762 68.072838 
L 336.680399 69.0761 
L 337.185036 68.900854 
L 338.194309 69.15184 
L 338.698946 68.28253 
L 339.203583 68.618619 
L 339.70822 68.658282 
L 340.212857 67.712932 
L 340.717494 68.978668 
L 341.222131 68.920945 
L 341.726768 68.148201 
L 342.231405 68.015117 
L 342.736041 69.086325 
L 343.240678 68.43501 
L 343.745315 67.506157 
L 344.249952 67.709756 
L 344.754589 68.164101 
L 345.259226 67.815366 
L 345.763863 69.733582 
L 346.2685 70.033946 
L 346.773136 70.58721 
L 347.277773 69.339864 
L 347.78241 71.337186 
L 348.287047 71.838906 
L 348.791684 72.012989 
L 349.296321 71.028336 
L 349.800958 70.401431 
L 350.305595 71.224566 
L 350.810232 71.807346 
L 351.819505 70.668257 
L 352.324142 71.248241 
L 352.828779 72.560239 
L 353.333416 72.526171 
L 353.838053 72.27235 
L 354.34269 73.370676 
L 354.847327 73.605187 
L 355.351964 72.242847 
L 355.8566 72.965963 
L 356.361237 68.648985 
L 357.370511 68.12664 
L 357.875148 70.725996 
L 358.379785 72.327195 
L 358.884422 71.299489 
L 359.389059 71.804421 
L 360.398332 74.65734 
L 360.902969 72.846164 
L 361.407606 72.505031 
L 362.41688 74.471769 
L 362.921517 74.38688 
L 363.426154 73.809941 
L 363.930791 73.504341 
L 364.435427 74.336117 
L 364.940064 73.033694 
L 365.444701 72.464979 
L 365.949338 72.364942 
L 366.453975 71.294456 
L 366.958612 72.593966 
L 367.463249 72.492625 
L 367.967886 74.390077 
L 368.472523 72.508771 
L 368.977159 73.033271 
L 369.481796 71.866779 
L 369.986433 69.536043 
L 370.49107 68.374661 
L 370.995707 70.57724 
L 371.500344 67.260759 
L 372.004981 67.153688 
L 372.509618 67.403795 
L 373.014254 67.975808 
L 373.518891 67.113746 
L 374.023528 64.726245 
L 374.528165 65.075558 
L 375.032802 66.135872 
L 375.537439 65.750781 
L 376.546713 65.964916 
L 377.05135 65.722061 
L 377.555986 67.874403 
L 378.060623 66.778107 
L 378.56526 66.266086 
L 379.069897 62.134312 
L 379.574534 61.03536 
L 381.088445 55.071693 
L 381.593082 54.781743 
L 382.097718 55.992177 
L 382.602355 56.77703 
L 383.106992 57.925389 
L 383.611629 60.003409 
L 384.116266 61.175933 
L 384.620903 61.142226 
L 385.12554 63.13527 
L 385.630177 67.085319 
L 386.63945 62.294247 
L 387.144087 59.888161 
L 387.648724 55.88183 
L 388.153361 55.398541 
L 389.162635 49.976387 
L 389.667272 48.542857 
L 390.171909 47.518306 
L 390.676545 46.127489 
L 391.181182 49.824566 
L 391.685819 48.705613 
L 392.190456 47.294124 
L 392.695093 46.313055 
L 393.19973 47.962766 
L 393.704367 48.713378 
L 394.71364 43.77371 
L 395.218277 40.479361 
L 395.722914 40.409225 
L 396.227551 38.481632 
L 396.732188 37.163523 
L 397.236825 35.415931 
L 397.741462 32.129892 
L 398.246099 31.140616 
L 398.750736 28.990016 
L 399.255372 20.77977 
L 399.760009 22.283932 
L 400.264646 24.236698 
L 400.769283 24.070508 
L 401.27392 21.007268 
L 401.27392 21.007268 
" style="fill:none;stroke:#ff0000;stroke-linecap:square;"/>
    </g>
    <g id="patch_6">
     <path d="M 401.27392 81.03528 
L 401.27392 4.5 
" style="fill:none;stroke:#ff0000;stroke-linecap:square;stroke-linejoin:miter;stroke-width:0.6;"/>
    </g>
   </g>
  </g>
  <g id="text_16">
   <text style="font-family:TeX Gyre Heros;font-size:9px;font-stretch:normal;font-style:normal;font-weight:normal;text-anchor:middle;" transform="rotate(-0, 219.85696, 106.120124)" x="219.85696" y="106.120124">time</text>
  </g>
  <g id="text_17">
   <text style="font-family:TeX Gyre Heros;font-size:9px;font-stretch:normal;font-style:normal;font-weight:normal;text-anchor:middle;" transform="rotate(-90, 11.214844, 42.76764)" x="11.214844" y="42.76764">SYM-H (nT)</text>
  </g>
  <g id="axes_3">
   <g id="matplotlib.axis_4">
    <g id="ytick_35">
     <g id="line2d_61">
      <g>
       <use style="fill:#ff0000;stroke:#ff0000;stroke-width:0.6;" x="401.27392" xlink:href="#m8017955323" y="80.749892"/>
      </g>
     </g>
     <g id="text_18">
      <text style="fill:#ff0000;font-family:TeX Gyre Heros;font-size:9px;font-stretch:normal;font-style:normal;font-weight:normal;text-anchor:start;" transform="rotate(-0, 407.27392, 84.030673)" x="407.27392" y="84.030673">0</text>
     </g>
    </g>
    <g id="ytick_36">
     <g id="line2d_62">
      <g>
       <use style="fill:#ff0000;stroke:#ff0000;stroke-width:0.6;" x="401.27392" xlink:href="#m8017955323" y="51.785821"/>
      </g>
     </g>
     <g id="text_19">
      <text style="fill:#ff0000;font-family:TeX Gyre Heros;font-size:9px;font-stretch:normal;font-style:normal;font-weight:normal;text-anchor:start;" transform="rotate(-0, 407.27392, 55.066603)" x="407.27392" y="55.066603">500</text>
     </g>
    </g>
    <g id="ytick_37">
     <g id="line2d_63">
      <g>
       <use style="fill:#ff0000;stroke:#ff0000;stroke-width:0.6;" x="401.27392" xlink:href="#m8017955323" y="22.821751"/>
      </g>
     </g>
     <g id="text_20">
      <text style="fill:#ff0000;font-family:TeX Gyre Heros;font-size:9px;font-stretch:normal;font-style:normal;font-weight:normal;text-anchor:start;" transform="rotate(-0, 407.27392, 26.102532)" x="407.27392" y="26.102532">1000</text>
     </g>
    </g>
    <g id="ytick_38">
     <g id="line2d_64">
      <g>
       <use style="fill:#ff0000;stroke:#ff0000;stroke-width:0.48;" x="401.27392" xlink:href="#mc2f8395aa4" y="74.957078"/>
      </g>
     </g>
    </g>
    <g id="ytick_39">
     <g id="line2d_65">
      <g>
       <use style="fill:#ff0000;stroke:#ff0000;stroke-width:0.48;" x="401.27392" xlink:href="#mc2f8395aa4" y="69.164264"/>
      </g>
     </g>
    </g>
    <g id="ytick_40">
     <g id="line2d_66">
      <g>
       <use style="fill:#ff0000;stroke:#ff0000;stroke-width:0.48;" x="401.27392" xlink:href="#mc2f8395aa4" y="63.37145"/>
      </g>
     </g>
    </g>
    <g id="ytick_41">
     <g id="line2d_67">
      <g>
       <use style="fill:#ff0000;stroke:#ff0000;stroke-width:0.48;" x="401.27392" xlink:href="#mc2f8395aa4" y="57.578635"/>
      </g>
     </g>
    </g>
    <g id="ytick_42">
     <g id="line2d_68">
      <g>
       <use style="fill:#ff0000;stroke:#ff0000;stroke-width:0.48;" x="401.27392" xlink:href="#mc2f8395aa4" y="45.993007"/>
      </g>
     </g>
    </g>
    <g id="ytick_43">
     <g id="line2d_69">
      <g>
       <use style="fill:#ff0000;stroke:#ff0000;stroke-width:0.48;" x="401.27392" xlink:href="#mc2f8395aa4" y="40.200193"/>
      </g>
     </g>
    </g>
    <g id="ytick_44">
     <g id="line2d_70">
      <g>
       <use style="fill:#ff0000;stroke:#ff0000;stroke-width:0.48;" x="401.27392" xlink:href="#mc2f8395aa4" y="34.407379"/>
      </g>
     </g>
    </g>
    <g id="ytick_45">
     <g id="line2d_71">
      <g>
       <use style="fill:#ff0000;stroke:#ff0000;stroke-width:0.48;" x="401.27392" xlink:href="#mc2f8395aa4" y="28.614565"/>
      </g>
     </g>
    </g>
    <g id="ytick_46">
     <g id="line2d_72">
      <g>
       <use style="fill:#ff0000;stroke:#ff0000;stroke-width:0.48;" x="401.27392" xlink:href="#mc2f8395aa4" y="17.028937"/>
      </g>
     </g>
    </g>
    <g id="ytick_47">
     <g id="line2d_73">
      <g>
       <use style="fill:#ff0000;stroke:#ff0000;stroke-width:0.48;" x="401.27392" xlink:href="#mc2f8395aa4" y="11.236123"/>
      </g>
     </g>
    </g>
    <g id="ytick_48">
     <g id="line2d_74">
      <g>
       <use style="fill:#ff0000;stroke:#ff0000;stroke-width:0.48;" x="401.27392" xlink:href="#mc2f8395aa4" y="5.443309"/>
      </g>
     </g>
    </g>
    <g id="text_21">
     <text style="fill:#ff0000;font-family:TeX Gyre Heros;font-size:9px;font-stretch:normal;font-style:normal;font-weight:normal;text-anchor:middle;" transform="rotate(-90, 437.957514, 42.76764)" x="437.957514" y="42.76764">SME (nT)</text>
    </g>
   </g>
   <g id="line2d_75">
    <path clip-path="url(#p6d332a45ce)" d="M 38.44 49.690279 
L 39.953911 51.727342 
L 40.458548 52.852592 
L 42.477095 59.712989 
L 43.486369 61.272802 
L 43.991006 61.391199 
L 44.495643 61.801243 
L 45.000279 62.98291 
L 45.504916 63.660747 
L 46.009553 63.982601 
L 47.018827 65.489932 
L 47.523464 65.953486 
L 48.028101 65.568432 
L 48.532738 65.581547 
L 49.037375 65.990425 
L 49.542011 66.967258 
L 50.046648 67.541224 
L 50.551285 67.85922 
L 51.055922 68.723023 
L 51.560559 68.147929 
L 52.065196 68.665848 
L 52.569833 68.236308 
L 53.07447 68.358651 
L 53.579107 67.601485 
L 54.58838 64.787044 
L 55.093017 65.253181 
L 55.597654 66.316009 
L 56.606928 64.134454 
L 57.111565 65.635143 
L 57.616202 65.202663 
L 58.120838 64.206942 
L 58.625475 64.093318 
L 59.130112 65.221876 
L 59.634749 65.451575 
L 60.139386 64.485371 
L 60.644023 64.540983 
L 61.14866 64.921208 
L 62.66257 60.588194 
L 63.167207 59.598506 
L 63.671844 60.363807 
L 64.681118 57.912815 
L 65.185755 57.326862 
L 65.690392 57.1692 
L 66.195029 57.405325 
L 66.699666 57.20486 
L 67.204302 56.450764 
L 68.718213 55.415507 
L 69.22285 55.661806 
L 69.727487 55.464817 
L 70.736761 55.611485 
L 71.241397 54.64754 
L 72.250671 53.810626 
L 73.259945 53.652144 
L 73.764582 53.447854 
L 74.269219 54.570077 
L 75.783129 53.155961 
L 76.287766 53.937372 
L 76.792403 55.68707 
L 77.29704 55.657284 
L 77.801677 54.196714 
L 78.306314 54.079018 
L 79.820225 52.563287 
L 80.324861 48.926956 
L 81.334135 45.580407 
L 81.838772 45.115953 
L 82.343409 40.162652 
L 82.848046 42.070306 
L 83.352683 41.034289 
L 83.85732 40.759187 
L 84.361956 37.565714 
L 84.866593 35.283708 
L 85.37123 39.485015 
L 85.875867 41.713446 
L 86.380504 38.706663 
L 87.389778 29.237307 
L 87.894415 29.385235 
L 88.399052 31.634734 
L 88.903688 36.33425 
L 89.408325 34.3044 
L 89.912962 33.842 
L 90.417599 35.681947 
L 90.922236 35.236766 
L 91.426873 35.032539 
L 91.93151 35.141558 
L 92.436147 32.412613 
L 92.940784 24.465052 
L 93.44542 21.587978 
L 94.454694 12.558245 
L 94.959331 10.87794 
L 95.463968 12.234881 
L 95.968605 14.229831 
L 97.987152 14.402703 
L 99.501063 26.572796 
L 100.0057 26.993129 
L 100.510337 26.75735 
L 101.014974 27.074816 
L 102.024247 28.085501 
L 102.528884 27.699142 
L 103.033521 28.677751 
L 103.538158 30.805277 
L 104.042795 30.514491 
L 104.547432 29.694092 
L 105.052069 28.386915 
L 105.556706 25.409234 
L 106.061343 25.211983 
L 106.565979 24.121217 
L 107.070616 25.004861 
L 107.575253 25.117345 
L 108.07989 21.808907 
L 108.584527 23.216139 
L 109.089164 22.27889 
L 109.593801 23.739232 
L 110.098438 23.131768 
L 110.603074 21.008244 
L 111.107711 19.909815 
L 112.116985 21.055558 
L 112.621622 22.189537 
L 113.126259 23.698925 
L 113.630896 24.555059 
L 114.135533 29.212745 
L 114.64017 28.825792 
L 115.144806 29.042535 
L 115.649443 31.434376 
L 116.15408 34.561392 
L 116.658717 34.398858 
L 117.163354 33.083312 
L 117.667991 30.816736 
L 118.172628 29.590869 
L 118.677265 28.94518 
L 119.181902 29.005149 
L 119.686538 28.528437 
L 120.191175 26.59284 
L 120.695812 23.535589 
L 121.200449 23.547592 
L 121.705086 23.790368 
L 122.71436 25.041922 
L 123.218997 26.351881 
L 123.723633 26.274677 
L 124.22827 25.144657 
L 124.732907 23.741484 
L 125.237544 25.407339 
L 125.742181 30.145047 
L 126.246818 29.136795 
L 126.751455 31.466465 
L 127.256092 34.398024 
L 127.760729 38.916383 
L 128.265365 41.030584 
L 128.770002 40.198581 
L 129.274639 40.452158 
L 129.779276 41.043553 
L 130.283913 40.915898 
L 131.797824 46.740197 
L 132.302461 48.024622 
L 132.807097 47.750326 
L 133.816371 47.76776 
L 134.321008 47.626557 
L 134.825645 46.429477 
L 135.330282 44.905914 
L 135.834919 42.86976 
L 136.339556 41.826714 
L 136.844192 41.453123 
L 137.853466 39.290208 
L 138.358103 39.43727 
L 138.86274 37.907053 
L 139.367377 37.865393 
L 139.872014 39.632173 
L 140.376651 40.369155 
L 140.881288 42.267751 
L 141.385924 42.421071 
L 141.890561 44.300229 
L 142.395198 43.566602 
L 143.404472 40.527984 
L 143.909109 39.761199 
L 144.413746 39.6023 
L 145.42302 39.719192 
L 145.927656 39.313954 
L 146.432293 39.435601 
L 146.93693 39.938399 
L 147.441567 37.977031 
L 147.946204 38.058931 
L 148.450841 38.610861 
L 148.955478 37.381344 
L 149.460115 36.773813 
L 149.964751 35.92934 
L 150.469388 36.684785 
L 150.974025 34.887641 
L 151.478662 33.680435 
L 151.983299 33.020845 
L 152.487936 33.263433 
L 152.992573 35.374129 
L 153.49721 38.527592 
L 154.001847 36.723281 
L 154.506483 31.550373 
L 155.01112 32.290686 
L 155.515757 31.180283 
L 156.020394 31.747338 
L 157.029668 36.358459 
L 157.534305 35.184898 
L 158.038942 36.305155 
L 159.552852 41.085266 
L 160.057489 41.441059 
L 160.562126 44.573874 
L 161.066763 46.367497 
L 161.5714 46.390485 
L 162.076037 44.381107 
L 162.580674 43.326276 
L 163.08531 41.931518 
L 163.589947 42.060406 
L 164.094584 43.043092 
L 164.599221 43.592214 
L 165.103858 42.711893 
L 166.113132 43.302107 
L 166.617769 42.976529 
L 167.122406 43.673527 
L 167.627042 42.928314 
L 168.131679 42.825423 
L 168.636316 41.022282 
L 169.140953 39.831191 
L 169.64559 38.937124 
L 170.150227 40.004205 
L 170.654864 41.38591 
L 171.159501 40.529759 
L 171.664138 37.82194 
L 172.168774 41.122062 
L 172.673411 39.414034 
L 173.178048 37.297122 
L 173.682685 36.815237 
L 174.187322 37.380467 
L 174.691959 39.499929 
L 175.196596 40.333989 
L 175.701233 40.415751 
L 176.205869 38.542813 
L 176.710506 38.218891 
L 177.71978 42.041307 
L 178.224417 41.863768 
L 179.233691 43.338778 
L 179.738328 43.699574 
L 180.242965 43.282561 
L 180.747601 41.154056 
L 181.252238 39.70383 
L 181.756875 37.869501 
L 182.261512 35.247578 
L 182.766149 36.819858 
L 183.270786 39.474751 
L 183.775423 39.47997 
L 184.28006 36.27238 
L 184.784697 40.425096 
L 185.289333 33.221054 
L 185.79397 33.381463 
L 186.298607 35.696259 
L 186.803244 34.895158 
L 187.307881 38.338304 
L 187.812518 39.783785 
L 188.317155 40.350257 
L 188.821792 37.675344 
L 189.326428 36.571736 
L 189.831065 36.32632 
L 190.335702 35.057119 
L 190.840339 36.022515 
L 191.344976 34.336412 
L 191.849613 30.99971 
L 192.35425 30.83439 
L 192.858887 32.448779 
L 193.363524 34.704696 
L 193.86816 33.889081 
L 194.372797 33.996041 
L 194.877434 31.93687 
L 195.382071 30.957763 
L 196.391345 35.799083 
L 196.895982 36.543037 
L 197.400619 37.030197 
L 198.409892 34.874694 
L 198.914529 36.061333 
L 199.419166 39.916061 
L 199.923803 41.235609 
L 200.42844 40.397051 
L 200.933077 38.464081 
L 201.942351 44.726384 
L 202.446987 44.592917 
L 202.951624 46.734526 
L 203.456261 50.449801 
L 203.960898 51.33301 
L 204.465535 52.625914 
L 204.970172 51.664465 
L 205.474809 49.182262 
L 205.979446 49.331272 
L 206.484083 50.501064 
L 206.988719 50.496987 
L 207.493356 50.286255 
L 207.997993 50.522748 
L 208.50263 51.406927 
L 209.007267 53.496438 
L 209.511904 53.82179 
L 210.016541 54.651279 
L 210.521178 55.757541 
L 211.025815 56.497836 
L 211.530451 56.231164 
L 212.035088 54.268189 
L 212.539725 54.091009 
L 213.044362 55.393093 
L 214.053636 60.766704 
L 215.06291 62.895126 
L 215.567546 62.422795 
L 216.072183 61.71286 
L 216.57682 62.754441 
L 217.081457 62.639398 
L 217.586094 61.543266 
L 218.090731 59.495034 
L 218.595368 56.861312 
L 219.100005 60.917141 
L 219.604642 61.559098 
L 220.109278 55.318708 
L 220.613915 56.155498 
L 221.623189 62.880072 
L 222.127826 64.784374 
L 223.1371 65.701951 
L 223.641737 66.440368 
L 224.146374 66.691262 
L 224.65101 66.102502 
L 225.155647 65.101384 
L 226.164921 67.994788 
L 226.669558 67.095922 
L 227.174195 67.116549 
L 227.678832 66.95148 
L 228.688105 65.354758 
L 229.192742 64.876945 
L 229.697379 65.322228 
L 230.202016 66.450484 
L 230.706653 67.245244 
L 231.21129 67.596741 
L 232.220564 65.130308 
L 232.725201 66.046374 
L 233.229837 66.729548 
L 233.734474 64.1615 
L 234.239111 62.975725 
L 234.743748 61.100899 
L 235.248385 60.577817 
L 235.753022 60.928135 
L 236.257659 63.033639 
L 236.762296 64.576483 
L 237.771569 62.24251 
L 238.276206 63.6922 
L 238.780843 64.563622 
L 239.28548 64.878391 
L 239.790117 64.627579 
L 240.294754 62.657244 
L 240.799391 61.680089 
L 241.304028 61.141663 
L 241.808664 58.78028 
L 242.313301 58.754205 
L 242.817938 57.389616 
L 243.322575 55.052254 
L 243.827212 53.539622 
L 244.331849 53.416284 
L 244.836486 54.605043 
L 245.341123 52.965036 
L 245.84576 55.447711 
L 246.350396 55.119882 
L 246.855033 54.262423 
L 247.35967 51.651939 
L 247.864307 50.638834 
L 248.873581 49.110958 
L 249.378218 49.621959 
L 249.882855 49.6868 
L 250.892128 53.886685 
L 251.396765 53.174817 
L 251.901402 52.84196 
L 252.406039 53.668028 
L 252.910676 53.585587 
L 253.415313 54.122575 
L 253.91995 52.968011 
L 254.424587 54.182337 
L 254.929223 53.632659 
L 255.43386 46.48254 
L 255.938497 51.581954 
L 256.443134 51.137878 
L 256.947771 49.570752 
L 257.957045 45.276567 
L 258.461682 44.279792 
L 258.966319 41.955733 
L 259.470955 31.974129 
L 259.975592 39.098774 
L 260.984866 36.809071 
L 261.489503 36.533466 
L 261.99414 34.079507 
L 263.003414 30.975384 
L 263.508051 28.337861 
L 264.012687 22.591004 
L 264.517324 14.00683 
L 265.021961 15.806697 
L 265.526598 20.198905 
L 266.031235 21.655608 
L 266.535872 23.617538 
L 267.040509 22.258557 
L 267.545146 12.021512 
L 268.049782 13.018474 
L 268.554419 22.000928 
L 269.059056 18.058682 
L 269.563693 21.798035 
L 270.06833 19.004582 
L 270.572967 14.106083 
L 271.582241 24.442898 
L 272.086878 27.002979 
L 273.096151 22.771966 
L 273.600788 27.105092 
L 274.105425 29.793281 
L 274.610062 31.024459 
L 275.114699 26.560237 
L 275.619336 28.530936 
L 276.123973 29.973702 
L 276.62861 31.819437 
L 277.133246 27.337957 
L 277.637883 30.097701 
L 278.14252 27.423704 
L 278.647157 25.480527 
L 279.151794 27.150557 
L 279.656431 27.102822 
L 280.161068 26.84916 
L 280.665705 25.006307 
L 281.170341 24.487128 
L 281.674978 24.339296 
L 282.179615 26.164032 
L 282.684252 25.814469 
L 283.188889 27.526995 
L 283.693526 25.827986 
L 285.207437 22.057799 
L 286.721347 30.645766 
L 287.225984 32.180993 
L 287.730621 25.80003 
L 288.235258 26.023472 
L 288.739895 30.888156 
L 289.244532 30.79986 
L 289.749169 28.536745 
L 290.253805 25.141019 
L 290.758442 26.248888 
L 291.263079 26.291683 
L 291.767716 29.539043 
L 292.272353 33.692414 
L 292.77699 35.920458 
L 293.281627 34.577713 
L 293.786264 34.820909 
L 294.2909 37.199431 
L 294.795537 37.625775 
L 295.300174 37.877701 
L 295.804811 37.870834 
L 296.309448 40.388308 
L 296.814085 40.529267 
L 297.318722 40.290048 
L 297.823359 39.829625 
L 298.327996 42.209668 
L 298.832632 43.504417 
L 299.337269 46.970612 
L 299.841906 47.895532 
L 300.346543 49.622677 
L 300.85118 50.899458 
L 301.355817 48.192834 
L 301.860454 53.437636 
L 302.365091 54.774813 
L 302.869728 53.464327 
L 303.374364 53.157236 
L 303.879001 51.007147 
L 304.383638 50.141442 
L 304.888275 50.501619 
L 305.392912 51.530314 
L 306.402186 52.392294 
L 306.906823 51.721815 
L 307.411459 51.858042 
L 307.916096 51.161752 
L 308.420733 53.263365 
L 308.92537 56.711973 
L 309.430007 58.237971 
L 309.934644 57.347718 
L 310.439281 55.510365 
L 310.943918 57.0088 
L 311.448555 57.224757 
L 311.953191 54.431745 
L 312.457828 46.808202 
L 312.962465 45.955611 
L 313.467102 53.55863 
L 313.971739 55.012989 
L 314.476376 55.646281 
L 314.981013 54.996012 
L 315.48565 58.863191 
L 315.990287 56.414978 
L 316.494923 58.026279 
L 316.99956 53.990953 
L 317.504197 54.754674 
L 318.008834 55.869243 
L 318.513471 59.515192 
L 319.018108 58.435048 
L 319.522745 58.119223 
L 320.027382 59.538573 
L 320.532018 61.937848 
L 321.036655 61.17274 
L 321.541292 58.793755 
L 322.550566 60.855633 
L 323.55984 61.493678 
L 324.569114 61.396791 
L 325.07375 61.7584 
L 325.578387 62.617791 
L 326.083024 62.45716 
L 326.587661 61.346933 
L 327.092298 61.127689 
L 327.596935 63.992211 
L 328.101572 64.804535 
L 328.606209 64.455882 
L 329.110846 62.236652 
L 330.120119 62.482731 
L 330.624756 63.376933 
L 331.129393 61.84054 
L 331.63403 61.769544 
L 332.138667 63.653029 
L 332.643304 63.532357 
L 333.652577 62.517851 
L 334.157214 64.239626 
L 334.661851 65.41548 
L 335.166488 65.315832 
L 335.671125 65.847761 
L 336.175762 68.072838 
L 336.680399 69.0761 
L 337.185036 68.900854 
L 338.194309 69.15184 
L 338.698946 68.28253 
L 339.203583 68.618619 
L 339.70822 68.658282 
L 340.212857 67.712932 
L 340.717494 68.978668 
L 341.222131 68.920945 
L 341.726768 68.148201 
L 342.231405 68.015117 
L 342.736041 69.086325 
L 343.240678 68.43501 
L 343.745315 67.506157 
L 344.249952 67.709756 
L 344.754589 68.164101 
L 345.259226 67.815366 
L 345.763863 69.733582 
L 346.2685 70.033946 
L 346.773136 70.58721 
L 347.277773 69.339864 
L 347.78241 71.337186 
L 348.287047 71.838906 
L 348.791684 72.012989 
L 349.296321 71.028336 
L 349.800958 70.401431 
L 350.305595 71.224566 
L 350.810232 71.807346 
L 351.819505 70.668257 
L 352.324142 71.248241 
L 352.828779 72.560239 
L 353.333416 72.526171 
L 353.838053 72.27235 
L 354.34269 73.370676 
L 354.847327 73.605187 
L 355.351964 72.242847 
L 355.8566 72.965963 
L 356.361237 68.648985 
L 357.370511 68.12664 
L 357.875148 70.725996 
L 358.379785 72.327195 
L 358.884422 71.299489 
L 359.389059 71.804421 
L 360.398332 74.65734 
L 360.902969 72.846164 
L 361.407606 72.505031 
L 362.41688 74.471769 
L 362.921517 74.38688 
L 363.426154 73.809941 
L 363.930791 73.504341 
L 364.435427 74.336117 
L 364.940064 73.033694 
L 365.444701 72.464979 
L 365.949338 72.364942 
L 366.453975 71.294456 
L 366.958612 72.593966 
L 367.463249 72.492625 
L 367.967886 74.390077 
L 368.472523 72.508771 
L 368.977159 73.033271 
L 369.481796 71.866779 
L 369.986433 69.536043 
L 370.49107 68.374661 
L 370.995707 70.57724 
L 371.500344 67.260759 
L 372.004981 67.153688 
L 372.509618 67.403795 
L 373.014254 67.975808 
L 373.518891 67.113746 
L 374.023528 64.726245 
L 374.528165 65.075558 
L 375.032802 66.135872 
L 375.537439 65.750781 
L 376.546713 65.964916 
L 377.05135 65.722061 
L 377.555986 67.874403 
L 378.060623 66.778107 
L 378.56526 66.266086 
L 379.069897 62.134312 
L 379.574534 61.03536 
L 381.088445 55.071693 
L 381.593082 54.781743 
L 382.097718 55.992177 
L 382.602355 56.77703 
L 383.106992 57.925389 
L 383.611629 60.003409 
L 384.116266 61.175933 
L 384.620903 61.142226 
L 385.12554 63.13527 
L 385.630177 67.085319 
L 386.63945 62.294247 
L 387.144087 59.888161 
L 387.648724 55.88183 
L 388.153361 55.398541 
L 389.162635 49.976387 
L 389.667272 48.542857 
L 390.171909 47.518306 
L 390.676545 46.127489 
L 391.181182 49.824566 
L 391.685819 48.705613 
L 392.190456 47.294124 
L 392.695093 46.313055 
L 393.19973 47.962766 
L 393.704367 48.713378 
L 394.71364 43.77371 
L 395.218277 40.479361 
L 395.722914 40.409225 
L 396.227551 38.481632 
L 396.732188 37.163523 
L 397.236825 35.415931 
L 397.741462 32.129892 
L 398.246099 31.140616 
L 398.750736 28.990016 
L 399.255372 20.77977 
L 399.760009 22.283932 
L 400.264646 24.236698 
L 400.769283 24.070508 
L 401.27392 21.007268 
L 401.27392 21.007268 
" style="fill:none;stroke:#ff0000;stroke-linecap:square;"/>
   </g>
   <g id="patch_7">
    <path d="M 401.27392 81.03528 
L 401.27392 4.5 
" style="fill:none;stroke:#ff0000;stroke-linecap:square;stroke-linejoin:miter;stroke-width:0.6;"/>
   </g>
  </g>
 </g>
 <defs>
  <clipPath id="p6d332a45ce">
   <rect height="76.53528" width="362.83392" x="38.44" y="4.5"/>
  </clipPath>
 </defs>
</svg>
